<?xml version="1.0" standalone="no"?>
<!DOCTYPE svg PUBLIC "-//W3C//DTD SVG 1.1//EN" "http://www.w3.org/Graphics/SVG/1.1/DTD/svg11.dtd">
<svg xmlns="http://www.w3.org/2000/svg"><metadata>This SVG WebFont was generated by YouWorkForThem.
Copyright (c) 2008 by Ramiz Guseynov. All rights reserved.</metadata><defs><font horiz-adv-x="1292" id="ywftsvg"><font-face ascent="1536" bbox="-250 -432 2537.04 1880" cap-height="1434" descent="-512" font-family="" font-stretch="normal" font-weight="700" panose-1="2 0 5 6 0 0 0 2 0 4" underline-position="0" underline-thickness="0" unicode-range="U+0020-FB02" units-per-em="2048" x-height="1024"/><missing-glyph horiz-adv-x="450"/><glyph glyph-name=".notdef" horiz-adv-x="450"/><glyph glyph-name="glyph1" horiz-adv-x="0"/><glyph glyph-name="glyph2" horiz-adv-x="681"/><glyph glyph-name="space" horiz-adv-x="450" unicode=" "/><glyph d="M584 1434l-172 -1049h-201l123 1049h250zM143 0l33 231h232l-33 -231h-232z" glyph-name="exclam" horiz-adv-x="618" unicode="!"/><glyph d="M172 952l68 482h211l-99 -482h-180zM526 952l68 482h209l-98 -482h-179z" glyph-name="quotedbl" horiz-adv-x="808" unicode="&quot;"/><glyph d="M262 838l31 217h229l109 379h190l-108 -379h303l106 379h191l-107 -379h191l-31 -217h-223l-66 -240h195l-31 -219h-227l-109 -379h-190l108 379h-301l-108 -379h-191l109 379h-197l31 219h227l68 240h-199zM651 838l-67 -240h301l67 240h-301z" glyph-name="numbersign" horiz-adv-x="1433" unicode="#"/><glyph d="M846 427q0 62 -46 103t-116 59.5t-150.5 46.5t-150.5 58.5t-116 99t-46 167.5q0 178 107.5 299.5t292.5 156.5l16 115h231l-16 -111q160 -13 240 -43l28 -10l-41 -213q-205 45 -335 45t-206.5 -42t-76.5 -144q0 -70 64.5 -111t156.5 -63.5t184 -53t156.5 -104.5 t64.5 -193q0 -199 -111.5 -323.5t-320.5 -151.5l-16 -112h-231l16 108q-153 8 -272 43l-41 10l39 218q215 -49 389 -50q229 0 268 67t39 129z" glyph-name="dollar" horiz-adv-x="1208" unicode="$"/><glyph d="M543 678q-133 0 -214 71.5t-81 186.5q0 48 24 200t120 235t230 83t217 -70.5t83 -187.5q0 -56 -25 -204t-123 -231t-231 -83zM709 1178q-1 96 -101 96t-116 -96q-33 -197 -33 -240q-1 -80 99 -80t118 96q33 170 33 224zM479 0l856 1434h193l-850 -1434h-199zM1388 -20 q-134 0 -214 71.5t-80 186.5q0 48 24 200t120 235t230 83t216.5 -71t82.5 -187q1 -56 -24 -204t-123 -231t-232 -83zM1456 575q-102 0 -119 -96q-33 -197 -32 -239q-1 -80 99 -80t118 96q32 170 32 224t-26.5 74.5t-71.5 20.5z" glyph-name="percent" horiz-adv-x="1914" unicode="%"/><glyph d="M690 1241q-61 0 -111.5 -29.5t-50.5 -85.5q0 -94 117 -303t254 -387q8 31 10 53l31 222h217l-33 -232q-16 -103 -59 -196l-16 -29q47 -55 79 -55h58l-10 -201q-57 -16 -105 -16q-92 0 -184 96q-139 -98 -339 -98t-304.5 105t-104.5 271q0 336 226 490q-68 143 -68 250 q0 174 117.5 266t286.5 92t298 -24l45 -11l-55 -209q-164 31 -299 31zM584 203q98 0 159 37q-174 205 -284 422q-80 -88 -80 -259q0 -200 205 -200z" glyph-name="ampersand" horiz-adv-x="1288" unicode="&amp;"/><glyph d="M172 952l68 482h211l-99 -482h-180z" glyph-name="quotesingle" horiz-adv-x="456" unicode="'"/><glyph d="M131 -47q0 14 4 47l150 1067q25 172 162 279.5t341 107.5l-32 -229q-94 0 -161 -45t-77 -113l-141 -1001q-10 -61 -10 -86q0 -61 54 -102.5t140 -41.5l-31 -225q-172 0 -285.5 98t-113.5 244z" glyph-name="parenleft" horiz-adv-x="714" unicode="("/><glyph d="M655 1116q0 -16 -4 -49l-149 -1067q-25 -170 -166 -279.5t-336 -109.5l31 225q92 0 159.5 47t77.5 115l150 1069l2 18q0 61 -53.5 100.5t-141.5 39.5l33 229q172 0 284.5 -96t112.5 -242z" glyph-name="parenright" horiz-adv-x="714" unicode=")"/><glyph d="M725 1456l-31 -227l226 69l32 -204l-219 -68l107 -182l-191 -123l-106 178l-158 -186l-152 131l156 176l-211 74l96 200l209 -69l33 231h209z" glyph-name="asterisk" horiz-adv-x="978" unicode="*"/><glyph d="M600 1053h225l-47 -344h352l-32 -224h-353l-47 -344h-225l47 344h-352l33 224h352z" glyph-name="plus" horiz-adv-x="1216" unicode="+"/><glyph d="M166 0l33 233h233l-24 -180q-25 -176 -109 -247.5t-193 -71.5l17 123q106 0 127 143h-84z" glyph-name="comma" horiz-adv-x="563" unicode=","/><glyph d="M745 702l-30 -219h-547l31 219h546z" glyph-name="hyphen" horiz-adv-x="833" unicode="-"/><glyph d="M156 0l30 231h232l-31 -231h-231z" glyph-name="period" horiz-adv-x="559" unicode="."/><glyph d="M-8 0l620 1434h232l-625 -1434h-227z" glyph-name="slash" horiz-adv-x="735" unicode="/"/><glyph d="M1212 1051q0 -106 -82 -609q-35 -205 -185 -333.5t-358 -128.5t-331 114.5t-123 292.5q0 104 82 602q35 205 185.5 335t358.5 130t330.5 -112.5t122.5 -290.5zM971 1023q0 89 -59.5 145.5t-171.5 56.5t-192.5 -66.5t-96.5 -169.5q-80 -501 -80 -585t61.5 -140.5 t173.5 -56.5t190.5 66.5t94.5 168.5q80 492 80 581z" glyph-name="zero" horiz-adv-x="1247" unicode="0"/><glyph d="M154 1087l30 228l269 119h221l-201 -1434h-240l166 1186z" glyph-name="one" horiz-adv-x="708" unicode="1"/><glyph d="M684 1454q203 0 314.5 -83t111.5 -251t-64.5 -284.5t-197.5 -221.5l-486 -387h631l-30 -227h-932l35 258l612 498q59 47 93 81.5t64.5 96t30.5 133.5q0 164 -227 164q-140 0 -328 -39l-57 -12l18 217q209 57 412 57z" glyph-name="two" horiz-adv-x="1126" unicode="2"/><glyph d="M1020 555q0 -262 -148.5 -418.5t-425.5 -156.5q-117 0 -222 14t-150 29l-47 14l43 221q172 -57 385 -57q160 0 240.5 88t80.5 229q0 114 -77.5 137t-176.5 23h-121l27 194l328 336h-555l32 226h863l-29 -205l-338 -340q291 -53 291 -334z" glyph-name="three" horiz-adv-x="1110" unicode="3"/><glyph d="M31 287l26 198l639 949h265l-623 -920h395l51 356h240l-51 -356h143l-31 -227h-143l-41 -287h-239l40 287h-671z" glyph-name="four" horiz-adv-x="1126" unicode="4"/><glyph d="M757 278.5q85 77.5 85 250.5t-202 173q-165 0 -331 -65l-55 -23l-74 158l146 662h827l-33 -228h-612l-64 -309q119 29 230 29q416 0 416 -357q0 -268 -152 -428.5t-444 -160.5q-113 0 -215.5 14t-147.5 29l-47 14l43 221q229 -57 387 -57t243 77.5z" glyph-name="five" horiz-adv-x="1177" unicode="5"/><glyph d="M774 1231q-149 0 -224 -74t-97 -190l-17 -103q152 62 325 62t277.5 -92.5t104.5 -270.5q0 -260 -152.5 -421.5t-412.5 -161.5q-209 0 -326 114.5t-117 294.5q0 106 76 580q35 209 184.5 347t388.5 138q185 0 330 -37l49 -12l-41 -219q-199 45 -348 45zM676 702 q-98 0 -227 -45l-43 -14q-27 -133 -27 -228t55 -154.5t179 -59.5t204 82t80 235q0 184 -221 184z" glyph-name="six" horiz-adv-x="1232" unicode="6"/><glyph d="M170 1208l31 226h870l-31 -226l-710 -1208h-248l717 1208h-629z" glyph-name="seven" horiz-adv-x="962" unicode="7"/><glyph d="M236 989q0 205 153.5 335t365.5 130t328.5 -100t116.5 -265t-75.5 -243t-96.5 -92l-18 -13q80 -54 105.5 -139.5t25.5 -140.5q0 -227 -152.5 -354t-408.5 -127q-205 0 -336 96t-131 259t74.5 261t127.5 131l25 14q-104 104 -104 248zM616 203q112 0 198.5 54.5 t86.5 158.5t-73.5 156.5t-179.5 52.5t-199 -63.5t-93 -178.5q0 -84 74 -132t186 -48zM692.5 850q102.5 0 185.5 61.5t83 163.5q0 70 -58.5 114t-157.5 44t-183.5 -54.5t-84.5 -145.5t56.5 -137t159 -46z" glyph-name="eight" horiz-adv-x="1243" unicode="8"/><glyph d="M571 203q135 0 210 73.5t98 190.5l16 102q-152 -61 -325 -61t-277.5 92t-104.5 270q0 260 153 422t413 162q209 0 325.5 -114.5t116.5 -295.5q0 -106 -76 -579q-35 -209 -184.5 -347t-388.5 -138q-177 0 -330 36l-49 13l41 219q164 -45 362 -45zM655 731q90 0 228 45 l43 15q26 133 26 228t-55 154.5t-179 59.5t-204 -82t-80 -236q0 -184 221 -184z" glyph-name="nine" horiz-adv-x="1232" unicode="9"/><glyph d="M127 0l33 231h231l-33 -231h-231zM238 793l32 231h232l-33 -231h-231z" glyph-name="colon" horiz-adv-x="559" unicode=":"/><glyph d="M250 793l33 231h231l-33 -231h-231zM137 0l35 233h234l-27 -180q-25 -176 -109 -247.5t-192 -71.5l18 123q106 0 125 143h-84z" glyph-name="semicolon" horiz-adv-x="563" unicode=";"/><glyph d="M162 504l24 186l1012 451l-35 -250l-710 -295l628 -295l-34 -248z" glyph-name="less" horiz-adv-x="1245" unicode="&lt;"/><glyph d="M1100 485l-31 -217h-932l31 217h932zM1163 926l-30 -217h-932l30 217h932z" glyph-name="equal" horiz-adv-x="1218" unicode="="/><glyph d="M1165 690l-24 -186l-1012 -451l35 250l710 295l-628 295l35 248z" glyph-name="greater" horiz-adv-x="1245" unicode=">"/><glyph d="M669 1456q208 0 323.5 -84t115.5 -252q0 -217 -85 -298.5t-189.5 -128t-187 -101.5t-105.5 -221h-224q27 241 124 332t187.5 128t160 79t69.5 175q0 145 -225 146q-167 0 -346 -39l-54 -12l13 217q215 59 423 59zM262 0l31 231h231l-30 -231h-232z" glyph-name="question" horiz-adv-x="1110" unicode="?"/><glyph d="M1303 37q-72 0 -129.5 22.5t-75.5 46.5l-21 23q-149 -90 -283 -90t-205 69.5t-71 175.5t51 408q25 131 127.5 215t266.5 84q84 0 177 -16.5t144 -32.5l51 -14l-80 -561q-2 -12 -2 -35q0 -98 90 -99q65 0 86.5 55.5t30.5 117.5q68 406 68 514q0 150 -132 249t-380 99 t-412 -113t-192 -278q-96 -539 -96 -698t134 -260t350 -101t359 35l53 12l11 -187q-209 -47 -426 -47q-307 0 -488.5 149.5t-181.5 375.5q0 147 96 721q43 252 264 414.5t545 162.5t506 -147.5t182 -368.5q0 -125 -78 -586q-18 -113 -77.5 -187.5t-124.5 -101t-137 -26.5z M825 223q61 0 176 51l37 17l70 491q-102 23 -175 23t-115 -40t-52 -101q-31 -180 -41 -302l-2 -28q0 -111 102 -111z" glyph-name="at" horiz-adv-x="1769" unicode="@"/><glyph d="M641 1434h307l252 -1434h-254l-63 373h-475l-166 -373h-250zM848 596l-88 573l-252 -573h340z" glyph-name="A" unicode="A"/><glyph d="M846 1434q182 0 276.5 -86t94.5 -233t-66 -236.5t-113 -116.5l-20 -12q12 -4 74.5 -60t62.5 -198q0 -233 -142.5 -362.5t-391.5 -129.5h-508l200 1434h533zM838 1206h-318l-49 -350h293q92 0 152.5 58.5t60.5 156.5q0 135 -139 135zM645 227q131 0 198.5 56.5t67.5 191.5 q0 156 -180 156h-293l-55 -404h262z" glyph-name="B" horiz-adv-x="1243" unicode="B"/><glyph d="M786 1227q-124 0 -212.5 -75t-106.5 -179q-74 -427 -74 -531t65.5 -169.5t188.5 -65.5t316 35l71 12l-22 -219q-229 -55 -398 -55q-217 0 -342 119.5t-125 301.5q0 131 76 572q37 215 191.5 348t408.5 133q156 0 320 -41l53 -12l-41 -219q-245 45 -369 45z" glyph-name="C" horiz-adv-x="1150" unicode="C"/><glyph d="M815 1434q217 0 345 -112t128 -292q0 -111 -76 -569q-33 -205 -187.5 -333t-393.5 -128h-518l200 1434h502zM784 1206h-264l-137 -979h264q133 0 219 66.5t103 167.5q74 449 73.5 539t-68 148t-190.5 58z" glyph-name="D" horiz-adv-x="1325" unicode="D"/><glyph d="M313 1434h949l-31 -228h-711l-49 -350h651l-32 -225h-652l-55 -404h731l-33 -227h-968z" glyph-name="E" horiz-adv-x="1234" unicode="E"/><glyph d="M313 1434h940l-30 -228h-703l-53 -372h643l-31 -228h-643l-86 -606h-237z" glyph-name="F" horiz-adv-x="1175" unicode="F"/><glyph d="M147 401q0 131 76 572q35 213 193.5 347t414.5 134q121 0 238 -14.5t172 -30.5l55 -14l-45 -221q-254 53 -456 53q-131 0 -219.5 -75t-106.5 -179q-74 -425 -74 -531t66.5 -171.5t182.5 -65.5t233 18l36 6l45 320h-258l31 225h500l-101 -711q-262 -83 -496 -83 t-360.5 118.5t-126.5 302.5z" glyph-name="G" horiz-adv-x="1316" unicode="G"/><glyph d="M1139 1434h241l-200 -1434h-242l88 629h-586l-88 -629h-239l200 1434h240l-80 -578h586z" glyph-name="H" horiz-adv-x="1394" unicode="H"/><glyph d="M553 1434l-201 -1434h-239l200 1434h240z" glyph-name="I" horiz-adv-x="567" unicode="I"/><glyph d="M165 201q52 0 76.5 27.5t33 59t16.5 95.5l147 1051h240l-156 -1104q-27 -186 -120 -268t-224 -82q-60 0 -153 20l-31 8l31 201q88 -8 140 -8z" glyph-name="J" horiz-adv-x="679" unicode="J"/><glyph d="M551 1434l-92 -666l620 666h287l-653 -682l495 -752h-305l-452 719l-101 -719h-237l200 1434h238z" glyph-name="K" horiz-adv-x="1300" unicode="K"/><glyph d="M313 1434h240l-168 -1207h639l-33 -227h-878z" glyph-name="L" horiz-adv-x="1083" unicode="L"/><glyph d="M1604 1434l-201 -1434h-240l137 973l35 143l-86 -153l-305 -412h-217l-188 407l-43 158l-9 -149l-135 -967h-239l200 1434h275l278 -660l463 660h275z" glyph-name="M" horiz-adv-x="1617" unicode="M"/><glyph d="M1149 1434h237l-200 -1434h-268l-377 907l-52 183l-12 -189l-127 -901h-237l200 1434h269l376 -908l54 -182l12 195z" glyph-name="N" horiz-adv-x="1400" unicode="N"/><glyph d="M1329 1026q0 -125 -76 -565q-33 -205 -200 -343t-399 -138t-369.5 121.5t-137.5 304.5q0 109 76 567q33 207 198 344t397 137t371.5 -123t139.5 -305zM804 1233q-132 0 -227.5 -77t-113.5 -181q-76 -465 -76 -551t77 -154.5t208 -68.5t226.5 76t113.5 182q76 455 76 545 t-76 159.5t-208 69.5z" glyph-name="O" horiz-adv-x="1376" unicode="O"/><glyph d="M895 1434q166 0 254 -84t88 -203t-41 -336q-29 -154 -135.5 -247t-290.5 -93h-352l-66 -471h-239l200 1434h582zM991 1108q0 98 -123 98h-346l-71 -510h346q135 0 153 113q41 209 41 299z" glyph-name="P" horiz-adv-x="1218" unicode="P"/><glyph d="M1329 1026q0 -125 -76 -565q-23 -123 -88 -219l107 -170l-176 -115l-90 127q-158 -104 -371 -104t-350.5 121.5t-137.5 304.5q0 109 76 567q33 207 198 344t397 137t371.5 -123t139.5 -305zM804 1233q-132 0 -227.5 -77t-113.5 -181q-76 -465 -76 -541l4 -37 q48 41 143 75t175 34t151.5 -23.5t104.5 -48.5l32 -24q13 33 15 49q76 420 76 527t-76 177t-208 70zM666 201q49 0 99 13t75 28l26 12q-74 63 -174 63t-180 -51l-25 -16q64 -49 179 -49z" glyph-name="Q" horiz-adv-x="1386" unicode="Q"/><glyph d="M897 1434q166 0 253 -84t87 -204q-1 -120 -27 -251t-58 -189.5t-85.5 -107t-103.5 -66.5l-23 -8l219 -524h-282l-191 494h-264l-70 -494h-239l200 1434h584zM993 1108q0 98 -123 98h-348l-67 -483h348q135 0 153 111q37 207 37 274z" glyph-name="R" unicode="R"/><glyph d="M741 1227q-115 0 -202.5 -49.5t-87.5 -149.5q0 -74 72.5 -117t176 -66.5t208 -56t177 -112.5t72.5 -210t-52 -228.5t-185 -178t-383 -79.5q-119 0 -231.5 14t-166.5 31l-51 14l43 219q209 -55 424 -55q350 0 350 213q0 78 -72.5 124t-176 70.5t-206 57t-175 111.5 t-72.5 201t48 215t170.5 176t333.5 83t392 -41l53 -14l-43 -217q-197 45 -416 45z" glyph-name="S" horiz-adv-x="1234" unicode="S"/><glyph d="M160 1206l30 228h1000l-31 -228h-381l-170 -1206h-239l170 1206h-379z" glyph-name="T" horiz-adv-x="1081" unicode="T"/><glyph d="M677 -20q-238 0 -374.5 116.5t-136.5 298.5q0 59 6 99l133 940h240l-131 -924q-6 -37 -6 -88q0 -98 74 -157.5t216 -59.5t230 86t108 235l129 908h240l-133 -947q-31 -223 -194 -365t-401 -142z" glyph-name="U" horiz-adv-x="1406" unicode="U"/><glyph d="M440 1434l172 -1211l512 1211h250l-639 -1434h-307l-238 1434h250z" glyph-name="V" horiz-adv-x="1265" unicode="V"/><glyph d="M938 1434h289l102 -1160l354 1160h250l-465 -1434h-315l-115 1114l-428 -1114h-315l-64 1434h250l31 -1155z" glyph-name="W" horiz-adv-x="1865" unicode="W"/><glyph d="M502 1434l248 -498l387 498h278l-551 -699l381 -735h-280l-271 541l-424 -541h-278l586 735l-357 699h281z" glyph-name="X" horiz-adv-x="1337" unicode="X"/><glyph d="M459 1434l243 -637l420 637h279l-610 -869l-80 -565h-242l80 565l-369 869h279z" glyph-name="Y" horiz-adv-x="1282" unicode="Y"/><glyph d="M1264 1200l-887 -973h760l-33 -227h-1053l33 233l885 973h-731l30 228h1028z" glyph-name="Z" horiz-adv-x="1257" unicode="Z"/><glyph d="M563 -143l-31 -226h-448l254 1803h448l-32 -230h-215l-191 -1347h215z" glyph-name="bracketleft" horiz-adv-x="714" unicode="["/><glyph d="M422 1434l221 -1434h-229l-224 1434h232z" glyph-name="backslash" horiz-adv-x="735" unicode="\"/><glyph d="M2 -369l31 226h217l190 1347h-217l33 230h451l-254 -1803h-451z" glyph-name="bracketright" horiz-adv-x="716" unicode="]"/><glyph d="M578 1434h178l239 -777h-233l-135 484l-273 -484h-233z" glyph-name="asciicircum" horiz-adv-x="1079" unicode="^"/><glyph d="M-4 -154h1180l-25 -174h-1180z" glyph-name="underscore" horiz-adv-x="1181" unicode="_"/><glyph d="M614 1137h-231l-272 297h292z" glyph-name="grave" horiz-adv-x="546" unicode="`"/><glyph d="M882 -20q-52 0 -94.5 26.5t-54.5 50.5l-10 27q-158 -104 -299 -104t-219 72.5t-78 202.5t57 443q29 156 143.5 251t301.5 95q90 0 192.5 -16t159.5 -33l57 -16l-102 -727l-2 -21q0 -45 37 -45l49 7l-6 -193q-80 -20 -132 -20zM462 190q48 0 111.5 34t106.5 67l41 33 l70 489q-87 18 -181 18t-142 -43t-60 -106q-49 -240 -50 -367q0 -55 28 -90t76 -35z" glyph-name="a" horiz-adv-x="1120" unicode="a"/><glyph d="M742 1038q134 0 209 -78.5t75 -205.5t-55 -430q-27 -152 -137 -248t-296 -96t-358 43l-59 14l196 1397h226l-66 -459q131 63 265 63zM799 706q0 54 -28 88.5t-79 34.5q-98 0 -209 -51l-37 -18l-77 -553q57 -16 196 -17q76 0 124.5 44.5t60.5 105.5q49 312 49 366z" glyph-name="b" horiz-adv-x="1075" unicode="b"/><glyph d="M127 266q0 122 55 436q27 150 139.5 246t303.5 96q123 0 260 -20l39 -8l-52 -211q-152 29 -280 29q-72 0 -124 -43t-62 -101q-49 -281 -50 -371q0 -53 39 -92t129 -39t238 29l39 10l-2 -209q-162 -38 -329 -38t-255 82t-88 204z" glyph-name="c" horiz-adv-x="874" unicode="c"/><glyph d="M934 227q0 -41 35 -41l51 7l-8 -193q-80 -20 -132 -20t-94.5 26.5t-52.5 50.5l-12 27q-164 -104 -304 -104t-215 78.5t-75 204.5t55 429q27 152 140.5 249t300.5 97q72 0 163 -26l29 -11l62 433h225l-166 -1182q-2 -8 -2 -25zM383 223q29 -33 97 -33t194 68l41 23l71 516 q-78 33 -174 33t-146 -45.5t-60 -106.5q-52 -294 -52 -358t29 -97z" glyph-name="d" horiz-adv-x="1101" unicode="d"/><glyph d="M487 -20q-170 0 -265 86t-95 221q0 102 55 413q25 143 152 243.5t293 100.5t258 -81.5t92 -208.5t-83 -213t-224 -129l-316 -95q0 -57 43 -92t154 -35t260 35l49 13l2 -199q-156 -59 -375 -59zM602 834q-72 0 -130.5 -43.5t-68.5 -106.5l-22 -141l266 82q100 33 101 102 q0 107 -146 107z" glyph-name="e" horiz-adv-x="1005" unicode="e"/><glyph d="M670 1454q38 0 186 -16l39 -6l-41 -205q-125 18 -211 18q-78 0 -92 -100l-16 -121h276l-29 -211h-276l-166 -1182h-225l166 1182h-144l29 211h143l19 131q18 135 109 217t233 82z" glyph-name="f" horiz-adv-x="724" unicode="f"/><glyph d="M395 416q0 -129 113 -129q98 0 205 49l35 18l63 465q-94 14 -201 15q-147 0 -180 -152q-35 -170 -35 -266zM162 386q0 93 45 312q31 154 140.5 250t296.5 96t357 -43l60 -14l-141 -1012q-23 -154 -149 -259t-310 -105q-139 0 -233.5 63.5t-94.5 175.5t69.5 170t162.5 107 q-24 0 -65.5 15.5t-68 37t-48 67.5t-21.5 139zM371 -109q0 -69 97 -69t157.5 48.5t68.5 111.5l23 153q-201 -104 -287 -153q-59 -33 -59 -91z" glyph-name="g" horiz-adv-x="1089" unicode="g"/><glyph d="M965 227q0 -41 36 -41l50 7l-9 -193q-86 -20 -120 -20q-186 0 -187 200q0 41 4 64l62 442q2 10 2 31q0 113 -107 112q-85 0 -209 -55l-41 -18l-106 -756h-225l202 1434h226l-66 -465q137 69 273 69t209 -75.5t73 -200.5q0 -41 -4 -64l-61 -446q-2 -8 -2 -25z" glyph-name="h" horiz-adv-x="1124" unicode="h"/><glyph d="M330 -20q-186 0 -187 200q0 27 4 64l111 780h225l-106 -754q-4 -25 -4 -43q0 -41 37 -41l47 7l-6 -193q-86 -20 -121 -20zM279 1200l32 234h234l-33 -234h-233z" glyph-name="i" horiz-adv-x="555" unicode="i"/><glyph d="M287 1200l32 234h234l-33 -234h-233zM-6 -389q-42 0 -150 16l-24 6l49 199q66 -12 149 -12q78 0 93 102l155 1102h226l-158 -1114q-18 -135 -109.5 -217t-230.5 -82z" glyph-name="j" horiz-adv-x="532" unicode="j"/><glyph d="M807 776q0 60 -62 60q-30 0 -108 -33t-137 -66l-62 -32l-24 -166q174 61 266 110t109.5 72.5t17.5 54.5zM811 1042q111 0 171 -69t60 -171t-80.5 -193t-201.5 -140l108 -213q33 -70 68 -70l53 7l-8 -193q-86 -20 -121 -20q-119 0 -168 106l-137 295l-170 -55l-47 -326 h-223l202 1434h224l-72 -512q60 42 166 81t176 39z" glyph-name="k" horiz-adv-x="1073" unicode="k"/><glyph d="M330 -20q-186 0 -187 200q0 41 4 64l168 1192h226l-166 -1184q-2 -8 -2 -25q0 -41 37 -41l47 7l-6 -193q-86 -20 -121 -20z" glyph-name="l" horiz-adv-x="550" unicode="l"/><glyph d="M1374 -20q-184 0 -184 198q0 43 4 66l59 426q4 37 4 49q0 53 -30.5 85t-84.5 32t-145 -50l-30 -18l-109 -768h-223l96 682l6 53q0 43 -23.5 72t-61.5 29q-75 0 -175 -66l-35 -20l-104 -750h-223l143 1024h205l4 -63q139 82 260 81q59 0 103 -23.5t59 -45.5l14 -23 q152 92 289 92t215 -73.5t78 -204.5q0 -43 -4 -66l-64 -446l-2 -21q0 -45 39 -45l49 7l-8 -193q-86 -20 -121 -20z" glyph-name="m" horiz-adv-x="1576" unicode="m"/><glyph d="M922 -20q-186 0 -187 200q0 41 4 64l60 424q4 37 4 49q0 119 -107 119q-43 0 -106.5 -21.5t-104.5 -44.5l-41 -20l-104 -750h-225l143 1024h205l4 -66q147 86 281 86t209 -77.5t75 -204.5q0 -35 -4 -64l-63 -446l-2 -21q0 -45 38 -45l50 7l-9 -193q-86 -20 -120 -20z" glyph-name="n" horiz-adv-x="1124" unicode="n"/><glyph d="M503 -20q-181 0 -278.5 85t-97.5 210t53 425q27 152 140.5 248t295.5 96t281.5 -88t99.5 -208t-53 -424q-27 -150 -143.5 -247t-297.5 -97zM770 692q0 70 -45 106t-126 36t-132 -41t-64 -105q-47 -258 -47 -366q0 -57 44 -94.5t125 -37.5t133.5 42.5t62.5 103.5 q49 286 49 356z" glyph-name="o" horiz-adv-x="1046" unicode="o"/><glyph d="M467 1024v-57q158 78 262 77q154 0 229.5 -77.5t75.5 -198.5t-53 -436q-27 -154 -137.5 -253t-294.5 -99q-89 0 -172 32l-31 11l-53 -392h-225l194 1393h205zM807 690q1 144 -103 144q-85 0 -212 -62l-43 -20l-72 -525q76 -37 172 -37t146.5 46.5t62.5 109.5 q49 266 49 344z" glyph-name="p" horiz-adv-x="1083" unicode="p"/><glyph d="M414 -14q-134 0 -210.5 79.5t-76.5 208.5q0 86 55 426q27 152 138.5 248t297.5 96t357 -43l59 -14l-190 -1356h-226l58 418q-128 -63 -262 -63zM461 195q98 0 209 51l37 18l77 553q-57 16 -196 17q-76 0 -123 -44.5t-59 -105.5q-52 -292 -52 -356t28 -98.5t79 -34.5z" glyph-name="q" horiz-adv-x="1062" unicode="q"/><glyph d="M786 1044l-28 -210q-84 0 -164 -34t-119 -67l-37 -35l-98 -698h-225l143 1024h207l-6 -98q59 44 153 81t174 37z" glyph-name="r" horiz-adv-x="698" unicode="r"/><glyph d="M555 834q-156 0 -156 -105q0 -39 48.5 -62.5t117 -42t137 -44t116.5 -84t48 -148.5q0 -186 -121.5 -277t-310.5 -91t-311 40l-43 13l57 203q161 -46 281 -46t167.5 27t47.5 90t-128 94.5t-232.5 84t-104.5 212.5t115.5 253t288.5 93t288 -32l45 -11l-53 -204 q-178 37 -297 37z" glyph-name="s" horiz-adv-x="946" unicode="s"/><glyph d="M406 256q0 -68 65 -68t152 13l26 4l-16 -203q-106 -22 -223 -22t-176.5 61t-59.5 166q0 25 4 57l78 549h-145l28 211h146l34 246h226l-35 -246h268l-28 -211h-269l-71 -508q-4 -37 -4 -49z" glyph-name="t" horiz-adv-x="716" unicode="t"/><glyph d="M436 -20q-147 0 -222 77.5t-75 204.5q0 23 4 64l99 698h225l-94 -657q-6 -61 -6 -66q0 -47 25.5 -80t74.5 -33t112.5 22.5t104.5 45.5l41 23l106 745h226l-103 -733q-8 -45 -8 -64q0 -41 35 -41l51 7l-8 -193q-80 -20 -132 -20t-94 27.5t-54.5 53t-10.5 31.5 q-2 -6 -43 -31.5t-114.5 -53t-139.5 -27.5z" glyph-name="u" horiz-adv-x="1138" unicode="u"/><glyph d="M451 -20q-139 0 -226.5 75.5t-87.5 198.5q0 25 6 74l97 696h223l-92 -655q-6 -49 -6 -84t28.5 -63.5t79.5 -28.5q104 0 182 71.5t99 179.5q39 205 39 304q0 49 -29 66t-90 17l31 205q139 0 225 -71.5t86 -182.5q0 -110 -36 -318t-177 -346t-352 -138z" glyph-name="v" horiz-adv-x="1064" unicode="v"/><glyph d="M965 -20q-78 0 -136.5 34.5t-78.5 67.5l-19 35q-12 -16 -34.5 -39t-99.5 -60.5t-165 -37.5q-141 0 -218 77.5t-77 200.5q0 16 4 53l101 713h223l-92 -653q-6 -43 -6 -79t24.5 -67.5t71.5 -31.5q82 0 137.5 55t73.5 167t88 609h223l-92 -651q-6 -55 -6 -66 q0 -115 100 -114q76 0 135.5 65.5t79.5 173.5q45 240 45 319.5t-112 79.5l28 205q133 0 219 -68.5t86 -197.5q0 -82 -38 -302t-151.5 -354t-313.5 -134z" glyph-name="w" horiz-adv-x="1517" unicode="w"/><glyph d="M807 -20q-111 0 -162 104l-125 252l-262 -336h-258l424 530l-123 238q-37 70 -70 70l-53 -7l8 193q88 20 123 20q109 0 156 -104l108 -221l234 305h260l-397 -494l145 -274q35 -70 68 -70l53 7l-8 -193q-86 -20 -121 -20z" glyph-name="x" horiz-adv-x="997" unicode="x"/><glyph d="M395 408q0 -121 113 -121q98 0 205 49l35 18l94 670h225l-147 -1049q-23 -154 -149 -259t-310 -105q-139 0 -233.5 63.5t-94.5 178.5q0 80 57.5 148.5t112.5 96.5l57 29q-20 0 -62 18.5t-68.5 39t-48 63.5t-21.5 108t69 523l25 145h223q-82 -535 -82 -616zM371 -96 q0 -82 97 -82t157.5 48.5t68.5 111.5l23 153q-199 -104 -287 -153q-59 -37 -59 -78z" glyph-name="y" horiz-adv-x="1095" unicode="y"/><glyph d="M844 193q0 -57 -26 -217t-154.5 -262.5t-315.5 -102.5q-139 0 -228 65.5t-89 168.5t65 180.5t160.5 129.5t185.5 99l76 18q-20 8 -94 9h-172l27 198l313 330h-416l31 215h719l-29 -201l-334 -334q131 -23 206 -101.5t75 -194.5zM268 -102q0 -76 124 -76q64 0 128 46 t72 105l22 162q-272 -145 -309 -172t-37 -65z" glyph-name="z" horiz-adv-x="946" unicode="z"/><glyph d="M141 -49q0 24 56 416q0 57 -95 57l31 217q104 0 113 66l49 360q25 166 160 276.5t342 110.5l-31 -225q-92 0 -159.5 -47t-78.5 -115l-49 -362q-8 -49 -36.5 -92.5t-53.5 -61.5l-27 -19q70 -45 70 -143q0 -25 -4 -51l-43 -281q-8 -66 -8 -77q0 -61 53 -102.5t139 -41.5 l-30 -225q-172 0 -285 97t-113 243z" glyph-name="braceleft" horiz-adv-x="722" unicode="{"/><glyph d="M84 -369l254 1803h199l-254 -1803h-199z" glyph-name="bar" horiz-adv-x="546" unicode="|"/><glyph d="M655 1114l-55 -416q0 -57 94 -57l-30 -217q-104 0 -113 -66l-49 -360q-25 -166 -160 -276.5t-342 -110.5l31 225q92 0 159.5 47t77.5 115l49 362q8 49 37 92.5t56 61.5l24 18q-70 45 -69 144q0 25 4 51l43 281q8 66 8 77q0 61 -53.5 102.5t-139.5 41.5l31 225 q172 0 284.5 -97t112.5 -243z" glyph-name="braceright" horiz-adv-x="722" unicode="}"/><glyph d="M846 422q-72 0 -195 69.5t-168 69.5t-80.5 -30.5t-97.5 -108.5l-151 106q152 196 224 223t144 27t195 -69.5t168 -69.5t80.5 30.5t97.5 108.5l151 -106q-152 -196 -224 -223t-144 -27z" glyph-name="asciitilde" horiz-adv-x="1286" unicode="~"/><glyph d="M104 -410l172 1049h201l-123 -1049h-250zM545 1024l-33 -231h-231l32 231h232z" glyph-name="exclamdown" horiz-adv-x="618" unicode="¡"/><glyph d="M145 299q0 111 56 426q20 127 103 215t228 115l15 108h211l-15 -100l197 -25l-49 -211q-152 29 -281 29q-72 0 -124 -43t-62 -100q-49 -281 -49 -353t39.5 -110.5t107.5 -38.5q148 0 256 29l39 10v-209q-102 -25 -221 -37l-16 -102h-211l16 108q-117 25 -178.5 101.5 t-61.5 187.5z" glyph-name="cent" horiz-adv-x="983" unicode="¢"/><glyph d="M297 911q0 293 141.5 418t419.5 125q142 0 289 -24l49 -9l-43 -223q-185 29 -329 29t-214.5 -57.5t-70.5 -204.5l10 -127h516l-29 -209h-458q0 -111 -34 -211.5t-69 -145.5l-33 -45h623l-31 -227h-925l30 219q74 56 104.5 99.5t59.5 98t29 140.5l-4 72h-138l29 209h82 q-4 49 -4 73z" glyph-name="sterling" horiz-adv-x="1187" unicode="£"/><glyph d="M1034 674v-166q0 -45 -16 -98l131 -129l-158 -158l-104 106q-92 -59 -217 -59t-201 57l-104 -102l-154 154l127 127q-14 49 -14 102v166q0 27 16 102l-127 131l156 156l104 -105q86 55 205 55.5t209 -57.5l108 107l152 -156l-131 -129q18 -66 18 -104zM801 479v223 q0 53 -35 81t-90 28t-89 -28.5t-34 -80.5v-221q0 -53 34 -80.5t90 -27.5t90 27.5t34 78.5z" glyph-name="currency" horiz-adv-x="1224" unicode="¤"/><glyph d="M1085 514l-28 -207h-307l-43 -307h-238l43 307h-307l28 207h287l-35 115h-235l29 209h141l-189 596h271l192 -678l381 678h271l-357 -596h141l-28 -209h-234l-69 -115h286z" glyph-name="yen" horiz-adv-x="1277" unicode="¥"/><glyph d="M231 678l107 756h199l-107 -756h-199zM84 -369l106 756h199l-106 -756h-199z" glyph-name="brokenbar" horiz-adv-x="546" unicode="¦"/><glyph d="M1034 104q0 -203 -143 -312t-371 -109q-179 0 -330 28l-53 10l43 213q244 -37 365 -36q244 0 243 172q0 103 -152.5 130t-242.5 50.5t-152.5 85.5t-62.5 166t44 175t134 161q-32 19 -59 78t-27 118q0 203 142.5 312.5t352.5 109.5t349 -29l53 -10l-43 -213 q-244 37 -364 37q-244 0 -244 -172q0 -102 151.5 -130t241.5 -51.5t152.5 -88t62.5 -170.5q0 -181 -176 -324q86 -86 86 -201zM487.5 479q65.5 -35 175 -54t130.5 -28q35 25 61.5 72t26.5 90q0 66 -65.5 100.5t-176.5 54t-121 24.5t-53 -43.5t-43 -114.5t65.5 -101z" glyph-name="section" horiz-adv-x="1224" unicode="§"/><glyph d="M74 1176l32 233h234l-33 -233h-233zM479 1176l33 233h233l-32 -233h-234z" glyph-name="dieresis" horiz-adv-x="641" unicode="¨"/><glyph d="M182 717q0 305 216 521t521.5 216t521.5 -216t216 -521t-216 -521t-521.5 -216t-521.5 216t-216 521zM348 716.5q0 -237.5 168 -404.5t403.5 -167t403.5 167t168 404.5t-168 404.5t-403.5 167t-403.5 -167t-168 -404.5zM905 299q-135 0 -215 76t-85 209t0 266t86 210 t210 77t217 -17l33 -6l-16 -166q-121 20 -224 21q-55 0 -91 -33t-38 -78q-6 -139 0 -280q2 -45 37 -79t90 -34q116 0 201 22l31 9l22 -164q-123 -33 -258 -33z" glyph-name="copyright" horiz-adv-x="1720" unicode="©"/><glyph d="M141 489l21 154h583l-20 -154h-584zM686 739q-35 0 -63.5 17.5t-36.5 34.5l-6 18q-104 -70 -198 -70t-148 49.5t-54 137.5t39 295q18 102 96 166.5t203 64.5t236 -33l39 -10l-70 -489q0 -31 25 -31l34 4l-8 -141q-53 -13 -88 -13zM344 994q0 -102 68 -101q51 0 133 61 l26 19l47 303q-59 14 -114 14t-87 -27.5t-40 -64.5q-33 -148 -33 -204z" glyph-name="ordfeminine" horiz-adv-x="815" unicode="ª"/><glyph d="M651 256h-266l-211 338l305 340h264l-317 -338zM1110 256h-266l-211 338l305 340h264l-317 -338z" glyph-name="guillemotleft" horiz-adv-x="1259" unicode="«"/><glyph d="M1141 702l-78 -559h-227l47 340h-703l31 219h930z" glyph-name="logicalnot" horiz-adv-x="1216" unicode="¬"/><glyph glyph-name="uni00AD" horiz-adv-x="1705" unicode="­"/><glyph d="M590 866v-174h-109v529h215q68 0 107 -36t42 -87t1 -114t-70 -99l115 -193h-133l-96 174h-72zM690 1108h-100v-135h100q33 0 36 36t1 68q-4 31 -37 31zM154 956.5q0 206.5 146 353t353 146.5t353.5 -146.5t146.5 -353t-146.5 -353t-353.5 -146.5t-353 146.5t-146 353z M264 956.5q0 -161.5 114 -275.5t275.5 -114t275 114t113.5 275.5t-113.5 275.5t-275 114t-275.5 -114t-114 -275.5z" glyph-name="registered" horiz-adv-x="1204" unicode="®"/><glyph d="M74 1174l28 204h650l-29 -204h-649z" glyph-name="macron" horiz-adv-x="649" unicode="¯"/><glyph d="M150 1142q0 130 92 222t222 92t222 -92t92 -222t-92 -222.5t-222 -92.5t-222 92.5t-92 222.5zM315 1142.5q0 -61.5 44 -105.5t105.5 -44t105.5 44t44 105.5t-44 105.5t-105.5 44t-105.5 -44t-44 -105.5z" glyph-name="degree" horiz-adv-x="833" unicode="°"/><glyph d="M1065 217l-31 -217h-930l31 217h930zM610 1092h226l-41 -281h352l-31 -219h-352l-39 -281h-225l39 281h-353l31 219h352z" glyph-name="plusminus" horiz-adv-x="1216" unicode="±"/><glyph d="M539 1454q131 0 204.5 -57.5t73.5 -177.5q0 -186 -170 -320l-231 -180h327l-26 -191h-590l27 193l360 301q98 84 98 164t-106 80q-58 0 -207 -29l-41 -10l21 188q129 39 260 39z" glyph-name="uni00B2" horiz-adv-x="841" unicode="²"/><glyph d="M762 884q0 -160 -93.5 -270t-248.5 -110t-254 37l-35 12l33 182q125 -41 250 -41q70 0 109.5 44t39.5 96t-21.5 70t-43 21t-54.5 3h-100l21 149l167 170h-299l27 187h553l-25 -164l-182 -178q156 -48 156 -208z" glyph-name="uni00B3" horiz-adv-x="831" unicode="³"/><glyph d="M299 1137h-231l280 297h309z" glyph-name="acute" horiz-adv-x="544" unicode="´"/><glyph d="M466 -18q-73 0 -120 43l-55 -394h-223l196 1393h223l-92 -647q-6 -35 -6 -68q0 -121 123 -121q45 0 104.5 22.5t96.5 47.5l37 23l104 743h225l-94 -664q-16 -123 -16 -133q0 -41 35 -41l51 7l-8 -193q-80 -20 -121 -20q-81 0 -120.5 39t-51.5 77q-152 -114 -288 -114z " glyph-name="uni00B5" horiz-adv-x="1112" unicode="µ"/><glyph d="M203 965q0 197 140 333t347 136h498l-254 -1803h-207l221 1581h-137l-221 -1581h-195l137 977q-143 12 -236 114.5t-93 242.5z" glyph-name="paragraph" horiz-adv-x="1187" unicode="¶"/><glyph d="M188 479l33 232h232l-33 -232h-232z" glyph-name="periodcentered" horiz-adv-x="559" unicode="·"/><glyph d="M457 -178q0 -94 -60.5 -152.5t-161.5 -58.5t-167 18l-23 6l29 111q68 -14 137 -14q18 0 35.5 18.5t17.5 40.5t-10 34.5t-25 12.5h-96l60 162h157l-20 -61q97 -12 112 -48t15 -69z" glyph-name="cedilla" horiz-adv-x="473" unicode="¸"/><glyph d="M195 1159l28 191l180 84h168l-127 -908h-200l98 699z" glyph-name="uni00B9" horiz-adv-x="583" unicode="¹"/><glyph d="M446 737q-123 0 -187 61.5t-64 149.5t34 271q18 102 102.5 168.5t207.5 66.5t188.5 -59.5t65.5 -151.5t-37 -268q-18 -102 -102.5 -170t-207.5 -68zM610 1217q0 31 -22.5 52t-66.5 21t-75.5 -24.5t-37.5 -59.5q-31 -162 -31 -211q0 -92 90 -92q45 0 75.5 23.5t37.5 56.5 q30 158 30 234zM139 489l21 154h536l-20 -154h-537z" glyph-name="ordmasculine" horiz-adv-x="815" unicode="º"/><glyph d="M862 256h-266l319 340l-223 338h264l211 -340zM403 256h-266l320 340l-224 338h265l211 -340z" glyph-name="guillemotright" horiz-adv-x="1259" unicode="»"/><glyph d="M942 174l21 152l374 585h230l-361 -551h197l31 218h192l-31 -218h84l-26 -186h-84l-25 -174h-192l24 174h-434zM336 0l856 1434h192l-849 -1434h-199zM254 1159l29 191l180 84h168l-127 -908h-201l98 699z" glyph-name="onequarter" horiz-adv-x="1822" unicode="¼"/><glyph d="M336 0l856 1434h192l-849 -1434h-199zM254 1159l29 191l180 84h168l-127 -908h-201l98 699zM1767 690q0 -186 -170 -319l-231 -181h328l-27 -190h-590l27 193l360 301q98 84 98 163.5t-100 79.5t-254 -39l21 189l37 10q127 29 240 29q114 0 187.5 -57.5t73.5 -178.5z" glyph-name="onehalf" horiz-adv-x="1867" unicode="½"/><glyph d="M1114 174l21 152l374 585h230l-361 -551h197l31 218h192l-31 -218h84l-26 -186h-84l-25 -174h-192l24 174h-434zM508 0l856 1434h192l-849 -1434h-199zM801 884q0 -160 -93.5 -270t-248.5 -110t-254 37l-35 12l33 182q125 -41 250 -41q70 0 109.5 44t39.5 96t-21.5 70 t-43 21t-54.5 3h-100l20 149l168 170h-299l27 187h553l-25 -164l-182 -178q156 -48 156 -208z" glyph-name="threequarters" horiz-adv-x="1996" unicode="¾"/><glyph d="M74 -96q0 217 85 298.5t189.5 128t187 101.5t105.5 221h223q-28 -242 -123.5 -332t-186.5 -127.5t-160.5 -79.5t-69.5 -175q0 -145 216 -145t408 50l-12 -217l-59 -14q-196 -45 -384 -45t-303.5 84t-115.5 252zM920 1024l-31 -231h-232l31 231h232z" glyph-name="questiondown" horiz-adv-x="1110" unicode="¿"/><glyph d="M641 1434h307l252 -1434h-254l-63 373h-475l-166 -373h-250zM848 596l-88 573l-252 -573h340zM905 1546h-231l-273 297h293z" glyph-name="Agrave" unicode="À"/><glyph d="M641 1434h307l252 -1434h-254l-63 373h-475l-166 -373h-250zM848 596l-88 573l-252 -573h340zM901 1546h-231l280 297h310z" glyph-name="Aacute" unicode="Á"/><glyph d="M641 1434h307l252 -1434h-254l-63 373h-475l-166 -373h-250zM848 596l-88 573l-252 -573h340zM670 1546h-224l273 297h272l187 -297h-226l-118 156z" glyph-name="Acircumflex" unicode="Â"/><glyph d="M641 1434h307l252 -1434h-254l-63 373h-475l-166 -373h-250zM848 596l-88 573l-252 -573h340zM689 1825q81 0 161 -48t104 -48t41 28.5t21 61.5h176q-14 -109 -76.5 -191t-143.5 -82t-162 47t-103 47q-50 0 -70 -90h-172q14 109 78.5 192t145.5 83z" glyph-name="Atilde" unicode="Ã"/><glyph d="M641 1434h307l252 -1434h-254l-63 373h-475l-166 -373h-250zM848 596l-88 573l-252 -573h340zM498 1585l32 234h234l-33 -234h-233zM903 1585l33 234h233l-32 -234h-234z" glyph-name="Adieresis" unicode="Ä"/><glyph d="M641 1434h307l252 -1434h-254l-63 373h-475l-166 -373h-250zM848 596l-88 573l-252 -573h340zM635 1678q0 77 61.5 139.5t143.5 62.5t137 -49t55 -126t-62.5 -138.5t-145.5 -61.5t-136 48t-53 125zM841 1759q-26 0 -51.5 -22.5t-25.5 -50.5t17 -45t45 -17t50.5 23.5 t22.5 51.5t-16 44t-42 16z" glyph-name="Aring" unicode="Å"/><glyph d="M985 1434h1057l-31 -228h-676l-49 -350h615l-33 -225h-615l-55 -404h694l-32 -227h-932l53 375h-485l-265 -375h-260zM1012 598l86 606h-19l-426 -606h359z" glyph-name="AE" horiz-adv-x="2013" unicode="Æ"/><glyph d="M819 -178q0 -94 -60.5 -152.5t-160.5 -58.5t-168 18l-22 6l28 111q68 -14 137 -14q18 0 36 18.5t18 40.5t-10.5 34.5t-24.5 12.5h-96l53 146q-188 18 -295 133t-107 265t76 591q37 215 191.5 348t408.5 133q156 0 320 -41l53 -12l-41 -219q-245 45 -369 45t-212.5 -75 t-106.5 -179q-74 -427 -74 -531t65.5 -169.5t188.5 -65.5t316 35l71 12l-22 -219q-158 -37 -305 -51l-15 -45q98 -13 112.5 -48.5t14.5 -68.5z" glyph-name="Ccedilla" horiz-adv-x="1150" unicode="Ç"/><glyph d="M313 1434h949l-31 -228h-711l-49 -350h651l-32 -225h-652l-55 -404h731l-33 -227h-968zM963 1546h-232l-272 297h293z" glyph-name="Egrave" horiz-adv-x="1234" unicode="È"/><glyph d="M313 1434h949l-31 -228h-711l-49 -350h651l-32 -225h-652l-55 -404h731l-33 -227h-968zM920 1546h-232l281 297h309z" glyph-name="Eacute" horiz-adv-x="1234" unicode="É"/><glyph d="M313 1434h949l-31 -228h-711l-49 -350h651l-32 -225h-652l-55 -404h731l-33 -227h-968zM653 1546h-223l272 297h273l186 -297h-225l-119 156z" glyph-name="Ecircumflex" horiz-adv-x="1234" unicode="Ê"/><glyph d="M313 1434h949l-31 -228h-711l-49 -350h651l-32 -225h-652l-55 -404h731l-33 -227h-968zM469 1585l33 234h233l-33 -234h-233zM874 1585l33 234h234l-33 -234h-234z" glyph-name="Edieresis" horiz-adv-x="1234" unicode="Ë"/><glyph d="M553 1434l-201 -1434h-239l200 1434h240zM555 1546h-231l-273 297h293z" glyph-name="Igrave" horiz-adv-x="567" unicode="Ì"/><glyph d="M553 1434l-201 -1434h-239l200 1434h240zM555 1546h-231l280 297h309z" glyph-name="Iacute" horiz-adv-x="567" unicode="Í"/><glyph d="M553 1434l-201 -1434h-239l200 1434h240zM309 1546h-223l272 297h273l186 -297h-225l-119 156z" glyph-name="Icircumflex" horiz-adv-x="567" unicode="Î"/><glyph d="M553 1434l-201 -1434h-239l200 1434h240zM127 1585l33 234h233l-33 -234h-233zM532 1585l33 234h234l-33 -234h-234z" glyph-name="Idieresis" horiz-adv-x="567" unicode="Ï"/><glyph d="M815 1434q217 0 345 -112t128 -292q0 -111 -76 -569q-33 -205 -187.5 -333t-393.5 -128h-518l88 627h-123l33 229h120l82 578h502zM784 1206h-264l-49 -350h281l-33 -229h-281l-55 -400h264q133 0 219 66.5t103 167.5q74 449 73.5 539t-68 148t-190.5 58z" glyph-name="Eth" horiz-adv-x="1320" unicode="Ð"/><glyph d="M1149 1434h237l-200 -1434h-268l-377 907l-52 183l-12 -189l-127 -901h-237l200 1434h269l376 -908l54 -182l12 195zM753 1825q81 0 160.5 -48t103.5 -48t41 28.5t21 61.5h176q-14 -109 -76.5 -191t-143.5 -82t-161.5 47t-103.5 47q-50 0 -70 -90h-172q14 109 79 192 t146 83z" glyph-name="Ntilde" horiz-adv-x="1400" unicode="Ñ"/><glyph d="M1329 1026q0 -125 -76 -565q-33 -205 -200 -343t-399 -138t-369.5 121.5t-137.5 304.5q0 109 76 567q33 207 198 344t397 137t371.5 -123t139.5 -305zM804 1233q-132 0 -227.5 -77t-113.5 -181q-76 -465 -76 -551t77 -154.5t208 -68.5t226.5 76t113.5 182q76 455 76 545 t-76 159.5t-208 69.5zM967 1546h-232l-272 297h293z" glyph-name="Ograve" horiz-adv-x="1376" unicode="Ò"/><glyph d="M1329 1026q0 -125 -76 -565q-33 -205 -200 -343t-399 -138t-369.5 121.5t-137.5 304.5q0 109 76 567q33 207 198 344t397 137t371.5 -123t139.5 -305zM804 1233q-132 0 -227.5 -77t-113.5 -181q-76 -465 -76 -551t77 -154.5t208 -68.5t226.5 76t113.5 182q76 455 76 545 t-76 159.5t-208 69.5zM930 1546h-232l281 297h309z" glyph-name="Oacute" horiz-adv-x="1376" unicode="Ó"/><glyph d="M1329 1026q0 -125 -76 -565q-33 -205 -200 -343t-399 -138t-369.5 121.5t-137.5 304.5q0 109 76 567q33 207 198 344t397 137t371.5 -123t139.5 -305zM804 1233q-132 0 -227.5 -77t-113.5 -181q-76 -465 -76 -551t77 -154.5t208 -68.5t226.5 76t113.5 182q76 455 76 545 t-76 159.5t-208 69.5zM719 1546h-223l272 297h272l187 -297h-226l-118 156z" glyph-name="Ocircumflex" horiz-adv-x="1376" unicode="Ô"/><glyph d="M1329 1026q0 -125 -76 -565q-33 -205 -200 -343t-399 -138t-369.5 121.5t-137.5 304.5q0 109 76 567q33 207 198 344t397 137t371.5 -123t139.5 -305zM804 1233q-132 0 -227.5 -77t-113.5 -181q-76 -465 -76 -551t77 -154.5t208 -68.5t226.5 76t113.5 182q76 455 76 545 t-76 159.5t-208 69.5zM730 1825q81 0 160.5 -48t103.5 -48t41.5 28.5t21.5 61.5h176q-14 -109 -76.5 -191t-143.5 -82t-162 47t-103 47q-50 0 -70 -90h-172q14 109 78.5 192t145.5 83z" glyph-name="Otilde" horiz-adv-x="1376" unicode="Õ"/><glyph d="M1329 1026q0 -125 -76 -565q-33 -205 -200 -343t-399 -138t-369.5 121.5t-137.5 304.5q0 109 76 567q33 207 198 344t397 137t371.5 -123t139.5 -305zM804 1233q-132 0 -227.5 -77t-113.5 -181q-76 -465 -76 -551t77 -154.5t208 -68.5t226.5 76t113.5 182q76 455 76 545 t-76 159.5t-208 69.5zM535 1585l32 234h234l-33 -234h-233zM940 1585l33 234h233l-32 -234h-234z" glyph-name="Odieresis" horiz-adv-x="1376" unicode="Ö"/><glyph d="M281 182l-131 154l301 262l-230 268l176 154l228 -268l305 266l131 -154l-303 -266l225 -262l-176 -154l-225 262z" glyph-name="multiply" horiz-adv-x="1126" unicode="×"/><glyph d="M147 394q0 120 76 579q33 207 198 344t410 137q166 0 293 -78l45 60h217l-133 -176q76 -100 76 -230t-76 -569q-33 -205 -199.5 -343t-410.5 -138q-174 0 -297 75l-41 -55h-217l131 174q-72 100 -72 220zM684 201q118 0 214 76t114 182q76 455 75 538q0 12 -4 37 l-591 -786q74 -47 192 -47zM387 460q0 -50 2 -61l592 787q-74 47 -170 47q-139 0 -234.5 -77t-113.5 -181q-76 -465 -76 -515z" glyph-name="Oslash" horiz-adv-x="1376" unicode="Ø"/><glyph d="M677 -20q-238 0 -374.5 116.5t-136.5 298.5q0 59 6 99l133 940h240l-131 -924q-6 -37 -6 -88q0 -98 74 -157.5t216 -59.5t230 86t108 235l129 908h240l-133 -947q-31 -223 -194 -365t-401 -142zM989 1546h-231l-273 297h293z" glyph-name="Ugrave" horiz-adv-x="1406" unicode="Ù"/><glyph d="M677 -20q-238 0 -374.5 116.5t-136.5 298.5q0 59 6 99l133 940h240l-131 -924q-6 -37 -6 -88q0 -98 74 -157.5t216 -59.5t230 86t108 235l129 908h240l-133 -947q-31 -223 -194 -365t-401 -142zM958 1546h-231l281 297h309z" glyph-name="Uacute" horiz-adv-x="1406" unicode="Ú"/><glyph d="M677 -20q-238 0 -374.5 116.5t-136.5 298.5q0 59 6 99l133 940h240l-131 -924q-6 -37 -6 -88q0 -98 74 -157.5t216 -59.5t230 86t108 235l129 908h240l-133 -947q-31 -223 -194 -365t-401 -142zM717 1546h-223l272 297h272l187 -297h-226l-118 156z" glyph-name="Ucircumflex" horiz-adv-x="1406" unicode="Û"/><glyph d="M677 -20q-238 0 -374.5 116.5t-136.5 298.5q0 59 6 99l133 940h240l-131 -924q-6 -37 -6 -88q0 -98 74 -157.5t216 -59.5t230 86t108 235l129 908h240l-133 -947q-31 -223 -194 -365t-401 -142zM539 1585l32 234h234l-33 -234h-233zM944 1585l33 234h233l-32 -234h-234z " glyph-name="Udieresis" horiz-adv-x="1406" unicode="Ü"/><glyph d="M459 1434l243 -637l420 637h279l-610 -869l-80 -565h-242l80 565l-369 869h279zM901 1546h-231l280 297h310z" glyph-name="Yacute" horiz-adv-x="1282" unicode="Ý"/><glyph d="M870 1257q166 0 254 -83.5t88 -202.5t-41 -336q-66 -340 -436 -340h-342l-41 -295h-239l200 1434h240l-25 -177h342zM967 932q0 98 -123 98h-346l-72 -510h346q136 0 154 113q41 209 41 299z" glyph-name="Thorn" horiz-adv-x="1218" unicode="Þ"/><glyph d="M654 190q64 0 101.5 6.5t72 38t34.5 83.5t-25.5 86t-62.5 59.5t-100.5 76.5t-63.5 183q0 66 27 124t82 109.5t127 83.5l26 11q8 41 9 63q0 57 -49.5 96t-139.5 39t-146.5 -52t-66.5 -126l-149 -1071h-224l152 1087q20 154 145 260.5t305 106.5t285 -86t105 -215l-25 -199 q-18 -4 -70.5 -27.5t-83 -45t-56 -56t-25.5 -73.5t40 -78t87 -70t87 -93t40 -144q0 -184 -120 -282.5t-329 -98.5q-99 0 -168 18l-22 6l47 205q90 -25 154 -25z" glyph-name="germandbls" horiz-adv-x="1177" unicode="ß"/><glyph d="M886 -20q-52 0 -94 26.5t-55 50.5l-10 27q-158 -104 -299 -104t-219 72.5t-78 202.5t57 443q29 156 143.5 251t301.5 95q90 0 192.5 -16t159.5 -33l57 -16l-102 -727l-2 -21q0 -45 37 -45l49 7l-6 -193q-80 -20 -132 -20zM466 190q48 0 111.5 34t106.5 67l41 33l70 489 q-87 18 -181 18t-142 -43t-60 -106q-49 -240 -50 -367q0 -55 28 -90t76 -35zM799 1137h-232l-272 297h293z" glyph-name="agrave" horiz-adv-x="1095" unicode="à"/><glyph d="M886 -20q-52 0 -94 26.5t-55 50.5l-10 27q-158 -104 -299 -104t-219 72.5t-78 202.5t57 443q29 156 143.5 251t301.5 95q90 0 192.5 -16t159.5 -33l57 -16l-102 -727l-2 -21q0 -45 37 -45l49 7l-6 -193q-80 -20 -132 -20zM466 190q48 0 111.5 34t106.5 67l41 33l70 489 q-87 18 -181 18t-142 -43t-60 -106q-49 -240 -50 -367q0 -55 28 -90t76 -35zM762 1137h-232l281 297h309z" glyph-name="aacute" horiz-adv-x="1095" unicode="á"/><glyph d="M886 -20q-52 0 -94 26.5t-55 50.5l-10 27q-158 -104 -299 -104t-219 72.5t-78 202.5t57 443q29 156 143.5 251t301.5 95q90 0 192.5 -16t159.5 -33l57 -16l-102 -727l-2 -21q0 -45 37 -45l49 7l-6 -193q-80 -20 -132 -20zM466 190q48 0 111.5 34t106.5 67l41 33l70 489 q-87 18 -181 18t-142 -43t-60 -106q-49 -240 -50 -367q0 -55 28 -90t76 -35zM524 1137h-223l272 297h273l186 -297h-225l-119 155z" glyph-name="acircumflex" horiz-adv-x="1095" unicode="â"/><glyph d="M886 -20q-52 0 -94 26.5t-55 50.5l-10 27q-158 -104 -299 -104t-219 72.5t-78 202.5t57 443q29 156 143.5 251t301.5 95q90 0 192.5 -16t159.5 -33l57 -16l-102 -727l-2 -21q0 -45 37 -45l49 7l-6 -193q-80 -20 -132 -20zM466 190q48 0 111.5 34t106.5 67l41 33l70 489 q-87 18 -181 18t-142 -43t-60 -106q-49 -240 -50 -367q0 -55 28 -90t76 -35zM536 1415q81 0 160.5 -48t103.5 -48t41 28.5t21 61.5h176q-14 -109 -76.5 -190.5t-143.5 -81.5t-162 47t-103 47q-50 0 -70 -90h-172q14 109 79 191.5t146 82.5z" glyph-name="atilde" horiz-adv-x="1095" unicode="ã"/><glyph d="M886 -20q-52 0 -94 26.5t-55 50.5l-10 27q-158 -104 -299 -104t-219 72.5t-78 202.5t57 443q29 156 143.5 251t301.5 95q90 0 192.5 -16t159.5 -33l57 -16l-102 -727l-2 -21q0 -45 37 -45l49 7l-6 -193q-80 -20 -132 -20zM466 190q48 0 111.5 34t106.5 67l41 33l70 489 q-87 18 -181 18t-142 -43t-60 -106q-49 -240 -50 -367q0 -55 28 -90t76 -35zM342 1176l33 233h233l-33 -233h-233zM748 1176l32 233h234l-33 -233h-233z" glyph-name="adieresis" horiz-adv-x="1095" unicode="ä"/><glyph d="M886 -20q-52 0 -94 26.5t-55 50.5l-10 27q-158 -104 -299 -104t-219 72.5t-78 202.5t57 443q29 156 143.5 251t301.5 95q90 0 192.5 -16t159.5 -33l57 -16l-102 -727l-2 -21q0 -45 37 -45l49 7l-6 -193q-80 -20 -132 -20zM466 190q48 0 111.5 34t106.5 67l41 33l70 489 q-87 18 -181 18t-142 -43t-60 -106q-49 -240 -50 -367q0 -55 28 -90t76 -35zM477 1269q0 77 61.5 139t143.5 62t137 -49t55 -125t-62 -138t-146 -62t-136.5 48t-52.5 125zM683 1350q-26 0 -51.5 -22.5t-25.5 -50.5t16.5 -45.5t45.5 -17.5t51 24t22 52t-16 44t-42 16z" glyph-name="aring" horiz-adv-x="1095" unicode="å"/><glyph d="M1096 -20q-216 0 -320 145q-63 -56 -164.5 -100.5t-179.5 -44.5q-141 0 -221 72.5t-80 196.5t57 449q25 154 143 250t302 96q82 0 163 -18t119 -37l39 -18q131 74 289 73.5t249 -80t91 -214.5t-80 -215t-227 -123l-315 -95q0 -55 43 -91t153.5 -36t259.5 35l49 13l2 -199 q-156 -59 -372 -59zM466 190q48 0 111.5 34t106.5 67l41 33l66 469q-83 39 -177 39t-142 -43.5t-60 -106.5q-49 -240 -50 -367q0 -55 28 -90t76 -35zM1010 684l-23 -141l266 82q100 33 101 102q0 106 -137 107q-80 0 -138.5 -43.5t-68.5 -106.5z" glyph-name="ae" horiz-adv-x="1630" unicode="æ"/><glyph d="M666 -178q0 -94 -60.5 -152.5t-160.5 -58.5t-169 18l-22 6l29 111q68 -14 137 -14q18 0 35.5 18.5t17.5 40.5t-10 34.5t-25 12.5h-96l53 148q-129 18 -195.5 97t-66.5 192t55 427q27 150 139.5 246t303.5 96q128 0 258 -20l41 -8l-51 -211q-152 29 -281 29 q-72 0 -124 -43t-62 -101q-49 -281 -50 -371q0 -53 39 -92t131 -39t234 29l41 10l-2 -209q-117 -27 -252 -36l-14 -43q97 -12 112 -48t15 -69z" glyph-name="ccedilla" horiz-adv-x="901" unicode="ç"/><glyph d="M518 -20q-194 0 -289.5 86t-95.5 221q0 102 55 413q25 143 152 243.5t293 100.5t258 -81.5t92 -208.5t-83 -213t-224 -129l-316 -95q0 -57 43 -92t156 -35t256 35l51 13l2 -199q-156 -59 -350 -59zM608 834q-72 0 -130 -43.5t-68 -106.5l-23 -141l266 82q100 33 101 102 q0 107 -146 107zM766 1137h-231l-273 297h293z" glyph-name="egrave" horiz-adv-x="1030" unicode="è"/><glyph d="M518 -20q-194 0 -289.5 86t-95.5 221q0 102 55 413q25 143 152 243.5t293 100.5t258 -81.5t92 -208.5t-83 -213t-224 -129l-316 -95q0 -57 43 -92t156 -35t256 35l51 13l2 -199q-156 -59 -350 -59zM608 834q-72 0 -130 -43.5t-68 -106.5l-23 -141l266 82q100 33 101 102 q0 107 -146 107zM748 1137h-232l281 297h309z" glyph-name="eacute" horiz-adv-x="1030" unicode="é"/><glyph d="M518 -20q-194 0 -289.5 86t-95.5 221q0 102 55 413q25 143 152 243.5t293 100.5t258 -81.5t92 -208.5t-83 -213t-224 -129l-316 -95q0 -57 43 -92t156 -35t256 35l51 13l2 -199q-156 -59 -350 -59zM608 834q-72 0 -130 -43.5t-68 -106.5l-23 -141l266 82q100 33 101 102 q0 107 -146 107zM520 1137h-223l272 297h273l186 -297h-225l-119 155z" glyph-name="ecircumflex" horiz-adv-x="1030" unicode="ê"/><glyph d="M518 -20q-194 0 -289.5 86t-95.5 221q0 102 55 413q25 143 152 243.5t293 100.5t258 -81.5t92 -208.5t-83 -213t-224 -129l-316 -95q0 -57 43 -92t156 -35t256 35l51 13l2 -199q-156 -59 -350 -59zM608 834q-72 0 -130 -43.5t-68 -106.5l-23 -141l266 82q100 33 101 102 q0 107 -146 107zM346 1176l33 233h233l-32 -233h-234zM752 1176l32 233h234l-33 -233h-233z" glyph-name="edieresis" horiz-adv-x="1030" unicode="ë"/><glyph d="M313 -20q-186 0 -186 200q0 27 4 64l111 780h225l-107 -754q-4 -25 -4 -43q0 -41 37 -41l47 7l-6 -193q-86 -20 -121 -20zM494 1137h-232l-272 297h293z" glyph-name="igrave" horiz-adv-x="522" unicode="ì"/><glyph d="M313 -20q-186 0 -186 200q0 27 4 64l111 780h225l-107 -754q-4 -25 -4 -43q0 -41 37 -41l47 7l-6 -193q-86 -20 -121 -20zM477 1137h-231l280 297h310z" glyph-name="iacute" horiz-adv-x="522" unicode="í"/><glyph d="M313 -20q-186 0 -186 200q0 27 4 64l111 780h225l-107 -754q-4 -25 -4 -43q0 -41 37 -41l47 7l-6 -193q-86 -20 -121 -20zM225 1137h-223l272 297h273l186 -297h-225l-119 155z" glyph-name="icircumflex" horiz-adv-x="522" unicode="î"/><glyph d="M313 -20q-186 0 -186 200q0 27 4 64l111 780h225l-107 -754q-4 -25 -4 -43q0 -41 37 -41l47 7l-6 -193q-86 -20 -121 -20zM49 1176l33 233h233l-32 -233h-234zM455 1176l32 233h234l-33 -233h-233z" glyph-name="idieresis" horiz-adv-x="522" unicode="ï"/><glyph d="M590 1454q207 0 330 -143l202 98l-26 -184l-99 -45q35 -98 35 -282t-67 -570q-27 -152 -145 -250t-305 -98t-286.5 85t-99.5 220q0 98 45 348q25 145 142.5 244.5t310.5 99.5q84 0 159 -29l25 -10q2 27 2 70t-18 75l-170 -82l24 183l58 24q-51 41 -146 41l-123 -4l15 203 q84 6 137 6zM531 190q81 0 139.5 45.5t66.5 102.5l56 393q-83 39 -175 39t-147 -42t-68 -105q-41 -209 -41 -281t44 -112t125 -40z" glyph-name="eth" horiz-adv-x="1114" unicode="ð"/><glyph d="M913 -20q-186 0 -186 200q0 41 4 64l60 424q4 37 4 49q0 119 -107 119q-43 0 -106.5 -21.5t-104.5 -44.5l-41 -20l-104 -750h-226l144 1024h205l4 -66q147 86 281 86t209 -77.5t75 -204.5q0 -35 -4 -64l-64 -446l-2 -21q0 -45 39 -45l49 7l-8 -193q-86 -20 -121 -20z M536 1415q81 0 160.5 -48t103.5 -48t41 28.5t21 61.5h176q-14 -109 -76.5 -190.5t-143.5 -81.5t-162 47t-103 47q-50 0 -70 -90h-172q14 109 79 191.5t146 82.5z" glyph-name="ntilde" horiz-adv-x="1101" unicode="ñ"/><glyph d="M511 -20q-181 0 -278.5 85t-97.5 210t53 425q27 152 140.5 248t295.5 96t282 -88t100 -208t-54 -424q-27 -150 -143.5 -247t-297.5 -97zM778 692q0 70 -45 106t-126 36t-132 -41t-63 -105q-47 -258 -47 -366q0 -57 44.5 -94.5t124.5 -37.5t132.5 42.5t62.5 103.5 q49 286 49 356zM786 1137h-231l-272 297h292z" glyph-name="ograve" horiz-adv-x="1071" unicode="ò"/><glyph d="M511 -20q-181 0 -278.5 85t-97.5 210t53 425q27 152 140.5 248t295.5 96t282 -88t100 -208t-54 -424q-27 -150 -143.5 -247t-297.5 -97zM778 692q0 70 -45 106t-126 36t-132 -41t-63 -105q-47 -258 -47 -366q0 -57 44.5 -94.5t124.5 -37.5t132.5 42.5t62.5 103.5 q49 286 49 356zM737 1137h-231l280 297h310z" glyph-name="oacute" horiz-adv-x="1071" unicode="ó"/><glyph d="M511 -20q-181 0 -278.5 85t-97.5 210t53 425q27 152 140.5 248t295.5 96t282 -88t100 -208t-54 -424q-27 -150 -143.5 -247t-297.5 -97zM778 692q0 70 -45 106t-126 36t-132 -41t-63 -105q-47 -258 -47 -366q0 -57 44.5 -94.5t124.5 -37.5t132.5 42.5t62.5 103.5 q49 286 49 356zM524 1137h-223l272 297h273l186 -297h-225l-119 155z" glyph-name="ocircumflex" horiz-adv-x="1071" unicode="ô"/><glyph d="M511 -20q-181 0 -278.5 85t-97.5 210t53 425q27 152 140.5 248t295.5 96t282 -88t100 -208t-54 -424q-27 -150 -143.5 -247t-297.5 -97zM778 692q0 70 -45 106t-126 36t-132 -41t-63 -105q-47 -258 -47 -366q0 -57 44.5 -94.5t124.5 -37.5t132.5 42.5t62.5 103.5 q49 286 49 356zM538 1415q81 0 160.5 -48t103.5 -48t41 28.5t21 61.5h176q-14 -109 -76.5 -190.5t-143.5 -81.5t-161.5 47t-103.5 47q-50 0 -70 -90h-172q14 109 79 191.5t146 82.5z" glyph-name="otilde" horiz-adv-x="1071" unicode="õ"/><glyph d="M511 -20q-181 0 -278.5 85t-97.5 210t53 425q27 152 140.5 248t295.5 96t282 -88t100 -208t-54 -424q-27 -150 -143.5 -247t-297.5 -97zM778 692q0 70 -45 106t-126 36t-132 -41t-63 -105q-47 -258 -47 -366q0 -57 44.5 -94.5t124.5 -37.5t132.5 42.5t62.5 103.5 q49 286 49 356zM330 1176l32 233h234l-33 -233h-233zM735 1176l33 233h233l-32 -233h-234z" glyph-name="odieresis" horiz-adv-x="1071" unicode="ö"/><glyph d="M199 702h929l-28 -210h-930zM471 141l33 232h231l-33 -232h-231zM565 821l33 232h231l-32 -232h-232z" glyph-name="divide" horiz-adv-x="1216" unicode="÷"/><glyph d="M135 298q0 102 53 402q27 152 140.5 248t308.5 96q131 0 223 -57l29 37h192l-114 -143q39 -67 39 -161t-54 -396q-27 -150 -143.5 -247t-300.5 -97q-131 0 -225 49l-23 -29h-192l106 133q-39 63 -39 165zM601 840q-77 0 -131.5 -42.5t-66.5 -105.5q-37 -207 -45 -330 l363 453q-43 25 -120 25zM542 184q74 0 128.5 43.5t66.5 104.5q29 188 45 317l-356 -442q42 -23 116 -23z" glyph-name="oslash" horiz-adv-x="1077" unicode="ø"/><glyph d="M436 -20q-147 0 -222 77.5t-75 204.5q0 23 4 64l99 698h225l-94 -657q-6 -61 -6 -66q0 -47 25.5 -80t74.5 -33t112.5 22.5t104.5 45.5l41 23l106 745h226l-103 -733q-8 -45 -8 -64q0 -41 35 -41l51 7l-8 -193q-80 -20 -132 -20t-94 27.5t-54.5 53t-10.5 31.5 q-2 -6 -43 -31.5t-114.5 -53t-139.5 -27.5zM803 1137h-232l-272 297h293z" glyph-name="ugrave" horiz-adv-x="1101" unicode="ù"/><glyph d="M436 -20q-147 0 -222 77.5t-75 204.5q0 23 4 64l99 698h225l-94 -657q-6 -61 -6 -66q0 -47 25.5 -80t74.5 -33t112.5 22.5t104.5 45.5l41 23l106 745h226l-103 -733q-8 -45 -8 -64q0 -41 35 -41l51 7l-8 -193q-80 -20 -132 -20t-94 27.5t-54.5 53t-10.5 31.5 q-2 -6 -43 -31.5t-114.5 -53t-139.5 -27.5zM748 1137h-232l281 297h309z" glyph-name="uacute" horiz-adv-x="1101" unicode="ú"/><glyph d="M436 -20q-147 0 -222 77.5t-75 204.5q0 23 4 64l99 698h225l-94 -657q-6 -61 -6 -66q0 -47 25.5 -80t74.5 -33t112.5 22.5t104.5 45.5l41 23l106 745h226l-103 -733q-8 -45 -8 -64q0 -41 35 -41l51 7l-8 -193q-80 -20 -132 -20t-94 27.5t-54.5 53t-10.5 31.5 q-2 -6 -43 -31.5t-114.5 -53t-139.5 -27.5zM520 1137h-223l272 297h273l186 -297h-225l-119 155z" glyph-name="ucircumflex" horiz-adv-x="1101" unicode="û"/><glyph d="M436 -20q-147 0 -222 77.5t-75 204.5q0 23 4 64l99 698h225l-94 -657q-6 -61 -6 -66q0 -47 25.5 -80t74.5 -33t112.5 22.5t104.5 45.5l41 23l106 745h226l-103 -733q-8 -45 -8 -64q0 -41 35 -41l51 7l-8 -193q-80 -20 -132 -20t-94 27.5t-54.5 53t-10.5 31.5 q-2 -6 -43 -31.5t-114.5 -53t-139.5 -27.5zM346 1176l33 233h233l-32 -233h-234zM752 1176l32 233h234l-33 -233h-233z" glyph-name="udieresis" horiz-adv-x="1101" unicode="ü"/><glyph d="M395 408q0 -121 113 -121q98 0 205 49l35 18l94 670h225l-147 -1049q-23 -154 -149 -259t-310 -105q-139 0 -233.5 63.5t-94.5 178.5q0 80 57.5 148.5t112.5 96.5l57 29q-20 0 -62 18.5t-68.5 39t-48 63.5t-21.5 108t69 523l25 145h223q-82 -535 -82 -616zM371 -96 q0 -82 97 -82t157.5 48.5t68.5 111.5l23 153q-199 -104 -287 -153q-59 -37 -59 -78zM784 1137h-231l281 297h309z" glyph-name="yacute" horiz-adv-x="1089" unicode="ý"/><glyph d="M1034 768q0 -121 -53 -436q-27 -154 -137.5 -253t-294.5 -99q-89 0 -172 32l-31 11l-53 -392h-225l256 1805h223l-70 -469q147 78 252 77q154 0 229.5 -77.5t75.5 -198.5zM807 690q1 144 -103 144q-85 0 -212 -62l-43 -20l-72 -525q76 -37 172 -37t146.5 46.5t62.5 109.5 q49 266 49 344z" glyph-name="thorn" horiz-adv-x="1085" unicode="þ"/><glyph d="M395 408q0 -121 113 -121q98 0 205 49l35 18l94 670h225l-147 -1049q-23 -154 -149 -259t-310 -105q-139 0 -233.5 63.5t-94.5 178.5q0 80 57.5 148.5t112.5 96.5l57 29q-20 0 -62 18.5t-68.5 39t-48 63.5t-21.5 108t69 523l25 145h223q-82 -535 -82 -616zM371 -96 q0 -82 97 -82t157.5 48.5t68.5 111.5l23 153q-199 -104 -287 -153q-59 -37 -59 -78zM369 1176l32 233h234l-33 -233h-233zM774 1176l33 233h233l-32 -233h-234z" glyph-name="ydieresis" horiz-adv-x="1089" unicode="ÿ"/><glyph d="M313 -20q-186 0 -186 200q0 27 4 64l111 780h225l-107 -754q-4 -25 -4 -43q0 -41 37 -41l47 7l-6 -193q-86 -20 -121 -20z" glyph-name="dotlessi" horiz-adv-x="522" unicode="ı"/><glyph d="M92 662l127 69l98 703h240l-80 -570l416 219l-35 -254l-416 -221l-53 -381h639l-33 -227h-878l65 471l-125 -65z" glyph-name="Lslash" horiz-adv-x="1087" unicode="Ł"/><glyph d="M309 -20q-186 0 -186 200q0 27 4 64l47 331l-127 -67l33 235l127 68l88 623h225l-69 -494l190 100l-35 -235l-188 -100l-62 -439q-4 -29 -4 -39q0 -41 37 -41l47 7l-6 -193q-86 -20 -121 -20z" glyph-name="lslash" horiz-adv-x="544" unicode="ł"/><glyph d="M819 1434h1137l-31 -228h-676l-49 -350h617l-33 -225h-617l-55 -404h696l-32 -227h-1158q-219 0 -345 112.5t-126 290.5q0 49 26 241t50 329q39 205 196.5 333t399.5 128zM393 430q0 -88 66.5 -144.5t191.5 -56.5h221l138 975h-222q-131 0 -217 -65.5t-104 -165.5 q-74 -455 -74 -543z" glyph-name="OE" horiz-adv-x="1929" unicode="Œ"/><glyph d="M780 698q0 64 -44 100t-125 36t-135 -41t-64 -105q-49 -270 -50 -366q0 -57 43 -94.5t123 -37.5t135.5 42.5t65.5 103.5q51 298 51 362zM502 -20q-178 0 -273.5 85t-95.5 203t55 432q27 150 144 247t306 97t292 -108q135 108 303 108t259 -79.5t91 -214.5t-80 -215 t-227 -123l-315 -95q0 -53 43 -90t156.5 -37t256.5 35l51 13v-199q-156 -59 -360 -59t-299 106q-129 -106 -307 -106zM1010 684l-23 -141l266 82q100 33 101 102q0 106 -137 107q-80 0 -138.5 -43.5t-68.5 -106.5z" glyph-name="oe" horiz-adv-x="1630" unicode="œ"/><glyph d="M733 1227q-107 0 -194.5 -49.5t-87.5 -149.5q0 -74 72.5 -117t176 -66.5t208 -56t177 -112.5t72.5 -210t-52 -228.5t-185 -178t-392 -79.5t-440 59l43 219l57 -14q173 -41 367 -41q350 0 350 213q0 78 -72.5 124t-176 70.5t-206 57t-175 111.5t-72.5 201t48 215 t170.5 176t358.5 83t420 -55l-43 -217l-55 10q-160 35 -369 35zM455 1843h223l119 -155l164 155h225l-273 -297h-272z" glyph-name="Scaron" horiz-adv-x="1234" unicode="Š"/><glyph d="M561 834q-156 0 -155 -105q0 -39 48 -62.5t116.5 -42t137 -44t116.5 -84t48 -148.5q0 -186 -122 -277t-318 -91t-346 53l57 203l45 -11q125 -35 241 -35q115 0 162.5 27t47.5 90t-128 94.5t-232.5 84t-104.5 212.5t116 253t289 93t332 -43l-53 -204l-47 10 q-165 27 -250 27zM276 1434h224l118 -156l164 156h226l-273 -297h-272z" glyph-name="scaron" horiz-adv-x="964" unicode="š"/><glyph d="M459 1434l243 -637l420 637h279l-610 -869l-80 -565h-242l80 565l-369 869h279zM489 1585l33 234h234l-33 -234h-234zM895 1585l33 234h233l-33 -234h-233z" glyph-name="Ydieresis" horiz-adv-x="1282" unicode="Ÿ"/><glyph d="M1264 1200l-887 -973h760l-33 -227h-1053l33 233l885 973h-731l30 228h1028zM479 1843h223l119 -155l164 155h225l-272 -297h-272z" glyph-name="Zcaron" horiz-adv-x="1257" unicode="Ž"/><glyph d="M874 193q0 -57 -26 -217t-154.5 -262.5t-314.5 -102.5q-139 0 -228.5 65.5t-89.5 169.5t66 181t161 128.5t185 98.5l76 18q-20 8 -94 9h-172l26 198l314 330h-416l31 215h718l-28 -201l-334 -334q131 -23 205.5 -101.5t74.5 -194.5zM299 -102q1 -76 123 -76 q64 0 128.5 46t72.5 105l22 162q-272 -145 -309 -172t-37 -65zM299 1434h223l119 -156l164 156h225l-272 -297h-273z" glyph-name="zcaron" horiz-adv-x="976" unicode="ž"/><glyph d="M193 -387q-73 0 -166 20l-29 7l39 202q68 -18 156 -18q74 0 88 102l100 752h-148l27 211h154l37 270q16 135 102 215t225 80q91 0 176 -20l37 -7l-47 -200q-100 18 -184 18q-76 0 -90 -104l-35 -252h264l-27 -211h-266l-106 -787q-16 -125 -95 -201.5t-212 -76.5z" glyph-name="florin" horiz-adv-x="997" unicode="ƒ"/><glyph d="M291 1137h-223l272 297h272l187 -297h-226l-118 155z" glyph-name="circumflex" horiz-adv-x="731" unicode="ˆ"/><glyph d="M111 1434h223l119 -156l163 156h226l-273 -297h-272z" glyph-name="caron" horiz-adv-x="731" unicode="ˇ"/><glyph d="M358 1305h99q39 0 72.5 37.5t41.5 87.5h168q-16 -119 -110 -208t-201 -89h-92q-98 0 -164 73.5t-66 179.5q1 15 5 44h168q-3 -6 -3 -34t25 -59.5t57 -31.5z" glyph-name="breve" horiz-adv-x="628" unicode="˘"/><glyph d="M74 1176l32 233h234l-33 -233h-233z" glyph-name="dotaccent" horiz-adv-x="233" unicode="˙"/><glyph d="M86 1269q0 77 61.5 139t143.5 62t137 -49t55 -125t-62.5 -138t-145.5 -62t-136 48t-53 125zM292 1350q-26 0 -51.5 -22.5t-25.5 -50.5t16.5 -45.5t44.5 -17.5t51 24t23 52t-16 44t-42 16z" glyph-name="ring" horiz-adv-x="393" unicode="˚"/><glyph d="M266 -213q69 0 123 18v-157q-111 -35 -191 -35t-123.5 39t-43.5 100.5t52 124t105 94.5l54 31h149q-160 -129 -160 -186q0 -29 35 -29z" glyph-name="ogonek" horiz-adv-x="464" unicode="˛"/><glyph d="M294 1415q81 0 160.5 -48t103.5 -48t41 28.5t22 61.5h176q-14 -109 -77.5 -190.5t-143.5 -81.5t-161 47t-104 47q-49 0 -69 -90h-172q14 109 78.5 191.5t145.5 82.5z" glyph-name="tilde" horiz-adv-x="690" unicode="˜"/><glyph d="M299 1137h-231l315 317h293zM741 1137h-231l315 317h293z" glyph-name="hungarumlaut" horiz-adv-x="1007" unicode="˝"/><glyph d="M897 702l-31 -219h-841l30 219h842z" glyph-name="endash" horiz-adv-x="841" unicode="–"/><glyph d="M1739 702l-31 -219h-1683l30 219h1684z" glyph-name="emdash" horiz-adv-x="1683" unicode="—"/><glyph d="M377 1190l-33 -234h-233l24 181q25 176 109 247.5t192 71.5l-16 -123q-109 0 -127 -143h84z" glyph-name="quoteleft" horiz-adv-x="419" unicode="‘"/><glyph d="M252 1200l33 234h233l-24 -181q-25 -176 -109 -247.5t-192 -71.5l16 123q109 0 127 143h-84z" glyph-name="quoteright" horiz-adv-x="462" unicode="’"/><glyph d="M115 0l32 233h234l-25 -180q-25 -176 -108.5 -247.5t-192.5 -71.5l17 123q104 0 127 143h-84z" glyph-name="quotesinglbase" horiz-adv-x="481" unicode="‚"/><glyph d="M748 1190l-33 -234h-234l25 181q25 176 108.5 247.5t192.5 71.5l-16 -123q-109 0 -127 -143h84zM377 1190l-33 -234h-233l24 181q25 176 109 247.5t192 71.5l-16 -123q-109 0 -127 -143h84z" glyph-name="quotedblleft" horiz-adv-x="790" unicode="“"/><glyph d="M252 1200l33 234h233l-24 -181q-25 -176 -109 -247.5t-192 -71.5l16 123q109 0 127 143h-84zM623 1200l32 234h234l-25 -181q-25 -176 -108.5 -247.5t-192.5 -71.5l17 123q109 0 127 143h-84z" glyph-name="quotedblright" horiz-adv-x="833" unicode="”"/><glyph d="M115 0l32 233h234l-25 -180q-25 -176 -108.5 -247.5t-192.5 -71.5l17 123q104 0 127 143h-84zM485 0l33 233h234l-25 -180q-25 -176 -108.5 -247.5t-192.5 -71.5l16 123q106 0 127 143h-84z" glyph-name="quotedblbase" horiz-adv-x="851" unicode="„"/><glyph d="M768 813l-166 -1182h-227l166 1182h-342l30 211h342l58 410h227l-57 -410h358l-31 -211h-358z" glyph-name="dagger" horiz-adv-x="1173" unicode="†"/><glyph d="M1047 248l-29 -209h-359l-57 -408h-227l57 408h-342l29 209h342l80 565h-342l30 211h342l58 410h227l-57 -410h358l-31 -211h-358l-80 -565h359z" glyph-name="daggerdbl" horiz-adv-x="1173" unicode="‡"/><glyph d="M217 720q0 134 95.5 229t229.5 95t229 -95t95 -229t-95 -228.5t-229 -94.5t-229.5 94.5t-95.5 228.5z" glyph-name="bullet" horiz-adv-x="976" unicode="•"/><glyph d="M156 0l30 231h232l-31 -231h-231zM715 0l30 231h232l-31 -231h-231zM1274 0l31 231h231l-31 -231h-231z" glyph-name="ellipsis" horiz-adv-x="1677" unicode="…"/><glyph d="M543 678q-133 0 -214 71.5t-81 186.5q0 48 24 200t120 235t230 83t217 -70.5t83 -187.5q0 -56 -25 -204t-123 -231t-231 -83zM709 1178q-1 96 -101 96t-116 -96q-33 -197 -33 -240q-1 -80 99 -80t118 96q33 170 33 224zM479 0l856 1434h193l-850 -1434h-199zM1388 -20 q-134 0 -214 71.5t-80 186.5q0 48 24 200t120 235t230 83t216.5 -71t82.5 -187q1 -56 -24 -204t-123 -231t-232 -83zM1456 575q-102 0 -119 -96q-33 -197 -32 -239q-1 -80 99 -80t118 96q32 170 32 224t-26.5 74.5t-71.5 20.5zM2158 -20q-134 0 -214 71.5t-80 186.5 q0 48 24 200t120 235t230 83t216.5 -71t82.5 -187q1 -56 -24 -204t-123 -231t-232 -83zM2226 575q-102 0 -119 -96q-33 -197 -32 -239q-1 -80 99 -80t118 96q32 170 32 224t-26.5 74.5t-71.5 20.5z" glyph-name="perthousand" horiz-adv-x="2684" unicode="‰"/><glyph d="M651 256h-266l-211 338l305 340h264l-317 -338z" glyph-name="guilsinglleft" horiz-adv-x="800" unicode="‹"/><glyph d="M403 256h-266l320 340l-224 338h265l211 -340z" glyph-name="guilsinglright" horiz-adv-x="800" unicode="›"/><glyph d="M-250 0l854 1434h193l-848 -1434h-199z" glyph-name="fraction" horiz-adv-x="458" unicode="⁄"/><glyph d="M883 1454q154 0 301 -33l49 -12l-41 -219q-231 37 -353 37t-205 -75t-102 -179h492l-29 -197h-495l-17 -121h447l-29 -196h-442q-2 -18 -2 -29q0 -96 61.5 -159.5t182.5 -63.5t298 29l68 10l-23 -219q-205 -47 -370 -47q-213 0 -336 118.5t-123 300.5l4 60h-125l29 196 h121l16 121h-121l29 197h125q35 211 187.5 346t402.5 135z" glyph-name="Euro" horiz-adv-x="1214" unicode="€"/><glyph d="M244 1257l24 177h529l-25 -177h-174l-78 -561h-182l78 561h-172zM1595 1434l-102 -738h-178l45 328l31 141l-134 -194h-139l-74 190l-10 -137l-45 -328h-180l102 738h183l123 -273l196 273h182z" glyph-name="trademark" horiz-adv-x="1654" unicode="™"/><glyph d="M1133 709l-31 -217h-932l31 217h932z" glyph-name="minus" horiz-adv-x="1218" unicode="−"/><glyph d="M1053 -20q-184 0 -185 198q0 41 4 66l80 569h-467l-166 -1182h-225l166 1182h-143l28 211h144l18 131q18 135 109.5 217t232.5 82q39 0 187 -16l38 -6l-40 -205q-125 18 -211 18q-78 0 -93 -100l-16 -121h692l-104 -743q-6 -43 -6 -56q0 -39 39 -39l47 7l-6 -193 q-88 -20 -123 -20zM1001 1200l33 234h234l-33 -234h-234z" glyph-name="uniFB01" horiz-adv-x="1255" unicode="ﬁ"/><glyph d="M1053 -20q-184 0 -185 198q0 33 4 66l140 991q-236 10 -389 10q-78 0 -93 -100l-16 -121h277l-29 -211h-277l-166 -1182h-225l166 1182h-143l28 211h144l18 131q18 135 109.5 217t232.5 82l615 -20l-162 -1147q-6 -49 -6 -58q0 -43 39 -43l47 7l-6 -193q-88 -20 -123 -20 z" glyph-name="uniFB02" horiz-adv-x="1255" unicode="ﬂ"/></font>
</defs>
</svg>
