<?xml version="1.0" standalone="no"?>
<!DOCTYPE svg PUBLIC "-//W3C//DTD SVG 1.1//EN" "http://www.w3.org/Graphics/SVG/1.1/DTD/svg11.dtd">
<svg xmlns="http://www.w3.org/2000/svg"><metadata>This SVG WebFont was generated by YouWorkForThem.
Copyright (c) 2008 by Ramiz Guseynov. All rights reserved.</metadata><defs><font horiz-adv-x="1316" id="ywftsvg"><font-face ascent="1536" bbox="-150 -430 2386 1880" cap-height="1434" descent="-512" font-family="" font-stretch="normal" font-weight="400" panose-1="2 0 5 6 0 0 0 2 0 4" underline-position="0" underline-thickness="0" unicode-range="U+0020-FB02" units-per-em="2048" x-height="1024"/><missing-glyph horiz-adv-x="450"/><glyph glyph-name=".notdef" horiz-adv-x="450"/><glyph glyph-name="glyph1" horiz-adv-x="0"/><glyph glyph-name="glyph2" horiz-adv-x="681"/><glyph glyph-name="space" horiz-adv-x="450" unicode=" "/><glyph d="M188 0v201h168v-201h-168zM360 1434l-14 -1049h-147l-15 1049h176z" glyph-name="exclam" horiz-adv-x="544" unicode="!"/><glyph d="M123 973v461h145l-20 -461h-125zM416 973v461h145l-20 -461h-125z" glyph-name="quotedbl" horiz-adv-x="684" unicode="&quot;"/><glyph d="M197 870v154h219l59 410h143l-59 -410h367l59 410h143l-59 -410h195v-154h-217l-43 -307h196v-153h-219l-59 -410h-144l60 410h-367l-59 -410h-144l60 410h-195v153h217l43 307h-196zM537 870l-43 -307h366l43 307h-366z" glyph-name="numbersign" horiz-adv-x="1396" unicode="#"/><glyph d="M487 -98v106q-179 9 -290 41l-41 10l6 146q182 -41 374 -41t263 49t71 163t-75.5 173t-184 87t-217 62.5t-184.5 121.5t-76 233q0 328 354 368v111h162v-109q200 -9 262 -37l25 -10l-8 -143q-172 37 -350 37q-276 0 -277 -211q0 -102 76 -158.5t184.5 -84.5t217 -61.5 t184 -120.5t75.5 -248t-91 -258t-298 -116v-110h-162z" glyph-name="dollar" horiz-adv-x="1171" unicode="$"/><glyph d="M778 1167v-184q0 -127 -87 -207t-214 -80h-14q-125 0 -212 81t-87 206v184q0 127 87 207t212 80h14q125 0 213 -80t88 -207zM629 965v219q0 70 -45 107.5t-116 37.5t-114 -38t-43 -107v-217q0 -70 43 -108t115 -38t116 38t44 106zM504 0l653 1434h152l-650 -1434h-155z M1651 449v-185q0 -127 -87 -207t-214 -80h-15q-125 0 -212 81t-87 206v185q0 127 87 206.5t212 79.5h15q125 0 213 -79.5t88 -206.5zM1501 246v219q0 70 -45 107.5t-116 37.5t-113.5 -37.5t-42.5 -107.5v-217q0 -70 43 -108t115 -38t115.5 38t43.5 106z" glyph-name="percent" horiz-adv-x="1814" unicode="%"/><glyph d="M915 465v199h158v-203q0 -188 -88 -307l84 -154h-174l-27 47q-119 -67 -280 -67t-265 72.5t-147 172t-43 236.5q0 340 287 418l-203 374v181h778v-158h-608v-12l510 -947q18 64 18 148zM604 135q119 0 193 45l-305 563q-88 -12 -136.5 -74.5t-48.5 -214.5t63.5 -235.5 t233.5 -83.5z" glyph-name="ampersand" horiz-adv-x="1185" unicode="&amp;"/><glyph d="M123 973v461h145l-20 -461h-125z" glyph-name="quotesingle" horiz-adv-x="391" unicode="'"/><glyph d="M578 -227v-162q-168 0 -286 110.5t-118 268.5v1089q0 156 118 266.5t286 110.5v-166q-100 0 -167 -61.5t-67 -151.5v-1089q0 -92 67 -153.5t167 -61.5z" glyph-name="parenleft" horiz-adv-x="669" unicode="("/><glyph d="M92 -389v162q100 0 166 61.5t66 153.5v1089q0 92 -65.5 152.5t-166.5 60.5v166q168 0 287 -110.5t119 -266.5v-1089q0 -156 -119 -267.5t-287 -111.5z" glyph-name="parenright" horiz-adv-x="671" unicode=")"/><glyph d="M535 1434v-256l243 79l41 -137l-241 -78l151 -206l-117 -82l-147 202l-150 -208l-114 86l149 202l-248 82l45 135l246 -79v260h142z" glyph-name="asterisk" horiz-adv-x="921" unicode="*"/><glyph d="M516 1040h160v-364h373v-154h-373v-366h-160v366h-373v154h373v364z" glyph-name="plus" horiz-adv-x="1191" unicode="+"/><glyph d="M160 0v201h174v-185q0 -141 -60.5 -198.5t-134.5 -57.5v78q45 0 68.5 37t23.5 92l-2 33h-69z" glyph-name="comma" horiz-adv-x="497" unicode=","/><glyph d="M633 676v-154h-500v154h500z" glyph-name="hyphen" horiz-adv-x="765" unicode="-"/><glyph d="M164 0v201h168v-201h-168z" glyph-name="period" horiz-adv-x="495" unicode="."/><glyph d="M41 0l408 1434h165l-409 -1434h-164z" glyph-name="slash" horiz-adv-x="655" unicode="/"/><glyph d="M606 -20q-209 0 -342 125.5t-137 320.5q-6 291 0 582q4 193 138 319.5t343 126.5t342 -125.5t137 -320.5q6 -291 0 -582q-4 -193 -138 -319.5t-343 -126.5zM610 1296q-140 0 -227.5 -81.5t-89.5 -206.5q-6 -291 0 -582q2 -125 87 -207t226 -82t225.5 82t86.5 207 q6 291 0 582q-2 125 -85 206.5t-223 81.5z" glyph-name="zero" horiz-adv-x="1214" unicode="0"/><glyph d="M471 1434v-1434h-172v1274l-248 -107v154l236 113h184z" glyph-name="one" horiz-adv-x="655" unicode="1"/><glyph d="M511 1454q224 0 349 -99.5t125 -310.5q0 -147 -43 -229t-154 -180l-526 -467v-8h727v-160h-907v217l561 508q102 92 135 155.5t33 170.5q0 246 -307 245q-154 0 -314 -32l-49 -11l-8 152q154 49 378 49z" glyph-name="two" horiz-adv-x="1101" unicode="2"/><glyph d="M80 1274v160h831v-152l-342 -410q147 -13 273.5 -100.5t126.5 -323.5q0 -124 -48.5 -224.5t-161.5 -172t-284 -71.5q-119 0 -220 12t-142 24l-41 15l8 153q188 -47 387 -47q328 0 328 328q0 74 -23.5 125t-72.5 91t-240 40h-94v147l323 398v8h-608z" glyph-name="three" horiz-adv-x="1081" unicode="3"/><glyph d="M41 303v160l518 971h189l-525 -971h522v375h173v-375h151v-160h-151v-303h-173v303h-704z" glyph-name="four" horiz-adv-x="1099" unicode="4"/><glyph d="M528 135q180 0 254 74.5t74 234.5t-66.5 232t-242.5 72q-76 0 -162 -20.5t-135 -41.5l-49 -20l-78 122l47 646h793v-162h-637l-29 -418q129 49 274 49q459 0 459 -444q0 -217 -123 -348t-391 -131q-113 0 -209 12t-135 24l-41 15l8 153q209 -49 389 -49z" glyph-name="five" horiz-adv-x="1142" unicode="5"/><glyph d="M614 1298q-148 0 -229.5 -89t-85.5 -222l-2 -164q170 80 332 80q225 0 341.5 -113.5t116.5 -337t-132 -349.5t-350 -126t-346 134.5t-132 334.5q-6 262 0 541q4 201 133 334t358 133q153 0 312 -33l51 -12l-6 -152q-213 41 -361 41zM608 135q307 0 307 318 q0 154 -72.5 223t-226.5 69q-135 -4 -276 -57l-43 -18q0 -154 2 -224q4 -133 82 -222t227 -89z" glyph-name="six" horiz-adv-x="1200" unicode="6"/><glyph d="M45 1276v158h840v-181l-559 -1253h-174l563 1264v12h-670z" glyph-name="seven" horiz-adv-x="925" unicode="7"/><glyph d="M1075 1073q0 -219 -180 -334q106 -68 159.5 -149.5t53.5 -210.5q0 -201 -140.5 -300t-357.5 -99t-357 98t-140 301q0 129 53 211t160 149q-180 119 -181 334q0 168 127 274.5t337 106.5t338 -107.5t128 -273.5zM611 137q140 0 232.5 59.5t92.5 188.5t-97.5 201.5 t-227.5 72.5t-228 -72.5t-98 -201.5t93 -188.5t233 -59.5zM905 1064q0 108 -81 170t-216 62t-214 -60t-79 -170t79 -179.5t214 -69.5t216 69.5t81 177.5z" glyph-name="eight" horiz-adv-x="1220" unicode="8"/><glyph d="M586 133q148 0 229.5 89t85.5 222l2 164q-170 -80 -332 -80q-225 0 -341.5 114t-116.5 337t132 349t350 126t346 -134t132 -335q6 -262 0 -541q-4 -201 -133 -334t-358 -133q-154 0 -312 35l-51 11l6 151q213 -41 361 -41zM592 1296q-307 0 -307 -317q0 -154 72.5 -223.5 t226.5 -69.5q138 4 276 59l43 17q0 154 -2 223q-4 133 -82 222t-227 89z" glyph-name="nine" horiz-adv-x="1200" unicode="9"/><glyph d="M164 0v201h168v-201h-168zM164 823v201h168v-201h-168z" glyph-name="colon" horiz-adv-x="495" unicode=":"/><glyph d="M164 823v201h168v-201h-168zM160 0v201h174v-185q0 -141 -60.5 -198.5t-134.5 -57.5v78q45 0 68.5 37t23.5 92l-2 33h-69z" glyph-name="semicolon" horiz-adv-x="471" unicode=";"/><glyph d="M133 524v150l907 446v-176l-729 -346l729 -344v-176z" glyph-name="less" horiz-adv-x="1204" unicode="&lt;"/><glyph d="M1051 465v-154h-908v154h908zM1051 885v-154h-908v154h908z" glyph-name="equal" horiz-adv-x="1193" unicode="="/><glyph d="M1071 674v-150l-907 -446v176l729 346l-729 344v176z" glyph-name="greater" horiz-adv-x="1204" unicode=">"/><glyph d="M483 387h-159q0 216 80.5 295t169 116.5t157 81t68.5 191.5q0 223 -305 223q-165 0 -330 -30l-53 -11l-9 152q115 49 392 49q217 0 349 -97t132 -292q0 -119 -37 -196.5t-91 -109.5t-117.5 -62.5t-118 -56.5t-91.5 -90.5t-37 -162.5zM319 0v201h168v-201h-168z" glyph-name="question" horiz-adv-x="1077" unicode="?"/><glyph d="M1350 39q-68 0 -120 25.5t-71 50.5l-20 24q-177 -100 -317 -100t-218 81t-82 212q-6 180 0 360q4 133 90 216t250 83q84 0 177.5 -14t144.5 -31l49 -14v-631q0 -61 30.5 -97t91.5 -36t82 45t25 179t-2 507q-4 172 -155.5 290t-414.5 118t-420 -119t-161 -289 q-12 -356 0 -713q4 -170 159 -288.5t419 -118.5q187 0 340 33l51 12l29 -146q-203 -47 -420 -47q-326 0 -527.5 167t-209.5 411q-10 334 0 668q8 244 211.5 410.5t527.5 166.5t526.5 -167t206.5 -410q6 -301 0 -525q-4 -164 -85 -238.5t-187 -74.5zM817 170q121 0 236 59 l37 19v575q-80 37 -228 37q-92 0 -142 -51t-54 -127q-6 -170 0 -340q2 -74 44 -123t107 -49z" glyph-name="at" horiz-adv-x="1769" unicode="@"/><glyph d="M492 1434h256l454 -1434h-182l-127 416h-545l-127 -416h-180zM846 569l-219 709h-15l-219 -709h453z" glyph-name="A" horiz-adv-x="1243" unicode="A"/><glyph d="M682 1434q197 0 298 -99.5t101 -277.5q0 -135 -58 -208t-97 -91l-17 -8q18 -5 60.5 -36.5t68 -66.5t47 -97.5t21.5 -137.5q0 -412 -469 -412h-473v1434h518zM705 1276h-369v-453h344q106 0 170.5 59.5t64.5 165.5t-54 167t-156 61zM336 668v-510h311q164 0 225.5 59 t61.5 195q0 256 -254 256h-344z" glyph-name="B" horiz-adv-x="1208" unicode="B"/><glyph d="M659 -20q-231 0 -374.5 134t-147.5 332q-6 270 0 541q4 197 149.5 332t372.5 135q160 0 308 -37l51 -10l-6 -152q-227 39 -368 39t-234 -90t-97 -217q-6 -270 0 -541q4 -129 96.5 -218t249.5 -89q104 0 299 31l64 10l6 -151q-203 -49 -369 -49z" glyph-name="C" horiz-adv-x="1120" unicode="C"/><glyph d="M154 0v1434h460q229 0 374 -126t149 -321q6 -270 0 -541q-4 -195 -146.5 -320.5t-376.5 -125.5h-460zM614 1274h-288v-1114h288q160 0 251 79.5t96 206.5q6 270 0 541q-4 125 -96.5 206t-250.5 81z" glyph-name="D" horiz-adv-x="1273" unicode="D"/><glyph d="M164 1434h897v-160h-725v-451h661v-157h-661v-504h745v-162h-917v1434z" glyph-name="E" horiz-adv-x="1183" unicode="E"/><glyph d="M164 1434h897v-160h-725v-475h661v-160h-661v-639h-172v1434z" glyph-name="F" horiz-adv-x="1132" unicode="F"/><glyph d="M686 580v157h442v-682q-232 -75 -466 -75t-377.5 134t-147.5 332q-6 270 0 541q4 197 149.5 332t374.5 135t388 -37l53 -14l-8 -152q-219 43 -435 43q-156 0 -249 -90t-97 -217q-6 -270 0 -541q4 -129 96.5 -219t247.5 -90t261 23l38 6v414h-270z" glyph-name="G" horiz-adv-x="1271" unicode="G"/><glyph d="M1008 1434h172v-1434h-172v666h-672v-666h-172v1434h172v-611h672v611z" glyph-name="H" horiz-adv-x="1343" unicode="H"/><glyph d="M336 1434v-1434h-172v1434h172z" glyph-name="I" horiz-adv-x="499" unicode="I"/><glyph d="M163 135q42 0 78.5 18t47 69.5t10.5 144.5v1067h172v-1125q0 -174 -74.5 -251.5t-195.5 -77.5q-77 0 -138 16l-22 4l4 139q76 -4 118 -4z" glyph-name="J" horiz-adv-x="624" unicode="J"/><glyph d="M1087 1434l-552 -682l589 -752h-211l-577 750l545 684h206zM336 1434v-1434h-172v1434h172z" glyph-name="K" horiz-adv-x="1165" unicode="K"/><glyph d="M164 1434h174v-1272h645v-162h-819v1434z" glyph-name="L" horiz-adv-x="1024" unicode="L"/><glyph d="M1391 1434v-1434h-172v1087l6 117l-64 -131l-293 -491h-182l-293 491l-63 131l6 -117v-1087h-172v1434h205l407 -705l410 705h205z" glyph-name="M" horiz-adv-x="1554" unicode="M"/><glyph d="M1010 1434h170v-1434h-203l-594 1063l-57 133l8 -139v-1057h-170v1434h203l596 -1065l55 -131l-8 137v1059z" glyph-name="N" horiz-adv-x="1343" unicode="N"/><glyph d="M658 -20q-230 0 -373.5 134t-147.5 332q-6 270 0 541q4 197 149.5 332t373.5 135t372 -134t148 -333q6 -270 0 -541q-4 -197 -148 -331.5t-374 -134.5zM659.5 1300q-157.5 0 -252 -91t-98.5 -220q-6 -272 0 -545q4 -131 97.5 -221t251.5 -90t250 91t96 220q6 272 0 545 q-4 131 -95.5 221t-249 90z" glyph-name="O" unicode="O"/><glyph d="M164 0v1434h553q168 0 263 -89.5t104 -233.5q9 -145 0 -289t-104 -234t-263 -90h-381v-498h-172zM721 1274h-385v-617h385q176 0 188 156q10 153 0 307t-188 154z" glyph-name="P" horiz-adv-x="1171" unicode="P"/><glyph d="M639 -20q-211 0 -354.5 134t-147.5 332q-6 270 0 541q4 197 149.5 332t373.5 135t372 -134t148 -333q6 -270 0 -541q-2 -139 -80 -249l121 -142l-125 -94l-105 121q-141 -102 -352 -102zM659.5 1300q-157.5 0 -253 -91t-99.5 -220q-12 -545 4 -599t31 -79q14 12 39 30.5 t107.5 49.5t167.5 31t163 -27.5t115 -54.5l37 -29q33 45 35 131q6 274 0 547q-4 131 -96.5 221t-250 90zM659 135q53 0 107.5 15.5t81.5 29.5l26 17q-102 80 -215 79q-57 0 -112 -19t-84 -40l-27 -18q90 -64 223 -64z" glyph-name="Q" unicode="Q"/><glyph d="M336 522v-522h-172v1434h553q168 0 263 -89.5t103 -227.5t1 -263t-70.5 -207t-175.5 -110l297 -537h-191l-280 522h-328zM721 1274h-385v-592h385q176 0 188 156q8 141 0 280q-10 156 -188 156z" glyph-name="R" horiz-adv-x="1236" unicode="R"/><glyph d="M594 1294q-305 0 -305 -223q0 -104 83 -163.5t200.5 -87t235.5 -63.5t201 -127t83 -243q0 -408 -529 -407q-199 0 -370 36l-56 15l8 153q207 -45 407 -45t281.5 53.5t81.5 178.5q0 72 -34.5 123t-91 77.5t-128 51t-147.5 41t-147.5 47t-128 70.5t-91 113t-34.5 171 q0 195 132 292t354 97t351 -37l45 -10l-8 -152q-221 39 -393 39z" glyph-name="S" horiz-adv-x="1183" unicode="S"/><glyph d="M41 1274v160h952v-160h-391v-1274h-172v1274h-389z" glyph-name="T" horiz-adv-x="1034" unicode="T"/><glyph d="M1024 1434h172v-988q0 -197 -146.5 -331.5t-375.5 -134.5t-374.5 135t-145.5 331v988h172v-988q0 -127 95 -217t253 -90t254 90t96 217v988z" glyph-name="U" horiz-adv-x="1349" unicode="U"/><glyph d="M219 1434l377 -1278h10l377 1278h178l-430 -1434h-260l-430 1434h178z" glyph-name="V" horiz-adv-x="1202" unicode="V"/><glyph d="M1339 291l213 1143h179l-281 -1434h-256l-250 1044l-33 226h-10l-31 -226l-252 -1044h-256l-280 1434h178l213 -1143l16 -135h9l24 143l264 1135h240l264 -1135l25 -143h8z" glyph-name="W" horiz-adv-x="1812" unicode="W"/><glyph d="M268 1434l355 -553l354 553h194l-448 -699l481 -735h-196l-385 598l-385 -598h-197l481 735l-448 699h194z" glyph-name="X" horiz-adv-x="1245" unicode="X"/><glyph d="M684 0h-172v582l-481 852h196l371 -680l369 680h198l-481 -852v-582z" glyph-name="Y" horiz-adv-x="1196" unicode="Y"/><glyph d="M303 160h797v-160h-998v172l785 1094v8h-768v160h973v-172l-789 -1094v-8z" glyph-name="Z" horiz-adv-x="1202" unicode="Z"/><glyph d="M578 -205v-162h-404v1801h404v-166h-234v-1473h234z" glyph-name="bracketleft" horiz-adv-x="669" unicode="["/><glyph d="M207 1434l407 -1434h-163l-410 1434h166z" glyph-name="backslash" horiz-adv-x="655" unicode="\"/><glyph d="M92 -367v162h234v1473h-234v166h404v-1801h-404z" glyph-name="bracketright" horiz-adv-x="669" unicode="]"/><glyph d="M442 1434h140l338 -756h-162l-246 561l-248 -561h-162z" glyph-name="asciicircum" horiz-adv-x="1021" unicode="^"/><glyph d="M0 -154h1182v-137h-1182v137z" glyph-name="underscore" horiz-adv-x="1181" unicode="_"/><glyph d="M471 1151h-182l-289 283h233z" glyph-name="grave" horiz-adv-x="471" unicode="`"/><glyph d="M410 -20q-143 0 -225.5 88t-82.5 231t79 237.5t229 94.5h313v69q0 82 -55.5 140.5t-135.5 58.5q-145 0 -307 -27l-55 -10l-14 139q194 43 364 43t265.5 -94t95.5 -237v-713h-146l-10 90q-66 -44 -157 -77t-158 -33zM416 127q66 0 142.5 35t121.5 69l43 35v219h-305 q-156 0 -156 -179t154 -179z" glyph-name="a" horiz-adv-x="1013" unicode="a"/><glyph d="M143 1434h158v-473q143 77 299 77t242 -90t90 -235q6 -201 0 -402q-4 -147 -100 -239t-282 -92t-351 36l-56 15v1403zM604 893q-137 0 -260 -66l-43 -20v-657q90 -25 254 -25q102 0 157.5 57.5t59.5 141.5q6 188 0 376q-4 84 -49 138.5t-119 54.5z" glyph-name="b" horiz-adv-x="1058" unicode="b"/><glyph d="M518 899q-110 0 -168.5 -57.5t-62.5 -136.5q-6 -193 0 -386q4 -82 62.5 -138t143.5 -56q169 0 252 25l33 8l21 -144q-131 -34 -301 -34t-268.5 93t-102.5 238q-6 201 0 402q4 143 103.5 237t255.5 94t259 -18l37 -6l-14 -146q-140 25 -250 25z" glyph-name="c" horiz-adv-x="860" unicode="c"/><glyph d="M915 1434v-1434h-147l-10 72q-147 -94 -303 -94t-240 90t-88 235q-6 201 0 402q4 147 99.5 241t277.5 94q88 0 217 -28l37 -11v433h157zM452 123q72 0 145 25.5t116 52.5l45 24v627q-90 43 -254 43q-100 0 -156.5 -59.5t-60.5 -143.5q-6 -188 0 -377q4 -84 48.5 -138 t116.5 -54z" glyph-name="d" horiz-adv-x="1058" unicode="d"/><glyph d="M508 -20q-176 0 -275.5 93t-104.5 231t-5 206t5 206t107.5 233t271.5 95t273.5 -96t104.5 -235v-262h-600q0 -84 2 -127q4 -82 62.5 -140.5t144.5 -58.5q167 0 297 31l45 10l20 -137q-121 -49 -348 -49zM727 596q0 72 -2 104q-4 82 -63.5 140.5t-155.5 58.5t-155.5 -56.5 t-63.5 -142.5l-2 -104h442z" glyph-name="e" horiz-adv-x="997" unicode="e"/><glyph d="M41 879v145h156v147q0 127 73.5 205t206.5 78q69 0 168 -12l33 -6l-10 -140q-96 12 -193 13q-119 0 -119 -150v-135h293v-145h-293v-879h-159v879h-156z" glyph-name="f" horiz-adv-x="698" unicode="f"/><glyph d="M805 743v-149q0 -109 -77 -188.5t-204 -98.5v-53q0 -39 45 -66l199 -108q63 -35 93 -83t30 -137t-66.5 -148.5t-156.5 -80t-202 -20.5t-207 22.5t-136 44.5l-41 23l39 131q155 -78 315 -78t227.5 23.5t67.5 89.5q0 41 -11 58.5t-40 31.5l-250 131q-70 37 -70 152v69 q-131 20 -202.5 98t-71.5 187v149q0 127 96.5 210t266.5 83q80 0 137 -20l51 63q49 61 139 62l125 -13l-16 -127h-78q-43 0 -64 -26l-26 -33q88 -82 88 -199zM647 600v137q0 70 -54 113t-146.5 43t-147.5 -44t-55 -112v-137q0 -68 56 -111t148 -43t145.5 43t53.5 111z" glyph-name="g" horiz-adv-x="962" unicode="g"/><glyph d="M303 0h-160v1434h160v-480q151 84 307 84t239 -90t83 -235v-713h-160v700q0 84 -43 138.5t-115 54.5t-146.5 -22.5t-119.5 -47.5l-45 -22v-801z" glyph-name="h" horiz-adv-x="1064" unicode="h"/><glyph d="M147 0v1024h160v-1024h-160zM143 1233v201h170v-201h-170z" glyph-name="i" horiz-adv-x="456" unicode="i"/><glyph d="M147 1233v201h170v-201h-170zM309 1024v-1130q0 -127 -73.5 -205t-206.5 -78q-73 0 -127 12l-21 6l10 140q43 -12 140 -13q121 0 121 150v1118h157z" glyph-name="j" horiz-adv-x="460" unicode="j"/><glyph d="M143 0v1434h158v-1434h-158zM725 0l-424 541l397 483h187l-402 -483l432 -541h-190z" glyph-name="k" horiz-adv-x="925" unicode="k"/><glyph d="M143 0v1434h158v-1434h-158z" glyph-name="l" horiz-adv-x="444" unicode="l"/><glyph d="M846 0h-160v729q0 70 -40 120t-98 50t-117.5 -25.5t-94.5 -50.5l-35 -24v-799h-158v1024h150l8 -76q131 96 262 96q66 0 121 -29.5t78 -60.5l22 -28q55 47 134 82.5t145 35.5q143 0 231 -89t88 -242v-713h-159v700q0 88 -47.5 143.5t-106.5 55.5t-111.5 -23.5 t-80.5 -48.5l-31 -24v-803z" glyph-name="m" horiz-adv-x="1515" unicode="m"/><glyph d="M303 0h-160v1024h150l10 -70q145 90 304 90t242 -93t83 -238v-713h-160v700q0 84 -43 141.5t-117 57.5t-148.5 -24.5t-117.5 -49.5l-43 -24v-801z" glyph-name="n" horiz-adv-x="1064" unicode="n"/><glyph d="M522 -20q-182 0 -286.5 93t-108.5 238q-6 201 0 402q4 143 109.5 237t285.5 94t290 -95t114 -236q6 -201 0 -402q-4 -141 -113 -236t-291 -95zM526.5 899q-108.5 0 -172 -55.5t-67.5 -138.5q-10 -193 0 -386q4 -86 67.5 -140t173.5 -54t172 54t66 140q10 193 0 386 q-4 86 -67.5 140t-172 54z" glyph-name="o" horiz-adv-x="1052" unicode="o"/><glyph d="M143 -369v1393h148l10 -72q147 92 303 92t240 -89t88 -234q6 -201 0 -402q-4 -147 -99.5 -241t-277.5 -94q-88 0 -217 28l-37 11v-392h-158zM608 899q-127 0 -264 -76l-43 -24v-627q90 -43 254 -43q100 0 156.5 59.5t60.5 143.5q6 188 0 377q-4 84 -48 137t-116 53z" glyph-name="p" horiz-adv-x="1058" unicode="p"/><glyph d="M915 -369h-157v432q-143 -77 -299 -77t-242 90t-90 235q-6 201 0 402q4 147 99.5 239t281.5 92t352 -36l55 -15v-1362zM454 131q137 0 261 66l43 20v657q-90 25 -254 25q-102 0 -157.5 -57.5t-59.5 -141.5q-6 -188 0 -376q4 -84 48.5 -138.5t118.5 -54.5z" glyph-name="q" horiz-adv-x="1058" unicode="q"/><glyph d="M625 1044v-145q-84 0 -164 -44t-119 -89l-39 -43v-723h-160v1024h150l6 -125q14 16 41 40t112 64.5t173 40.5z" glyph-name="r" horiz-adv-x="645" unicode="r"/><glyph d="M476 899q-214 0 -214 -141q0 -63 57.5 -100t139.5 -57.5t165 -47.5t140 -93.5t57 -174.5q0 -305 -385 -305q-151 0 -280 36l-43 13l20 139q156 -43 288 -43t185 36.5t53 108.5t-57 111t-139 59.5t-164 47t-139.5 92t-57.5 174.5q0 145 96.5 217.5t254.5 72.5t268 -28 l37 -8l-17 -142q-158 33 -265 33z" glyph-name="s" horiz-adv-x="903" unicode="s"/><glyph d="M41 879v145h156v246h159v-246h293v-145h-293v-605q0 -150 109 -149q94 0 149 10l21 2l10 -139q-99 -18 -209 -18t-174.5 73.5t-64.5 192.5v633h-156z" glyph-name="t" horiz-adv-x="690" unicode="t"/><glyph d="M762 1024h160v-1024h-150l-10 70q-145 -90 -304 -90t-242 93t-83 238v713h160v-700q0 -84 42.5 -141.5t116.5 -57.5t149 24.5t118 49.5l43 24v801z" glyph-name="u" horiz-adv-x="1064" unicode="u"/><glyph d="M199 1024l264 -903h8l266 903h166l-313 -1024h-246l-313 1024h168z" glyph-name="v" horiz-adv-x="933" unicode="v"/><glyph d="M1006 127l129 897h168l-170 -1024h-254l-193 838h-8l-193 -838h-254l-170 1024h168l129 -897h9l208 897h213l209 -897h9z" glyph-name="w" horiz-adv-x="1363" unicode="w"/><glyph d="M246 1024l231 -367l232 367h182l-322 -492l344 -532h-180l-256 401l-256 -401h-180l344 532l-322 492h183z" glyph-name="x" horiz-adv-x="954" unicode="x"/><glyph d="M379 41l-348 983h178l276 -813h9l301 813h170l-535 -1393h-166l154 396z" glyph-name="y" horiz-adv-x="995" unicode="y"/><glyph d="M272 145h533v-145h-723v150l526 720v9h-504v145h693v-147l-525 -723v-9z" glyph-name="z" horiz-adv-x="886" unicode="z"/><glyph d="M594 -227v-162q-168 0 -284.5 110.5t-116.5 268.5v387q0 37 -33 63.5t-78 26.5v154q45 0 78 26.5t33 61.5v370q0 158 116.5 267.5t284.5 109.5v-166q-98 0 -163.5 -61.5t-65.5 -151.5v-348q0 -119 -119 -188q119 -66 119 -187v-366q0 -92 65.5 -153.5t163.5 -61.5z" glyph-name="braceleft" horiz-adv-x="686" unicode="{"/><glyph d="M174 -369v1803h133v-1803h-133z" glyph-name="bar" horiz-adv-x="481" unicode="|"/><glyph d="M92 -389v162q98 0 164 61.5t66 153.5v366q0 121 118 187q-119 70 -118 188v348q0 90 -66 151.5t-164 61.5v166q168 0 285 -109.5t117 -267.5v-370q0 -35 32.5 -61.5t77.5 -26.5v-154q-45 0 -77.5 -26.5t-32.5 -63.5v-387q0 -158 -117 -268.5t-285 -110.5z" glyph-name="braceright" horiz-adv-x="686" unicode="}"/><glyph d="M432 750q64 0 193 -75t184 -75t84 31t55.5 71.5t32.5 49.5l117 -76q-2 -2 -36.5 -56.5t-96 -114t-150.5 -59.5q-90 0 -219 75t-184 75t-84 -30.5t-55.5 -71.5t-32.5 -50l-117 76q2 2 29.5 46t45 64.5t52.5 54.5t76.5 49.5t105.5 15.5z" glyph-name="asciitilde" horiz-adv-x="1220" unicode="~"/><glyph d="M356 1024v-201h-168v201h168zM184 -410l15 1049h147l14 -1049h-176z" glyph-name="exclamdown" horiz-adv-x="544" unicode="¡"/><glyph d="M444 -102v106q-143 18 -223 108.5t-84 219.5q-6 201 0 401q4 127 84 218t223 110v106h160v-104l189 -23l-15 -145q-140 25 -250 25t-168.5 -57.5t-62.5 -137.5q-6 -193 0 -385q4 -82 62.5 -138.5t143.5 -56.5q152 0 255 25l30 8l21 -143q-88 -23 -205 -33v-104h-160z" glyph-name="cent" horiz-adv-x="942" unicode="¢"/><glyph d="M154 666v139h100q-37 143 -37 262q0 387 481 387q140 0 269 -24l41 -7l-9 -151q-150 23 -301 22q-309 0 -309 -227q0 -131 45 -262h535v-139h-494q41 -179 -4 -297.5t-78 -163.5l-31 -45h689v-160h-891v168q100 66 129.5 171t29.5 165t-28 162h-137z" glyph-name="sterling" horiz-adv-x="1153" unicode="£"/><glyph d="M593 1014q136 0 228 -76l111 111l108 -111l-131 -129q20 -57 21 -111v-202q0 -57 -19 -105l131 -129l-110 -110l-109 110q-94 -78 -233 -78t-228 76l-110 -108l-109 108l129 127q-18 49 -18 109v202q0 43 20 109l-129 131l111 111l109 -111q92 76 228 76zM766 477v240 q0 76 -49 118t-128 42t-126 -42t-47 -118v-238q0 -78 47 -117.5t127 -39.5t128 39.5t48 115.5z" glyph-name="currency" horiz-adv-x="1185" unicode="¤"/><glyph d="M1018 510v-137h-324v-373h-172v373h-323v137h307l-72 156h-235v139h172l-289 629h197l329 -779l330 779h197l-289 -629h172v-139h-238l-71 -156h309z" glyph-name="yen" horiz-adv-x="1216" unicode="¥"/><glyph d="M174 690v746h135v-746h-135zM174 -369v742h135v-742h-135z" glyph-name="brokenbar" horiz-adv-x="483" unicode="¦"/><glyph d="M1004 48q0 -169 -114 -257t-321 -88q-148 0 -307 27l-53 10l8 139q243 -35 365 -35q252 0 252 203q0 78 -50.5 124t-126 59.5t-163.5 34t-164 46t-126 94.5t-50 157t29.5 158.5t58.5 106.5l30 39q-108 80 -108 247t113.5 255t320.5 88q135 0 307 -26l53 -11l-8 -139 q-242 35 -364 35q-252 0 -252 -203q0 -78 50 -124t126 -59.5t164 -34t163.5 -46t126 -94t50.5 -156.5t-32 -158.5t-62 -107.5l-31 -39q115 -76 115 -245zM319 620q0 -92 50.5 -138t114 -59t150.5 -30.5t130 -36.5q84 92 84 184t-51.5 137.5t-115 59t-150.5 31t-128 35.5 q-84 -91 -84 -183z" glyph-name="section" horiz-adv-x="1167" unicode="§"/><glyph d="M0 1208v201h168v-201h-168zM348 1208v201h168v-201h-168z" glyph-name="dieresis" horiz-adv-x="516" unicode="¨"/><glyph d="M123 717q0 305 216 521t521 216t521 -216t216 -521t-216 -521t-521 -216t-521 216t-216 521zM258 717q0 -250 176 -426t426 -176t426 176t176 426t-176 426t-426 176t-426 -176t-176 -426zM844 307q-137 0 -217 77t-85 206t0 258t86 205.5t210 76.5t198 -16l27 -4 l-12 -119q-251 50 -314 -10.5t-65 -126.5q-2 -135 0 -272q2 -66 49 -111t117 -45q138 0 198 20l23 7l16 -117q-94 -29 -231 -29z" glyph-name="copyright" horiz-adv-x="1720" unicode="©"/><glyph d="M102 970q0 93 52.5 155.5t150.5 62.5h199v41q0 51 -34 88t-106 37t-182 -19l-35 -6l-10 96q125 29 239 29t175 -61.5t61 -155.5v-465h-100l-4 55q-100 -67 -198 -67t-153 58.5t-55 151.5zM309 864q39 0 87 21.5t79 44.5l29 20v137h-193q-96 1 -96 -111t94 -112zM123 567 v97h489v-97h-489z" glyph-name="ordfeminine" horiz-adv-x="755" unicode="ª"/><glyph d="M565 272h-182l-250 324l250 326h180l-252 -326zM932 272h-182l-250 324l250 326h180l-252 -326z" glyph-name="guillemotleft" horiz-adv-x="1075" unicode="«"/><glyph d="M1051 676v-520h-164v366h-744v154h908z" glyph-name="logicalnot" horiz-adv-x="1193" unicode="¬"/><glyph glyph-name="uni00AD" horiz-adv-x="1705" unicode="­"/><glyph d="M485 926v-164h-77v481h188q57 0 92 -32.5t35 -80.5v-88q0 -76 -72 -108l105 -172h-94l-91 164h-86zM645 1038v95q0 31 -49 30h-111v-159h111q49 -1 49 34zM102 1001.5q0 186.5 133.5 320.5t321.5 134t321.5 -134t133.5 -320.5t-133.5 -320.5t-321.5 -134t-321.5 134 t-133.5 320.5zM203 1001.5q0 -149.5 102.5 -252t252 -102.5t251.5 102.5t102 252t-102 252t-251.5 102.5t-252 -102.5t-102.5 -252z" glyph-name="registered" horiz-adv-x="1114" unicode="®"/><glyph d="M0 1217v145h618v-145h-618z" glyph-name="macron" horiz-adv-x="618" unicode="¯"/><glyph d="M113 1157q0 123 88 211t211 88t211 -88t88 -211t-88 -211t-211 -88t-211 88t-88 211zM246 1157.5q0 -67.5 48 -117t117 -49.5t116.5 49.5t47.5 117t-48.5 116.5t-116.5 49t-116 -49t-48 -116.5z" glyph-name="degree" horiz-adv-x="823" unicode="°"/><glyph d="M1049 152v-152h-906v152h906zM516 1024h160v-303h373v-154h-373v-305h-160v305h-373v154h373v303z" glyph-name="plusminus" horiz-adv-x="1191" unicode="±"/><glyph d="M389 1454q135 0 213 -64.5t78 -199.5q0 -90 -28.5 -145.5t-92.5 -116.5l-285 -269h404v-124h-555v145l330 321q57 57 75.5 94.5t18.5 98.5q0 135 -166 135q-102 0 -193 -22l-32 -9l-4 123q102 33 237 33z" glyph-name="uni00B2" horiz-adv-x="802" unicode="²"/><glyph d="M127 1313v121h514v-123l-190 -226q157 -29 189 -110.5t32 -161.5t-29 -144.5t-99 -110.5t-157 -46q-152 0 -235 29l-29 10l4 119q125 -35 238 -35q178 0 178 190q0 100 -56 122t-125 22h-67v106l192 238h-360z" glyph-name="uni00B3" horiz-adv-x="794" unicode="³"/><glyph d="M182 1151h-182l238 283h233z" glyph-name="acute" horiz-adv-x="468" unicode="´"/><glyph d="M143 -369v1393h160v-700q0 -84 42.5 -141.5t116.5 -57.5t149 24.5t118 49.5l43 24v801h160v-1024h-150l-10 70q-145 -90 -301 -90q-91 0 -152 32l-16 13v-394h-160z" glyph-name="uni00B5" horiz-adv-x="1075" unicode="µ"/><glyph d="M508 -369v1008q-166 0 -286 117.5t-120 280.5t119 280t289 117h410v-1803h-138v1651h-137v-1651h-137z" glyph-name="paragraph" horiz-adv-x="1083" unicode="¶"/><glyph d="M164 496v200h168v-200h-168z" glyph-name="periodcentered" horiz-adv-x="495" unicode="·"/><glyph d="M455 -223q0 -166 -174 -166l-158 12l6 88q72 -8 121 -8q82 0 82 74q0 61 -82 61h-82l35 162h112l-16 -82q74 0 115 -30.5t41 -110.5z" glyph-name="cedilla" horiz-adv-x="454" unicode="¸"/><glyph d="M371 1434v-902h-127v771l-148 -64v119l152 76h123z" glyph-name="uni00B9" horiz-adv-x="514" unicode="¹"/><glyph d="M368 760q-118 0 -187.5 62.5t-74.5 154.5q-6 131 -1 243t75 173t188 61t188.5 -61.5t74.5 -155.5q2 -131 0 -260q-4 -92 -74.5 -154.5t-188.5 -62.5zM370 1354q-68 0 -107.5 -35t-43.5 -88q-10 -125 0 -248q4 -53 44 -87t107.5 -34t106.5 34t43 87q8 98 0 248 q-4 55 -43 89t-107 34zM119 567v97h497v-97h-497z" glyph-name="ordmasculine" horiz-adv-x="735" unicode="º"/><glyph d="M692 272h-182l254 324l-252 326h180l250 -326zM326 272h-183l254 324l-252 326h181l249 -326z" glyph-name="guillemotright" horiz-adv-x="1075" unicode="»"/><glyph d="M786 188v113l304 602h143l-299 -590h264v230h127v-230h90v-125h-90v-188h-127v188h-412zM266 0l654 1434h141l-649 -1434h-146zM371 1434v-902h-127v771l-148 -64v119l152 76h123z" glyph-name="onequarter" horiz-adv-x="1558" unicode="¼"/><glyph d="M266 0l654 1434h141l-649 -1434h-146zM1477 655q0 -90 -29 -145t-92 -117l-285 -268h404v-125h-555v145l329 322q57 57 75.5 94t18.5 98q0 135 -165 136q-104 0 -226 -31l-4 123l31 8q91 25 216 25q126 0 204 -64.5t78 -200.5zM371 1434v-902h-127v771l-148 -64v119 l152 76h123z" glyph-name="onehalf" horiz-adv-x="1619" unicode="½"/><glyph d="M1053 188v113l303 602h143l-299 -590h264v230h127v-230h90v-125h-90v-188h-127v188h-411zM532 0l654 1434h141l-649 -1434h-146zM147 1313v121h515v-123l-191 -226q157 -29 189 -110.5t32 -161.5t-28.5 -144.5t-98.5 -110.5t-157 -46q-149 0 -236 29l-29 10l4 119 q125 -35 238 -35q178 0 178 190q0 100 -55.5 122t-124.5 22h-68v106l193 238h-361z" glyph-name="threequarters" horiz-adv-x="1824" unicode="¾"/><glyph d="M594 637h160q0 -215 -81 -294t-169 -117t-156.5 -81t-68.5 -192q0 -223 305 -223q186 0 383 41l8 -152l-37 -12q-35 -12 -133 -24.5t-221 -12.5q-217 0 -349.5 97t-132.5 292q0 119 37 196.5t91.5 109.5t118 62.5t117.5 56.5t91 90.5t37 162.5zM758 1024v-201h-168v201 h168z" glyph-name="questiondown" horiz-adv-x="1077" unicode="¿"/><glyph d="M492 1434h256l454 -1434h-182l-127 416h-545l-127 -416h-180zM846 569l-219 709h-15l-219 -709h453zM713 1561h-183l-288 282h233z" glyph-name="Agrave" horiz-adv-x="1243" unicode="À"/><glyph d="M492 1434h256l454 -1434h-182l-127 416h-545l-127 -416h-180zM846 569l-219 709h-15l-219 -709h453zM705 1561h-183l238 282h233z" glyph-name="Aacute" horiz-adv-x="1243" unicode="Á"/><glyph d="M492 1434h256l454 -1434h-182l-127 416h-545l-127 -416h-180zM846 569l-219 709h-15l-219 -709h453zM471 1561h-147l211 282h167l216 -282h-150l-152 153z" glyph-name="Acircumflex" horiz-adv-x="1243" unicode="Â"/><glyph d="M492 1434h256l454 -1434h-182l-127 416h-545l-127 -416h-180zM846 569l-219 709h-15l-219 -709h453zM303 1595q0 82 54.5 148.5t118.5 66.5t152.5 -43t112.5 -43t38 25t14 49h147q0 -82 -53 -148.5t-117 -66.5t-153 43t-113 43q-47 0 -58 -74h-143z" glyph-name="Atilde" horiz-adv-x="1243" unicode="Ã"/><glyph d="M492 1434h256l454 -1434h-182l-127 416h-545l-127 -416h-180zM846 569l-219 709h-15l-219 -709h453zM362 1618v201h168v-201h-168zM711 1618v201h168v-201h-168z" glyph-name="Adieresis" horiz-adv-x="1243" unicode="Ä"/><glyph d="M492 1434h256l454 -1434h-182l-127 416h-545l-127 -416h-180zM846 569l-219 709h-15l-219 -709h453zM442 1701q0 75 51 127t125 52t127.5 -52t53.5 -127t-53.5 -127t-127 -52t-125 52t-51.5 127zM547 1703q0 -32 19.5 -52.5t52 -20.5t53 20.5t20.5 52.5t-20.5 52.5 t-53 20.5t-52 -20.5t-19.5 -52.5z" glyph-name="Aring" horiz-adv-x="1243" unicode="Å"/><glyph d="M1831 1434v-160h-682v-451h618v-157h-618v-504h702v-162h-876v416h-555l-236 -416h-184l815 1434h1016zM975 569v705h-66l-399 -705h465z" glyph-name="AE" horiz-adv-x="1953" unicode="Æ"/><glyph d="M856 -223q0 -166 -174 -166l-158 12l6 88q72 -8 121 -8q82 0 82 74q0 61 -82 61h-82l31 144q-207 18 -333 149t-130 315q-6 270 0 541q4 197 149.5 332t372.5 135q160 0 308 -37l51 -10l-6 -152q-227 39 -368 39t-234 -90t-97 -217q-6 -270 0 -541q4 -129 96.5 -218 t249.5 -89q104 0 299 31l64 10l6 -151q-164 -39 -315 -47l-13 -64q74 0 115 -30.5t41 -110.5z" glyph-name="Ccedilla" horiz-adv-x="1120" unicode="Ç"/><glyph d="M164 1434h897v-160h-725v-451h661v-157h-661v-504h745v-162h-917v1434zM739 1561h-182l-289 282h234z" glyph-name="Egrave" horiz-adv-x="1183" unicode="È"/><glyph d="M164 1434h897v-160h-725v-451h661v-157h-661v-504h745v-162h-917v1434zM686 1561h-182l237 282h234z" glyph-name="Eacute" horiz-adv-x="1183" unicode="É"/><glyph d="M164 1434h897v-160h-725v-451h661v-157h-661v-504h745v-162h-917v1434zM487 1561h-147l211 282h168l215 -282h-150l-151 153z" glyph-name="Ecircumflex" horiz-adv-x="1183" unicode="Ê"/><glyph d="M164 1434h897v-160h-725v-451h661v-157h-661v-504h745v-162h-917v1434zM379 1618v201h168v-201h-168zM727 1618v201h168v-201h-168z" glyph-name="Edieresis" horiz-adv-x="1183" unicode="Ë"/><glyph d="M336 1434v-1434h-172v1434h172zM340 1561h-182l-289 282h233z" glyph-name="Igrave" horiz-adv-x="499" unicode="Ì"/><glyph d="M336 1434v-1434h-172v1434h172zM336 1561h-182l237 282h234z" glyph-name="Iacute" horiz-adv-x="499" unicode="Í"/><glyph d="M336 1434v-1434h-172v1434h172zM100 1561h-147l211 282h168l215 -282h-150l-151 153z" glyph-name="Icircumflex" horiz-adv-x="499" unicode="Î"/><glyph d="M336 1434v-1434h-172v1434h172zM-8 1618v201h168v-201h-168zM340 1618v201h168v-201h-168z" glyph-name="Idieresis" horiz-adv-x="499" unicode="Ï"/><glyph d="M166 0v666h-125v159h125v609h461q229 0 373.5 -126t148.5 -321q6 -270 0 -541q-4 -195 -146.5 -320.5t-375.5 -125.5h-461zM637 825v-159h-299v-506h289q160 0 251 79.5t95 206.5q6 270 0 541q-4 125 -96.5 206t-249.5 81h-289v-449h299z" glyph-name="Eth" horiz-adv-x="1286" unicode="Ð"/><glyph d="M1010 1434h170v-1434h-203l-594 1063l-57 133l8 -139v-1057h-170v1434h203l596 -1065l55 -131l-8 137v1059zM551 1669q-45 0 -55 -74h-144q0 82 55 148.5t119 66.5t152 -43t112 -43t38 25t14 49h147q0 -82 -53.5 -148.5t-117.5 -66.5t-152 43t-115 43z" glyph-name="Ntilde" horiz-adv-x="1343" unicode="Ñ"/><glyph d="M658 -20q-230 0 -373.5 134t-147.5 332q-6 270 0 541q4 197 149.5 332t373.5 135t372 -134t148 -333q6 -270 0 -541q-4 -197 -148 -331.5t-374 -134.5zM659.5 1300q-157.5 0 -252 -91t-98.5 -220q-6 -272 0 -545q4 -131 97.5 -221t251.5 -90t250 91t96 220q6 272 0 545 q-4 131 -95.5 221t-249 90zM748 1561h-183l-289 282h234z" glyph-name="Ograve" unicode="Ò"/><glyph d="M658 -20q-230 0 -373.5 134t-147.5 332q-6 270 0 541q4 197 149.5 332t373.5 135t372 -134t148 -333q6 -270 0 -541q-4 -197 -148 -331.5t-374 -134.5zM659.5 1300q-157.5 0 -252 -91t-98.5 -220q-6 -272 0 -545q4 -131 97.5 -221t251.5 -90t250 91t96 220q6 272 0 545 q-4 131 -95.5 221t-249 90zM739 1561h-182l238 282h233z" glyph-name="Oacute" unicode="Ó"/><glyph d="M658 -20q-230 0 -373.5 134t-147.5 332q-6 270 0 541q4 197 149.5 332t373.5 135t372 -134t148 -333q6 -270 0 -541q-4 -197 -148 -331.5t-374 -134.5zM659.5 1300q-157.5 0 -252 -91t-98.5 -220q-6 -272 0 -545q4 -131 97.5 -221t251.5 -90t250 91t96 220q6 272 0 545 q-4 131 -95.5 221t-249 90zM508 1561h-148l211 282h168l215 -282h-149l-152 153z" glyph-name="Ocircumflex" unicode="Ô"/><glyph d="M658 -20q-230 0 -373.5 134t-147.5 332q-6 270 0 541q4 197 149.5 332t373.5 135t372 -134t148 -333q6 -270 0 -541q-4 -197 -148 -331.5t-374 -134.5zM659.5 1300q-157.5 0 -252 -91t-98.5 -220q-6 -272 0 -545q4 -131 97.5 -221t251.5 -90t250 91t96 220q6 272 0 545 q-4 131 -95.5 221t-249 90zM340 1595q0 82 54.5 148.5t118.5 66.5t152.5 -43t112.5 -43t37.5 25t13.5 49h148q0 -82 -53.5 -148.5t-117.5 -66.5t-153 43t-113 43q-47 0 -57 -74h-143z" glyph-name="Otilde" unicode="Õ"/><glyph d="M658 -20q-230 0 -373.5 134t-147.5 332q-6 270 0 541q4 197 149.5 332t373.5 135t372 -134t148 -333q6 -270 0 -541q-4 -197 -148 -331.5t-374 -134.5zM659.5 1300q-157.5 0 -252 -91t-98.5 -220q-6 -272 0 -545q4 -131 97.5 -221t251.5 -90t250 91t96 220q6 272 0 545 q-4 131 -95.5 221t-249 90zM399 1618v201h168v-201h-168zM748 1618v201h167v-201h-167z" glyph-name="Odieresis" unicode="Ö"/><glyph d="M256 203l-109 108l285 283l-289 289l109 108l289 -289l286 287l109 -108l-287 -287l283 -283l-109 -108l-282 282z" glyph-name="multiply" horiz-adv-x="1079" unicode="×"/><glyph d="M659 1454q178 0 312 -88l41 68h166l-101 -164q98 -125 103 -283q6 -270 0 -541q-4 -197 -148.5 -331.5t-372.5 -134.5q-184 0 -317 88l-41 -68h-164l101 164q-96 123 -101 282q-6 270 0 541q4 197 149.5 332t372.5 135zM309 444q0 -63 25 -120l553 905q-96 71 -241 71 t-239 -91t-98 -220q-6 -273 0 -545zM666 133q148 0 241 91t97 220q6 272 0 545q-4 63 -25 119l-553 -903q92 -72 240 -72z" glyph-name="Oslash" unicode="Ø"/><glyph d="M1024 1434h172v-988q0 -197 -146.5 -331.5t-375.5 -134.5t-374.5 135t-145.5 331v988h172v-988q0 -127 95 -217t253 -90t254 90t96 217v988zM813 1561h-182l-289 282h233z" glyph-name="Ugrave" horiz-adv-x="1349" unicode="Ù"/><glyph d="M1024 1434h172v-988q0 -197 -146.5 -331.5t-375.5 -134.5t-374.5 135t-145.5 331v988h172v-988q0 -127 95 -217t253 -90t254 90t96 217v988zM750 1561h-183l238 282h233z" glyph-name="Uacute" horiz-adv-x="1349" unicode="Ú"/><glyph d="M1024 1434h172v-988q0 -197 -146.5 -331.5t-375.5 -134.5t-374.5 135t-145.5 331v988h172v-988q0 -127 95 -217t253 -90t254 90t96 217v988zM524 1561h-147l211 282h168l215 -282h-150l-151 153z" glyph-name="Ucircumflex" horiz-adv-x="1349" unicode="Û"/><glyph d="M1024 1434h172v-988q0 -197 -146.5 -331.5t-375.5 -134.5t-374.5 135t-145.5 331v988h172v-988q0 -127 95 -217t253 -90t254 90t96 217v988zM416 1618v201h168v-201h-168zM764 1618v201h168v-201h-168z" glyph-name="Udieresis" horiz-adv-x="1349" unicode="Ü"/><glyph d="M684 0h-172v582l-481 852h196l371 -680l369 680h198l-481 -852v-582zM664 1561h-183l238 282h233z" glyph-name="Yacute" horiz-adv-x="1196" unicode="Ý"/><glyph d="M164 0v1434h172v-185h381q168 0 263 -89t104 -233q9 -145 0 -289t-104 -234.5t-263 -90.5h-381v-313h-172zM721 1090h-385v-617h385q176 0 188 156q10 153 0 307t-188 154z" glyph-name="Thorn" horiz-adv-x="1171" unicode="Þ"/><glyph d="M658 129q202 0 202 145q0 123 -83 173.5t-132 83t-83 92t-34 146.5t59.5 162t117.5 105l59 33v39q0 88 -63.5 144.5t-172 56.5t-167 -55.5t-58.5 -145.5v-1108h-160v1122q0 143 100.5 237.5t277.5 94.5t287 -96t110 -236v-125q-144 -58 -187 -121t-43 -106t35 -83 t84 -69.5t97 -66.5t83 -104.5t35 -161.5q0 -299 -385 -299q-78 0 -186 18l-37 6l22 142q124 -23 222 -23z" glyph-name="germandbls" horiz-adv-x="1103" unicode="ß"/><glyph d="M410 -20q-143 0 -225.5 88t-82.5 231t79 237.5t229 94.5h313v69q0 82 -55.5 140.5t-135.5 58.5q-145 0 -307 -27l-55 -10l-14 139q194 43 364 43t265.5 -94t95.5 -237v-713h-146l-10 90q-66 -44 -157 -77t-158 -33zM416 127q66 0 142.5 35t121.5 69l43 35v219h-305 q-156 0 -156 -179t154 -179zM600 1151h-182l-289 283h233z" glyph-name="agrave" horiz-adv-x="1013" unicode="à"/><glyph d="M410 -20q-143 0 -225.5 88t-82.5 231t79 237.5t229 94.5h313v69q0 82 -55.5 140.5t-135.5 58.5q-145 0 -307 -27l-55 -10l-14 139q194 43 364 43t265.5 -94t95.5 -237v-713h-146l-10 90q-66 -44 -157 -77t-158 -33zM416 127q66 0 142.5 35t121.5 69l43 35v219h-305 q-156 0 -156 -179t154 -179zM588 1151h-182l237 283h234z" glyph-name="aacute" horiz-adv-x="1013" unicode="á"/><glyph d="M410 -20q-143 0 -225.5 88t-82.5 231t79 237.5t229 94.5h313v69q0 82 -55.5 140.5t-135.5 58.5q-145 0 -307 -27l-55 -10l-14 139q194 43 364 43t265.5 -94t95.5 -237v-713h-146l-10 90q-66 -44 -157 -77t-158 -33zM416 127q66 0 142.5 35t121.5 69l43 35v219h-305 q-156 0 -156 -179t154 -179zM356 1151h-147l211 283h168l215 -283h-150l-151 154z" glyph-name="acircumflex" horiz-adv-x="1013" unicode="â"/><glyph d="M410 -20q-143 0 -225.5 88t-82.5 231t79 237.5t229 94.5h313v69q0 82 -55.5 140.5t-135.5 58.5q-145 0 -307 -27l-55 -10l-14 139q194 43 364 43t265.5 -94t95.5 -237v-713h-146l-10 90q-66 -44 -157 -77t-158 -33zM416 127q66 0 142.5 35t121.5 69l43 35v219h-305 q-156 0 -156 -179t154 -179zM387 1260q-45 0 -55 -74h-144q0 82 55 148.5t119 66.5t152 -43t112 -43t38 24.5t14 49.5h147q0 -82 -53.5 -148.5t-117.5 -66.5t-152 43t-115 43z" glyph-name="atilde" horiz-adv-x="1013" unicode="ã"/><glyph d="M410 -20q-143 0 -225.5 88t-82.5 231t79 237.5t229 94.5h313v69q0 82 -55.5 140.5t-135.5 58.5q-145 0 -307 -27l-55 -10l-14 139q194 43 364 43t265.5 -94t95.5 -237v-713h-146l-10 90q-66 -44 -157 -77t-158 -33zM416 127q66 0 142.5 35t121.5 69l43 35v219h-305 q-156 0 -156 -179t154 -179zM248 1208v201h168v-201h-168zM596 1208v201h168v-201h-168z" glyph-name="adieresis" horiz-adv-x="1013" unicode="ä"/><glyph d="M410 -20q-143 0 -225.5 88t-82.5 231t79 237.5t229 94.5h313v69q0 82 -55.5 140.5t-135.5 58.5q-145 0 -307 -27l-55 -10l-14 139q194 43 364 43t265.5 -94t95.5 -237v-713h-146l-10 90q-66 -44 -157 -77t-158 -33zM416 127q66 0 142.5 35t121.5 69l43 35v219h-305 q-156 0 -156 -179t154 -179zM328 1291q0 75 50 127t125 52t128 -52t53 -127t-53 -127t-127 -52t-125 52t-51 127zM432 1293q0 -32 19.5 -52t52.5 -20t53.5 20.5t20.5 52.5t-20.5 52t-53.5 20t-52.5 -20.5t-19.5 -52.5z" glyph-name="aring" horiz-adv-x="1013" unicode="å"/><glyph d="M1109 -20q-224 0 -327 145q-221 -145 -368 -145t-229.5 88t-82.5 229t78 225t230 84h313q0 40 -3 108t-55.5 126.5t-132.5 58.5q-145 0 -307 -27l-55 -10l-14 139q192 43 372 43t281 -120q105 120 285 120t284.5 -96t104.5 -235v-252h-600q0 -94 2 -137 q4 -82 62.5 -140.5t144.5 -58.5q167 0 297 31l45 10l20 -137q-121 -49 -345 -49zM416 127q66 0 144.5 37t123.5 74l45 34l-8 189h-303q-84 0 -120 -41t-36 -119q0 -174 154 -174zM1325 606q0 61 -2 94q-4 82 -63.5 140.5t-155.5 58.5t-155.5 -56.5t-63.5 -142.5l-2 -94h442z " glyph-name="ae" horiz-adv-x="1595" unicode="æ"/><glyph d="M696 -223q0 -166 -174 -166l-157 12l6 88q72 -8 121 -8q82 0 81 74q0 61 -81 61h-82l30 146q-147 16 -228 106t-85 221q-6 201 0 402q4 143 103.5 237t255.5 94t259 -18l37 -6l-14 -146q-140 25 -250 25t-168.5 -57.5t-62.5 -136.5q-6 -193 0 -386q4 -82 62.5 -138 t143.5 -56q169 0 252 25l33 8l21 -144q-106 -27 -246 -32l-12 -64q74 0 114.5 -30.5t40.5 -110.5z" glyph-name="ccedilla" horiz-adv-x="860" unicode="ç"/><glyph d="M508 -20q-176 0 -275.5 93t-104.5 231t-5 206t5 206t107.5 233t271.5 95t273.5 -96t104.5 -235v-262h-600q0 -84 2 -127q4 -82 62.5 -140.5t144.5 -58.5q167 0 297 31l45 10l20 -137q-121 -49 -348 -49zM727 596q0 72 -2 104q-4 82 -63.5 140.5t-155.5 58.5t-155.5 -56.5 t-63.5 -142.5l-2 -104h442zM612 1151h-182l-289 283h234z" glyph-name="egrave" horiz-adv-x="997" unicode="è"/><glyph d="M508 -20q-176 0 -275.5 93t-104.5 231t-5 206t5 206t107.5 233t271.5 95t273.5 -96t104.5 -235v-262h-600q0 -84 2 -127q4 -82 62.5 -140.5t144.5 -58.5q167 0 297 31l45 10l20 -137q-121 -49 -348 -49zM727 596q0 72 -2 104q-4 82 -63.5 140.5t-155.5 58.5t-155.5 -56.5 t-63.5 -142.5l-2 -104h442zM575 1151h-182l238 283h233z" glyph-name="eacute" horiz-adv-x="997" unicode="é"/><glyph d="M508 -20q-176 0 -275.5 93t-104.5 231t-5 206t5 206t107.5 233t271.5 95t273.5 -96t104.5 -235v-262h-600q0 -84 2 -127q4 -82 62.5 -140.5t144.5 -58.5q167 0 297 31l45 10l20 -137q-121 -49 -348 -49zM727 596q0 72 -2 104q-4 82 -63.5 140.5t-155.5 58.5t-155.5 -56.5 t-63.5 -142.5l-2 -104h442zM348 1151h-147l211 283h168l215 -283h-150l-151 154z" glyph-name="ecircumflex" horiz-adv-x="997" unicode="ê"/><glyph d="M508 -20q-176 0 -275.5 93t-104.5 231t-5 206t5 206t107.5 233t271.5 95t273.5 -96t104.5 -235v-262h-600q0 -84 2 -127q4 -82 62.5 -140.5t144.5 -58.5q167 0 297 31l45 10l20 -137q-121 -49 -348 -49zM727 596q0 72 -2 104q-4 82 -63.5 140.5t-155.5 58.5t-155.5 -56.5 t-63.5 -142.5l-2 -104h442zM240 1208v201h168v-201h-168zM588 1208v201h168v-201h-168z" glyph-name="edieresis" horiz-adv-x="997" unicode="ë"/><glyph d="M147 0v1024h160v-1024h-160zM338 1151h-182l-289 283h233z" glyph-name="igrave" horiz-adv-x="456" unicode="ì"/><glyph d="M147 0v1024h160v-1024h-160zM279 1151h-183l238 283h233z" glyph-name="iacute" horiz-adv-x="456" unicode="í"/><glyph d="M147 0v1024h160v-1024h-160zM80 1151h-148l211 283h168l215 -283h-149l-152 154z" glyph-name="icircumflex" horiz-adv-x="456" unicode="î"/><glyph d="M147 0v1024h160v-1024h-160zM-29 1208v201h168v-201h-168zM319 1208v201h168v-201h-168z" glyph-name="idieresis" horiz-adv-x="456" unicode="ï"/><glyph d="M522 -20q-182 0 -286.5 93t-108.5 249t0 308q4 154 109.5 248.5t291.5 94.5q88 0 203 -33l35 -10q0 98 -66 200l-180 -79v153l82 37q-86 63 -180 64l-111 -2l-10 145q80 6 100 6q211 0 349 -147l182 82v-154l-98 -45q92 -164 92 -354q4 -408 0 -537t-113 -224t-291 -95z M548 827q-130 0 -193.5 -55t-67.5 -139q-8 -156 0 -314q4 -86 67.5 -140t171.5 -54t174 58.5t66 135.5v461q-88 47 -218 47z" glyph-name="eth" horiz-adv-x="1054" unicode="ð"/><glyph d="M303 0h-160v1024h150l10 -70q145 90 304 90t242 -93t83 -238v-713h-160v700q0 84 -43 141.5t-117 57.5t-148.5 -24.5t-117.5 -49.5l-43 -24v-801zM213 1186q0 82 54.5 148.5t119.5 66.5t152.5 -43t111.5 -43t37.5 24.5t13.5 49.5h148q0 -82 -53.5 -148.5t-117.5 -66.5 t-152.5 43t-112.5 43q-47 0 -58 -74h-143z" glyph-name="ntilde" horiz-adv-x="1064" unicode="ñ"/><glyph d="M522 -20q-182 0 -286.5 93t-108.5 238q-6 201 0 402q4 143 109.5 237t285.5 94t290 -95t114 -236q6 -201 0 -402q-4 -141 -113 -236t-291 -95zM526.5 899q-108.5 0 -172 -55.5t-67.5 -138.5q-10 -193 0 -386q4 -86 67.5 -140t173.5 -54t172 54t66 140q10 193 0 386 q-4 86 -67.5 140t-172 54zM631 1151h-182l-289 283h233z" glyph-name="ograve" horiz-adv-x="1052" unicode="ò"/><glyph d="M522 -20q-182 0 -286.5 93t-108.5 238q-6 201 0 402q4 143 109.5 237t285.5 94t290 -95t114 -236q6 -201 0 -402q-4 -141 -113 -236t-291 -95zM526.5 899q-108.5 0 -172 -55.5t-67.5 -138.5q-10 -193 0 -386q4 -86 67.5 -140t173.5 -54t172 54t66 140q10 193 0 386 q-4 86 -67.5 140t-172 54zM575 1151h-182l238 283h233z" glyph-name="oacute" horiz-adv-x="1052" unicode="ó"/><glyph d="M522 -20q-182 0 -286.5 93t-108.5 238q-6 201 0 402q4 143 109.5 237t285.5 94t290 -95t114 -236q6 -201 0 -402q-4 -141 -113 -236t-291 -95zM526.5 899q-108.5 0 -172 -55.5t-67.5 -138.5q-10 -193 0 -386q4 -86 67.5 -140t173.5 -54t172 54t66 140q10 193 0 386 q-4 86 -67.5 140t-172 54zM377 1151h-148l211 283h168l215 -283h-149l-152 154z" glyph-name="ocircumflex" horiz-adv-x="1052" unicode="ô"/><glyph d="M522 -20q-182 0 -286.5 93t-108.5 238q-6 201 0 402q4 143 109.5 237t285.5 94t290 -95t114 -236q6 -201 0 -402q-4 -141 -113 -236t-291 -95zM526.5 899q-108.5 0 -172 -55.5t-67.5 -138.5q-10 -193 0 -386q4 -86 67.5 -140t173.5 -54t172 54t66 140q10 193 0 386 q-4 86 -67.5 140t-172 54zM207 1186q0 82 53.5 148.5t119.5 66.5t154.5 -43t111.5 -43t36.5 24.5t13.5 49.5h148q0 -82 -53.5 -148.5t-117.5 -66.5t-152.5 43t-114.5 43q-46 0 -56 -74h-143z" glyph-name="otilde" horiz-adv-x="1052" unicode="õ"/><glyph d="M522 -20q-182 0 -286.5 93t-108.5 238q-6 201 0 402q4 143 109.5 237t285.5 94t290 -95t114 -236q6 -201 0 -402q-4 -141 -113 -236t-291 -95zM526.5 899q-108.5 0 -172 -55.5t-67.5 -138.5q-10 -193 0 -386q4 -86 67.5 -140t173.5 -54t172 54t66 140q10 193 0 386 q-4 86 -67.5 140t-172 54zM268 1208v201h168v-201h-168zM616 1208v201h168v-201h-168z" glyph-name="odieresis" horiz-adv-x="1052" unicode="ö"/><glyph d="M494 176v203h204v-203h-204zM494 829v203h204v-203h-204zM143 676h906v-154h-906v154z" glyph-name="divide" horiz-adv-x="1191" unicode="÷"/><glyph d="M528 -20q-133 0 -227 49l-18 -29h-154l70 111q-68 84 -72 200q-6 201 0 402q4 143 109.5 237t291.5 94q125 0 224 -55l22 35h156l-76 -119q68 -84 72 -192q6 -201 0 -402q-4 -141 -112.5 -236t-285.5 -95zM515 899q-98 0 -161 -55.5t-67 -138.5q-19 -364 10 -439l375 596 q-59 37 -157 37zM540 125q98 0 160 54t66 140q10 193 0 386q-4 29 -8 47l-375 -592q59 -35 157 -35z" glyph-name="oslash" horiz-adv-x="1052" unicode="ø"/><glyph d="M762 1024h160v-1024h-150l-10 70q-145 -90 -304 -90t-242 93t-83 238v713h160v-700q0 -84 42.5 -141.5t116.5 -57.5t149 24.5t118 49.5l43 24v801zM653 1151h-182l-289 283h234z" glyph-name="ugrave" horiz-adv-x="1064" unicode="ù"/><glyph d="M762 1024h160v-1024h-150l-10 70q-145 -90 -304 -90t-242 93t-83 238v713h160v-700q0 -84 42.5 -141.5t116.5 -57.5t149 24.5t118 49.5l43 24v801zM584 1151h-183l238 283h233z" glyph-name="uacute" horiz-adv-x="1064" unicode="ú"/><glyph d="M762 1024h160v-1024h-150l-10 70q-145 -90 -304 -90t-242 93t-83 238v713h160v-700q0 -84 42.5 -141.5t116.5 -57.5t149 24.5t118 49.5l43 24v801zM383 1151h-147l210 283h168l215 -283h-149l-152 154z" glyph-name="ucircumflex" horiz-adv-x="1064" unicode="û"/><glyph d="M762 1024h160v-1024h-150l-10 70q-145 -90 -304 -90t-242 93t-83 238v713h160v-700q0 -84 42.5 -141.5t116.5 -57.5t149 24.5t118 49.5l43 24v801zM274 1208v201h168v-201h-168zM623 1208v201h168v-201h-168z" glyph-name="udieresis" horiz-adv-x="1064" unicode="ü"/><glyph d="M379 41l-348 983h178l276 -813h9l301 813h170l-535 -1393h-166l154 396zM565 1151h-182l238 283h233z" glyph-name="yacute" horiz-adv-x="995" unicode="ý"/><glyph d="M143 -369v1805h158v-484q147 92 303 92t240 -89t88 -234q6 -201 0 -402q-4 -147 -99.5 -241t-277.5 -94q-88 0 -217 28l-37 11v-392h-158zM608 899q-127 0 -264 -76l-43 -24v-627q90 -43 254 -43q100 0 156.5 59.5t60.5 143.5q6 188 0 377q-4 84 -48 137t-116 53z" glyph-name="thorn" horiz-adv-x="1058" unicode="þ"/><glyph d="M379 41l-348 983h178l276 -813h9l301 813h170l-535 -1393h-166l154 396zM238 1208v201h168v-201h-168zM586 1208v201h168v-201h-168z" glyph-name="ydieresis" horiz-adv-x="995" unicode="ÿ"/><glyph d="M147 0v1024h160v-1024h-160z" glyph-name="dotlessi" horiz-adv-x="456" unicode="ı"/><glyph d="M166 1434h174v-631l408 231v-176l-408 -231v-465h645v-162h-819v528l-125 -69v176l125 70v729z" glyph-name="Lslash" horiz-adv-x="1026" unicode="Ł"/><glyph d="M158 0v614l-117 -65v166l117 65v654h157v-564l179 103v-166l-179 -102v-705h-157z" glyph-name="lslash" horiz-adv-x="534" unicode="ł"/><glyph d="M659 1434h1102v-160h-682v-451h619v-157h-619v-504h703v-162h-1123q-233 0 -375.5 126t-146.5 320q-6 270 0 541q4 195 148.5 321t373.5 126zM659 160h246v1114h-246q-158 0 -250 -81t-96 -206q-6 -271 0 -541q4 -127 95.5 -206.5t250.5 -79.5z" glyph-name="OE" horiz-adv-x="1884" unicode="Œ"/><glyph d="M1159 -20q-215 0 -319 124q-108 -124 -304 -124t-300.5 93t-108.5 238q-6 201 0 402q4 143 109.5 237t299.5 94t306 -129q104 129 288 129t289 -96t105 -235v-262h-600q0 -84 2 -127q4 -82 62.5 -140.5t144.5 -58.5q167 0 297 31l45 10l20 -137q-121 -49 -336 -49z M527 125q110 0 174.5 54t64.5 136v392q0 84 -64.5 138t-174.5 54t-173 -55.5t-67 -138.5q-10 -193 0 -386q4 -86 67 -140t173 -54zM1366 596q0 72 -2 104q-4 82 -63.5 140.5t-155.5 58.5t-155.5 -56.5t-63.5 -142.5l-2 -104h442z" glyph-name="oe" horiz-adv-x="1636" unicode="œ"/><glyph d="M594 1294q-305 0 -305 -223q0 -104 83 -163.5t200.5 -87t235.5 -63.5t201 -127t83 -243q0 -408 -529 -407q-199 0 -370 36l-56 15l8 153q207 -45 407 -45t281.5 53.5t81.5 178.5q0 72 -34.5 123t-91 77.5t-128 51t-147.5 41t-147.5 47t-128 70.5t-91 113t-34.5 171 q0 195 132 292t354 97t351 -37l45 -10l-8 -152q-221 39 -393 39zM295 1843h147l146 -153l151 153h150l-215 -282h-168z" glyph-name="Scaron" horiz-adv-x="1183" unicode="Š"/><glyph d="M435 125q224 1 224 145q0 72 -57 111t-139 59.5t-164 47t-139.5 92t-57.5 174.5q0 145 96.5 217.5t261.5 72.5t298 -36l-17 -142l-43 8q-134 25 -232 25q-204 0 -204 -141q0 -63 57.5 -100t139.5 -57.5t165 -47.5t140 -93.5t57 -174.5q0 -305 -385 -305q-172 0 -323 49 l20 139l43 -10q141 -33 259 -33zM154 1434h147l145 -154l152 154h150l-216 -283h-167z" glyph-name="scaron" horiz-adv-x="903" unicode="š"/><glyph d="M684 0h-172v582l-481 852h196l371 -680l369 680h198l-481 -852v-582zM340 1618v201h168v-201h-168zM688 1618v201h168v-201h-168z" glyph-name="Ydieresis" horiz-adv-x="1196" unicode="Ÿ"/><glyph d="M303 160h797v-160h-998v172l785 1094v8h-768v160h973v-172l-789 -1094v-8zM303 1843h148l145 -153l152 153h149l-215 -282h-168z" glyph-name="Zcaron" horiz-adv-x="1202" unicode="Ž"/><glyph d="M272 145h533v-145h-723v150l526 720v9h-504v145h693v-147l-525 -723v-9zM145 1434h148l145 -154l152 154h149l-215 -283h-168z" glyph-name="zcaron" horiz-adv-x="886" unicode="ž"/><glyph d="M88 -387q-72 0 -149 14l-21 4l25 140q51 -12 147 -13q109 0 125 150l88 827h-156l15 146h155l31 290q12 127 94 205t215 78q67 0 154 -12l27 -6l-27 -140q-74 12 -170 13q-119 0 -135 -150l-29 -278h293l-14 -146h-293l-90 -856q-12 -119 -85 -192.5t-200 -73.5z" glyph-name="florin" horiz-adv-x="899" unicode="ƒ"/><glyph d="M147 1151h-147l211 283h168l215 -283h-150l-151 154z" glyph-name="circumflex" horiz-adv-x="593" unicode="ˆ"/><glyph d="M0 1434h147l146 -154l151 154h150l-215 -283h-168z" glyph-name="caron" horiz-adv-x="593" unicode="ˇ"/><glyph d="M0 1434h152q0 -45 27.5 -79t62.5 -34h90q37 0 62.5 34t25.5 79h151q0 -109 -72.5 -184.5t-170.5 -75.5h-84q-100 0 -172 75.5t-72 184.5z" glyph-name="breve" horiz-adv-x="571" unicode="˘"/><glyph d="M0 1208v201h168v-201h-168z" glyph-name="dotaccent" horiz-adv-x="167" unicode="˙"/><glyph d="M-16 1291q0 75 50 127t125 52t128 -52t53 -127t-53.5 -127t-127 -52t-124.5 52t-51 127zM88 1293q0 -32 19.5 -52t52.5 -20t53 20.5t20 52.5t-20 52t-53 20t-52.5 -20.5t-19.5 -52.5z" glyph-name="ring" horiz-adv-x="323" unicode="˚"/><glyph d="M240 -387q-74 0 -121 49.5t-47 111.5t37.5 117.5t74.5 81.5l37 27h146q-57 -50 -97.5 -108t-40.5 -95q0 -53 52 -53l96 12l16 -116q-79 -27 -153 -27z" glyph-name="ogonek" horiz-adv-x="464" unicode="˛"/><glyph d="M0 1186q0 82 54.5 148.5t118.5 66.5t152.5 -43t112.5 -43t37.5 24.5t13.5 49.5h148q0 -82 -53.5 -148.5t-117.5 -66.5t-153 43t-113 43q-47 0 -57 -74h-143z" glyph-name="tilde" horiz-adv-x="636" unicode="˜"/><glyph d="M182 1151h-182l238 283h233zM580 1151h-183l238 283h233z" glyph-name="hungarumlaut" horiz-adv-x="868" unicode="˝"/><glyph d="M799 676v-154h-799v154h799z" glyph-name="endash" horiz-adv-x="798" unicode="–"/><glyph d="M1597 676v-154h-1597v154h1597z" glyph-name="emdash" horiz-adv-x="1597" unicode="—"/><glyph d="M215 1217v-201h-174v184q0 141 60.5 198.5t134.5 57.5v-78q-45 0 -69 -36.5t-24 -92.5l2 -32h70z" glyph-name="quoteleft" horiz-adv-x="329" unicode="‘"/><glyph d="M115 1233v201h174v-185q0 -141 -60.5 -198.5t-134.5 -57.5v78q45 0 68.5 37t23.5 92l-2 33h-69z" glyph-name="quoteright" horiz-adv-x="329" unicode="’"/><glyph d="M115 0v201h174v-185q0 -141 -60.5 -198.5t-134.5 -57.5v78q45 0 68.5 37t23.5 92l-2 33h-69z" glyph-name="quotesinglbase" horiz-adv-x="421" unicode="‚"/><glyph d="M526 1217v-201h-174v184q0 141 60.5 198.5t134.5 57.5v-78q-45 0 -68.5 -36.5t-23.5 -92.5l2 -32h69zM215 1217v-201h-174v184q0 141 60.5 198.5t134.5 57.5v-78q-45 0 -69 -36.5t-24 -92.5l2 -32h70z" glyph-name="quotedblleft" horiz-adv-x="641" unicode="“"/><glyph d="M115 1233v201h174v-185q0 -141 -60.5 -198.5t-134.5 -57.5v78q45 0 68.5 37t23.5 92l-2 33h-69zM426 1233v201h174v-185q0 -141 -60.5 -198.5t-133.5 -57.5v78q45 0 68.5 37t23.5 92l-2 33h-70z" glyph-name="quotedblright" horiz-adv-x="641" unicode="”"/><glyph d="M115 0v201h174v-185q0 -141 -60.5 -198.5t-134.5 -57.5v78q45 0 68.5 37t23.5 92l-2 33h-69zM426 0v201h174v-185q0 -141 -60.5 -198.5t-133.5 -57.5v78q45 0 68.5 37t23.5 92l-2 33h-70z" glyph-name="quotedblbase" horiz-adv-x="733" unicode="„"/><glyph d="M649 879v-1248h-160v1248h-366v145h366v410h160v-410h383v-145h-383z" glyph-name="dagger" horiz-adv-x="1155" unicode="†"/><glyph d="M1032 186v-145h-383v-410h-160v410h-366v145h366v693h-366v145h366v410h160v-410h383v-145h-383v-693h383z" glyph-name="daggerdbl" horiz-adv-x="1155" unicode="‡"/><glyph d="M154 734q0 128 90 219t218 91t219 -91t91 -219t-91 -218t-219 -90t-218 90t-90 218z" glyph-name="bullet" horiz-adv-x="925" unicode="•"/><glyph d="M164 0v201h168v-201h-168zM659 0v201h168v-201h-168zM1155 0v201h168v-201h-168z" glyph-name="ellipsis" horiz-adv-x="1486" unicode="…"/><glyph d="M778 1167v-184q0 -127 -87 -207t-214 -80h-14q-125 0 -212 81t-87 206v184q0 127 87 207t212 80h14q125 0 213 -80t88 -207zM629 965v219q0 70 -45 107.5t-116 37.5t-114 -38t-43 -107v-217q0 -70 43 -108t115 -38t116 38t44 106zM504 0l653 1434h152l-650 -1434h-155z M1651 449v-185q0 -127 -87 -207t-214 -80h-15q-125 0 -212 81t-87 206v185q0 127 87 206.5t212 79.5h15q125 0 213 -79.5t88 -206.5zM1501 246v219q0 70 -45 107.5t-116 37.5t-113.5 -37.5t-42.5 -107.5v-217q0 -70 43 -108t115 -38t115.5 38t43.5 106zM2386 449v-185 q0 -127 -87 -207t-214 -80h-14q-125 0 -212 81t-87 206v185q0 127 87 206.5t212 79.5h14q125 0 213 -79.5t88 -206.5zM2236 246v219q0 70 -45 107.5t-115 37.5t-113.5 -37.5t-43.5 -107.5v-217q0 -70 43 -108t115 -38t115.5 38t43.5 106z" glyph-name="perthousand" horiz-adv-x="2549" unicode="‰"/><glyph d="M565 272h-182l-250 324l250 326h180l-252 -326z" glyph-name="guilsinglleft" horiz-adv-x="708" unicode="‹"/><glyph d="M326 272h-181l252 324l-254 326h183l249 -326z" glyph-name="guilsinglright" horiz-adv-x="708" unicode="›"/><glyph d="M-150 0l654 1434h141l-649 -1434h-146z" glyph-name="fraction" horiz-adv-x="501" unicode="⁄"/><glyph d="M899 930v-139h-508v-158h455v-137h-453l2 -50q4 -129 96.5 -218t249.5 -89q84 0 248 21l47 8l6 -152q-135 -37 -301 -36q-231 0 -374.5 134t-147.5 332l-2 50h-135v137h133v158h-133v139h135l2 57q4 197 149.5 332t372.5 135q156 0 258 -24l37 -11l-6 -151 q-164 26 -304 26t-233.5 -90t-97.5 -217l-2 -57h506z" glyph-name="Euro" horiz-adv-x="1165" unicode="€"/><glyph d="M143 1325v109h490v-109h-189v-606h-114v606h-187zM1368 1434v-715h-115v510l-147 -232h-105l-139 232v-510h-117v715h127l185 -314l184 314h127z" glyph-name="trademark" horiz-adv-x="1552" unicode="™"/><glyph d="M143 676h906v-154h-906v154z" glyph-name="minus" horiz-adv-x="1191" unicode="−"/><glyph d="M799 0v879h-443v-879h-159v879h-156v145h156v147q0 127 73.5 205t206.5 78q69 0 168 -12l33 -6l-10 -140q-96 12 -193 13q-119 0 -119 -150v-135h602v-1024h-159zM795 1233v201h170v-201h-170z" glyph-name="uniFB01" horiz-adv-x="1107" unicode="ﬁ"/><glyph d="M799 0v1298q-203 10 -324 11q-119 0 -119 -150v-135h293v-145h-293v-879h-159v879h-156v145h156v147q0 127 73.5 205t206.5 78q71 0 137 -3t170.5 -7.5t153.5 -9.5h18v-1434h-157z" glyph-name="uniFB02" horiz-adv-x="1099" unicode="ﬂ"/></font>
</defs>
</svg>
