<?xml version="1.0" standalone="no"?>
<!DOCTYPE svg PUBLIC "-//W3C//DTD SVG 1.1//EN" "http://www.w3.org/Graphics/SVG/1.1/DTD/svg11.dtd">
<svg xmlns="http://www.w3.org/2000/svg"><metadata>This SVG WebFont was generated by YouWorkForThem.
Copyright (c) 2008 by Ramiz Guseynov. All rights reserved.</metadata><defs><font horiz-adv-x="1292" id="ywftsvg"><font-face ascent="1536" bbox="-201 -432 2521 1880" cap-height="1434" descent="-512" font-family="" font-stretch="normal" font-weight="700" panose-1="2 0 5 6 0 0 0 2 0 4" underline-position="0" underline-thickness="0" unicode-range="U+0020-FB02" units-per-em="2048" x-height="1024"/><missing-glyph horiz-adv-x="450"/><glyph glyph-name=".notdef" horiz-adv-x="450"/><glyph glyph-name="glyph1" horiz-adv-x="0"/><glyph glyph-name="glyph2" horiz-adv-x="681"/><glyph glyph-name="space" horiz-adv-x="450" unicode=" "/><glyph d="M434 1434l-24 -1049h-201l-25 1049h250zM195 0v231h231v-231h-231z" glyph-name="exclam" horiz-adv-x="618" unicode="!"/><glyph d="M123 952v482h211l-31 -482h-180zM477 952v482h209l-31 -482h-178z" glyph-name="quotedbl" horiz-adv-x="808" unicode="&quot;"/><glyph d="M197 838v217h229l55 379h191l-56 -379h304l53 379h190l-53 -379h190v-217h-223l-33 -240h195v-219h-227l-56 -379h-190l55 379h-301l-55 -379h-191l56 379h-197v219h227l35 240h-198zM586 838l-35 -240h301l35 240h-301z" glyph-name="numbersign" horiz-adv-x="1433" unicode="#"/><glyph d="M473 -98v108q-157 8 -276 43l-43 10l8 218q221 -49 388 -49t228.5 38t61.5 116t-39 121.5t-101.5 67t-137.5 43t-150.5 46t-138 67.5t-101.5 118t-39 183q0 162 92 258t248 127v115h232v-111q160 -13 243 -43l31 -10l-10 -213q-211 45 -371 45q-229 0 -229 -162 q0 -72 52 -116.5t131 -62t170 -47.5t170 -65.5t131 -120.5t52 -210q0 -350 -370 -402v-112h-232z" glyph-name="dollar" horiz-adv-x="1208" unicode="$"/><glyph d="M809 1151v-170q0 -135 -93.5 -219t-229.5 -84t-229 85t-93 218v170q0 135 92 219t229.5 84t230.5 -85t93 -218zM594 954v224q0 45 -31 70.5t-79 25.5t-77.5 -25.5t-29.5 -70.5v-222q0 -47 29.5 -72.5t79 -25.5t79 24.5t29.5 71.5zM530 0l656 1434h192l-649 -1434h-199z M1751 451v-170q0 -135 -93.5 -219.5t-229.5 -84.5t-229 85t-93 219v170q0 135 92 219t229.5 84t230.5 -85t93 -218zM1536 254v223q0 45 -31 70.5t-79 25.5t-77.5 -25.5t-29.5 -70.5v-221q0 -47 29.5 -72.5t79 -25.5t79 24.5t29.5 71.5z" glyph-name="percent" horiz-adv-x="1914" unicode="%"/><glyph d="M889 711h219v-232q0 -160 -78 -297l98 -182h-251l-19 35q-114 -55 -226 -55t-191 22.5t-151.5 75.5t-114.5 155.5t-42 245.5q0 322 254 420l-174 311v224h821v-213h-571l323 -590l103 -215v295zM621 205q68 0 131 22l-260 475q-113 -31 -113 -219q0 -137 51.5 -207.5 t190.5 -70.5z" glyph-name="ampersand" horiz-adv-x="1261" unicode="&amp;"/><glyph d="M123 952v482h211l-31 -482h-180z" glyph-name="quotesingle" horiz-adv-x="456" unicode="'"/><glyph d="M623 -164v-225q-186 0 -317.5 113.5t-131.5 275.5v1067q0 162 131 274.5t318 112.5v-229q-94 0 -154.5 -45t-60.5 -113v-1069q0 -68 61.5 -115t153.5 -47z" glyph-name="parenleft" horiz-adv-x="714" unicode="("/><glyph d="M92 -389v225q92 0 153.5 47t61.5 115v1069q0 68 -60.5 113t-154.5 45v229q186 0 317.5 -112.5t131.5 -274.5v-1067q0 -162 -131.5 -275.5t-317.5 -113.5z" glyph-name="parenright" horiz-adv-x="714" unicode=")"/><glyph d="M598 1456v-227l217 69l62 -204l-211 -68l133 -182l-174 -123l-131 178l-132 -186l-169 131l131 176l-222 74l68 200l219 -69v231h209z" glyph-name="asterisk" horiz-adv-x="978" unicode="*"/><glyph d="M496 1053h225v-344h352v-224h-352v-344h-225v344h-353v224h353v344z" glyph-name="plus" horiz-adv-x="1216" unicode="+"/><glyph d="M166 0v233h233v-180q0 -176 -73.5 -247.5t-182.5 -71.5v123q106 0 107 143h-84z" glyph-name="comma" horiz-adv-x="563" unicode=","/><glyph d="M690 702v-219h-547v219h547z" glyph-name="hyphen" horiz-adv-x="833" unicode="-"/><glyph d="M164 0v231h231v-231h-231z" glyph-name="period" horiz-adv-x="559" unicode="."/><glyph d="M41 0l422 1434h231l-424 -1434h-229z" glyph-name="slash" horiz-adv-x="735" unicode="/"/><glyph d="M623 -23q-211 0 -350.5 133.5t-145.5 331.5q-6 274 0 547q6 197 146.5 331t353.5 134t351 -131t142 -334q6 -274 0 -547q-6 -197 -146 -331t-351 -134zM624 1225q-116 0 -187.5 -66.5t-74.5 -169.5q-6 -274 0 -547q2 -102 73 -168.5t188 -66.5t186.5 66.5t71.5 168.5 q6 272 0 547q-2 102 -71.5 169t-185.5 67z" glyph-name="zero" horiz-adv-x="1247" unicode="0"/><glyph d="M524 1434v-1434h-239v1186l-234 -99v228l252 119h221z" glyph-name="one" horiz-adv-x="708" unicode="1"/><glyph d="M545 1454q215 0 341 -103.5t126 -320.5q0 -143 -47 -233t-152 -183l-430 -387h631v-227h-932v258l543 498q84 76 114.5 134t30.5 152t-69 141.5t-165 47.5q-161 0 -339 -39l-58 -12l-10 217q201 57 416 57z" glyph-name="two" horiz-adv-x="1126" unicode="2"/><glyph d="M82 1208v226h862v-205l-289 -340q134 -24 238 -117.5t104 -300.5q0 -141 -49 -243.5t-165 -176.5t-289 -74q-117 0 -222.5 15.5t-152.5 30.5l-47 14l12 221q180 -57 401 -57q270 0 271 274q0 57 -19.5 98t-59.5 73t-200 32h-121v194l281 336h-555z" glyph-name="three" horiz-adv-x="1110" unicode="3"/><glyph d="M41 287v198l506 949h264l-494 -920h396v356h239v-356h144v-227h-144v-287h-239v287h-672z" glyph-name="four" horiz-adv-x="1126" unicode="4"/><glyph d="M534 201q156 0 222.5 62.5t66.5 192.5t-57 188t-203 58q-70 0 -155.5 -21.5t-137.5 -43.5l-51 -23l-96 158l51 662h827v-228h-612l-20 -309q115 29 225 29q471 0 471 -457q0 -223 -129 -357.5t-404 -134.5q-113 0 -213 15.5t-145 30.5l-45 14l12 221q237 -57 393 -57z " glyph-name="five" horiz-adv-x="1177" unicode="5"/><glyph d="M654 1231q-150 0 -214.5 -74t-70.5 -190l-2 -103q143 61 295 62q219 0 338.5 -117t119.5 -345t-135 -356t-362.5 -128t-359.5 136t-137 364t1 489q4 207 137 346t367 139q182 0 336 -37l51 -12l-10 -219q-204 45 -354 45zM621 201q258 0 258 264q0 123 -62.5 180 t-174.5 57t-234 -45l-41 -14q0 -129 2 -182q2 -111 65.5 -185.5t186.5 -74.5z" glyph-name="six" horiz-adv-x="1232" unicode="6"/><glyph d="M51 1208v226h871v-226l-541 -1208h-248l547 1208h-629z" glyph-name="seven" horiz-adv-x="962" unicode="7"/><glyph d="M1100 1042q0 -186 -144 -301q174 -125 174 -341t-142 -318t-365 -102t-366.5 102t-143.5 318t174 341q-143 119 -143 305t131 297t347 111t347 -113t131 -299zM624 203q116 0 192.5 49.5t76.5 153.5t-80.5 161.5t-188.5 57.5t-190 -57.5t-82 -160.5t78 -153.5t194 -50.5z M862 1046q0 85 -66 136t-174 51t-173.5 -50t-65.5 -137t64.5 -141.5t174.5 -54.5t175 55.5t65 140.5z" glyph-name="eight" horiz-adv-x="1243" unicode="8"/><glyph d="M580 203q150 0 214 73.5t70 190.5l2 102q-143 -61 -295 -61q-219 0 -338.5 117t-119.5 345t135 356t362.5 128t359.5 -136t137 -364t-1 -489q-4 -207 -137 -346t-367 -139q-177 0 -336 36l-51 13l10 219q205 -45 355 -45zM612 1233q-258 0 -258 -264q0 -123 62.5 -180.5 t169.5 -57.5t239 45l41 15q0 129 -2 182q-2 111 -65.5 185.5t-186.5 74.5z" glyph-name="nine" horiz-adv-x="1232" unicode="9"/><glyph d="M164 0v231h231v-231h-231zM164 793v231h231v-231h-231z" glyph-name="colon" horiz-adv-x="559" unicode=":"/><glyph d="M166 793v231h231v-231h-231zM166 0v233h233v-180q0 -176 -73.5 -247.5t-182.5 -71.5v123q106 0 107 143h-84z" glyph-name="semicolon" horiz-adv-x="563" unicode=";"/><glyph d="M133 504v186l948 451v-250l-669 -295l669 -295v-248z" glyph-name="less" horiz-adv-x="1245" unicode="&lt;"/><glyph d="M1075 485v-217h-932v217h932zM1075 926v-217h-932v217h932z" glyph-name="equal" horiz-adv-x="1218" unicode="="/><glyph d="M1112 690v-186l-948 -451v250l670 295l-670 295v248z" glyph-name="greater" horiz-adv-x="1245" unicode=">"/><glyph d="M527 1456q218 0 349.5 -101.5t131.5 -300.5t-67 -259t-117 -85.5t-100 -49t-116.5 -74t-66.5 -215.5h-224q0 143 33 238.5t82 135t106.5 70.5t106.5 49.5t82 66.5t33 126q0 174 -248 174q-174 0 -340 -39l-53 -12l-17 217q207 59 425 59zM313 0v231h232v-231h-232z" glyph-name="question" horiz-adv-x="1110" unicode="?"/><glyph d="M1346 37q-94 0 -151.5 22.5t-76.5 46.5l-20 23q-138 -90 -278 -90t-222 82t-86 211q-6 180 0 360q4 131 94 215t256 84q84 0 179.5 -16.5t148.5 -32.5l53 -14v-561q0 -133 107 -134q83 0 90 138t2 510q-4 162 -152.5 274.5t-399.5 112.5t-404.5 -114t-157.5 -273 q-8 -338 0 -676q4 -162 155.5 -274.5t403.5 -112.5q192 0 332 35l51 12l37 -187q-203 -47 -420 -47q-326 0 -533 167t-215 411q-10 334 0 668q8 242 217 409.5t533 167.5t531.5 -168t211.5 -409q6 -301 0 -525q-4 -162 -98 -238.5t-188 -76.5zM834 223q59 0 167 51l35 17 v491q-104 23 -176 23t-108.5 -40t-38.5 -101q-6 -160 1 -300t120 -141z" glyph-name="at" horiz-adv-x="1769" unicode="@"/><glyph d="M492 1434h307l452 -1434h-254l-114 373h-475l-115 -373h-252zM815 596l-168 573l-172 -573h340z" glyph-name="A" unicode="A"/><glyph d="M1116 1041q0 -184 -151 -291q6 -4 18 -10.5t85 -71.5t73 -257t-116 -301.5t-370 -109.5h-491v1434h532q209 0 314.5 -104.5t105.5 -288.5zM719 1206h-318v-350h293q86 0 136.5 46t50.5 129t-41 129t-121 46zM401 631v-404h263q135 0 185 47.5t50 153.5q0 203 -205 203 h-293z" glyph-name="B" horiz-adv-x="1243" unicode="B"/><glyph d="M666 1227q-124 0 -202.5 -75t-82.5 -179q-8 -258 0 -512q4 -104 81 -179t204 -75t315 35l70 12l8 -219q-221 -55 -389 -55q-236 0 -382.5 138t-150.5 343q-6 256 0 512q4 203 151.5 342t381.5 139q158 0 325 -41l56 -12l-11 -219q-250 45 -374 45z" glyph-name="C" horiz-adv-x="1150" unicode="C"/><glyph d="M164 0v1434h502q236 0 382 -130t150 -331q6 -256 0 -512q-4 -201 -149.5 -331t-382.5 -130h-502zM666 1206h-265v-979h265q133 0 208.5 66.5t79.5 167.5q6 258 0 512q-4 100 -80.5 166.5t-207.5 66.5z" glyph-name="D" horiz-adv-x="1325" unicode="D"/><glyph d="M164 1434h948v-228h-711v-350h652v-225h-652v-404h732v-227h-969v1434z" glyph-name="E" horiz-adv-x="1234" unicode="E"/><glyph d="M164 1434h940v-228h-703v-372h643v-228h-643v-606h-237v1434z" glyph-name="F" horiz-adv-x="1175" unicode="F"/><glyph d="M674 549v225h500v-711q-250 -83 -494 -83t-391.5 138t-151.5 343q-6 256 0 512q4 205 154.5 343t392.5 138q119 0 235.5 -14.5t174.5 -30.5l57 -14l-12 -221q-262 53 -465 53q-131 0 -209 -75t-82 -179q-8 -258 0 -512q4 -106 80.5 -181t198.5 -75t233 18l37 6v320h-258z " glyph-name="G" horiz-adv-x="1316" unicode="G"/><glyph d="M989 1434h242v-1434h-242v629h-586v-629h-239v1434h239v-578h586v578z" glyph-name="H" horiz-adv-x="1394" unicode="H"/><glyph d="M403 1434v-1434h-239v1434h239z" glyph-name="I" horiz-adv-x="567" unicode="I"/><glyph d="M188 201q52 0 72.5 27.5t23.5 59t3 95.5v1051h239v-1104q0 -186 -82 -268t-213 -82q-59 0 -159 20l-31 8l4 201q91 -8 143 -8z" glyph-name="J" horiz-adv-x="679" unicode="J"/><glyph d="M401 1434v-666l529 666h287l-558 -682l601 -752h-306l-553 719v-719h-237v1434h237z" glyph-name="K" horiz-adv-x="1300" unicode="K"/><glyph d="M164 1434h239v-1207h639v-227h-878v1434z" glyph-name="L" horiz-adv-x="1083" unicode="L"/><glyph d="M1454 1434v-1434h-240v973l15 143l-64 -153l-247 -412h-218l-245 407l-66 158l14 -149v-967h-239v1434h274l371 -660l371 660h274z" glyph-name="M" horiz-adv-x="1617" unicode="M"/><glyph d="M999 1434h238v-1434h-268l-504 907l-78 183l14 -189v-901h-237v1434h268l504 -908l78 -182l-15 195v895z" glyph-name="N" horiz-adv-x="1400" unicode="N"/><glyph d="M686 -20q-236 0 -390.5 139t-158.5 342q-6 256 0 512q4 201 161.5 341t391.5 140t389.5 -139t159.5 -342q6 -256 0 -512q-4 -201 -160.5 -341t-392.5 -140zM688 1233q-131 0 -219 -78t-92 -180q-6 -260 0 -516q4 -102 90 -180t220 -78t221 77t91 181q6 256 0 516 q-4 102 -92 180t-219 78z" glyph-name="O" horiz-adv-x="1376" unicode="O"/><glyph d="M164 0v1434h581q178 0 278.5 -95.5t108.5 -239.5t0 -291q-7 -147 -107.5 -242t-279.5 -95h-342v-471h-239zM403 1206v-510h347q135 0 139 113q6 143 0 285q-4 113 -139 112h-347z" glyph-name="P" horiz-adv-x="1218" unicode="P"/><glyph d="M688 -20q-238 0 -392.5 139t-158.5 342q-6 256 0 512q4 201 161.5 341t391.5 140t389.5 -139t159.5 -342q6 -256 0 -512q0 -94 -45 -187l-14 -30l133 -172l-160 -115l-111 133q-14 -12 -41.5 -30.5t-121 -49t-191.5 -30.5zM688 1233q-131 0 -219 -78t-92 -180 q-12 -502 10 -578q141 103 301 103t303 -92q4 18 8 51q6 256 0 516q-4 102 -92 180t-219 78zM690 201q108 0 189 55q-88 61 -188.5 61t-186.5 -67q78 -49 186 -49z" glyph-name="Q" horiz-adv-x="1384" unicode="Q"/><glyph d="M403 494v-494h-239v1434h584q178 0 277 -95.5t107 -234.5q8 -138 2 -256q-5 -118 -59.5 -196.5t-105.5 -102.5l-51 -25l292 -524h-282l-260 494h-265zM403 1206v-483h349q135 0 139 111q6 131 0 262q-6 111 -139 110h-349z" glyph-name="R" unicode="R"/><glyph d="M621 1227q-117 0 -191 -43t-74 -131t81 -136.5t197 -74t231.5 -61.5t196.5 -129t81 -246q0 -426 -551 -426q-119 0 -233.5 14t-170.5 31l-55 14l12 219q239 -55 421 -55t257.5 45t75.5 139t-81 145.5t-196.5 78t-231.5 62.5t-196.5 128t-80.5 246q0 203 141 305t349 102 t396 -41l56 -14l-13 -217q-213 45 -421 45z" glyph-name="S" horiz-adv-x="1234" unicode="S"/><glyph d="M41 1206v228h999v-228h-381v-1206h-239v1206h-379z" glyph-name="T" horiz-adv-x="1081" unicode="T"/><glyph d="M1014 1434h239v-973q0 -205 -156.5 -343t-394.5 -138t-393 138t-155 343v973h239v-957q0 -131 85.5 -201.5t225.5 -70.5t225 70.5t85 201.5v957z" glyph-name="U" horiz-adv-x="1406" unicode="U"/><glyph d="M291 1434l342 -1211l342 1211h250l-439 -1434h-307l-438 1434h250z" glyph-name="V" horiz-adv-x="1265" unicode="V"/><glyph d="M788 1434h289l264 -1160l193 1160h250l-264 -1434h-316l-270 1114l-272 -1114h-316l-264 1434h250l192 -1155z" glyph-name="W" horiz-adv-x="1865" unicode="W"/><glyph d="M352 1434l318 -498l317 498h279l-453 -699l483 -735h-280l-346 541l-348 -541h-281l485 735l-454 699h280z" glyph-name="X" horiz-adv-x="1337" unicode="X"/><glyph d="M762 0h-242v565l-489 869h278l332 -637l332 637h278l-489 -869v-565z" glyph-name="Y" horiz-adv-x="1282" unicode="Y"/><glyph d="M1155 227v-227h-1053v233l748 973h-731v228h1028v-234l-752 -973h760z" glyph-name="Z" horiz-adv-x="1257" unicode="Z"/><glyph d="M623 -143v-226h-449v1803h449v-230h-215v-1347h215z" glyph-name="bracketleft" horiz-adv-x="714" unicode="["/><glyph d="M272 1434l422 -1434h-229l-424 1434h231z" glyph-name="backslash" horiz-adv-x="735" unicode="\"/><glyph d="M92 -369v226h217v1347h-217v230h451v-1803h-451z" glyph-name="bracketright" horiz-adv-x="716" unicode="]"/><glyph d="M451 1434h178l348 -777h-234l-202 484l-205 -484h-234z" glyph-name="asciicircum" horiz-adv-x="1079" unicode="^"/><glyph d="M0 -154h1182v-174h-1182v174z" glyph-name="underscore" horiz-adv-x="1181" unicode="_"/><glyph d="M547 1137h-232l-315 297h293z" glyph-name="grave" horiz-adv-x="546" unicode="`"/><glyph d="M414 -20q-142 0 -227 92t-85 241t82 246.5t240 97.5h252v29q0 63 -41 106.5t-122 43.5q-152 0 -292 -31l-43 -10l-22 204q188 45 367 45t277.5 -98t98.5 -248v-698h-203l-10 74q-130 -94 -272 -94zM430 188q47 0 108.5 28t100.5 54l37 29v150h-244q-106 -1 -106 -131 t104 -130z" glyph-name="a" horiz-adv-x="1032" unicode="a"/><glyph d="M143 1434h226v-459q121 63 233 63q168 0 258 -94t95 -264t0 -339t-103 -265t-285 -96t-362 43l-62 14v1397zM606 829q-98 0 -203 -51l-34 -18v-553q59 -16 198 -17q76 0 118 44.5t44 105.5q6 172 0 344q-2 61 -36 103t-87 42z" glyph-name="b" horiz-adv-x="1081" unicode="b"/><glyph d="M511 -23q-173 0 -276.5 97.5t-108.5 266.5t1 361q4 147 108.5 244.5t284.5 97.5q125 0 262 -20l41 -8l-20 -211q-156 29 -285 29q-72 0 -118 -43t-48 -101q-6 -180 0 -356q2 -57 48 -101.5t138 -44.5t234 29l39 10l29 -209q-156 -41 -329 -41z" glyph-name="c" horiz-adv-x="901" unicode="c"/><glyph d="M942 1434v-1434h-205l-8 72q-127 -92 -275 -92t-235.5 94t-92.5 262t0 338t105.5 267t286.5 97q69 0 170 -26l29 -11v433h225zM474 190q92 0 206 68l37 23v516q-83 33 -179 33t-140 -45.5t-46 -106.5q-6 -174 0 -346q2 -59 36 -100.5t86 -41.5z" glyph-name="d" horiz-adv-x="1085" unicode="d"/><glyph d="M542 -20q-200 0 -304.5 97t-110.5 258t0 365q4 145 112.5 244.5t281.5 99.5t280.5 -96t113.5 -241v-283h-567q0 -59 2 -84q4 -61 50 -105.5t124 -44.5q164 0 295 35l45 11l29 -199q-151 -57 -351 -57zM521 834q-73 0 -120 -43.5t-51 -106.5l-2 -63h344q-2 49 -2 63 q-2 61 -49 105.5t-120 44.5z" glyph-name="e" horiz-adv-x="1030" unicode="e"/><glyph d="M41 813v211h143v131q0 135 79 217t220 82q37 0 94.5 -6t96.5 -10l39 -6l-13 -205q-127 18 -213 18q-78 0 -77 -100v-121h276v-211h-276v-813h-226v813h-143z" glyph-name="f" horiz-adv-x="753" unicode="f"/><glyph d="M578 252q0 -27 20 -37l186 -98q72 -39 105 -91.5t33 -140.5q0 -274 -441 -274q-104 0 -204.5 22.5t-147.5 44.5l-47 23l57 184q180 -70 342 -69q215 0 215 69q0 37 -26 52l-234 122q-88 45 -88 172v62q-121 25 -186.5 105t-68.5 170t-1 159q6 135 104.5 222t272.5 87 q68 0 127 -16l29 41q57 80 143 80t166 -17l-23 -186h-100q-28 0 -41 -20q66 -72 72 -191q2 -68 -1 -158t-74 -172t-189 -106v-39zM468 827q-69 0 -110 -30.5t-43 -84.5t0 -110t43 -84.5t110 -28.5t108.5 29t41.5 84q2 56 0 110t-41.5 84.5t-108.5 30.5z" glyph-name="g" horiz-adv-x="995" unicode="g"/><glyph d="M369 0h-226v1434h226v-465q127 70 247 69q168 0 255 -95t87 -245v-698h-225v686q0 61 -30.5 102t-82.5 41q-102 0 -212 -55l-39 -18v-756z" glyph-name="h" horiz-adv-x="1091" unicode="h"/><glyph d="M147 0v1024h226v-1024h-226zM143 1200v234h234v-234h-234z" glyph-name="i" horiz-adv-x="520" unicode="i"/><glyph d="M147 1200v234h234v-234h-234zM377 1024v-1114q0 -135 -80 -217t-221 -82q-42 0 -150 16l-26 6l20 199q68 -12 154 -12q78 0 78 102v1102h225z" glyph-name="j" horiz-adv-x="524" unicode="j"/><glyph d="M367 0h-224v1434h224v-863l370 453h269l-412 -483l442 -541h-274l-395 504v-504z" glyph-name="k" horiz-adv-x="1056" unicode="k"/><glyph d="M143 0v1434h226v-1434h-226z" glyph-name="l" horiz-adv-x="512" unicode="l"/><glyph d="M887 0h-223v717q0 49 -29 84t-69 35q-74 0 -169 -66l-30 -20v-750h-224v1024h207l10 -63q127 82 248 81q59 0 106.5 -23.5t65.5 -45.5l19 -23q137 92 283 92t237.5 -93t91.5 -251v-698h-223v690q0 66 -36 106t-94 40t-143 -50l-28 -18v-768z" glyph-name="m" horiz-adv-x="1544" unicode="m"/><glyph d="M369 0h-226v1024h207l10 -66q135 86 256 86q168 0 255 -98t87 -248v-698h-225v686q0 61 -30.5 105.5t-84.5 44.5t-114 -21.5t-98 -44.5l-37 -20v-750z" glyph-name="n" horiz-adv-x="1091" unicode="n"/><glyph d="M532 -20q-185 0 -293 97t-113 265t1 358q4 147 111.5 245.5t291.5 98.5t297 -99t117 -245q6 -190 0 -376q-4 -147 -115.5 -245.5t-296.5 -98.5zM534.5 834q-83.5 0 -132 -42t-50.5 -104q-6 -178 0 -352q2 -63 51.5 -104.5t132.5 -41.5t132 42t51 104q6 176 0 352 q-2 63 -51.5 104.5t-133 41.5z" glyph-name="o" horiz-adv-x="1071" unicode="o"/><glyph d="M143 -369v1393h205l8 -57q145 78 250 77q168 0 258 -93t95 -261t0 -340q-5 -170 -105 -267t-287 -97q-69 0 -170 26l-28 11v-392h-226zM614 834q-89 0 -204 -62l-41 -20v-525q82 -33 178 -33t140 45.5t46 106.5q6 172 0 346q-2 59 -35.5 100.5t-83.5 41.5z" glyph-name="p" horiz-adv-x="1085" unicode="p"/><glyph d="M938 -369h-225v418q-121 -63 -234 -63q-168 0 -258 94t-95 264t0 339t103.5 265t284.5 96t363 -43l61 -14v-1356zM475 195q98 0 203 51l35 18v553q-59 16 -199 17q-76 0 -118 -44.5t-44 -105.5q-6 -172 0 -344q2 -61 36 -103t87 -42z" glyph-name="q" horiz-adv-x="1081" unicode="q"/><glyph d="M670 1044v-210q-84 0 -160 -34t-109 -67l-32 -35v-698h-226v1024h207l8 -98q50 43 141 80.5t171 37.5z" glyph-name="r" horiz-adv-x="690" unicode="r"/><glyph d="M481 834q-143 0 -143 -95q0 -45 54 -71.5t131 -45t154 -47t131 -98t54 -176.5q0 -322 -397 -321q-84 0 -171 13t-130 27l-45 13l28 203q166 -46 286 -46t161 25t41 72t-39 73.5t-96.5 39t-126 35t-126 51t-96 93t-38.5 156.5q0 156 100 232.5t262 76.5t287 -32l45 -11 l-25 -204q-182 37 -301 37z" glyph-name="s" horiz-adv-x="964" unicode="s"/><glyph d="M41 813v211h145v246h226v-246h268v-211h-268v-522q0 -55 17 -79t73 -24t137 13l27 4l12 -203q-104 -22 -229 -22t-194 78.5t-69 205.5v549h-145z" glyph-name="t" horiz-adv-x="741" unicode="t"/><glyph d="M723 1024h225v-1024h-207l-10 66q-135 -86 -256 -86q-168 0 -255 98t-87 248v698h225v-686q0 -61 31 -105.5t84 -44.5t113.5 22.5t97.5 45.5l39 23v745z" glyph-name="u" horiz-adv-x="1091" unicode="u"/><glyph d="M268 1024l221 -805l224 805h237l-315 -1024h-289l-315 1024h237z" glyph-name="v" horiz-adv-x="980" unicode="v"/><glyph d="M588 1024h260l160 -670l22 -131l8 131l80 670h236l-162 -1024h-299l-156 641l-18 137l-21 -137l-155 -641h-299l-162 1024h237l78 -670l9 -131l22 131z" glyph-name="w" horiz-adv-x="1435" unicode="w"/><glyph d="M322 1024l192 -305l193 305h258l-328 -494l350 -530h-258l-215 336l-215 -336h-258l350 530l-328 494h259z" glyph-name="x" horiz-adv-x="1028" unicode="x"/><glyph d="M369 61l-338 963h233l252 -748h10l271 748h227l-535 -1393h-227l164 410z" glyph-name="y" horiz-adv-x="1054" unicode="y"/><glyph d="M834 209v-209h-752v213l479 602h-459v209h725v-213l-479 -602h486z" glyph-name="z" horiz-adv-x="915" unicode="z"/><glyph d="M631 -164v-225q-186 0 -316.5 113.5t-130.5 275.5v358q0 66 -102 66v217q43 0 72.5 17.5t29.5 48.5v360q0 162 130 274.5t317 112.5v-225q-90 0 -151.5 -47t-61.5 -115v-362q0 -49 -22.5 -92.5t-47.5 -61.5l-22 -19q10 -6 25.5 -18t41 -57t25.5 -99v-360q0 -68 60.5 -115 t152.5 -47z" glyph-name="braceleft" horiz-adv-x="722" unicode="{"/><glyph d="M174 -369v1803h199v-1803h-199z" glyph-name="bar" horiz-adv-x="546" unicode="|"/><glyph d="M92 -389v225q92 0 152.5 47t60.5 115v360q0 53 23.5 96.5t46.5 61.5l22 16q-34 20 -63 71.5t-29 101.5v362q0 68 -61.5 115t-151.5 47v225q186 0 316.5 -112.5t130.5 -274.5v-360q0 -31 29.5 -48.5t72.5 -17.5v-217q-102 0 -102 -66v-358q0 -162 -130.5 -275.5 t-316.5 -113.5z" glyph-name="braceright" horiz-adv-x="722" unicode="}"/><glyph d="M830 422q-72 0 -204 69.5t-178 69.5t-78 -30.5t-81 -108.5l-166 106q75 115 137.5 182.5t181.5 67.5q86 0 218.5 -69.5t177.5 -69.5t77.5 30.5t81.5 108.5l166 -106q-75 -115 -120.5 -164t-93 -67.5t-119.5 -18.5z" glyph-name="asciitilde" horiz-adv-x="1286" unicode="~"/><glyph d="M184 -410l25 1049h201l24 -1049h-250zM424 1024v-231h-231v231h231z" glyph-name="exclamdown" horiz-adv-x="618" unicode="¡"/><glyph d="M422 -98v108q-133 27 -207 118t-78 216q-6 188 0 381q4 121 79 211t206 119v108h211v-100l201 -25l-21 -211q-156 29 -285 29q-72 0 -117.5 -43t-48.5 -100q-6 -180 0 -357q2 -57 49 -101t117 -44q152 0 254 29l39 10l29 -209q-98 -25 -217 -37v-102h-211z" glyph-name="cent" horiz-adv-x="983" unicode="¢"/><glyph d="M154 629v209h82q-23 100 -23 209q0 408 494 407q139 0 292 -24l50 -9l-13 -223q-190 29 -329 29q-256 0 -256 -180q0 -98 32 -209h516v-209h-458q8 -43 8 -107t-21.5 -138.5t-44.5 -115.5l-20 -41h622v-227h-925v219q17 12 83 84t66 217q0 35 -18 109h-137z" glyph-name="sterling" horiz-adv-x="1187" unicode="£"/><glyph d="M967 508q0 -45 -17 -98l131 -129l-157 -158l-105 106q-92 -59 -217 -59t-201 57l-104 -102l-154 154l127 127q-14 49 -14 102v166q0 27 16 102l-127 131l156 156l105 -105q86 55 204.5 55.5t208.5 -57.5l109 107l151 -156l-131 -129q18 -66 19 -104v-166zM733 479v223 q0 53 -34.5 81t-90.5 28t-89.5 -28.5t-33.5 -80.5v-221q0 -53 34 -80.5t90 -27.5t90 27.5t34 78.5z" glyph-name="currency" horiz-adv-x="1224" unicode="¤"/><glyph d="M1065 514v-207h-307v-307h-238v307h-307v207h287l-51 115h-236v209h141l-272 596h270l287 -678l287 678h270l-272 -596h141v-209h-234l-53 -115h287z" glyph-name="yen" horiz-adv-x="1277" unicode="¥"/><glyph d="M174 678v756h199v-756h-199zM174 -369v756h199v-756h-199z" glyph-name="brokenbar" horiz-adv-x="546" unicode="¦"/><glyph d="M630 1241q-224 -1 -224 -145q0 -126 175.5 -154t287.5 -71.5t162 -117t50 -161.5t-33.5 -153.5t-68.5 -98.5l-33 -35q117 -98 117 -250q0 -186 -120 -279t-317 -93t-354 28l-55 10l14 213q248 -36 366 -36t171 37t53 107t-50 106t-126 48.5t-163 34t-162.5 50t-126 101.5 t-50.5 179t54.5 177t68.5 85l15 15q-12 8 -32 25.5t-52.5 81t-32.5 138.5q0 186 119.5 279.5t322.5 93.5t348 -29l56 -10l-15 -213q-247 37 -365 37zM381 602q0 -60 49 -99.5t107.5 -53t136.5 -27.5t104 -25q66 59 66 139t-68.5 118t-190 58.5t-141.5 28.5l-14 -16 q-49 -63 -49 -123z" glyph-name="section" horiz-adv-x="1224" unicode="§"/><glyph d="M0 1176v233h233v-233h-233zM406 1176v233h233v-233h-233z" glyph-name="dieresis" horiz-adv-x="641" unicode="¨"/><glyph d="M123 717q0 305 216 521t521 216t521 -216t216 -521t-216 -521t-521 -216t-521 216t-216 521zM289 716.5q0 -237.5 167 -404.5t404.5 -167t404.5 167t167 404.5t-167 404.5t-404.5 167t-404.5 -167t-167 -404.5zM846 299q-135 0 -215 76t-85 209t0 266t86 210t208 77 t221 -17l31 -6l-17 -166q-121 20 -223 21q-55 0 -91 -33t-38 -78q-6 -139 0 -280q2 -45 37 -79t90 -34q116 0 201 22l30 9l23 -164q-123 -33 -258 -33z" glyph-name="copyright" horiz-adv-x="1720" unicode="©"/><glyph d="M123 968q0 102 56.5 161t168.5 59h148q0 98 -80 98q-98 0 -203 -18l-35 -6l-20 159q139 33 259 33t187.5 -66.5t67.5 -170.5v-469h-160l-10 51q-76 -61 -170 -61t-151.5 64t-57.5 166zM310 915.5q15 -20.5 48 -20.5t113 45l25 14v93h-142q-27 0 -43 -21.5t-16 -55.5 t15 -54.5zM141 489v154h531v-154h-531z" glyph-name="ordfeminine" horiz-adv-x="815" unicode="ª"/><glyph d="M657 256h-266l-258 338l258 340h264l-270 -338zM1116 256h-266l-258 338l258 340h264l-270 -338z" glyph-name="guillemotleft" horiz-adv-x="1259" unicode="«"/><glyph d="M1073 702v-559h-227v340h-703v219h930z" glyph-name="logicalnot" horiz-adv-x="1216" unicode="¬"/><glyph glyph-name="uni00AD" horiz-adv-x="1705" unicode="­"/><glyph d="M539 866v-174h-109v529h215q68 0 107 -36t42 -87t1 -114t-70 -99l115 -193h-133l-97 174h-71zM639 1108h-100v-135h100q33 0 36 36t1 68q-4 31 -37 31zM102 956.5q0 206.5 147.5 353t353.5 146.5t352.5 -146.5t146.5 -353t-146.5 -353t-352.5 -146.5t-353.5 146.5 t-147.5 353zM213 956.5q0 -161.5 112.5 -275.5t276.5 -114t276.5 114t112.5 275.5t-112.5 275.5t-276.5 114t-276.5 -114t-112.5 -275.5z" glyph-name="registered" horiz-adv-x="1204" unicode="®"/><glyph d="M0 1174v204h649v-204h-649z" glyph-name="macron" horiz-adv-x="649" unicode="¯"/><glyph d="M102 1142q0 130 92.5 222t222.5 92t222 -92t92 -222t-92 -222.5t-222 -92.5t-222.5 92.5t-92.5 222.5zM268 1142.5q0 -61.5 44 -105.5t105.5 -44t105.5 44t44 105.5t-44 105.5t-105.5 44t-105.5 -44t-44 -105.5z" glyph-name="degree" horiz-adv-x="833" unicode="°"/><glyph d="M1073 217v-217h-930v217h930zM496 1092h225v-281h352v-219h-352v-281h-225v281h-353v219h353v281z" glyph-name="plusminus" horiz-adv-x="1216" unicode="±"/><glyph d="M412 1454q137 0 222 -68.5t85 -214.5q0 -94 -30 -154.5t-97 -117.5l-207 -180h328v-191h-590v193l317 301q76 72 76 145q0 98 -117 99q-61 0 -202 -29l-41 -10l-6 188q125 39 262 39z" glyph-name="uni00B2" horiz-adv-x="841" unicode="²"/><glyph d="M127 1247v187h553v-164l-158 -178q186 -57 187 -263q0 -92 -31 -159.5t-104 -116.5t-197 -49t-221 37l-33 12l6 182q131 -41 258 -41t127 140q0 43 -24.5 65.5t-47 25.5t-59.5 3h-100v149l143 170h-299z" glyph-name="uni00B3" horiz-adv-x="831" unicode="³"/><glyph d="M231 1137h-231l254 297h293z" glyph-name="acute" horiz-adv-x="544" unicode="´"/><glyph d="M521 -18q-107 0 -154 43v-394h-224v1393h224v-686q0 -63 34.5 -106.5t94.5 -43.5q109 0 204 70l33 23v743h225v-1024h-206l-11 76q-113 -94 -220 -94z" glyph-name="uni00B5" horiz-adv-x="1101" unicode="µ"/><glyph d="M485 -369v977q-160 14 -271.5 134t-111.5 284t124 286t300 122h498v-1803h-207v1581h-137v-1581h-195z" glyph-name="paragraph" horiz-adv-x="1187" unicode="¶"/><glyph d="M164 479v232h231v-232h-231z" glyph-name="periodcentered" horiz-adv-x="559" unicode="·"/><glyph d="M473 -217q0 -84 -55.5 -128t-145.5 -44t-166 18l-22 6l12 119q70 -14 140 -14q18 0 31.5 14.5t13.5 35.5t-12.5 34.5t-28.5 13.5h-97l37 162h158l-12 -61q112 -13 129.5 -62t17.5 -94z" glyph-name="cedilla" horiz-adv-x="473" unicode="¸"/><glyph d="M440 1434v-908h-200v699l-138 -66v191l170 84h168z" glyph-name="uni00B9" horiz-adv-x="583" unicode="¹"/><glyph d="M408 737q-127 0 -201 67.5t-80 178.5t-1 225t80 180t202 66t201.5 -66t79.5 -180t0 -224t-79.5 -178.5t-201.5 -68.5zM410 1290q-45 0 -73 -24.5t-30 -59.5q-6 -113 0 -223q2 -33 30 -56.5t73 -23.5t71.5 23.5t28.5 56.5q6 110 0 225q-2 35 -28.5 58.5t-71.5 23.5z M139 489v154h537v-154h-537z" glyph-name="ordmasculine" horiz-adv-x="815" unicode="º"/><glyph d="M868 256h-266l272 340l-270 338h264l258 -340zM410 256h-267l273 340l-271 338h265l258 -340z" glyph-name="guillemotright" horiz-adv-x="1259" unicode="»"/><glyph d="M969 174v152l293 585h229l-285 -551h197v218h192v-218h84v-186h-84v-174h-192v174h-434zM387 0l655 1434h193l-649 -1434h-199zM481 1434v-908h-200v699l-138 -66v191l170 84h168z" glyph-name="onequarter" horiz-adv-x="1822" unicode="¼"/><glyph d="M387 0l655 1434h193l-649 -1434h-199zM481 1434v-908h-200v699l-138 -66v191l170 84h168zM1724 643q0 -94 -29.5 -154.5t-97.5 -117.5l-206 -181h327v-190h-590v193l318 301q76 72 76 145q0 98 -117 98q-94 0 -244 -39l-6 189l35 10q127 29 245 29q119 0 204 -69t85 -214 z" glyph-name="onehalf" horiz-adv-x="1867" unicode="½"/><glyph d="M1141 174v152l293 585h229l-285 -551h197v218h192v-218h84v-186h-84v-174h-192v174h-434zM559 0l655 1434h193l-649 -1434h-199zM147 1247v187h553v-164l-157 -178q186 -57 186 -263q0 -92 -30.5 -159.5t-104.5 -116.5t-196 -49t-222 37l-33 12l7 182q131 -41 258 -41 t127 140q0 43 -25 65.5t-47.5 25.5t-59.5 3h-100v149l143 170h-299z" glyph-name="threequarters" horiz-adv-x="1996" unicode="¾"/><glyph d="M233.5 -330.5q-131.5 101.5 -131.5 300.5t67 259t117 85.5t100 49t116.5 74t66.5 215.5h224q0 -143 -33 -238.5t-82 -135t-106.5 -70.5t-106.5 -49.5t-82 -66.5t-33 -126q0 -174 248 -174q207 0 393 51l17 -217l-58 -14q-183 -45 -384 -45t-332.5 101.5zM797 1024v-231 h-232v231h232z" glyph-name="questiondown" horiz-adv-x="1110" unicode="¿"/><glyph d="M492 1434h307l452 -1434h-254l-114 373h-475l-115 -373h-252zM815 596l-168 573l-172 -573h340zM762 1546h-232l-315 297h293z" glyph-name="Agrave" unicode="À"/><glyph d="M492 1434h307l452 -1434h-254l-114 373h-475l-115 -373h-252zM815 596l-168 573l-172 -573h340zM748 1546h-232l254 297h293z" glyph-name="Aacute" unicode="Á"/><glyph d="M492 1434h307l452 -1434h-254l-114 373h-475l-115 -373h-252zM815 596l-168 573l-172 -573h340zM504 1546h-223l229 297h272l230 -297h-226l-141 156z" glyph-name="Acircumflex" unicode="Â"/><glyph d="M492 1434h307l452 -1434h-254l-114 373h-475l-115 -373h-252zM815 596l-168 573l-172 -573h340zM301 1550q0 109 52.5 192t132.5 83t167.5 -48t111.5 -48t37 28.5t13 61.5h176q0 -109 -51 -191t-132 -82t-168 47t-110 47q-49 0 -57 -90h-172z" glyph-name="Atilde" unicode="Ã"/><glyph d="M492 1434h307l452 -1434h-254l-114 373h-475l-115 -373h-252zM815 596l-168 573l-172 -573h340zM326 1585v234h233v-234h-233zM731 1585v234h234v-234h-234z" glyph-name="Adieresis" unicode="Ä"/><glyph d="M492 1434h307l452 -1434h-254l-114 373h-475l-115 -373h-252zM815 596l-168 573l-172 -573h340zM446 1691.5q0 77.5 56.5 133t137.5 55.5t140.5 -56t59.5 -132t-59.5 -131.5t-140.5 -55.5t-137.5 54.5t-56.5 132zM573 1691.5q0 -28.5 20.5 -48t47.5 -19.5t47.5 19.5 t20.5 48t-20.5 48t-47.5 19.5t-47.5 -19.5t-20.5 -48z" glyph-name="Aring" unicode="Å"/><glyph d="M1892 1434v-228h-675v-350h614v-225h-614v-404h694v-227h-932v375h-485l-211 -375h-263l816 1434h1056zM979 598v606h-18l-340 -606h358z" glyph-name="AE" horiz-adv-x="2013" unicode="Æ"/><glyph d="M666 1227q-124 0 -202.5 -75t-82.5 -179q-8 -258 0 -512q4 -104 81 -179t204 -75t315 35l70 12l8 -219q-154 -37 -301 -51l-8 -45q110 -13 128.5 -62t18.5 -94q0 -84 -55.5 -128t-125.5 -44q-116 0 -184 18l-24 6l12 119q70 -14 139 -14q18 0 32 14.5t14 35.5t-12.5 34.5 t-28.5 13.5h-97l33 146q-207 20 -333 154t-130 323q-6 256 0 512q4 203 151.5 342t381.5 139q158 0 325 -41l56 -12l-11 -219q-250 45 -374 45z" glyph-name="Ccedilla" horiz-adv-x="1150" unicode="Ç"/><glyph d="M164 1434h948v-228h-711v-350h652v-225h-652v-404h732v-227h-969v1434zM836 1546h-232l-315 297h293z" glyph-name="Egrave" horiz-adv-x="1234" unicode="È"/><glyph d="M164 1434h948v-228h-711v-350h652v-225h-652v-404h732v-227h-969v1434zM795 1546h-232l254 297h293z" glyph-name="Eacute" horiz-adv-x="1234" unicode="É"/><glyph d="M164 1434h948v-228h-711v-350h652v-225h-652v-404h732v-227h-969v1434zM530 1546h-223l230 297h272l229 -297h-225l-141 156z" glyph-name="Ecircumflex" horiz-adv-x="1234" unicode="Ê"/><glyph d="M164 1434h948v-228h-711v-350h652v-225h-652v-404h732v-227h-969v1434zM375 1585v234h233v-234h-233zM780 1585v234h234v-234h-234z" glyph-name="Edieresis" horiz-adv-x="1234" unicode="Ë"/><glyph d="M403 1434v-1434h-239v1434h239zM401 1546h-231l-315 297h292z" glyph-name="Igrave" horiz-adv-x="567" unicode="Ì"/><glyph d="M403 1434v-1434h-239v1434h239zM387 1546h-231l254 297h292z" glyph-name="Iacute" horiz-adv-x="567" unicode="Í"/><glyph d="M403 1434v-1434h-239v1434h239zM141 1546h-223l229 297h273l229 -297h-225l-141 156z" glyph-name="Icircumflex" horiz-adv-x="567" unicode="Î"/><glyph d="M403 1434v-1434h-239v1434h239zM-35 1585v234h234v-234h-234zM371 1585v234h233v-234h-233z" glyph-name="Idieresis" horiz-adv-x="567" unicode="Ï"/><glyph d="M160 0v629h-119v227h119v578h502q236 0 382 -130t150 -331q6 -256 0 -512q-4 -201 -149.5 -331t-382.5 -130h-502zM682 629h-285v-402h265q133 0 208.5 66.5t79.5 167.5q6 258 0 512q-4 100 -80.5 166.5t-207.5 66.5h-265v-350h285v-227z" glyph-name="Eth" horiz-adv-x="1320" unicode="Ð"/><glyph d="M999 1434h238v-1434h-268l-504 907l-78 183l14 -189v-901h-237v1434h268l504 -908l78 -182l-15 195v895zM354 1550q0 109 52.5 192t133.5 83t167.5 -48t110.5 -48t37 28.5t13 61.5h176q0 -109 -51 -191t-132 -82t-168 47t-109 47q-50 0 -58 -90h-172z" glyph-name="Ntilde" horiz-adv-x="1400" unicode="Ñ"/><glyph d="M686 -20q-236 0 -390.5 139t-158.5 342q-6 256 0 512q4 201 161.5 341t391.5 140t389.5 -139t159.5 -342q6 -256 0 -512q-4 -201 -160.5 -341t-392.5 -140zM688 1233q-131 0 -219 -78t-92 -180q-6 -260 0 -516q4 -102 90 -180t220 -78t221 77t91 181q6 256 0 516 q-4 102 -92 180t-219 78zM819 1546h-231l-316 297h293z" glyph-name="Ograve" horiz-adv-x="1376" unicode="Ò"/><glyph d="M686 -20q-236 0 -390.5 139t-158.5 342q-6 256 0 512q4 201 161.5 341t391.5 140t389.5 -139t159.5 -342q6 -256 0 -512q-4 -201 -160.5 -341t-392.5 -140zM688 1233q-131 0 -219 -78t-92 -180q-6 -260 0 -516q4 -102 90 -180t220 -78t221 77t91 181q6 256 0 516 q-4 102 -92 180t-219 78zM788 1546h-231l254 297h293z" glyph-name="Oacute" horiz-adv-x="1376" unicode="Ó"/><glyph d="M686 -20q-236 0 -390.5 139t-158.5 342q-6 256 0 512q4 201 161.5 341t391.5 140t389.5 -139t159.5 -342q6 -256 0 -512q-4 -201 -160.5 -341t-392.5 -140zM688 1233q-131 0 -219 -78t-92 -180q-6 -260 0 -516q4 -102 90 -180t220 -78t221 77t91 181q6 256 0 516 q-4 102 -92 180t-219 78zM545 1546h-223l229 297h272l230 -297h-226l-141 156z" glyph-name="Ocircumflex" horiz-adv-x="1376" unicode="Ô"/><glyph d="M686 -20q-236 0 -390.5 139t-158.5 342q-6 256 0 512q4 201 161.5 341t391.5 140t389.5 -139t159.5 -342q6 -256 0 -512q-4 -201 -160.5 -341t-392.5 -140zM688 1233q-131 0 -219 -78t-92 -180q-6 -260 0 -516q4 -102 90 -180t220 -78t221 77t91 181q6 256 0 516 q-4 102 -92 180t-219 78zM342 1550q0 109 52 192t133 83t168 -48t111 -48t37 28.5t13 61.5h176q0 -109 -51 -191t-132 -82t-168 47t-110 47q-49 0 -57 -90h-172z" glyph-name="Otilde" horiz-adv-x="1376" unicode="Õ"/><glyph d="M686 -20q-236 0 -390.5 139t-158.5 342q-6 256 0 512q4 201 161.5 341t391.5 140t389.5 -139t159.5 -342q6 -256 0 -512q-4 -201 -160.5 -341t-392.5 -140zM688 1233q-131 0 -219 -78t-92 -180q-6 -260 0 -516q4 -102 90 -180t220 -78t221 77t91 181q6 256 0 516 q-4 102 -92 180t-219 78zM369 1585v234h233v-234h-233zM774 1585v234h234v-234h-234z" glyph-name="Odieresis" horiz-adv-x="1376" unicode="Ö"/><glyph d="M299 182l-154 154l265 262l-267 268l154 154l266 -268l266 266l154 -154l-266 -266l262 -262l-154 -154l-262 262z" glyph-name="multiply" horiz-adv-x="1126" unicode="×"/><glyph d="M688 -20q-168 0 -299 73l-33 -53h-221l107 174q-100 123 -105 287q-6 256 0 512q4 201 161 341t390 140q160 0 297 -74l33 54h221l-109 -174q105 -125 109 -287q6 -256 0 -512q-4 -201 -160.5 -341t-390.5 -140zM702 201q118 0 205.5 77t91.5 181q6 256 0 516 q-4 37 -10 55l-481 -782q76 -47 194 -47zM670 1233q-114 0 -201.5 -78t-91.5 -180q-12 -514 8 -569l479 780q-80 47 -194 47z" glyph-name="Oslash" horiz-adv-x="1376" unicode="Ø"/><glyph d="M1014 1434h239v-973q0 -205 -156.5 -343t-394.5 -138t-393 138t-155 343v973h239v-957q0 -131 85.5 -201.5t225.5 -70.5t225 70.5t85 201.5v957zM864 1546h-231l-316 297h293z" glyph-name="Ugrave" horiz-adv-x="1406" unicode="Ù"/><glyph d="M1014 1434h239v-973q0 -205 -156.5 -343t-394.5 -138t-393 138t-155 343v973h239v-957q0 -131 85.5 -201.5t225.5 -70.5t225 70.5t85 201.5v957zM807 1546h-232l254 297h293z" glyph-name="Uacute" horiz-adv-x="1406" unicode="Ú"/><glyph d="M1014 1434h239v-973q0 -205 -156.5 -343t-394.5 -138t-393 138t-155 343v973h239v-957q0 -131 85.5 -201.5t225.5 -70.5t225 70.5t85 201.5v957zM561 1546h-223l229 297h273l229 -297h-225l-142 156z" glyph-name="Ucircumflex" horiz-adv-x="1406" unicode="Û"/><glyph d="M1014 1434h239v-973q0 -205 -156.5 -343t-394.5 -138t-393 138t-155 343v973h239v-957q0 -131 85.5 -201.5t225.5 -70.5t225 70.5t85 201.5v957zM383 1585v234h233v-234h-233zM788 1585v234h234v-234h-234z" glyph-name="Udieresis" horiz-adv-x="1406" unicode="Ü"/><glyph d="M762 0h-242v565l-489 869h278l332 -637l332 637h278l-489 -869v-565zM760 1546h-232l254 297h293z" glyph-name="Yacute" horiz-adv-x="1282" unicode="Ý"/><glyph d="M164 0v1434h239v-177h342q178 0 278.5 -95t108.5 -239t0 -291q-7 -147 -107.5 -242t-279.5 -95h-342v-295h-239zM403 1030v-510h347q135 0 139 113q6 143 0 285q-4 113 -139 112h-347z" glyph-name="Thorn" horiz-adv-x="1218" unicode="Þ"/><glyph d="M686 190q170 0 170 105t-78 152t-124 78.5t-77.5 92t-31.5 146.5t54 157.5t110 100.5l53 29v45q0 66 -55.5 107.5t-139.5 41.5t-142 -43t-58 -106v-1096h-224v1110q0 147 117 245.5t299 98.5t300 -100.5t118 -243.5v-156q-19 -5 -114 -53.5t-95 -134.5q0 -63 79 -115.5 t124 -89.5t77.5 -101.5t32.5 -148.5q0 -326 -399 -325q-100 0 -178 18l-27 6l29 205q94 -25 180 -25z" glyph-name="germandbls" horiz-adv-x="1163" unicode="ß"/><glyph d="M414 -20q-142 0 -227 92t-85 241t82 246.5t240 97.5h252v29q0 63 -41 106.5t-122 43.5q-152 0 -292 -31l-43 -10l-22 204q188 45 367 45t277.5 -98t98.5 -248v-698h-203l-10 74q-130 -94 -272 -94zM430 188q47 0 108.5 28t100.5 54l37 29v150h-244q-106 -1 -106 -131 t104 -130zM637 1137h-231l-316 297h293z" glyph-name="agrave" horiz-adv-x="1032" unicode="à"/><glyph d="M414 -20q-142 0 -227 92t-85 241t82 246.5t240 97.5h252v29q0 63 -41 106.5t-122 43.5q-152 0 -292 -31l-43 -10l-22 204q188 45 367 45t277.5 -98t98.5 -248v-698h-203l-10 74q-130 -94 -272 -94zM430 188q47 0 108.5 28t100.5 54l37 29v150h-244q-106 -1 -106 -131 t104 -130zM600 1137h-231l254 297h292z" glyph-name="aacute" horiz-adv-x="1032" unicode="á"/><glyph d="M414 -20q-142 0 -227 92t-85 241t82 246.5t240 97.5h252v29q0 63 -41 106.5t-122 43.5q-152 0 -292 -31l-43 -10l-22 204q188 45 367 45t277.5 -98t98.5 -248v-698h-203l-10 74q-130 -94 -272 -94zM430 188q47 0 108.5 28t100.5 54l37 29v150h-244q-106 -1 -106 -131 t104 -130zM373 1137h-223l229 297h272l230 -297h-226l-141 155z" glyph-name="acircumflex" horiz-adv-x="1032" unicode="â"/><glyph d="M414 -20q-142 0 -227 92t-85 241t82 246.5t240 97.5h252v29q0 63 -41 106.5t-122 43.5q-152 0 -292 -31l-43 -10l-22 204q188 45 367 45t277.5 -98t98.5 -248v-698h-203l-10 74q-130 -94 -272 -94zM430 188q47 0 108.5 28t100.5 54l37 29v150h-244q-106 -1 -106 -131 t104 -130zM170 1141q0 109 52 191.5t133 82.5t168 -48t111 -48t37 28.5t13 61.5h176q0 -109 -51 -190.5t-132 -81.5t-168 47t-110 47q-49 0 -57 -90h-172z" glyph-name="atilde" horiz-adv-x="1032" unicode="ã"/><glyph d="M414 -20q-142 0 -227 92t-85 241t82 246.5t240 97.5h252v29q0 63 -41 106.5t-122 43.5q-152 0 -292 -31l-43 -10l-22 204q188 45 367 45t277.5 -98t98.5 -248v-698h-203l-10 74q-130 -94 -272 -94zM430 188q47 0 108.5 28t100.5 54l37 29v150h-244q-106 -1 -106 -131 t104 -130zM197 1176v233h233v-233h-233zM602 1176v233h234v-233h-234z" glyph-name="adieresis" horiz-adv-x="1032" unicode="ä"/><glyph d="M414 -20q-142 0 -227 92t-85 241t82 246.5t240 97.5h252v29q0 63 -41 106.5t-122 43.5q-152 0 -292 -31l-43 -10l-22 204q188 45 367 45t277.5 -98t98.5 -248v-698h-203l-10 74q-130 -94 -272 -94zM430 188q47 0 108.5 28t100.5 54l37 29v150h-244q-106 -1 -106 -131 t104 -130zM319 1282q0 78 56.5 133t137.5 55t140.5 -55t59.5 -132t-59.5 -132t-140.5 -55t-137.5 54t-56.5 132zM446 1282q0 -29 20.5 -48.5t47.5 -19.5t47.5 19.5t20.5 48.5t-20.5 48.5t-47.5 19.5t-47.5 -19.5t-20.5 -48.5z" glyph-name="aring" horiz-adv-x="1032" unicode="å"/><glyph d="M1077 -20q-96 0 -175 32.5t-109 65.5l-31 31q-18 -14 -49 -36t-120 -57.5t-169 -35.5q-152 0 -237 92t-85 239t81 231.5t241 84.5h252v59q0 63 -41 106.5t-122 43.5q-152 0 -292 -31l-43 -10l-22 204q188 45 363 45t280 -98q113 98 281 98t270 -96t108 -241v-283h-555 q0 -59 2 -84q4 -61 50 -105.5t124 -44.5q165 0 285 35l43 11l29 -199q-139 -57 -359 -57zM430 188q47 0 110.5 29t102.5 57l41 29q-8 72 -8 123h-244q-59 0 -82.5 -26.5t-23.5 -82.5q0 -129 104 -129zM1076 834q-73 0 -120 -43.5t-51 -106.5l-2 -63h340q-2 49 -2 63 q-2 61 -47 105.5t-118 44.5z" glyph-name="ae" horiz-adv-x="1572" unicode="æ"/><glyph d="M733 -217q0 -84 -55 -128t-149 -44t-160 18l-25 6l12 119q70 -14 140 -14q18 0 31.5 14.5t13.5 35.5t-12.5 34.5t-28.5 13.5h-97l33 146q-145 20 -225 113t-84 225q-6 188 0 380q4 147 108.5 244.5t284.5 97.5q125 0 262 -20l41 -8l-20 -211q-156 29 -285 29 q-72 0 -118 -43t-48 -101q-6 -180 0 -356q2 -57 48 -101.5t138 -44.5t234 29l39 10l29 -209q-113 -29 -246 -38l-8 -41q112 -13 129.5 -62t17.5 -94z" glyph-name="ccedilla" horiz-adv-x="901" unicode="ç"/><glyph d="M542 -20q-200 0 -304.5 97t-110.5 258t0 365q4 145 112.5 244.5t281.5 99.5t280.5 -96t113.5 -241v-283h-567q0 -59 2 -84q4 -61 50 -105.5t124 -44.5q164 0 295 35l45 11l29 -199q-151 -57 -351 -57zM521 834q-73 0 -120 -43.5t-51 -106.5l-2 -63h344q-2 49 -2 63 q-2 61 -49 105.5t-120 44.5zM659 1137h-231l-315 297h293z" glyph-name="egrave" horiz-adv-x="1030" unicode="è"/><glyph d="M542 -20q-200 0 -304.5 97t-110.5 258t0 365q4 145 112.5 244.5t281.5 99.5t280.5 -96t113.5 -241v-283h-567q0 -59 2 -84q4 -61 50 -105.5t124 -44.5q164 0 295 35l45 11l29 -199q-151 -57 -351 -57zM521 834q-73 0 -120 -43.5t-51 -106.5l-2 -63h344q-2 49 -2 63 q-2 61 -49 105.5t-120 44.5zM604 1137h-231l254 297h293z" glyph-name="eacute" horiz-adv-x="1030" unicode="é"/><glyph d="M542 -20q-200 0 -304.5 97t-110.5 258t0 365q4 145 112.5 244.5t281.5 99.5t280.5 -96t113.5 -241v-283h-567q0 -59 2 -84q4 -61 50 -105.5t124 -44.5q164 0 295 35l45 11l29 -199q-151 -57 -351 -57zM521 834q-73 0 -120 -43.5t-51 -106.5l-2 -63h344q-2 49 -2 63 q-2 61 -49 105.5t-120 44.5zM373 1137h-223l229 297h272l230 -297h-226l-141 155z" glyph-name="ecircumflex" horiz-adv-x="1030" unicode="ê"/><glyph d="M542 -20q-200 0 -304.5 97t-110.5 258t0 365q4 145 112.5 244.5t281.5 99.5t280.5 -96t113.5 -241v-283h-567q0 -59 2 -84q4 -61 50 -105.5t124 -44.5q164 0 295 35l45 11l29 -199q-151 -57 -351 -57zM521 834q-73 0 -120 -43.5t-51 -106.5l-2 -63h344q-2 49 -2 63 q-2 61 -49 105.5t-120 44.5zM195 1176v233h233v-233h-233zM600 1176v233h234v-233h-234z" glyph-name="edieresis" horiz-adv-x="1030" unicode="ë"/><glyph d="M147 0v1024h226v-1024h-226zM375 1137h-232l-315 297h293z" glyph-name="igrave" horiz-adv-x="520" unicode="ì"/><glyph d="M147 0v1024h226v-1024h-226zM365 1137h-232l254 297h293z" glyph-name="iacute" horiz-adv-x="520" unicode="í"/><glyph d="M147 0v1024h226v-1024h-226zM119 1137h-223l229 297h272l230 -297h-226l-141 155z" glyph-name="icircumflex" horiz-adv-x="520" unicode="î"/><glyph d="M147 0v1024h226v-1024h-226zM-59 1176v233h233v-233h-233zM346 1176v233h234v-233h-234z" glyph-name="idieresis" horiz-adv-x="520" unicode="ï"/><glyph d="M436 1454q207 0 350 -143l189 98v-184l-92 -45q80 -162 88 -459q6 -176 0 -393q-4 -147 -119.5 -247.5t-303.5 -100.5t-297.5 97t-113.5 250t0 301t114.5 248.5t303.5 100.5q82 0 154 -29l22 -10q0 82 -37 145l-159 -82v183l53 24q-55 41 -152 41l-121 -4l-14 203 q82 6 135 6zM553 190q84 0 136 45.5t52 102.5v393q-88 39 -180 39t-142 -42t-52 -105q-4 -141 0 -283q2 -63 52 -106.5t134 -43.5z" glyph-name="eth" horiz-adv-x="1114" unicode="ð"/><glyph d="M369 0h-226v1024h207l10 -66q135 86 256 86q168 0 255 -98t87 -248v-698h-225v686q0 61 -30.5 105.5t-84.5 44.5t-114 -21.5t-98 -44.5l-37 -20v-750zM201 1141q0 109 52 191.5t133 82.5t168 -48t111 -48t37 28.5t13 61.5h176q0 -109 -51.5 -190.5t-131.5 -81.5 t-167.5 47t-110.5 47q-49 0 -57 -90h-172z" glyph-name="ntilde" horiz-adv-x="1091" unicode="ñ"/><glyph d="M532 -20q-185 0 -293 97t-113 265t1 358q4 147 111.5 245.5t291.5 98.5t297 -99t117 -245q6 -190 0 -376q-4 -147 -115.5 -245.5t-296.5 -98.5zM534.5 834q-83.5 0 -132 -42t-50.5 -104q-6 -178 0 -352q2 -63 51.5 -104.5t132.5 -41.5t132 42t51 104q6 176 0 352 q-2 63 -51.5 104.5t-133 41.5zM657 1137h-231l-315 297h292z" glyph-name="ograve" horiz-adv-x="1071" unicode="ò"/><glyph d="M532 -20q-185 0 -293 97t-113 265t1 358q4 147 111.5 245.5t291.5 98.5t297 -99t117 -245q6 -190 0 -376q-4 -147 -115.5 -245.5t-296.5 -98.5zM534.5 834q-83.5 0 -132 -42t-50.5 -104q-6 -178 0 -352q2 -63 51.5 -104.5t132.5 -41.5t132 42t51 104q6 176 0 352 q-2 63 -51.5 104.5t-133 41.5zM618 1137h-231l254 297h293z" glyph-name="oacute" horiz-adv-x="1071" unicode="ó"/><glyph d="M532 -20q-185 0 -293 97t-113 265t1 358q4 147 111.5 245.5t291.5 98.5t297 -99t117 -245q6 -190 0 -376q-4 -147 -115.5 -245.5t-296.5 -98.5zM534.5 834q-83.5 0 -132 -42t-50.5 -104q-6 -178 0 -352q2 -63 51.5 -104.5t132.5 -41.5t132 42t51 104q6 176 0 352 q-2 63 -51.5 104.5t-133 41.5zM393 1137h-223l229 297h273l229 -297h-225l-141 155z" glyph-name="ocircumflex" horiz-adv-x="1071" unicode="ô"/><glyph d="M532 -20q-185 0 -293 97t-113 265t1 358q4 147 111.5 245.5t291.5 98.5t297 -99t117 -245q6 -190 0 -376q-4 -147 -115.5 -245.5t-296.5 -98.5zM534.5 834q-83.5 0 -132 -42t-50.5 -104q-6 -178 0 -352q2 -63 51.5 -104.5t132.5 -41.5t132 42t51 104q6 176 0 352 q-2 63 -51.5 104.5t-133 41.5zM190 1141q0 109 52.5 191.5t133.5 82.5t167.5 -48t110.5 -48t37.5 28.5t13.5 61.5h176q0 -109 -51.5 -190.5t-132.5 -81.5t-168 47t-109 47q-50 0 -58 -90h-172z" glyph-name="otilde" horiz-adv-x="1071" unicode="õ"/><glyph d="M532 -20q-185 0 -293 97t-113 265t1 358q4 147 111.5 245.5t291.5 98.5t297 -99t117 -245q6 -190 0 -376q-4 -147 -115.5 -245.5t-296.5 -98.5zM534.5 834q-83.5 0 -132 -42t-50.5 -104q-6 -178 0 -352q2 -63 51.5 -104.5t132.5 -41.5t132 42t51 104q6 176 0 352 q-2 63 -51.5 104.5t-133 41.5zM215 1176v233h234v-233h-234zM621 1176v233h233v-233h-233z" glyph-name="odieresis" horiz-adv-x="1071" unicode="ö"/><glyph d="M143 702h930v-210h-930v210zM494 141v232h231v-232h-231zM494 821v232h231v-232h-231z" glyph-name="divide" horiz-adv-x="1216" unicode="÷"/><glyph d="M537 1044q125 0 221 -51l20 31h197l-92 -141q59 -84 61 -183q6 -190 0 -376q-4 -147 -115.5 -245.5t-291.5 -98.5q-127 0 -222 45l-16 -25h-197l86 131q-57 82 -61 193q-6 186 0 376q4 147 111.5 245.5t298.5 98.5zM520 842q-72 0 -123 -43.5t-53 -106.5q-6 -145 -2 -330 l299 455q-49 25 -121 25zM727 332q6 139 2 319l-297 -448q47 -21 119 -21t123 44.5t53 105.5z" glyph-name="oslash" horiz-adv-x="1077" unicode="ø"/><glyph d="M723 1024h225v-1024h-207l-10 66q-135 -86 -256 -86q-168 0 -255 98t-87 248v698h225v-686q0 -61 31 -105.5t84 -44.5t113.5 22.5t97.5 45.5l39 23v745zM678 1137h-232l-315 297h293z" glyph-name="ugrave" horiz-adv-x="1091" unicode="ù"/><glyph d="M723 1024h225v-1024h-207l-10 66q-135 -86 -256 -86q-168 0 -255 98t-87 248v698h225v-686q0 -61 31 -105.5t84 -44.5t113.5 22.5t97.5 45.5l39 23v745zM653 1137h-231l254 297h293z" glyph-name="uacute" horiz-adv-x="1091" unicode="ú"/><glyph d="M723 1024h225v-1024h-207l-10 66q-135 -86 -256 -86q-168 0 -255 98t-87 248v698h225v-686q0 -61 31 -105.5t84 -44.5t113.5 22.5t97.5 45.5l39 23v745zM403 1137h-223l230 297h272l229 -297h-225l-141 155z" glyph-name="ucircumflex" horiz-adv-x="1091" unicode="û"/><glyph d="M723 1024h225v-1024h-207l-10 66q-135 -86 -256 -86q-168 0 -255 98t-87 248v698h225v-686q0 -61 31 -105.5t84 -44.5t113.5 22.5t97.5 45.5l39 23v745zM225 1176v233h234v-233h-234zM631 1176v233h233v-233h-233z" glyph-name="udieresis" horiz-adv-x="1091" unicode="ü"/><glyph d="M369 61l-338 963h233l252 -748h10l271 748h227l-535 -1393h-227l164 410zM647 1137h-231l254 297h293z" glyph-name="yacute" horiz-adv-x="1054" unicode="ý"/><glyph d="M143 -369v1803h226v-463q133 74 237 73q168 0 258 -93t95 -261t0 -340q-5 -170 -105 -267t-287 -97q-69 0 -170 26l-28 11v-392h-226zM614 834q-89 0 -204 -62l-41 -20v-525q82 -33 178 -33t140 45.5t46 106.5q6 172 0 346q-2 59 -35.5 100.5t-83.5 41.5z" glyph-name="thorn" horiz-adv-x="1085" unicode="þ"/><glyph d="M369 61l-338 963h233l252 -748h10l271 748h227l-535 -1393h-227l164 410zM221 1176v233h234v-233h-234zM627 1176v233h233v-233h-233z" glyph-name="ydieresis" horiz-adv-x="1054" unicode="ÿ"/><glyph d="M147 0v1024h226v-1024h-226z" glyph-name="dotlessi" horiz-adv-x="520" unicode="ı"/><glyph d="M168 1434h240v-570l385 219v-254l-385 -221v-381h639v-227h-879v471l-117 -65v256l117 69v703z" glyph-name="Lslash" horiz-adv-x="1087" unicode="Ł"/><glyph d="M143 1434h226v-494l176 100v-235l-176 -100v-705h-226v575l-116 -67v235l116 68v623z" glyph-name="lslash" horiz-adv-x="544" unicode="ł"/><glyph d="M670 1434h1136v-228h-676v-350h617v-225h-617v-404h697v-227h-1157q-238 0 -383.5 130t-149.5 331q-6 256 0 512q4 201 150.5 331t382.5 130zM670 229h221v975h-221q-131 0 -208 -65.5t-81 -165.5q-6 -258 0 -512q4 -102 79 -167t210 -65z" glyph-name="OE" horiz-adv-x="1929" unicode="Œ"/><glyph d="M1144 -20q-202 0 -310 104q-111 -104 -299 -104t-296 97t-113 265t1 358q4 147 111.5 245.5t293.5 98.5t304 -108q114 108 288 108t281.5 -96t114.5 -241v-283h-568q0 -59 2 -84q4 -61 50 -105.5t124 -44.5q163 0 295 35l45 11l29 -199q-151 -57 -353 -57zM534.5 834 q-83.5 0 -132 -42t-50.5 -104q-6 -178 0 -352q2 -63 51.5 -104.5t132.5 -41.5t132 42t51 104q6 176 0 352q-2 63 -51.5 104.5t-133 41.5zM1125 834q-73 0 -120 -43.5t-51 -106.5l-2 -63h344q-2 49 -2 63q-2 61 -49 105.5t-120 44.5z" glyph-name="oe" horiz-adv-x="1634" unicode="œ"/><glyph d="M608 1227q-104 0 -178 -43t-74 -131t81 -136.5t197 -74t231.5 -61.5t196.5 -129t81 -246q0 -426 -551 -426q-268 0 -459 59l12 219l66 -14q193 -41 365 -41t247.5 45t75.5 141q0 118 -124 169t-233.5 73t-180 54t-126 73t-89 115.5t-33.5 173.5q0 203 141 305t375 102 t426 -55l-13 -217l-59 10q-173 35 -375 35zM330 1843h223l141 -155l142 155h225l-230 -297h-272z" glyph-name="Scaron" horiz-adv-x="1234" unicode="Š"/><glyph d="M481 834q-143 0 -143 -95q0 -45 54 -71.5t131 -45t154 -47t131 -98t54 -176.5q0 -322 -397 -321q-190 0 -346 53l28 203l46 -11q131 -35 246 -35q114 0 155 25t41 72t-39 73.5t-96.5 39t-126 35t-126 51t-96 93t-38.5 156.5q0 156 100 232.5t264 76.5t330 -43l-25 -204 l-49 10q-165 27 -252 27zM195 1434h223l141 -156l141 156h226l-230 -297h-272z" glyph-name="scaron" horiz-adv-x="964" unicode="š"/><glyph d="M762 0h-242v565l-489 869h278l332 -637l332 637h278l-489 -869v-565zM322 1585v234h233v-234h-233zM727 1585v234h234v-234h-234z" glyph-name="Ydieresis" horiz-adv-x="1282" unicode="Ÿ"/><glyph d="M1155 227v-227h-1053v233l748 973h-731v228h1028v-234l-752 -973h760zM342 1843h223l142 -155l141 155h225l-229 -297h-273z" glyph-name="Zcaron" horiz-adv-x="1257" unicode="Ž"/><glyph d="M834 209v-209h-752v213l479 602h-459v209h725v-213l-479 -602h486zM170 1434h223l142 -156l141 156h225l-229 -297h-273z" glyph-name="zcaron" horiz-adv-x="915" unicode="ž"/><glyph d="M156 -178q72 0 84 104l79 754h-145l21 211h145l29 270q14 133 99 214t224 81q74 0 176 -18l37 -6l-41 -203q-100 18 -184 18q-78 0 -88 -104l-27 -252h269l-21 -211h-268l-84 -789q-12 -125 -90 -202.5t-193 -77.5t-190 20l-29 7l35 202q74 -18 162 -18z" glyph-name="florin" horiz-adv-x="997" unicode="ƒ"/><glyph d="M223 1137h-223l229 297h273l229 -297h-225l-141 155z" glyph-name="circumflex" horiz-adv-x="731" unicode="ˆ"/><glyph d="M0 1434h223l142 -156l141 156h225l-229 -297h-273z" glyph-name="caron" horiz-adv-x="731" unicode="ˇ"/><glyph d="M0 1430h168q0 -47 29.5 -86t68.5 -39h99q39 0 67.5 37.5t28.5 87.5h168q0 -119 -81 -208t-188 -89h-92q-109 0 -188.5 89t-79.5 208z" glyph-name="breve" horiz-adv-x="628" unicode="˘"/><glyph d="M0 1176v233h233v-233h-233z" glyph-name="dotaccent" horiz-adv-x="233" unicode="˙"/><glyph d="M0 1282q0 78 56.5 133t137.5 55t140 -55t59 -132t-59.5 -132t-139.5 -55t-137 54t-57 132zM127 1282q0 -29 20.5 -48.5t47 -19.5t47 19.5t20.5 48.5t-20.5 48.5t-47 19.5t-47 -19.5t-20.5 -48.5z" glyph-name="ring" horiz-adv-x="393" unicode="˚"/><glyph d="M285 -213q64 0 118 18l23 -157q-106 -35 -190 -35t-134.5 46t-50.5 118q0 108 160 215l18 10h150q-135 -119 -135 -178q0 -37 41 -37z" glyph-name="ogonek" horiz-adv-x="464" unicode="˛"/><glyph d="M0 1141q0 109 52 191.5t133 82.5t168 -48t111 -48t37 28.5t13 61.5h176q0 -109 -51 -190.5t-132 -81.5t-168 47t-110 47q-49 0 -57 -90h-172z" glyph-name="tilde" horiz-adv-x="690" unicode="˜"/><glyph d="M231 1137h-231l270 317h293zM674 1137h-232l271 317h293z" glyph-name="hungarumlaut" horiz-adv-x="1007" unicode="˝"/><glyph d="M842 702v-219h-842v219h842z" glyph-name="endash" horiz-adv-x="841" unicode="–"/><glyph d="M1683 702v-219h-1683v219h1683z" glyph-name="emdash" horiz-adv-x="1683" unicode="—"/><glyph d="M295 1190v-234h-234v181q0 176 74 247.5t182 71.5v-123q-106 0 -106 -143h84z" glyph-name="quoteleft" horiz-adv-x="419" unicode="‘"/><glyph d="M127 1200v234h233v-181q0 -176 -73.5 -247.5t-182.5 -71.5v123q106 0 107 143h-84z" glyph-name="quoteright" horiz-adv-x="421" unicode="’"/><glyph d="M115 0v233h233v-180q0 -176 -73.5 -247.5t-182.5 -71.5v123q106 0 107 143h-84z" glyph-name="quotesinglbase" horiz-adv-x="481" unicode="‚"/><glyph d="M666 1190v-234h-234v181q0 176 74 247.5t182 71.5v-123q-106 0 -106 -143h84zM295 1190v-234h-234v181q0 176 74 247.5t182 71.5v-123q-106 0 -106 -143h84z" glyph-name="quotedblleft" horiz-adv-x="790" unicode="“"/><glyph d="M127 1200v234h233v-181q0 -176 -73.5 -247.5t-182.5 -71.5v123q106 0 107 143h-84zM498 1200v234h233v-181q0 -176 -73.5 -247.5t-182.5 -71.5v123q106 0 107 143h-84z" glyph-name="quotedblright" horiz-adv-x="792" unicode="”"/><glyph d="M115 0v233h233v-180q0 -176 -73.5 -247.5t-182.5 -71.5v123q106 0 107 143h-84zM485 0v233h234v-180q0 -176 -74 -247.5t-182 -71.5v123q106 0 106 143h-84z" glyph-name="quotedblbase" horiz-adv-x="851" unicode="„"/><glyph d="M692 813v-1182h-227v1182h-342v211h342v410h227v-410h359v-211h-359z" glyph-name="dagger" horiz-adv-x="1173" unicode="†"/><glyph d="M1051 248v-209h-359v-408h-227v408h-342v209h342v565h-342v211h342v410h227v-410h359v-211h-359v-565h359z" glyph-name="daggerdbl" horiz-adv-x="1173" unicode="‡"/><glyph d="M164 720q0 134 95 229t229 95t229.5 -95t95.5 -229t-95.5 -228.5t-229.5 -94.5t-229 94.5t-95 228.5z" glyph-name="bullet" horiz-adv-x="976" unicode="•"/><glyph d="M164 0v231h231v-231h-231zM723 0v231h231v-231h-231zM1282 0v231h231v-231h-231z" glyph-name="ellipsis" horiz-adv-x="1677" unicode="…"/><glyph d="M809 1151v-170q0 -135 -93.5 -219t-229.5 -84t-229 85t-93 218v170q0 135 92 219t229.5 84t230.5 -85t93 -218zM594 954v224q0 45 -31 70.5t-79 25.5t-77.5 -25.5t-29.5 -70.5v-222q0 -47 29.5 -72.5t79 -25.5t79 24.5t29.5 71.5zM530 0l656 1434h192l-649 -1434h-199z M1751 451v-170q0 -135 -93.5 -219.5t-229.5 -84.5t-229 85t-93 219v170q0 135 92 219t229.5 84t230.5 -85t93 -218zM1536 254v223q0 45 -31 70.5t-79 25.5t-77.5 -25.5t-29.5 -70.5v-221q0 -47 29.5 -72.5t79 -25.5t79 24.5t29.5 71.5zM2521 451v-170q0 -135 -93 -219.5 t-229 -84.5t-229.5 85t-93.5 219v170q0 135 92 219t229.5 84t230.5 -85t93 -218zM2306 254v223q0 45 -31 70.5t-79 25.5t-77.5 -25.5t-29.5 -70.5v-221q0 -47 29.5 -72.5t79 -25.5t79 24.5t29.5 71.5z" glyph-name="perthousand" horiz-adv-x="2684" unicode="‰"/><glyph d="M657 256h-266l-258 338l258 340h264l-270 -338z" glyph-name="guilsinglleft" horiz-adv-x="800" unicode="‹"/><glyph d="M410 256h-267l273 340l-271 338h265l258 -340z" glyph-name="guilsinglright" horiz-adv-x="800" unicode="›"/><glyph d="M-201 0l656 1434h192l-649 -1434h-199z" glyph-name="fraction" horiz-adv-x="458" unicode="⁄"/><glyph d="M82 776v197h125q4 203 149.5 342t372.5 139q154 0 307 -33l49 -12l-10 -219q-235 37 -357 37t-194.5 -75t-77.5 -179h492v-197h-496v-121h447v-196h-443q4 -106 76 -179t197 -73t299 29l65 10l9 -219q-197 -47 -363 -47q-231 0 -374.5 137t-147.5 342h-125v196h123v121 h-123z" glyph-name="Euro" horiz-adv-x="1214" unicode="€"/><glyph d="M143 1257v177h529v-177h-174v-561h-183v561h-172zM1470 1434v-738h-178v328l11 141l-107 -194h-139l-101 190l11 -137v-328h-181v738h183l159 -273l160 273h182z" glyph-name="trademark" horiz-adv-x="1654" unicode="™"/><glyph d="M1075 709v-217h-932v217h932z" glyph-name="minus" horiz-adv-x="1218" unicode="−"/><glyph d="M877 0v813h-467v-813h-226v813h-143v211h143v131q0 135 79 217t220 82q37 0 94.5 -6t96.5 -10l39 -6l-13 -205q-127 18 -213 18q-78 0 -77 -100v-121h692v-1024h-225zM872 1200v234h234v-234h-234z" glyph-name="uniFB01" horiz-adv-x="1249" unicode="ﬁ"/><glyph d="M877 0v1235q-236 10 -390 10q-78 0 -77 -100v-121h276v-211h-276v-813h-226v813h-143v211h143v131q0 135 79 217t220 82l619 -20v-1434h-225z" glyph-name="uniFB02" horiz-adv-x="1245" unicode="ﬂ"/></font>
</defs>
</svg>
