<?xml version="1.0" standalone="no"?>
<!DOCTYPE svg PUBLIC "-//W3C//DTD SVG 1.1//EN" "http://www.w3.org/Graphics/SVG/1.1/DTD/svg11.dtd">
<svg xmlns="http://www.w3.org/2000/svg"><metadata>This SVG WebFont was generated by YouWorkForThem.
Copyright (c) 2008 by Ramiz Guseynov. All rights reserved.</metadata><defs><font horiz-adv-x="1165" id="ywftsvg"><font-face ascent="1536" bbox="-180 -422 2286 1886" cap-height="1434" descent="-512" font-family="" font-stretch="normal" font-weight="300" panose-1="2 0 5 6 0 0 0 2 0 4" underline-position="0" underline-thickness="0" unicode-range="U+0020-FB02" units-per-em="2048" x-height="1024"/><missing-glyph horiz-adv-x="450"/><glyph glyph-name=".notdef" horiz-adv-x="450"/><glyph glyph-name="glyph1" horiz-adv-x="0"/><glyph glyph-name="glyph2" horiz-adv-x="681"/><glyph glyph-name="space" horiz-adv-x="450" unicode=" "/><glyph d="M461 1434l-164 -1047h-92l129 1047h127zM135 0l23 162h125l-23 -162h-125z" glyph-name="exclam" horiz-adv-x="495" unicode="!"/><glyph d="M178 1008l60 426h110l-90 -426h-80zM420 1008l59 426h111l-90 -426h-80z" glyph-name="quotedbl" horiz-adv-x="598" unicode="&quot;"/><glyph d="M287 899l12 98h233l125 437h84l-125 -437h422l125 437h84l-125 -437h219l-12 -98h-233l-103 -364h219l-14 -99h-233l-125 -436h-84l125 436h-422l-125 -436h-84l125 436h-221l14 99h233l105 364h-219zM590 899l-103 -364h420l105 364h-422z" glyph-name="numbersign" horiz-adv-x="1396" unicode="#"/><glyph d="M492 104q206 0 306.5 73t100.5 237q0 96 -69.5 153.5t-168 86t-196.5 60t-168 102.5t-70 185q0 201 117 304.5t305 117.5l15 109h106l-14 -109q149 -4 260 -28l37 -9l-23 -96q-180 39 -337 39t-256 -72.5t-99 -228.5q0 -94 69.5 -150.5t169 -84t200 -58t170 -103.5 t69.5 -192q0 -401 -459 -430l-16 -108h-107l15 106q-173 0 -302 33l-36 10l20 96q155 -43 361 -43z" glyph-name="dollar" horiz-adv-x="1142" unicode="$"/><glyph d="M521 702q-126 0 -199.5 66t-73.5 170q0 45 28 231q20 125 106.5 200t212.5 75t199.5 -63.5t73.5 -170.5q1 -43 -28 -233q-16 -125 -104.5 -200t-214.5 -75zM770 1210q0 150 -170 150q-88 0 -148.5 -47t-74.5 -135q-31 -176 -31 -245t45 -107t129 -38t143.5 46.5 t73.5 132.5q33 207 33 243zM430 0l850 1434h100l-848 -1434h-102zM1224 -14q-126 0 -200 65.5t-74 169.5q0 41 29 232q18 125 106.5 199.5t214.5 74.5t199.5 -63.5t73.5 -169.5q0 -44 -29 -234q-18 -125 -106 -199.5t-214 -74.5zM1473 494q0 147 -168 147q-90 0 -149.5 -46 t-74.5 -134q-31 -176 -31 -245t44.5 -106.5t128.5 -37.5t143.5 46t73.5 132q33 207 33 244z" glyph-name="percent" horiz-adv-x="1720" unicode="%"/><glyph d="M641 1354q-258 0 -258 -207q0 -117 145.5 -369t335.5 -495q53 98 84 358h101q-29 -297 -115 -436q55 -68 90 -95.5t74 -27.5h26v-88q-36 -8 -68 -8t-70 24.5t-60.5 48t-57.5 66.5q-160 -139 -362 -139q-156 0 -276.5 94t-120.5 293q0 332 268 477q-100 182 -101 299 q0 152 103 225.5t255 73.5t263 -27l35 -8l-25 -92q-154 33 -266 33zM530 86q154 0 273 115q-182 213 -383 559q-199 -102 -199 -381q0 -131 77.5 -212t231.5 -81z" glyph-name="ampersand" horiz-adv-x="1146" unicode="&amp;"/><glyph d="M178 1008l60 426h110l-88 -426h-82z" glyph-name="quotesingle" horiz-adv-x="346" unicode="'"/><glyph d="M129 -76q0 20 4 58l156 1110q20 147 135 254.5t268 107.5l-14 -108q-102 0 -181 -76t-94 -180l-155 -1110q-4 -29 -4 -41q0 -92 56.5 -157t148.5 -65l-15 -106q-137 0 -221 90t-84 223z" glyph-name="parenleft" horiz-adv-x="618" unicode="("/><glyph d="M446 1128q0 94 -55 156t-147 62l14 108q137 0 221 -89t84 -220q0 -16 -4 -53l-156 -1110q-23 -152 -136 -261.5t-267 -109.5l14 106q102 0 180 78t95 185l155 1110q2 12 2 38z" glyph-name="parenright" horiz-adv-x="618" unicode=")"/><glyph d="M612 1434l-41 -287l281 90l16 -88l-282 -82l139 -231l-80 -50l-135 230l-193 -232l-67 50l199 233l-259 88l39 82l256 -90l31 287h96z" glyph-name="asterisk" horiz-adv-x="886" unicode="*"/><glyph d="M633 1016h98l-53 -389h391l-14 -99h-391l-56 -389h-98l55 389h-389l14 99h390z" glyph-name="plus" unicode="+"/><glyph d="M160 0l22 162h129l-18 -139q-16 -113 -68.5 -164.5t-103.5 -51.5l8 56q33 0 56.5 33.5t27.5 76.5l2 27h-55z" glyph-name="comma" horiz-adv-x="452" unicode=","/><glyph d="M649 653l-14 -98h-467l14 98h467z" glyph-name="hyphen" horiz-adv-x="733" unicode="-"/><glyph d="M158 0l22 162h125l-22 -162h-125z" glyph-name="period" horiz-adv-x="452" unicode="."/><glyph d="M-8 0l610 1434h111l-613 -1434h-108z" glyph-name="slash" horiz-adv-x="604" unicode="/"/><glyph d="M1155 1090q0 -150 -84 -668q-33 -193 -171 -314.5t-340 -121.5t-315.5 104.5t-113.5 269.5q0 115 86 652q31 193 170 314.5t341 121.5t314.5 -104t112.5 -254zM1038 1050q0 138 -78.5 218t-234.5 80t-262.5 -95.5t-130.5 -240.5q-84 -514 -84 -639t80 -206t236 -81 t259.5 94.5t130.5 241.5q84 490 84 628z" glyph-name="zero" horiz-adv-x="1189" unicode="0"/><glyph d="M170 1217l16 108l240 109h135l-201 -1434h-116l186 1329z" glyph-name="one" horiz-adv-x="598" unicode="1"/><glyph d="M624 1448q194 0 297 -85t103 -244t-63.5 -264t-196.5 -220l-604 -524l-2 -11h731l-12 -100h-867l19 129l628 551q135 119 190.5 207t55.5 213t-81 186.5t-216 61.5t-297 -43l-53 -15l8 103q166 55 360 55z" glyph-name="two" horiz-adv-x="1040" unicode="2"/><glyph d="M940 530q0 -248 -150.5 -396t-410.5 -148q-100 0 -188.5 13t-127.5 26l-38 12l20 98q145 -49 348 -49t315.5 114.5t112.5 334.5q0 61 -22.5 105t-69 79t-242.5 35h-67l16 110l426 461l2 8h-647l14 101h781l-17 -113l-442 -467q387 -8 387 -324z" glyph-name="three" horiz-adv-x="1034" unicode="3"/><glyph d="M35 326l18 125l660 983h125l-674 -1008h598l57 399h117l-57 -399h147l-14 -100h-148l-45 -326h-117l46 326h-713z" glyph-name="four" horiz-adv-x="1048" unicode="4"/><glyph d="M422 86q286 0 375.5 133t89.5 334q0 121 -68.5 178t-236.5 57q-74 0 -161 -19t-136 -38l-49 -18l-52 86l140 635h735l-15 -101h-634l-109 -499q145 55 307 55q397 0 398 -344q0 -275 -114 -381.5t-216 -142t-266 -35.5t-287 30l-39 13l20 102q164 -45 318 -45z" glyph-name="five" horiz-adv-x="1095" unicode="5"/><glyph d="M746 1348q-176 0 -282 -100.5t-132 -254.5l-31 -205q79 39 189 69t204 30q379 0 379 -336q0 -238 -138 -401.5t-386 -163.5q-201 0 -308.5 106.5t-107.5 280.5q0 106 82 618q31 197 172 327t371 130q155 0 284 -27l43 -10l-22 -98q-141 35 -317 35zM668 786 q-88 0 -183.5 -26.5t-146.5 -52.5l-51 -27q-37 -211 -37 -293q0 -135 72.5 -218t228.5 -83q201 0 302 123t101 332q0 129 -69.5 187t-216.5 58z" glyph-name="six" unicode="6"/><glyph d="M848 1333h-672l14 101h793l-14 -105l-758 -1329h-113l750 1323v10z" glyph-name="seven" horiz-adv-x="874" unicode="7"/><glyph d="M1155 1118q0 -80 -27.5 -149.5t-85 -128.5t-124.5 -90l-29 -11q8 -4 21.5 -10t49 -31.5t62.5 -57.5t48.5 -86t21.5 -116q0 -203 -150 -327.5t-368 -124.5t-340.5 93t-122.5 253q0 86 30.5 159.5t101 141t140.5 94.5l31 12q-22 7 -96 68.5t-74 210.5q0 197 147.5 313.5 t345.5 116.5t308 -95.5t110 -234.5zM578 86q156 0 277.5 93t121.5 255q0 123 -96.5 187.5t-248.5 64.5t-277.5 -90t-125.5 -234t96.5 -210t252.5 -66zM666 788q152 0 263 84t111 236q0 102 -81.5 172t-227.5 70t-260.5 -85t-114.5 -239q0 -117 79 -177.5t231 -60.5z" glyph-name="eight" horiz-adv-x="1198" unicode="8"/><glyph d="M518 86q176 0 281.5 100.5t132.5 253.5l31 205q-78 -39 -188.5 -68.5t-205.5 -29.5q-379 0 -379 336q0 238 138.5 401.5t386.5 163.5q201 0 308 -106.5t107 -280.5q0 -106 -81 -619q-31 -197 -172.5 -326.5t-370.5 -129.5q-145 0 -285 26l-43 11l23 98q141 -35 317 -35z M596 647q88 0 183 26.5t147 53.5l51 27q37 213 37 293q0 135 -73 218t-228 83q-201 0 -302.5 -123t-101.5 -332q0 -129 70 -187.5t217 -58.5z" glyph-name="nine" unicode="9"/><glyph d="M160 0l22 162h125l-22 -162h-125zM281 862l22 162h125l-22 -162h-125z" glyph-name="colon" horiz-adv-x="452" unicode=":"/><glyph d="M283 862l22 162h125l-22 -162h-125zM160 0l22 162h129l-18 -139q-16 -113 -68.5 -164.5t-103.5 -51.5l8 56q33 0 56.5 33.5t27.5 76.5l2 27h-55z" glyph-name="semicolon" horiz-adv-x="452" unicode=";"/><glyph d="M166 543l16 108l930 436l-16 -114l-828 -375l721 -377l-16 -115z" glyph-name="less" unicode="&lt;"/><glyph d="M1040 438l-14 -98h-879l15 98h878zM1100 856l-15 -98h-878l14 98h879z" glyph-name="equal" unicode="="/><glyph d="M1081 651l-16 -108l-930 -437l17 115l827 377l-721 375l16 114z" glyph-name="greater" unicode=">"/><glyph d="M605 1448q197 0 311 -77t114 -231t-56 -243.5t-140 -127.5t-169 -71.5t-154 -108.5t-85 -204h-102q14 115 54 194.5t92 119.5t112.5 68t118 50.5t133 73t75.5 231.5q0 225 -317 226q-144 0 -301 -37l-49 -11l6 97q160 51 357 51zM260 0l23 162h125l-23 -162h-125z" glyph-name="question" horiz-adv-x="1028" unicode="?"/><glyph d="M1225 214q1 -93 113 -93q66 0 110.5 59.5t60.5 143.5q80 436 80 606t-144.5 298t-418.5 128t-465.5 -144.5t-224.5 -334.5q-96 -571 -96 -735t148.5 -290t412.5 -126q182 0 329 36l52 11l4 -92q-213 -45 -398 -46q-301 0 -477 146.5t-176 365.5q0 139 98 730 q39 240 265.5 405.5t532.5 165.5t484.5 -147.5t178.5 -362.5q0 -115 -78 -592q-27 -154 -113 -232.5t-194 -78.5t-138 42t-32 54l-4 10q-215 -113 -351 -113t-203 72t-67 182t55 420q20 125 122 211t258 86t317 -49l53 -14l-84 -596q-10 -86 -10 -126zM782 113 q76 0 158 27.5t133 56.5l51 28l90 641q-104 47 -272 47q-117 0 -186.5 -62.5t-87.5 -156.5q-54 -274 -54 -376t46 -153.5t122 -51.5z" glyph-name="at" horiz-adv-x="1753" unicode="@"/><glyph d="M651 1434h174l260 -1434h-114l-80 444h-582l-203 -444h-114zM874 541l-141 794h-14l-365 -794h520z" glyph-name="A" horiz-adv-x="1177" unicode="A"/><glyph d="M801 1434q168 0 254 -75t86 -214q0 -90 -25.5 -164t-83.5 -135.5t-119 -83.5l-24 -8q71 -18 127.5 -80t56.5 -195q0 -479 -502 -479h-458l200 1434h488zM809 1333h-393l-74 -536h369q143 0 231 90t88 239q0 207 -221 207zM578 100q197 0 287.5 87t90.5 280 q0 231 -260 231h-368l-84 -598h334z" glyph-name="B" unicode="B"/><glyph d="M596 -14q-207 0 -330 114.5t-123 286.5q0 88 82 612q31 199 183.5 324t392.5 125q145 0 268 -27l41 -10l-20 -102q-166 37 -299 37q-182 0 -300 -96.5t-143 -250.5q-80 -479 -80 -607t89 -216t255 -88q119 0 271 31l49 10l-8 -102q-195 -41 -328 -41z" glyph-name="C" horiz-adv-x="1064" unicode="C"/><glyph d="M733 1434q207 0 331 -107.5t124 -275.5q0 -121 -80 -617q-33 -193 -181.5 -313.5t-387.5 -120.5h-426l200 1434h420zM719 1333h-303l-172 -1233h303q182 0 300 94.5t142 239.5q80 479 80 608t-92 210t-258 81z" glyph-name="D" horiz-adv-x="1234" unicode="D"/><glyph d="M313 1434h842l-14 -101h-725l-76 -538h657l-12 -99h-657l-84 -596h745l-14 -100h-862z" glyph-name="E" horiz-adv-x="1128" unicode="E"/><glyph d="M313 1434h801l-14 -103h-686l-78 -561h618l-14 -100h-618l-95 -670h-114z" glyph-name="F" horiz-adv-x="1026" unicode="F"/><glyph d="M147 372q0 156 80 627q33 201 179.5 325t366.5 124t382 -33l51 -10l-22 -100q-214 41 -396 41t-297.5 -97.5t-140.5 -249.5q-82 -493 -82 -615t88 -209t249 -87t288 31l43 10l70 483h-269l13 101h383l-93 -660q-231 -67 -445 -67t-331 115t-117 271z" glyph-name="G" horiz-adv-x="1228" unicode="G"/><glyph d="M1161 1434h117l-201 -1434h-116l98 696h-731l-99 -696h-116l200 1434h117l-88 -637h731z" glyph-name="H" horiz-adv-x="1292" unicode="H"/><glyph d="M430 1434l-201 -1434h-116l200 1434h117z" glyph-name="I" horiz-adv-x="444" unicode="I"/><glyph d="M90 86q104 0 143 64.5t58 195.5l153 1088h117l-160 -1129q-47 -319 -309 -319q-68 0 -110 14l14 92q31 -6 94 -6z" glyph-name="J" horiz-adv-x="563" unicode="J"/><glyph d="M1137 1434l-664 -684l498 -750h-144l-491 752l657 682h144zM430 1434l-201 -1434h-116l200 1434h117z" glyph-name="K" horiz-adv-x="1044" unicode="K"/><glyph d="M313 1434h117l-186 -1334h647l-14 -100h-764z" glyph-name="L" horiz-adv-x="960" unicode="L"/><glyph d="M1495 1434l-201 -1434h-114l182 1294l-62 -108l-454 -627h-129l-279 629l-28 106l-183 -1294h-114l200 1434h148l332 -777l548 777h154z" glyph-name="M" horiz-adv-x="1509" unicode="M"/><glyph d="M1159 1434h115l-201 -1434h-153l-482 1204l-28 107l-183 -1311h-114l200 1434h156l481 -1205l29 -108z" glyph-name="N" horiz-adv-x="1288" unicode="N"/><glyph d="M768 1448q215 0 338 -114.5t123 -284.5q0 -90 -82 -609q-33 -195 -179.5 -324.5t-363.5 -129.5t-338 112.5t-121 284.5q0 115 82 610q31 195 178.5 325t362.5 130zM606 86q168 0 280.5 102.5t137.5 251.5q82 498 82 618t-84 205t-253 85t-282.5 -102.5t-136.5 -252.5 q-82 -499 -82 -617t85 -204t253 -86z" glyph-name="O" horiz-adv-x="1273" unicode="O"/><glyph d="M834 1434q150 0 229.5 -76t79.5 -184t-43 -349q-25 -135 -121 -219t-262 -84h-414l-74 -522h-116l200 1434h521zM1028 1165q0 168 -205 168h-407l-99 -710h408q221 -1 256 192q47 260 47 350z" glyph-name="P" horiz-adv-x="1120" unicode="P"/><glyph d="M145 379q0 119 82 620q33 193 179.5 321t361.5 128t337 -112.5t122 -275.5t-82 -626q-27 -158 -117 -256q74 -84 98 -125l-92 -67q-51 74 -88 114q-143 -114 -353 -114t-329 112.5t-119 280.5zM268 414q0 -94 27 -158q14 14 42 35.5t115 56.5t177 35t171 -32t115 -62 l35 -31q55 80 72 176q82 462 82 604t-84 226t-253 84t-280.5 -101t-136.5 -248q-82 -491 -82 -585zM598 86q80 0 149.5 22.5t98.5 47.5l28 22q-12 12 -33.5 30.5t-86 48.5t-130.5 30t-134 -29t-103 -57l-35 -27q8 -10 23.5 -24.5t79 -39t143.5 -24.5z" glyph-name="Q" horiz-adv-x="1277" unicode="Q"/><glyph d="M840 1434q150 0 229.5 -75t79.5 -194q0 -76 -41 -313q-18 -119 -98 -201t-209 -100l229 -551h-133l-217 545h-375l-76 -545h-116l200 1434h527zM1034 1165q0 166 -205 166h-413l-97 -682h422q213 0 250 193q43 219 43 323z" glyph-name="R" horiz-adv-x="1196" unicode="R"/><glyph d="M688 1348q-172 0 -277.5 -80t-105.5 -232q0 -84 54.5 -138t135 -77.5t176 -52.5t176.5 -58.5t135 -99t54 -174.5q0 -451 -561 -450q-225 0 -360 30l-47 13l20 102q176 -45 382 -45t325.5 70.5t119.5 249.5q0 100 -74.5 159.5t-181 87t-214 59t-182.5 104.5t-75 194 q0 219 141.5 328.5t355.5 109.5t343 -29l51 -10l-26 -100q-193 39 -365 39z" glyph-name="S" horiz-adv-x="1124" unicode="S"/><glyph d="M168 1333l14 101h908l-15 -101h-395l-186 -1333h-117l186 1333h-395z" glyph-name="T" horiz-adv-x="980" unicode="T"/><glyph d="M620 -14q-218 0 -336 108.5t-118 278.5q0 51 2 71l137 990h117l-137 -990q-2 -18 -2 -59q0 -131 85.5 -215t253.5 -84t284 103.5t136 250.5l138 994h116l-137 -994q-27 -197 -174 -325.5t-365 -128.5z" glyph-name="U" horiz-adv-x="1298" unicode="U"/><glyph d="M311 1434l221 -1336h9l594 1336h120l-643 -1434h-178l-244 1434h121z" glyph-name="V" horiz-adv-x="1146" unicode="V"/><glyph d="M1274 98l438 1336h123l-483 -1434h-191l-139 1327h-8l-510 -1327h-191l-82 1434h123l66 -1336h12l508 1336h186l136 -1336h12z" glyph-name="W" horiz-adv-x="1767" unicode="W"/><glyph d="M354 1434l303 -609l471 609h132l-547 -693l379 -741h-131l-330 649l-510 -649h-129l586 741l-355 693h131z" glyph-name="X" horiz-adv-x="1183" unicode="X"/><glyph d="M315 1434l293 -748h8l504 748h135l-600 -865l-80 -569h-116l80 569l-359 865h135z" glyph-name="Y" horiz-adv-x="1136" unicode="Y"/><glyph d="M180 100h821l-14 -100h-946l16 117l971 1208v8h-776l14 101h908l-17 -117l-977 -1208v-9z" glyph-name="Z" horiz-adv-x="1124" unicode="Z"/><glyph d="M449 -262l-15 -107h-350l254 1803h350l-16 -111h-236l-223 -1585h236z" glyph-name="bracketleft" horiz-adv-x="616" unicode="["/><glyph d="M301 1434l211 -1434h-111l-211 1434h111z" glyph-name="backslash" horiz-adv-x="604" unicode="\"/><glyph d="M2 -369l14 107h236l223 1585h-235l16 111h350l-254 -1803h-350z" glyph-name="bracketright" horiz-adv-x="616" unicode="]"/><glyph d="M557 1434h107l227 -740h-100l-191 647l-375 -647h-100z" glyph-name="asciicircum" horiz-adv-x="970" unicode="^"/><glyph d="M-6 -154h1128l-12 -82h-1128z" glyph-name="underscore" horiz-adv-x="1132" unicode="_"/><glyph d="M459 1178h-119l-231 256h163z" glyph-name="grave" horiz-adv-x="385" unicode="`"/><glyph d="M402 76q82 0 173 45t146 90l53 45l90 659q-98 33 -282 33q-123 0 -197 -65.5t-92 -167.5q-59 -335 -59 -433t43 -152t125 -54zM758 125v12q-73 -59 -176 -105t-176 -46q-133 0 -206 73t-73 177t63 489q23 139 126.5 226t294.5 87t319 -37l47 -12l-109 -776q-8 -57 -8 -83 q0 -54 68 -54l41 2l-6 -84q-41 -8 -72 -8q-74 0 -103.5 45t-29.5 94z" glyph-name="a" horiz-adv-x="1044" unicode="a"/><glyph d="M678 1038q152 0 222.5 -72t70.5 -182t-62 -479q-23 -141 -126 -230t-292 -89t-323 37l-47 12l196 1399h103l-70 -496q176 100 328 100zM862 756q0 195 -186 194q-72 0 -157 -27.5t-134 -54.5l-49 -28l-103 -731q98 -33 283 -33q123 0 198 68.5t91 170.5q57 319 57 441z " glyph-name="b" horiz-adv-x="1019" unicode="b"/><glyph d="M127 252q0 114 63 471q23 137 127.5 226t278.5 89q112 0 211 -16l37 -6l-23 -88q-139 22 -247 22t-185.5 -67.5t-95.5 -167.5q-59 -350 -59 -437t61 -145.5t170 -58.5t219 20l33 8l2 -86q-133 -30 -277 -30t-229.5 76t-85.5 190z" glyph-name="c" horiz-adv-x="794" unicode="c"/><glyph d="M414 76q74 0 161 35.5t138 70.5l51 35l96 672q-94 59 -278 59q-123 0 -198 -73t-91 -175q-59 -342 -60 -444q0 -180 181 -180zM403 -14q-139 0 -207.5 67t-68.5 173t61 485q23 143 126.5 235t279.5 92q131 0 242 -39l36 -14l64 449h102l-172 -1215q-8 -57 -8 -84 q0 -59 62 -59l49 2l-6 -84q-43 -8 -74 -8q-131 0 -135 129q-23 -14 -59 -36t-129 -57.5t-163 -35.5z" glyph-name="d" horiz-adv-x="1030" unicode="d"/><glyph d="M462 -14q-154 0 -244.5 78.5t-90.5 195.5t61 463q25 137 137.5 226t270.5 89t237.5 -70.5t79.5 -191.5t-72.5 -193.5t-199.5 -113.5l-403 -129q-4 -31 -5 -64q0 -90 62.5 -145t183.5 -55t250 37l45 12l2 -90q-160 -49 -314 -49zM809 760q0 96 -50 142t-169 46t-200.5 -68 t-101.5 -178t-36 -260l416 136q141 45 141 182z" glyph-name="e" horiz-adv-x="942" unicode="e"/><glyph d="M614 1362q-154 0 -182 -195l-20 -143h293l-13 -90h-293l-182 -1303h-102l182 1303h-164l12 90h164l23 158q18 121 95 193.5t202 72.5l166 -16l-23 -82q-76 12 -158 12z" glyph-name="f" horiz-adv-x="624" unicode="f"/><glyph d="M274 398q0 -88 47.5 -139.5t136.5 -51.5t175 27.5t129 56.5l45 26l84 598q-115 33 -295 33q-121 0 -191 -69.5t-88 -171.5q-43 -221 -43 -309zM168 370q0 112 45 345q29 145 125 234t272 89q100 0 198.5 -13t145.5 -26l50 -12q-102 -737 -154 -1100q-18 -129 -133 -199.5 t-285 -70.5q-305 0 -305 178q0 131 141 213l197 111q-154 0 -225.5 69.5t-71.5 181.5zM240 -188q0 -104 200 -105q121 0 208.5 47.5t99.5 139.5l45 325q-68 -55 -148 -100l-311 -176q-94 -53 -94 -131z" glyph-name="g" horiz-adv-x="1052" unicode="g"/><glyph d="M864 766q0 82 -45 132t-126 50t-168 -31.5t-140 -62.5l-51 -31l-117 -823h-102l202 1434h103l-72 -508q188 112 338 112t216.5 -67.5t66.5 -182.5q0 -33 -4 -63l-72 -506q-6 -43 -6 -77t14 -50t51 -16l43 2l-6 -84q-43 -8 -74 -8q-133 0 -133 137q0 35 6 72l72 518 q4 37 4 53z" glyph-name="h" horiz-adv-x="1058" unicode="h"/><glyph d="M248 142q0 -34 14 -50t51 -16l43 2l-6 -84q-43 -8 -74 -8q-133 0 -133 141q0 31 7 68l114 829h103l-113 -805q-6 -43 -6 -77zM291 1233l28 201h113l-29 -201h-112z" glyph-name="i" horiz-adv-x="442" unicode="i"/><glyph d="M317 1233l29 201h115l-29 -201h-115zM-45 -295q152 0 180 193l158 1126h102l-159 -1139q-18 -125 -92 -197.5t-203 -72.5l-121 12l20 88q66 -10 115 -10z" glyph-name="j" horiz-adv-x="440" unicode="j"/><glyph d="M700 952q-53 0 -148 -60.5t-165 -121.5l-70 -59l-32 -230l379 170q147 70 147 191q0 51 -29 80.5t-82 29.5zM717 1038q82 0 139 -53t57 -137q0 -188 -264 -299l-59 -25q123 -264 184 -399q20 -47 64 -47l32 2l-4 -88q-37 -6 -51 -6q-94 0 -125 80l-192 417l-228 -100 l-53 -383h-102l202 1434h103l-86 -605q25 23 63.5 58t138 93t181.5 58z" glyph-name="k" horiz-adv-x="944" unicode="k"/><glyph d="M246 145q0 -70 67 -69l43 2l-6 -84q-43 -8 -74 -8q-133 0 -133 141q0 31 7 68l174 1239h102l-172 -1215q-8 -57 -8 -74z" glyph-name="l" horiz-adv-x="436" unicode="l"/><glyph d="M1319 764q0 86 -42.5 136t-112.5 50t-136.5 -28.5t-103.5 -57.5l-37 -30l-117 -834h-102l104 743q2 14 2 43q0 74 -36 119t-103 45t-140 -30.5t-118 -63.5l-43 -31l-117 -825h-102l143 1024h94l-6 -98q166 114 294 114t170 -50.5t52 -74.5q55 48 146.5 86.5t162.5 38.5 q121 0 186.5 -64.5t65.5 -182.5q0 -27 -4 -68l-71 -506q-8 -57 -9 -74q0 -70 68 -69l41 2l-4 -84q-43 -8 -74 -8q-133 0 -133 145q0 27 4 64l74 514q4 41 4 55z" glyph-name="m" horiz-adv-x="1511" unicode="m"/><glyph d="M893 145q0 -70 68 -69l40 2l-4 -84q-43 -8 -73 -8q-135 0 -136 143q0 23 7 66l73 518q4 37 4 53q0 82 -45 132t-138 50q-138 0 -327 -108l-20 -11l-117 -829h-102l143 1024h94l-6 -98q193 112 340 112t215 -68.5t68 -183.5q0 -20 -4 -61l-72 -506q-8 -57 -8 -74z" glyph-name="n" horiz-adv-x="1064" unicode="n"/><glyph d="M483 -14q-170 0 -263 80.5t-93 195.5q0 78 59 457q23 141 125.5 230t274.5 89t265 -80.5t93 -203.5q0 -89 -59 -449q-25 -141 -128.5 -230t-273.5 -89zM586 948q-127 0 -202 -65.5t-93 -169.5q-59 -334 -59 -429t64 -151.5t191 -56.5t201 64.5t92 170.5q60 356 60 440 t-63.5 140.5t-190.5 56.5z" glyph-name="o" horiz-adv-x="993" unicode="o"/><glyph d="M694 1038q139 0 208 -69t69 -179t-62 -483q-25 -141 -127 -231t-278 -90q-131 0 -242 39l-37 14l-55 -408h-102l194 1393h94l-6 -98q73 44 172 78t172 34zM866 768q0 180 -182 180q-74 0 -160 -31.5t-135 -62.5l-51 -31l-98 -688q94 -59 278 -59q123 0 198 70.5t91 170.5 q59 342 59 451z" glyph-name="p" horiz-adv-x="1017" unicode="p"/><glyph d="M420 -14q-152 0 -222.5 71.5t-70.5 187.5t63 474q25 141 127.5 230t293.5 89t319 -37l47 -12l-191 -1358h-102l64 455q-176 -100 -328 -100zM582 948q-123 0 -197 -68.5t-92 -170.5q-59 -332 -60 -437q0 -199 189 -198q72 0 156 27.5t133 54.5l49 28l104 731 q-98 33 -282 33z" glyph-name="q" horiz-adv-x="1005" unicode="q"/><glyph d="M686 1038l-16 -90q-122 0 -216 -76.5t-114 -97.5l-18 -20l-105 -754h-102l143 1024h92l-10 -147q16 18 47 44.5t122 71.5t177 45z" glyph-name="r" horiz-adv-x="608" unicode="r"/><glyph d="M297 741q0 -66 52 -103.5t126 -57t147.5 -43t126 -77.5t52.5 -143q0 -174 -109.5 -252.5t-272.5 -78.5t-280 30l-37 13l29 90q139 -43 272 -43t211 49t78 170t-125 152.5t-198.5 54t-124.5 77t-51 144.5q0 152 101 233.5t255 81.5t250 -22l37 -8l-29 -90q-119 30 -244 30 t-195.5 -54t-70.5 -153z" glyph-name="s" horiz-adv-x="876" unicode="s"/><glyph d="M297 186q0 -110 125 -110l141 12l-4 -82q-98 -20 -182 -20t-134 53t-50 143q0 39 4 76l96 676h-166l12 90h166l35 246h102l-34 -246h299l-13 -90h-299l-92 -649q-6 -43 -6 -99z" glyph-name="t" horiz-adv-x="624" unicode="t"/><glyph d="M406 -16q-137 0 -203 67.5t-66 184.5q0 43 6 90l97 698h102l-98 -717q-2 -17 -2 -77t44 -108t126 -48t169 38t140 76l51 37l113 799h102l-113 -805q-6 -43 -6 -77t14.5 -50t51.5 -16l43 2l-6 -84q-43 -8 -74 -8q-131 0 -135 129q-91 -55 -189 -93t-167 -38z" glyph-name="u" horiz-adv-x="1024" unicode="u"/><glyph d="M418 -14q-133 0 -207 69.5t-74 182.5q0 45 4 81l101 705h102l-94 -684q-6 -61 -6 -98q0 -74 48 -120t134 -46q145 0 238.5 101.5t123.5 268.5q45 254 46 347q0 139 -127 155l12 90q102 -2 161.5 -68.5t59.5 -149.5t-49 -378q-33 -193 -153 -324.5t-320 -131.5z" glyph-name="v" horiz-adv-x="989" unicode="v"/><glyph d="M934 -14q-114 0 -171.5 54.5t-70.5 104.5q-4 -6 -11 -17t-72.5 -76.5t-216.5 -65.5q-110 0 -182.5 67.5t-72.5 175.5q0 41 4 78l101 717h102l-96 -694q-4 -24 -4 -90t42 -114t117 -48q115 0 195 99t102 255l82 592h105l-96 -694q-5 -38 -5 -98t42 -108t112 -48 q240 0 305 354q47 260 47 350t-36.5 127t-90.5 41l13 90q96 -4 157.5 -66.5t61.5 -162.5t-49 -383q-78 -440 -414 -440z" glyph-name="w" horiz-adv-x="1445" unicode="w"/><glyph d="M182 944h-26l4 86q46 6 78 6q66 0 106 -80l174 -346l320 414h116l-391 -494l209 -409q14 -25 27.5 -34t46.5 -9h26v-86q-47 -6 -59 -6q-84 0 -123 80l-194 389l-351 -455h-116l420 535l-185 364q-25 45 -82 45z" glyph-name="x" horiz-adv-x="913" unicode="x"/><glyph d="M268 367q0 -70 50.5 -115t138.5 -45t174 29.5t131 60.5l43 31l98 696h103q-109 -774 -160 -1137q-18 -129 -133 -199.5t-263 -70.5t-236.5 43.5t-88.5 157.5t127 184l211 117q-152 0 -225.5 66.5t-73.5 172.5q0 16 4 50l86 616h104l-88 -618q-2 -16 -2 -39zM436 -293 q121 0 208 47.5t99 139.5l48 321q-63 -51 -144 -96l-330 -180q-82 -45 -81 -117q0 -115 200 -115z" glyph-name="y" horiz-adv-x="1054" unicode="y"/><glyph d="M377 365h-103l17 120l444 449h-540l12 90h643l-19 -123l-442 -444q160 0 276.5 -61.5t116.5 -186.5q0 -96 -43 -324q-27 -131 -135 -199.5t-278 -68.5q-305 0 -306 195q0 135 162 229l461 244q-6 8 -20.5 21t-82 36t-163.5 23zM131 -180q0 -113 191 -113q280 1 317 191 q37 203 37 303q-127 -57 -296 -153t-186.5 -108t-40 -45.5t-22.5 -74.5z" glyph-name="z" horiz-adv-x="880" unicode="z"/><glyph d="M156 -70q0 41 28.5 223.5t28.5 222.5t-28.5 72.5t-73.5 32.5l14 103q47 0 89 41t48 86l53 381q20 145 137 253.5t267 108.5l-14 -106q-104 0 -181.5 -77t-91.5 -181l-49 -357q-10 -68 -49 -118t-72 -66l-35 -17q4 -2 20.5 -8.5t48.5 -47t32 -85.5t-2 -57l-50 -352 q-2 -14 -2 -41q0 -94 53.5 -159t147.5 -65l-14 -106q-137 0 -221 92t-84 227z" glyph-name="braceleft" horiz-adv-x="645" unicode="{"/><glyph d="M80 -367l264 1801h98l-264 -1801h-98z" glyph-name="bar" horiz-adv-x="438" unicode="|"/><glyph d="M391 692q0 30 2 41l49 357q2 14 2 40q0 92 -54 155t-146 63l14 106q135 0 220 -91t85 -220q0 -18 -4 -51l-49 -353q-4 -29 -4 -57t28.5 -63t71.5 -35l-14 -103q-47 0 -88 -40t-47 -83l-54 -374q-20 -152 -136.5 -262.5t-266.5 -110.5l14 106q104 0 181 79t92 186l49 352 q10 68 49 118t74 64l33 16q-4 2 -11.5 5.5t-24 17.5t-29.5 30.5t-24.5 46.5t-11.5 60z" glyph-name="braceright" horiz-adv-x="645" unicode="}"/><glyph d="M436 731q57 0 191.5 -78t192.5 -78t102.5 37t99.5 115l63 -47q-137 -205 -282 -205q-57 0 -193.5 78t-192.5 78t-100.5 -37t-99.5 -115l-63 47q132 205 282 205z" glyph-name="asciitilde" horiz-adv-x="1155" unicode="~"/><glyph d="M362 637l-131 -1047h-127l166 1047h92zM285 862l22 162h125l-22 -162h-125z" glyph-name="exclamdown" horiz-adv-x="495" unicode="¡"/><glyph d="M590 965q-111 0 -187.5 -68t-95.5 -170q-59 -362 -59 -441t60.5 -138.5t178.5 -59.5t160.5 11.5t58 14t25.5 5.5v-86q-96 -25 -205 -31l-14 -104h-106l14 104q-135 10 -207 86t-72 182t64 467q25 133 118 217t246 99l15 104h106l-14 -104l182 -23l-22 -88 q-135 23 -246 23z" glyph-name="cent" horiz-adv-x="899" unicode="¢"/><glyph d="M842 1448q127 0 227 -23l41 -6l-18 -96q-143 25 -265 25q-205 0 -301 -89.5t-96 -291.5q0 -61 12 -154l7 -31h520l-13 -92h-499q6 -80 6 -144t-22.5 -142t-73 -162t-99.5 -123l-22 -19h723l-13 -100h-845l16 117q8 8 23.5 21.5t104.5 124t89 290.5l-10 137h-135l12 92 h117q-14 123 -15 187q0 479 529 479z" glyph-name="sterling" horiz-adv-x="1110" unicode="£"/><glyph d="M952 498q0 -66 -24 -121l133 -129l-72 -72l-119 117q-90 -94 -237 -94t-244 92l-117 -115l-71 72l131 129q-25 55 -25 121v215q0 61 23 116l-129 129l71 72l115 -115q90 96 241.5 96.5t243.5 -96.5l117 115l72 -72l-131 -129q23 -55 22 -116v-215zM842 492v225 q0 96 -58.5 146t-155.5 50t-154.5 -50t-57.5 -146v-223q0 -96 57 -146.5t155 -50.5t156 50.5t58 144.5z" glyph-name="currency" horiz-adv-x="1146" unicode="¤"/><glyph d="M238 666l12 92h194l-213 676h121l252 -850h8l490 850h121l-404 -676h197l-12 -92h-238l-109 -179h320l-12 -92h-324l-55 -395h-119l55 395h-323l12 92h319l-55 179h-237z" glyph-name="yen" horiz-adv-x="1155" unicode="¥"/><glyph d="M229 684l103 750h98l-104 -750h-97zM80 -369l104 750h97l-103 -750h-98z" glyph-name="brokenbar" horiz-adv-x="438" unicode="¦"/><glyph d="M940 88q0 -381 -463 -381q-130 0 -293 25l-51 8l19 92q182 -31 325 -31q348 0 348 258q0 86 -64.5 131.5t-155.5 62.5t-183 37.5t-156.5 78t-64.5 154.5t50 191.5t128 164.5q-88 72 -88 198q0 190 123 283.5t340 93.5q133 0 295 -24l51 -9l-19 -92q-182 31 -325 31 q-348 0 -348 -260q0 -84 64.5 -130t156.5 -63.5t183 -37t155.5 -77t64.5 -159.5q0 -176 -174 -350q82 -70 82 -195zM911 605q0 83 -74.5 127t-209.5 68.5t-181 43.5q-51 -51 -87.5 -128t-36.5 -160t74.5 -127t209.5 -69t180 -43q51 51 88 128t37 160z" glyph-name="section" horiz-adv-x="1153" unicode="§"/><glyph d="M78 1208l22 164h125l-22 -164h-125zM426 1208l23 164h124l-22 -164h-125z" glyph-name="dieresis" horiz-adv-x="473" unicode="¨"/><glyph d="M182 718q0 306 216 521t522 215t521.5 -215t215.5 -521t-215 -522t-521 -216t-522.5 216t-216.5 522zM274 718q0 -265 190 -455.5t456 -190.5t456.5 190.5t190.5 455.5t-190.5 455.5t-455.5 190.5t-456 -190.5t-191 -455.5zM936 1028q-90 0 -141.5 -48t-55.5 -118 q-6 -143 0 -291q4 -68 54.5 -114.5t120.5 -46.5q120 0 188 18l20 6l13 -82q-80 -28 -211 -28t-207 72.5t-81 197.5t0 249t82 197.5t197 73.5t187 -16l22 -4l-10 -82q-88 16 -178 16z" glyph-name="copyright" horiz-adv-x="1720" unicode="©"/><glyph d="M133 594l10 70h490l-10 -70h-490zM221 961q0 -125 113 -125q47 0 104.5 28.5t91.5 57.5l35 28l56 404q-59 23 -179 22q-149 0 -180 -145q-41 -190 -41 -270zM338 764q-98 0 -146.5 49t-48.5 133t41 297q18 90 86 147.5t192 57.5t210 -25l30 -8l-69 -491q-4 -25 -4 -50 q0 -41 43 -40l26 2l-6 -68q-26 -4 -60 -4t-53.5 30.5t-19.5 63.5q-123 -94 -221 -94z" glyph-name="ordfeminine" horiz-adv-x="724" unicode="ª"/><glyph d="M498 279h-129l-203 317l291 313h129l-293 -313zM782 279h-133l-198 317l290 313h129l-292 -313z" glyph-name="guillemotleft" horiz-adv-x="921" unicode="«"/><glyph d="M1083 647l-67 -487h-109l54 389h-771l15 98h878z" glyph-name="logicalnot" unicode="¬"/><glyph glyph-name="uni00AD" horiz-adv-x="1705" unicode="­"/><glyph d="M532 944v-160h-77v465h184q55 0 87 -31.5t32 -76.5v-84q0 -80 -68 -105l101 -168h-91l-86 160h-82zM684 1053v90q0 27 -45 26h-107v-151h107q45 0 45 35zM162 1016q0 180 128 309t310 129t310 -129t128 -309t-128 -309t-310 -129t-310 129t-128 309zM242 1015.5 q0 -151.5 104.5 -255t254 -103.5t253.5 103.5t104 255t-104 255t-253.5 103.5t-254 -103.5t-104.5 -255z" glyph-name="registered" horiz-adv-x="1081" unicode="®"/><glyph d="M82 1227l12 94h568l-13 -94h-567z" glyph-name="macron" horiz-adv-x="567" unicode="¯"/><glyph d="M176 1170q0 118 84 201t202 83t202 -83t84 -201t-84 -201.5t-202 -83.5t-202 83.5t-84 201.5zM254 1169q0 -84 61.5 -146t146.5 -62t146.5 61t61.5 147t-61.5 147.5t-146.5 61.5t-146.5 -62.5t-61.5 -146.5z" glyph-name="degree" horiz-adv-x="776" unicode="°"/><glyph d="M999 96l-14 -96h-879l15 96h878zM639 1024h98l-45 -322h391l-14 -98h-391l-45 -325h-98l45 325h-390l15 98h389z" glyph-name="plusminus" unicode="±"/><glyph d="M512 1448q114 0 180 -50t66 -153q0 -166 -158 -305l-358 -311h428l-13 -90h-530l16 106l375 340q135 125 135 238q0 68 -45.5 102.5t-123.5 34.5t-177 -21l-35 -8l9 88q117 29 231 29z" glyph-name="uni00B2" horiz-adv-x="778" unicode="²"/><glyph d="M696 849q0 -122 -93 -226.5t-243 -104.5q-114 0 -202 27l-27 8l16 82q111 -27 215 -27t167 70t63 180q0 57 -31 88t-62.5 36t-80.5 5h-51l12 86l254 270h-383l12 91h486l-13 -99l-246 -260q84 -6 145.5 -55t61.5 -171z" glyph-name="uni00B3" horiz-adv-x="770" unicode="³"/><glyph d="M193 1178h-119l256 256h164z" glyph-name="acute" horiz-adv-x="385" unicode="´"/><glyph d="M430 -14q-68 0 -117 21.5t-65 43.5l-17 23l-61 -443h-100l192 1393h103l-99 -717q-2 -17 -2 -77t44 -108t126 -48t169 38t138 76l54 37l112 799h103l-113 -805q-6 -43 -6 -77t14.5 -50t50.5 -16l43 2l-6 -84q-43 -8 -73 -8q-132 0 -136 129q-23 -14 -60.5 -36 t-131.5 -57.5t-162 -35.5z" glyph-name="uni00B5" horiz-adv-x="1046" unicode="µ"/><glyph d="M207 995q0 188 136 313.5t337 125.5h321l-253 -1803h-109l240 1702h-105l-239 -1702h-91l144 1022q-164 0 -272.5 100.5t-108.5 241.5z" glyph-name="paragraph" horiz-adv-x="1001" unicode="¶"/><glyph d="M195 520l22 162h125l-23 -162h-124z" glyph-name="periodcentered" horiz-adv-x="452" unicode="·"/><glyph d="M436 -199q0 -84 -49 -134t-125 -50t-147 14l-21 7l17 67q70 -16 114 -16q106 0 107 98q0 59 -84 59h-76l55 154h92l-30 -92q147 -1 147 -107z" glyph-name="cedilla" horiz-adv-x="450" unicode="¸"/><glyph d="M211 1274l12 86l154 74h96l-125 -895h-92l113 804z" glyph-name="uni00B9" horiz-adv-x="485" unicode="¹"/><glyph d="M405.5 764q-110.5 0 -173 54t-62.5 130t39 291q16 90 90 149.5t185 59.5t173 -53.5t62 -134.5q0 -23 -13.5 -125.5t-25.5 -161.5q-14 -90 -89 -149.5t-185.5 -59.5zM633 1232q0 142 -111.5 142t-165 -40t-63.5 -99q-35 -174 -35 -270q0 -55 40 -90t114 -35t125 39t61 100 q35 181 35 253zM129 594l10 70h484l-11 -70h-483z" glyph-name="ordmasculine" horiz-adv-x="722" unicode="º"/><glyph d="M526 279h-129l295 317l-207 313h131l203 -313zM242 279h-129l295 317l-207 313h133l201 -313z" glyph-name="guillemotright" horiz-adv-x="921" unicode="»"/><glyph d="M702 201l11 80l395 614h100l-397 -614h311l33 231h92l-33 -231h82l-10 -80h-82l-28 -201h-93l29 201h-410zM229 1274l13 86l153 74h97l-125 -895h-93l113 804zM209 0l850 1434h100l-848 -1434h-102z" glyph-name="onequarter" horiz-adv-x="1411" unicode="¼"/><glyph d="M229 1274l13 86l153 74h97l-125 -895h-93l113 804zM1368 684q0 137 -174 137q-84 0 -207 -28l8 88l33 8q110 20 211 20t167.5 -50t66.5 -152q0 -166 -158 -306l-359 -311h428l-12 -90h-530l16 106l375 340q135 125 135 238zM209 0l850 1434h100l-848 -1434h-102z" glyph-name="onehalf" horiz-adv-x="1568" unicode="½"/><glyph d="M950 201l11 80l395 614h100l-397 -614h311l33 231h92l-33 -231h82l-10 -80h-82l-29 -201h-92l29 201h-410zM735 849q0 -122 -93 -226.5t-243 -104.5q-114 0 -202 27l-27 8l16 82q112 -27 216 -27t166.5 70t62.5 180q0 57 -31 88t-62.5 36t-80.5 5h-51l12 86l254 270h-383 l12 91h485l-12 -99l-246 -260q84 -6 145.5 -55t61.5 -171zM455 0l850 1434h100l-848 -1434h-102z" glyph-name="threequarters" horiz-adv-x="1658" unicode="¾"/><glyph d="M70 -114q0 154 56 243.5t140 127.5t169 71.5t153.5 108.5t85.5 204h102q-14 -115 -54 -194.5t-92 -119.5t-112.5 -68t-118 -50.5t-133.5 -73.5t-76 -231q0 -225 318 -226q170 0 350 48l-6 -97l-45 -14q-145 -37 -327 -37q-183 0 -296.5 77t-113.5 231zM840 1026l-23 -162 h-125l23 162h125z" glyph-name="questiondown" horiz-adv-x="1028" unicode="¿"/><glyph d="M651 1434h174l260 -1434h-114l-80 444h-582l-203 -444h-114zM874 541l-141 794h-14l-365 -794h520zM805 1587h-119l-231 256h163z" glyph-name="Agrave" horiz-adv-x="1177" unicode="À"/><glyph d="M651 1434h174l260 -1434h-114l-80 444h-582l-203 -444h-114zM874 541l-141 794h-14l-365 -794h520zM799 1587h-119l256 256h164z" glyph-name="Aacute" horiz-adv-x="1177" unicode="Á"/><glyph d="M651 1434h174l260 -1434h-114l-80 444h-582l-203 -444h-114zM874 541l-141 794h-14l-365 -794h520zM592 1587h-111l236 256h123l166 -256h-111l-131 158z" glyph-name="Acircumflex" horiz-adv-x="1177" unicode="Â"/><glyph d="M651 1434h174l260 -1434h-114l-80 444h-582l-203 -444h-114zM874 541l-141 794h-14l-365 -794h520zM632 1786q64 0 141 -49t111 -49t57.5 25.5t33.5 62.5h92q-6 -59 -62.5 -121t-121.5 -62t-141 49.5t-110 49.5t-57.5 -25.5t-33.5 -62.5h-92q8 57 63.5 119.5t119.5 62.5z " glyph-name="Atilde" horiz-adv-x="1177" unicode="Ã"/><glyph d="M651 1434h174l260 -1434h-114l-80 444h-582l-203 -444h-114zM874 541l-141 794h-14l-365 -794h520zM500 1618l22 164h125l-22 -164h-125zM848 1618l22 164h125l-22 -164h-125z" glyph-name="Adieresis" horiz-adv-x="1177" unicode="Ä"/><glyph d="M651 1434h174l260 -1434h-114l-80 444h-582l-203 -444h-114zM874 541l-141 794h-14l-365 -794h520zM584 1714q0 66 49 119t122 53t114.5 -43t41.5 -111t-51.5 -119.5t-119.5 -51.5t-112 43.5t-44 109.5zM752 1806q-33 0 -60.5 -27.5t-27.5 -61.5t22 -55.5t56 -21.5 t61.5 28t27.5 61t-23 55t-56 22z" glyph-name="Aring" horiz-adv-x="1177" unicode="Å"/><glyph d="M989 1434h969l-14 -101h-699l-76 -538h633l-12 -99h-633l-84 -596h721l-14 -100h-838l62 440h-605l-313 -440h-115zM1018 537l112 798h-96l-565 -798h549z" glyph-name="AE" horiz-adv-x="1933" unicode="Æ"/><glyph d="M735 -199q0 -84 -49.5 -134t-125.5 -50t-146 14l-21 7l17 67q70 -16 114 -16q106 0 107 98q0 59 -84 59h-76l51 144q-174 20 -276.5 130.5t-102.5 266.5q0 88 82 612q31 199 183.5 324t392.5 125q145 0 268 -27l41 -10l-20 -102q-166 37 -299 37q-182 0 -300 -96.5 t-143 -250.5q-80 -479 -80 -607t89 -216t255 -88q119 0 271 31l49 10l-8 -102q-178 -37 -312 -41l-24 -78q147 -1 147 -107z" glyph-name="Ccedilla" horiz-adv-x="1064" unicode="Ç"/><glyph d="M313 1434h842l-14 -101h-725l-76 -538h657l-12 -99h-657l-84 -596h745l-14 -100h-862zM862 1587h-119l-231 256h164z" glyph-name="Egrave" horiz-adv-x="1128" unicode="È"/><glyph d="M313 1434h842l-14 -101h-725l-76 -538h657l-12 -99h-657l-84 -596h745l-14 -100h-862zM793 1587h-119l256 256h164z" glyph-name="Eacute" horiz-adv-x="1128" unicode="É"/><glyph d="M313 1434h842l-14 -101h-725l-76 -538h657l-12 -99h-657l-84 -596h745l-14 -100h-862zM608 1587h-110l235 256h123l166 -256h-111l-131 158z" glyph-name="Ecircumflex" horiz-adv-x="1128" unicode="Ê"/><glyph d="M313 1434h842l-14 -101h-725l-76 -538h657l-12 -99h-657l-84 -596h745l-14 -100h-862zM524 1618l23 164h125l-23 -164h-125zM872 1618l23 164h125l-23 -164h-125z" glyph-name="Edieresis" horiz-adv-x="1128" unicode="Ë"/><glyph d="M430 1434l-201 -1434h-116l200 1434h117zM449 1587h-119l-232 256h164z" glyph-name="Igrave" horiz-adv-x="444" unicode="Ì"/><glyph d="M430 1434l-201 -1434h-116l200 1434h117zM440 1587h-118l256 256h163z" glyph-name="Iacute" horiz-adv-x="444" unicode="Í"/><glyph d="M430 1434l-201 -1434h-116l200 1434h117zM231 1587h-110l235 256h123l166 -256h-110l-132 158z" glyph-name="Icircumflex" horiz-adv-x="444" unicode="Î"/><glyph d="M430 1434l-201 -1434h-116l200 1434h117zM162 1618l22 164h125l-22 -164h-125zM510 1618l22 164h125l-22 -164h-125z" glyph-name="Idieresis" horiz-adv-x="444" unicode="Ï"/><glyph d="M760 1434q207 0 330.5 -107.5t123.5 -275.5q0 -121 -79 -617q-33 -190 -182.5 -312t-385.5 -122h-428l99 696h-129l14 101h129l88 637h420zM745 1333h-303l-73 -536h313l-14 -101h-314l-84 -596h303q182 0 300 94.5t143 239.5q80 475 80 606t-91.5 212t-259.5 81z" glyph-name="Eth" horiz-adv-x="1261" unicode="Ð"/><glyph d="M1159 1434h115l-201 -1434h-153l-482 1204l-28 107l-183 -1311h-114l200 1434h156l481 -1205l29 -108zM708 1786q64 0 140 -49t111 -49q66 0 92 88h92q-6 -59 -62.5 -121t-122.5 -62t-141 49.5t-109 49.5t-58 -25.5t-34 -62.5h-92q8 57 64 119.5t120 62.5z" glyph-name="Ntilde" horiz-adv-x="1288" unicode="Ñ"/><glyph d="M768 1448q215 0 338 -114.5t123 -284.5q0 -90 -82 -609q-33 -195 -179.5 -324.5t-363.5 -129.5t-338 112.5t-121 284.5q0 115 82 610q31 195 178.5 325t362.5 130zM606 86q168 0 280.5 102.5t137.5 251.5q82 498 82 618t-84 205t-253 85t-282.5 -102.5t-136.5 -252.5 q-82 -499 -82 -617t85 -204t253 -86zM864 1587h-119l-231 256h164z" glyph-name="Ograve" horiz-adv-x="1273" unicode="Ò"/><glyph d="M768 1448q215 0 338 -114.5t123 -284.5q0 -90 -82 -609q-33 -195 -179.5 -324.5t-363.5 -129.5t-338 112.5t-121 284.5q0 115 82 610q31 195 178.5 325t362.5 130zM606 86q168 0 280.5 102.5t137.5 251.5q82 498 82 618t-84 205t-253 85t-282.5 -102.5t-136.5 -252.5 q-82 -499 -82 -617t85 -204t253 -86zM844 1587h-119l256 256h164z" glyph-name="Oacute" horiz-adv-x="1273" unicode="Ó"/><glyph d="M768 1448q215 0 338 -114.5t123 -284.5q0 -90 -82 -609q-33 -195 -179.5 -324.5t-363.5 -129.5t-338 112.5t-121 284.5q0 115 82 610q31 195 178.5 325t362.5 130zM606 86q168 0 280.5 102.5t137.5 251.5q82 498 82 618t-84 205t-253 85t-282.5 -102.5t-136.5 -252.5 q-82 -499 -82 -617t85 -204t253 -86zM641 1587h-111l236 256h123l166 -256h-111l-131 158z" glyph-name="Ocircumflex" horiz-adv-x="1273" unicode="Ô"/><glyph d="M768 1448q215 0 338 -114.5t123 -284.5q0 -90 -82 -609q-33 -195 -179.5 -324.5t-363.5 -129.5t-338 112.5t-121 284.5q0 115 82 610q31 195 178.5 325t362.5 130zM606 86q168 0 280.5 102.5t137.5 251.5q82 498 82 618t-84 205t-253 85t-282.5 -102.5t-136.5 -252.5 q-82 -499 -82 -617t85 -204t253 -86zM680 1786q66 0 141.5 -49t109.5 -49t57.5 25.5t33.5 62.5h92q-6 -59 -62.5 -121t-121.5 -62t-141 49.5t-110 49.5t-57.5 -25.5t-33.5 -62.5h-92q8 57 63 119.5t121 62.5z" glyph-name="Otilde" horiz-adv-x="1273" unicode="Õ"/><glyph d="M768 1448q215 0 338 -114.5t123 -284.5q0 -90 -82 -609q-33 -195 -179.5 -324.5t-363.5 -129.5t-338 112.5t-121 284.5q0 115 82 610q31 195 178.5 325t362.5 130zM606 86q168 0 280.5 102.5t137.5 251.5q82 498 82 618t-84 205t-253 85t-282.5 -102.5t-136.5 -252.5 q-82 -499 -82 -617t85 -204t253 -86zM575 1618l23 164h125l-23 -164h-125zM924 1618l22 164h125l-22 -164h-125z" glyph-name="Odieresis" horiz-adv-x="1273" unicode="Ö"/><glyph d="M227 881l80 69l260 -303l351 305l59 -67l-350 -307l262 -306l-78 -69l-262 305l-348 -305l-62 67l348 308z" glyph-name="multiply" horiz-adv-x="1038" unicode="×"/><glyph d="M143 376q0 114 82 621q33 193 181.5 322t384.5 129q188 0 309 -107l69 95h115l-121 -164q66 -94 66 -219t-82 -617q-33 -193 -181.5 -321.5t-383.5 -128.5q-190 0 -308 104l-71 -90h-115l123 160q-68 102 -68 216zM604 84q170 0 282.5 101.5t137.5 250.5q82 492 82 586 t-23 145l-741 -985q92 -98 262 -98zM266 414q0 -80 27 -148l739 983q-94 101 -263 101t-282.5 -103t-136.5 -250q-84 -503 -84 -583z" glyph-name="Oslash" horiz-adv-x="1273" unicode="Ø"/><glyph d="M620 -14q-218 0 -336 108.5t-118 278.5q0 51 2 71l137 990h117l-137 -990q-2 -18 -2 -59q0 -131 85.5 -215t253.5 -84t284 103.5t136 250.5l138 994h116l-137 -994q-27 -197 -174 -325.5t-365 -128.5zM918 1587h-119l-232 256h164z" glyph-name="Ugrave" horiz-adv-x="1298" unicode="Ù"/><glyph d="M620 -14q-218 0 -336 108.5t-118 278.5q0 51 2 71l137 990h117l-137 -990q-2 -18 -2 -59q0 -131 85.5 -215t253.5 -84t284 103.5t136 250.5l138 994h116l-137 -994q-27 -197 -174 -325.5t-365 -128.5zM879 1587h-119l256 256h164z" glyph-name="Uacute" horiz-adv-x="1298" unicode="Ú"/><glyph d="M620 -14q-218 0 -336 108.5t-118 278.5q0 51 2 71l137 990h117l-137 -990q-2 -18 -2 -59q0 -131 85.5 -215t253.5 -84t284 103.5t136 250.5l138 994h116l-137 -994q-27 -197 -174 -325.5t-365 -128.5zM682 1587h-111l236 256h123l166 -256h-111l-131 158z" glyph-name="Ucircumflex" horiz-adv-x="1298" unicode="Û"/><glyph d="M620 -14q-218 0 -336 108.5t-118 278.5q0 51 2 71l137 990h117l-137 -990q-2 -18 -2 -59q0 -131 85.5 -215t253.5 -84t284 103.5t136 250.5l138 994h116l-137 -994q-27 -197 -174 -325.5t-365 -128.5zM592 1618l22 164h125l-22 -164h-125zM940 1618l23 164h124l-22 -164 h-125z" glyph-name="Udieresis" horiz-adv-x="1298" unicode="Ü"/><glyph d="M315 1434l293 -748h8l504 748h135l-600 -865l-80 -569h-116l80 569l-359 865h135zM766 1587h-119l256 256h164z" glyph-name="Yacute" horiz-adv-x="1136" unicode="Ý"/><glyph d="M805 1229q150 0 229.5 -76t79.5 -185t-41 -327q-25 -135 -123 -219t-264 -84h-410l-47 -338h-116l200 1434h117l-29 -205h404zM999 961q0 168 -204 167h-408l-96 -690h407q221 0 256 193q45 260 45 330z" glyph-name="Thorn" horiz-adv-x="1120" unicode="Þ"/><glyph d="M590 74q276 0 276 233q0 109 -70.5 158t-142 97.5t-71.5 168.5q0 119 85 204t205 122q12 84 13 104q0 90 -60.5 143.5t-180.5 53.5t-199.5 -78t-96.5 -190l-153 -1090h-103l156 1104q20 141 130.5 242.5t270.5 101.5t248 -78t88 -196l-18 -168q-104 -25 -192.5 -92.5 t-88.5 -157.5t71.5 -135.5t143.5 -99.5t72 -193q0 -342 -404 -342q-91 0 -178 18l-29 6l27 84q92 -20 201 -20z" glyph-name="germandbls" horiz-adv-x="1062" unicode="ß"/><glyph d="M402 76q82 0 173 45t146 90l53 45l90 659q-98 33 -282 33q-123 0 -197 -65.5t-92 -167.5q-59 -335 -59 -433t43 -152t125 -54zM758 125v12q-73 -59 -176 -105t-176 -46q-133 0 -206 73t-73 177t63 489q23 139 126.5 226t294.5 87t319 -37l47 -12l-109 -776q-8 -57 -8 -83 q0 -54 68 -54l41 2l-6 -84q-41 -8 -72 -8q-74 0 -103.5 45t-29.5 94zM707 1178h-119l-232 256h164z" glyph-name="agrave" horiz-adv-x="1044" unicode="à"/><glyph d="M402 76q82 0 173 45t146 90l53 45l90 659q-98 33 -282 33q-123 0 -197 -65.5t-92 -167.5q-59 -335 -59 -433t43 -152t125 -54zM758 125v12q-73 -59 -176 -105t-176 -46q-133 0 -206 73t-73 177t63 489q23 139 126.5 226t294.5 87t319 -37l47 -12l-109 -776q-8 -57 -8 -83 q0 -54 68 -54l41 2l-6 -84q-41 -8 -72 -8q-74 0 -103.5 45t-29.5 94zM686 1178h-119l256 256h164z" glyph-name="aacute" horiz-adv-x="1044" unicode="á"/><glyph d="M402 76q82 0 173 45t146 90l53 45l90 659q-98 33 -282 33q-123 0 -197 -65.5t-92 -167.5q-59 -335 -59 -433t43 -152t125 -54zM758 125v12q-73 -59 -176 -105t-176 -46q-133 0 -206 73t-73 177t63 489q23 139 126.5 226t294.5 87t319 -37l47 -12l-109 -776q-8 -57 -8 -83 q0 -54 68 -54l41 2l-6 -84q-41 -8 -72 -8q-74 0 -103.5 45t-29.5 94zM518 1178h-110l235 256h123l166 -256h-111l-131 157z" glyph-name="acircumflex" horiz-adv-x="1044" unicode="â"/><glyph d="M402 76q82 0 173 45t146 90l53 45l90 659q-98 33 -282 33q-123 0 -197 -65.5t-92 -167.5q-59 -335 -59 -433t43 -152t125 -54zM758 125v12q-73 -59 -176 -105t-176 -46q-133 0 -206 73t-73 177t63 489q23 139 126.5 226t294.5 87t319 -37l47 -12l-109 -776q-8 -57 -8 -83 q0 -54 68 -54l41 2l-6 -84q-41 -8 -72 -8q-74 0 -103.5 45t-29.5 94zM538 1376q64 0 140 -49t111 -49q66 0 92 88h92q-6 -59 -62.5 -120.5t-122.5 -61.5t-141 49t-109 49t-58 -25.5t-34 -62.5h-92q8 57 64 119.5t120 62.5z" glyph-name="atilde" horiz-adv-x="1044" unicode="ã"/><glyph d="M402 76q82 0 173 45t146 90l53 45l90 659q-98 33 -282 33q-123 0 -197 -65.5t-92 -167.5q-59 -335 -59 -433t43 -152t125 -54zM758 125v12q-73 -59 -176 -105t-176 -46q-133 0 -206 73t-73 177t63 489q23 139 126.5 226t294.5 87t319 -37l47 -12l-109 -776q-8 -57 -8 -83 q0 -54 68 -54l41 2l-6 -84q-41 -8 -72 -8q-74 0 -103.5 45t-29.5 94zM414 1208l22 164h125l-22 -164h-125zM762 1208l22 164h125l-22 -164h-125z" glyph-name="adieresis" horiz-adv-x="1044" unicode="ä"/><glyph d="M402 76q82 0 173 45t146 90l53 45l90 659q-98 33 -282 33q-123 0 -197 -65.5t-92 -167.5q-59 -335 -59 -433t43 -152t125 -54zM758 125v12q-73 -59 -176 -105t-176 -46q-133 0 -206 73t-73 177t63 489q23 139 126.5 226t294.5 87t319 -37l47 -12l-109 -776q-8 -57 -8 -83 q0 -54 68 -54l41 2l-6 -84q-41 -8 -72 -8q-74 0 -103.5 45t-29.5 94zM514 1304q0 66 49 119.5t122 53.5t115 -43t42 -112t-52.5 -120t-119.5 -51t-111.5 43.5t-44.5 109.5zM682 1397q-33 0 -60.5 -27.5t-27.5 -61.5t22.5 -55.5t56.5 -21.5t61.5 27.5t27.5 60.5t-23.5 55.5 t-56.5 22.5z" glyph-name="aring" horiz-adv-x="1044" unicode="å"/><glyph d="M1118 -14q-252 0 -323 172q-213 -172 -389 -172q-133 0 -206 73t-73 177t63 489q23 141 121.5 227t279.5 86t353 -86q113 86 307 86q143 0 220 -70.5t77 -191.5t-71.5 -192.5t-200.5 -114.5l-395 -129q-4 -31 -4 -64q0 -92 60 -146t182 -54t245 37l45 12l2 -90 q-156 -49 -293 -49zM402 76q82 0 169.5 45t141.5 90l51 45q0 76 27.5 269.5t62.5 353.5q-104 70 -283 69q-123 0 -191.5 -65.5t-86.5 -167.5q-59 -335 -59 -433t43 -152t125 -54zM1229 948q-119 0 -198 -58.5t-94 -140.5t-48 -309l414 138q141 45 141 182q0 96 -48 142 t-167 46z" glyph-name="ae" horiz-adv-x="1576" unicode="æ"/><glyph d="M608 -199q0 -84 -49 -134t-125 -50t-147 14l-21 7l17 67q70 -16 114 -16q106 0 107 98q0 59 -84 59h-76l51 144q-129 14 -198.5 87t-69.5 181t63 465q23 137 127.5 226t278.5 89q112 0 211 -16l37 -6l-23 -88q-139 22 -247 22t-185.5 -67.5t-95.5 -167.5 q-59 -350 -59 -437t61 -145.5t170 -58.5t219 20l33 8l2 -86q-113 -27 -234 -30l-24 -78q147 -1 147 -107z" glyph-name="ccedilla" horiz-adv-x="817" unicode="ç"/><glyph d="M462 -14q-154 0 -244.5 78.5t-90.5 195.5t61 463q25 137 137.5 226t270.5 89t237.5 -70.5t79.5 -191.5t-72.5 -193.5t-199.5 -113.5l-403 -129q-4 -31 -5 -64q0 -90 62.5 -145t183.5 -55t250 37l45 12l2 -90q-160 -49 -314 -49zM809 760q0 96 -50 142t-169 46t-200.5 -68 t-101.5 -178t-36 -260l416 136q141 45 141 182zM662 1178h-119l-232 256h164z" glyph-name="egrave" horiz-adv-x="942" unicode="è"/><glyph d="M462 -14q-154 0 -244.5 78.5t-90.5 195.5t61 463q25 137 137.5 226t270.5 89t237.5 -70.5t79.5 -191.5t-72.5 -193.5t-199.5 -113.5l-403 -129q-4 -31 -5 -64q0 -90 62.5 -145t183.5 -55t250 37l45 12l2 -90q-160 -49 -314 -49zM809 760q0 96 -50 142t-169 46t-200.5 -68 t-101.5 -178t-36 -260l416 136q141 45 141 182zM657 1178h-118l256 256h163z" glyph-name="eacute" horiz-adv-x="942" unicode="é"/><glyph d="M462 -14q-154 0 -244.5 78.5t-90.5 195.5t61 463q25 137 137.5 226t270.5 89t237.5 -70.5t79.5 -191.5t-72.5 -193.5t-199.5 -113.5l-403 -129q-4 -31 -5 -64q0 -90 62.5 -145t183.5 -55t250 37l45 12l2 -90q-160 -49 -314 -49zM809 760q0 96 -50 142t-169 46t-200.5 -68 t-101.5 -178t-36 -260l416 136q141 45 141 182zM475 1178h-110l235 256h123l166 -256h-111l-131 157z" glyph-name="ecircumflex" horiz-adv-x="942" unicode="ê"/><glyph d="M462 -14q-154 0 -244.5 78.5t-90.5 195.5t61 463q25 137 137.5 226t270.5 89t237.5 -70.5t79.5 -191.5t-72.5 -193.5t-199.5 -113.5l-403 -129q-4 -31 -5 -64q0 -90 62.5 -145t183.5 -55t250 37l45 12l2 -90q-160 -49 -314 -49zM809 760q0 96 -50 142t-169 46t-200.5 -68 t-101.5 -178t-36 -260l416 136q141 45 141 182zM377 1208l22 164h125l-22 -164h-125zM725 1208l23 164h124l-22 -164h-125z" glyph-name="edieresis" horiz-adv-x="942" unicode="ë"/><glyph d="M248 142q0 -34 14 -50t51 -16l43 2l-6 -84q-43 -8 -74 -8q-133 0 -133 141q0 31 7 68l114 829h103l-113 -805q-6 -43 -6 -77zM397 1178h-118l-232 256h164z" glyph-name="igrave" horiz-adv-x="442" unicode="ì"/><glyph d="M248 142q0 -34 14 -50t51 -16l43 2l-6 -84q-43 -8 -74 -8q-133 0 -133 141q0 31 7 68l114 829h103l-113 -805q-6 -43 -6 -77zM379 1178h-119l256 256h164z" glyph-name="iacute" horiz-adv-x="442" unicode="í"/><glyph d="M248 142q0 -34 14 -50t51 -16l43 2l-6 -84q-43 -8 -74 -8q-133 0 -133 141q0 31 7 68l114 829h103l-113 -805q-6 -43 -6 -77zM195 1178h-111l235 256h123l166 -256h-110l-131 157z" glyph-name="icircumflex" horiz-adv-x="442" unicode="î"/><glyph d="M248 142q0 -34 14 -50t51 -16l43 2l-6 -84q-43 -8 -74 -8q-133 0 -133 141q0 31 7 68l114 829h103l-113 -805q-6 -43 -6 -77zM100 1208l23 164h125l-23 -164h-125zM449 1208l22 164h125l-23 -164h-124z" glyph-name="idieresis" horiz-adv-x="442" unicode="ï"/><glyph d="M543 1448q205 0 331 -154l175 74l-13 -88l-125 -53q63 -143 63 -306t-83 -626q-25 -135 -140.5 -225t-282.5 -90t-255 77.5t-88 200.5q0 82 51 379q23 135 135.5 225t292.5 90q68 0 134.5 -17t101.5 -34l32 -16l2 28q0 156 -61 273l-184 -80l12 88l137 57 q-98 106 -256 107l-55 -2l4 88q59 4 72 4zM610 866q-144 0 -229.5 -66.5t-104.5 -166.5q-47 -265 -47 -357t66.5 -149t187.5 -57t206.5 70.5t101.5 162.5q43 246 67 483q-104 80 -248 80z" glyph-name="eth" horiz-adv-x="1040" unicode="ð"/><glyph d="M885 145q0 -70 67 -69l41 2l-4 -84q-43 -8 -74 -8q-135 0 -135 143q0 23 6 66l74 518q4 37 4 53q0 82 -45 132t-138 50t-175.5 -34.5t-151.5 -73.5l-20 -11l-117 -829h-102l143 1024h94l-6 -98q193 112 340 112t215 -68.5t68 -183.5q0 -20 -4 -61l-72 -506q-8 -57 -8 -74 zM528 1376q65 0 141 -49t110 -49t57.5 25.5t33.5 62.5h93q-6 -59 -62.5 -120.5t-122.5 -61.5t-141.5 49t-109.5 49t-57.5 -25.5t-33.5 -62.5h-92q8 57 63.5 119.5t120.5 62.5z" glyph-name="ntilde" horiz-adv-x="1056" unicode="ñ"/><glyph d="M483 -14q-170 0 -263 80.5t-93 195.5q0 78 59 457q23 141 125.5 230t274.5 89t265 -80.5t93 -203.5q0 -89 -59 -449q-25 -141 -128.5 -230t-273.5 -89zM586 948q-127 0 -202 -65.5t-93 -169.5q-59 -334 -59 -429t64 -151.5t191 -56.5t201 64.5t92 170.5q60 356 60 440 t-63.5 140.5t-190.5 56.5zM672 1178h-119l-231 256h163z" glyph-name="ograve" horiz-adv-x="993" unicode="ò"/><glyph d="M483 -14q-170 0 -263 80.5t-93 195.5q0 78 59 457q23 141 125.5 230t274.5 89t265 -80.5t93 -203.5q0 -89 -59 -449q-25 -141 -128.5 -230t-273.5 -89zM586 948q-127 0 -202 -65.5t-93 -169.5q-59 -334 -59 -429t64 -151.5t191 -56.5t201 64.5t92 170.5q60 356 60 440 t-63.5 140.5t-190.5 56.5zM664 1178h-119l256 256h164z" glyph-name="oacute" horiz-adv-x="993" unicode="ó"/><glyph d="M483 -14q-170 0 -263 80.5t-93 195.5q0 78 59 457q23 141 125.5 230t274.5 89t265 -80.5t93 -203.5q0 -89 -59 -449q-25 -141 -128.5 -230t-273.5 -89zM586 948q-127 0 -202 -65.5t-93 -169.5q-59 -334 -59 -429t64 -151.5t191 -56.5t201 64.5t92 170.5q60 356 60 440 t-63.5 140.5t-190.5 56.5zM473 1178h-111l236 256h123l166 -256h-111l-131 157z" glyph-name="ocircumflex" horiz-adv-x="993" unicode="ô"/><glyph d="M483 -14q-170 0 -263 80.5t-93 195.5q0 78 59 457q23 141 125.5 230t274.5 89t265 -80.5t93 -203.5q0 -89 -59 -449q-25 -141 -128.5 -230t-273.5 -89zM586 948q-127 0 -202 -65.5t-93 -169.5q-59 -334 -59 -429t64 -151.5t191 -56.5t201 64.5t92 170.5q60 356 60 440 t-63.5 140.5t-190.5 56.5zM520 1376q65 0 141 -49t110 -49t57.5 25.5t33.5 62.5h92q-6 -59 -62 -120.5t-122 -61.5t-141.5 49t-109.5 49t-57.5 -25.5t-33.5 -62.5h-92q8 57 63.5 119.5t120.5 62.5z" glyph-name="otilde" horiz-adv-x="993" unicode="õ"/><glyph d="M483 -14q-170 0 -263 80.5t-93 195.5q0 78 59 457q23 141 125.5 230t274.5 89t265 -80.5t93 -203.5q0 -89 -59 -449q-25 -141 -128.5 -230t-273.5 -89zM586 948q-127 0 -202 -65.5t-93 -169.5q-59 -334 -59 -429t64 -151.5t191 -56.5t201 64.5t92 170.5q60 356 60 440 t-63.5 140.5t-190.5 56.5zM387 1208l23 164h125l-23 -164h-125zM735 1208l23 164h125l-23 -164h-125z" glyph-name="odieresis" horiz-adv-x="993" unicode="ö"/><glyph d="M485 160l21 151h153l-20 -151h-154zM582 844l20 149h154l-21 -149h-153zM190 627h879l-14 -99h-879z" glyph-name="divide" unicode="÷"/><glyph d="M127 258q0 82 59 461q23 141 125.5 230t268.5 89t262 -73l45 59h102l-92 -119q47 -67 47 -153t-59 -447q-25 -141 -128.5 -230t-266.5 -89t-252 67l-41 -53h-103l84 109q-51 67 -51 149zM231 308q0 -72 17 -111l532 690q-66 61 -194 61t-202.5 -65.5t-92.5 -169.5 q-60 -333 -60 -405zM490 76q124 0 198 64.5t92 170.5q60 355 60 413t-13 91l-530 -684q69 -55 193 -55z" glyph-name="oslash" horiz-adv-x="1009" unicode="ø"/><glyph d="M406 -16q-137 0 -203 67.5t-66 184.5q0 43 6 90l97 698h102l-98 -717q-2 -17 -2 -77t44 -108t126 -48t169 38t140 76l51 37l113 799h102l-113 -805q-6 -43 -6 -77t14.5 -50t51.5 -16l43 2l-6 -84q-43 -8 -74 -8q-131 0 -135 129q-91 -55 -189 -93t-167 -38zM686 1178 h-119l-231 256h164z" glyph-name="ugrave" horiz-adv-x="1024" unicode="ù"/><glyph d="M406 -16q-137 0 -203 67.5t-66 184.5q0 43 6 90l97 698h102l-98 -717q-2 -17 -2 -77t44 -108t126 -48t169 38t140 76l51 37l113 799h102l-113 -805q-6 -43 -6 -77t14.5 -50t51.5 -16l43 2l-6 -84q-43 -8 -74 -8q-131 0 -135 129q-91 -55 -189 -93t-167 -38zM690 1178 h-119l256 256h164z" glyph-name="uacute" horiz-adv-x="1024" unicode="ú"/><glyph d="M406 -16q-137 0 -203 67.5t-66 184.5q0 43 6 90l97 698h102l-98 -717q-2 -17 -2 -77t44 -108t126 -48t169 38t140 76l51 37l113 799h102l-113 -805q-6 -43 -6 -77t14.5 -50t51.5 -16l43 2l-6 -84q-43 -8 -74 -8q-131 0 -135 129q-91 -55 -189 -93t-167 -38zM494 1178 h-111l235 256h123l166 -256h-110l-131 157z" glyph-name="ucircumflex" horiz-adv-x="1024" unicode="û"/><glyph d="M406 -16q-137 0 -203 67.5t-66 184.5q0 43 6 90l97 698h102l-98 -717q-2 -17 -2 -77t44 -108t126 -48t169 38t140 76l51 37l113 799h102l-113 -805q-6 -43 -6 -77t14.5 -50t51.5 -16l43 2l-6 -84q-43 -8 -74 -8q-131 0 -135 129q-91 -55 -189 -93t-167 -38zM403 1208 l23 164h125l-23 -164h-125zM752 1208l22 164h125l-22 -164h-125z" glyph-name="udieresis" horiz-adv-x="1024" unicode="ü"/><glyph d="M268 367q0 -70 50.5 -115t138.5 -45t174 29.5t131 60.5l43 31l98 696h103q-109 -774 -160 -1137q-18 -129 -133 -199.5t-263 -70.5t-236.5 43.5t-88.5 157.5t127 184l211 117q-152 0 -225.5 66.5t-73.5 172.5q0 16 4 50l86 616h104l-88 -618q-2 -16 -2 -39zM436 -293 q121 0 208 47.5t99 139.5l48 321q-63 -51 -144 -96l-330 -180q-82 -45 -81 -117q0 -115 200 -115zM702 1178h-118l256 256h164z" glyph-name="yacute" horiz-adv-x="1021" unicode="ý"/><glyph d="M700 1038q137 0 205 -69t68 -181t-64 -475q-23 -143 -126 -235t-279 -92q-131 0 -242 39l-37 14l-57 -408h-100l251 1803h103l-72 -508q71 43 174 77.5t176 34.5zM864 764q0 184 -180 184q-74 0 -161 -31.5t-138 -62.5l-49 -31l-98 -688q94 -59 278 -59q123 0 199 72 t92 176q57 330 57 440z" glyph-name="thorn" horiz-adv-x="1017" unicode="þ"/><glyph d="M268 367q0 -70 50.5 -115t138.5 -45t174 29.5t131 60.5l43 31l98 696h103q-109 -774 -160 -1137q-18 -129 -133 -199.5t-263 -70.5t-236.5 43.5t-88.5 157.5t127 184l211 117q-152 0 -225.5 66.5t-73.5 172.5q0 16 4 50l86 616h104l-88 -618q-2 -16 -2 -39zM436 -293 q121 0 208 47.5t99 139.5l48 321q-63 -51 -144 -96l-330 -180q-82 -45 -81 -117q0 -115 200 -115zM414 1208l22 164h125l-22 -164h-125zM762 1208l22 164h125l-22 -164h-125z" glyph-name="ydieresis" horiz-adv-x="1021" unicode="ÿ"/><glyph d="M248 142q0 -34 14 -50t51 -16l43 2l-6 -84q-43 -8 -74 -8q-133 0 -133 141q0 31 7 68l114 829h103l-113 -805q-6 -43 -6 -77z" glyph-name="dotlessi" horiz-adv-x="442" unicode="ı"/><glyph d="M76 612l141 72l105 750h116l-94 -680l459 241l-17 -112l-458 -244l-76 -539h649l-14 -100h-766l80 573l-142 -73z" glyph-name="Lslash" horiz-adv-x="978" unicode="Ł"/><glyph d="M217 145q0 -70 68 -69l43 2l-6 -84q-43 -8 -74 -8q-131 0 -131 141q0 43 4 68l67 481l-133 -70l15 103l133 69l92 656h102l-84 -598l207 110l-14 -102l-207 -111l-74 -514q-8 -57 -8 -74z" glyph-name="lslash" horiz-adv-x="468" unicode="ł"/><glyph d="M600 0q-209 0 -332 104.5t-123 274.5q0 125 80 620q31 197 182.5 316t393.5 119h1067l-15 -101h-682l-75 -538h614l-12 -99h-615l-84 -596h703l-14 -100h-1088zM786 1333q-180 0 -296.5 -94t-141.5 -240q-80 -479 -80 -608t89 -210t257 -81h269l172 1233h-269z" glyph-name="OE" horiz-adv-x="1841" unicode="Œ"/><glyph d="M1098 -14q-211 0 -293 153q-109 -154 -334 -153q-164 0 -254 80.5t-90 195.5q0 78 59 457q25 143 123.5 231t282.5 88q227 0 311 -161q121 162 352 161q143 0 218 -70.5t75 -191.5t-71.5 -192.5t-200.5 -114.5l-389 -129q-4 -31 -4 -64q0 -92 59 -146t180 -54t244 37 l43 12l2 -90q-152 -49 -313 -49zM827 751q0 84 -62.5 140.5t-186.5 56.5t-196.5 -64.5t-90.5 -170.5q-59 -334 -59 -430t61 -151.5t187 -55.5t198 64.5t90 170.5q59 356 59 440zM1444 760q0 96 -46 142t-165 46t-197 -66t-98 -178t-37 -262l402 136q141 45 141 182z" glyph-name="oe" horiz-adv-x="1576" unicode="œ"/><glyph d="M690 1348q-174 0 -279.5 -80t-105.5 -232q0 -84 54.5 -138t135 -77.5t176 -52.5t176.5 -58.5t135 -99t54 -174.5q0 -451 -561 -450q-250 0 -407 43l20 102l51 -12q162 -33 349 -33q188 0 307.5 70.5t119.5 249.5q0 100 -74.5 159.5t-181 87t-214 59t-182.5 104.5t-75 194 q0 219 141.5 328.5t356.5 109.5t393 -39l-26 -100l-54 10q-192 29 -309 29zM881 1843h110l-235 -256h-123l-166 256h111l129 -157z" glyph-name="Scaron" horiz-adv-x="1124" unicode="Š"/><glyph d="M258 741q0 -66 52 -103.5t126 -57t147.5 -43t126 -77.5t52.5 -143q0 -174 -109 -252.5t-283 -78.5t-307 43l29 90l39 -10q122 -33 244 -33t200 49t78 170t-125 152.5t-198.5 54t-124.5 77t-51 144.5q0 152 101 233.5t257 81.5t285 -30l-29 -90l-35 8q-91 22 -212 22 q-122 0 -192.5 -54t-70.5 -153zM717 1434h110l-235 -256h-123l-166 256h111l129 -158z" glyph-name="scaron" horiz-adv-x="837" unicode="š"/><glyph d="M315 1434l293 -748h8l504 748h135l-600 -865l-80 -569h-116l80 569l-359 865h135zM494 1618l22 164h125l-23 -164h-124zM842 1618l22 164h125l-22 -164h-125z" glyph-name="Ydieresis" horiz-adv-x="1136" unicode="Ÿ"/><glyph d="M190 100h822l-15 -100h-946l17 117l970 1208v8h-776l14 101h908l-17 -117l-977 -1208v-9zM942 1843h111l-236 -256h-123l-166 256h111l129 -157z" glyph-name="Zcaron" horiz-adv-x="1144" unicode="Ž"/><glyph d="M377 365h-103l17 120l444 449h-540l12 90h643l-19 -123l-442 -444q160 0 276.5 -61.5t116.5 -186.5q0 -96 -43 -324q-27 -131 -135 -199.5t-278 -68.5q-305 0 -306 195q0 135 162 229l461 244q-6 8 -20.5 21t-82 36t-163.5 23zM131 -180q0 -113 191 -113q280 1 317 191 q37 203 37 303q-127 -57 -296 -153t-186.5 -108t-40 -45.5t-22.5 -74.5zM745 1434h111l-235 -256h-123l-166 256h110l129 -158z" glyph-name="zcaron" horiz-adv-x="880" unicode="ž"/><glyph d="M164 -295q147 0 172 186l123 879h-166l14 90h164l45 316q39 272 299 272l143 -14l-18 -86q-72 12 -139 12q-158 0 -183 -191l-40 -309h294l-14 -90h-295l-125 -901q-16 -111 -90 -182.5t-190 -71.5l-113 12l14 86q53 -8 105 -8z" glyph-name="florin" horiz-adv-x="833" unicode="ƒ"/><glyph d="M184 1178h-110l235 256h123l166 -256h-111l-131 157z" glyph-name="circumflex" horiz-adv-x="524" unicode="ˆ"/><glyph d="M522 1434h111l-236 -256h-123l-165 256h110l129 -158z" glyph-name="caron" horiz-adv-x="524" unicode="ˇ"/><glyph d="M319 1278h70q47 0 91 31.5t52 79.5h103q-14 -92 -82 -148.5t-166 -56.5h-92q-98 0 -150.5 58.5t-40.5 146.5h103q-8 -47 28.5 -79t83.5 -32z" glyph-name="breve" horiz-adv-x="530" unicode="˘"/><glyph d="M78 1208l22 164h125l-22 -164h-125z" glyph-name="dotaccent" horiz-adv-x="124" unicode="˙"/><glyph d="M90 1304q0 66 49 119.5t122 53.5t115 -43t42 -112t-51.5 -120t-119.5 -51t-112.5 43.5t-44.5 109.5zM258 1397q-33 0 -60.5 -27.5t-27.5 -61.5t22.5 -55.5t56.5 -21.5t61.5 27.5t27.5 60.5t-23.5 55.5t-56.5 22.5z" glyph-name="ring" horiz-adv-x="323" unicode="˚"/><glyph d="M90 -248q0 133 180 248h109q-20 -14 -49 -36.5t-77 -82t-48 -108.5q0 -76 82 -76l84 10v-69q-179 -47 -230 5t-51 109z" glyph-name="ogonek" horiz-adv-x="464" unicode="˛"/><glyph d="M262 1376q65 0 141 -49t110 -49t57.5 25.5t33.5 62.5h92q-6 -59 -62 -120.5t-122 -61.5t-141.5 49t-109.5 49t-57.5 -25.5t-33.5 -62.5h-92q8 57 63.5 119.5t120.5 62.5z" glyph-name="tilde" horiz-adv-x="595" unicode="˜"/><glyph d="M193 1178h-119l256 256h164zM475 1178h-119l256 256h164z" glyph-name="hungarumlaut" horiz-adv-x="667" unicode="˝"/><glyph d="M803 653l-15 -98h-753l14 98h754z" glyph-name="endash" horiz-adv-x="753" unicode="–"/><glyph d="M1554 653l-14 -98h-1505l14 98h1505z" glyph-name="emdash" horiz-adv-x="1505" unicode="—"/><glyph d="M256 1262l-23 -162h-129l21 139q14 113 67.5 164t104.5 51l-8 -55q-33 0 -56.5 -34t-29.5 -77l-2 -26h55z" glyph-name="quoteleft" horiz-adv-x="276" unicode="‘"/><glyph d="M233 1272l23 162h129l-20 -140q-14 -113 -67.5 -164t-104.5 -51l8 56q33 0 56.5 33.5t29.5 76.5l2 27h-56z" glyph-name="quoteright" horiz-adv-x="315" unicode="’"/><glyph d="M104 0l23 162h129l-18 -139q-16 -113 -68.5 -164.5t-103.5 -51.5l8 56q33 0 56.5 33.5t27.5 76.5l2 27h-56z" glyph-name="quotesinglbase" horiz-adv-x="368" unicode="‚"/><glyph d="M494 1262l-23 -162h-129l20 139q14 113 67.5 164t105.5 51l-9 -55q-33 0 -56.5 -34t-29.5 -77l-2 -26h56zM256 1262l-23 -162h-129l21 139q14 113 67.5 164t104.5 51l-8 -55q-33 0 -56.5 -34t-29.5 -77l-2 -26h55z" glyph-name="quotedblleft" horiz-adv-x="512" unicode="“"/><glyph d="M233 1272l23 162h129l-20 -140q-14 -113 -67.5 -164t-104.5 -51l8 56q33 0 56.5 33.5t29.5 76.5l2 27h-56zM471 1272l23 162h129l-21 -140q-14 -113 -67.5 -164t-104.5 -51l8 56q33 0 56.5 33.5t29.5 76.5l2 27h-55z" glyph-name="quotedblright" horiz-adv-x="550" unicode="”"/><glyph d="M104 0l23 162h129l-18 -139q-16 -113 -68.5 -164.5t-103.5 -51.5l8 56q33 0 56.5 33.5t27.5 76.5l2 27h-56zM342 0l23 162h129l-19 -139q-16 -113 -68.5 -164.5t-103.5 -51.5l8 56q33 0 56.5 33.5t27.5 76.5l2 27h-55z" glyph-name="quotedblbase" horiz-adv-x="604" unicode="„"/><glyph d="M684 907l-178 -1276h-105l179 1276h-369l14 90h369l61 437h105l-62 -437h369l-14 -90h-369z" glyph-name="dagger" horiz-adv-x="1087" unicode="†"/><glyph d="M950 158l-12 -90h-369l-61 -437h-105l62 437h-371l12 90h371l105 749h-371l14 90h371l61 437h105l-62 -437h369l-14 -90h-369l-104 -749h368z" glyph-name="daggerdbl" horiz-adv-x="1089" unicode="‡"/><glyph d="M203 736q0 118 82 201t198.5 83t199.5 -83t83 -201t-83 -199.5t-201 -81.5t-198.5 81.5t-80.5 199.5z" glyph-name="bullet" horiz-adv-x="870" unicode="•"/><glyph d="M158 0l22 162h125l-22 -162h-125zM610 0l23 162h125l-23 -162h-125zM1063 0l22 162h125l-22 -162h-125z" glyph-name="ellipsis" horiz-adv-x="1357" unicode="…"/><glyph d="M521 702q-126 0 -198.5 66t-72.5 170q0 59 26 231q18 125 106.5 200t214.5 75t199.5 -63.5t73.5 -170.5q1 -43 -28 -233q-18 -127 -106.5 -201t-214.5 -74zM770 1210q0 150 -168 150q-88 0 -148.5 -47t-74.5 -135q-31 -176 -31 -245t45 -107t128 -38t143.5 46.5 t74.5 132.5q31 195 31 243zM432 0l848 1434h102l-850 -1434h-100zM1226 -14q-126 0 -200 65.5t-74 169.5q0 41 29 232q18 125 105.5 199.5t213.5 74.5t199.5 -63.5t73.5 -169.5q0 -44 -29 -234q-16 -125 -104 -199.5t-214 -74.5zM1475 494q0 147 -170 147q-88 0 -148.5 -46 t-75.5 -134q-31 -176 -31 -245t45.5 -106.5t129.5 -37.5t143.5 46t73.5 132q33 207 33 244zM1936 -14q-126 0 -199.5 65.5t-73.5 169.5q0 41 29 232q18 125 106 199.5t214 74.5t200 -63.5t74 -169.5q0 -44 -29 -234q-18 -125 -106.5 -199.5t-214.5 -74.5zM2185 494 q0 147 -168 147q-90 0 -150.5 -46t-74.5 -134q-29 -190 -29 -252t44 -99.5t128 -37.5t143.5 46t73.5 132q33 207 33 244z" glyph-name="perthousand" horiz-adv-x="2420" unicode="‰"/><glyph d="M498 279h-133l-199 317l291 313h125l-289 -313z" glyph-name="guilsinglleft" horiz-adv-x="632" unicode="‹"/><glyph d="M252 279h-129l295 317l-207 313h129l205 -313z" glyph-name="guilsinglright" horiz-adv-x="632" unicode="›"/><glyph d="M-152 0l850 1434h101l-848 -1434h-103z" glyph-name="fraction" horiz-adv-x="557" unicode="⁄"/><glyph d="M348 391q0 -131 89 -218t255 -87q110 0 223 20l35 9l-6 -101q-143 -29 -268 -28q-207 0 -330 114.5t-123 284.5q0 14 4 51l11 94h-134l13 91h131l26 182h-131l13 90h133l16 104q31 197 179.5 324t377.5 127q115 0 232 -21l36 -6l-20 -102q-129 29 -252 29 q-180 0 -292.5 -98.5t-137.5 -252.5l-16 -104h501l-12 -90h-504l-26 -182h452l-12 -91h-451l-10 -94q-2 -14 -2 -45z" glyph-name="Euro" horiz-adv-x="1116" unicode="€"/><glyph d="M236 1354l10 80h428l-10 -80h-172l-82 -578h-84l82 578h-172zM1350 1434l-93 -658h-83l71 518l-184 -241h-84l-113 241l-71 -518h-86l92 658h100l131 -299l219 299h101z" glyph-name="trademark" horiz-adv-x="1390" unicode="™"/><glyph d="M190 627h879l-14 -99h-879z" glyph-name="minus" unicode="−"/><glyph d="M614 1362q-154 0 -182 -195l-20 -143h594l-113 -805q-12 -72 -2 -107.5t61 -35.5l43 2l-6 -84q-43 -8 -74 -8q-158 0 -127 209l103 739h-492l-182 -1303h-102l182 1303h-164l12 90h164l23 158q18 121 95 193.5t202 72.5l166 -16l-23 -82q-76 12 -158 12zM930 1233l28 201 h113l-29 -201h-112z" glyph-name="uniFB01" horiz-adv-x="1081" unicode="ﬁ"/><glyph d="M614 1362q-156 0 -182 -188l-20 -150h293l-13 -90h-293l-182 -1303h-102l182 1303h-164l12 90h164l23 164q16 119 94 189.5t203 70.5l430 -14l-170 -1215q-8 -57 -8 -74q0 -70 67 -69l41 2l-6 -84q-41 -8 -72 -8q-133 0 -133 143q0 41 4 66l164 1159q-184 8 -332 8z" glyph-name="uniFB02" horiz-adv-x="1058" unicode="ﬂ"/></font>
</defs>
</svg>
