<?xml version="1.0" standalone="no"?>
<!DOCTYPE svg PUBLIC "-//W3C//DTD SVG 1.1//EN" "http://www.w3.org/Graphics/SVG/1.1/DTD/svg11.dtd">
<svg xmlns="http://www.w3.org/2000/svg"><metadata>This SVG WebFont was generated by YouWorkForThem.
Copyright (c) 2008 by Ramiz Guseynov. All rights reserved.</metadata><defs><font horiz-adv-x="1150" id="ywftsvg"><font-face ascent="1536" bbox="-213 -430 2591 1898" cap-height="1434" descent="-512" font-family="" font-stretch="normal" font-weight="900" panose-1="2 0 5 6 0 0 0 2 0 4" underline-position="0" underline-thickness="0" unicode-range="U+0020-FB02" units-per-em="2048" x-height="1024"/><missing-glyph horiz-adv-x="450"/><glyph glyph-name=".notdef" horiz-adv-x="450"/><glyph glyph-name="glyph1" horiz-adv-x="0"/><glyph glyph-name="glyph2" horiz-adv-x="681"/><glyph glyph-name="space" horiz-adv-x="450" unicode=" "/><glyph d="M549 1434l-45 -965h-295l-45 965h385zM199 0v315h315v-315h-315z" glyph-name="exclam" horiz-adv-x="712" unicode="!"/><glyph d="M123 893v541h303l-43 -541h-260zM573 893v541h304l-43 -541h-261z" glyph-name="quotedbl" horiz-adv-x="999" unicode="&quot;"/><glyph d="M207 791v303h211l49 340h272l-49 -340h254l49 340h271l-52 -340h164v-303h-207l-22 -148h170v-305h-213l-49 -338h-271l52 338h-254l-50 -338h-272l47 338h-164v305h209l21 148h-166zM647 791l-20 -148h252l22 148h-254z" glyph-name="numbersign" horiz-adv-x="1519" unicode="#"/><glyph d="M477 -104v104q-141 16 -272 51l-43 12l10 316q284 -59 428 -59t191 23.5t47 73.5t-38 78.5t-99.5 45t-135 33t-148.5 46t-136.5 73.5t-99.5 126t-38 195q0 162 89.5 262t244.5 141v121h348v-106q141 -17 236 -54l35 -12l-15 -307q-263 53 -425 53t-162 -94q0 -77 99 -102 t173 -40.5t148.5 -45t136 -73.5t99.5 -127t38 -196q0 -344 -363 -422v-116h-348z" glyph-name="dollar" horiz-adv-x="1331" unicode="$"/><glyph d="M801 1145v-174q0 -139 -95.5 -224t-234.5 -85t-233.5 87t-94.5 222v174q0 137 94.5 223t233.5 86t234.5 -86t95.5 -223zM575 950v215q0 41 -30.5 66.5t-75.5 25.5t-73.5 -24.5t-28.5 -67.5v-213q0 -45 28.5 -69.5t74.5 -24.5t75.5 24.5t29.5 67.5zM526 0l656 1434h219 l-649 -1434h-226zM1800 463v-174q0 -137 -98 -223t-238 -86t-234.5 87t-94.5 222v174q0 137 94 223t234 86t238.5 -86t98.5 -223zM1567 268v215q0 41 -31 66.5t-76 25.5t-73.5 -24.5t-28.5 -67.5v-213q0 -45 28.5 -69.5t74.5 -24.5t76 24.5t30 67.5z" glyph-name="percent" horiz-adv-x="1943" unicode="%"/><glyph d="M928 760h301v-266q0 -74 -22.5 -146t-47.5 -106l-22 -35l120 -207h-348l-24 39q-205 -102 -349.5 -58t-221 97t-124 160.5t-47.5 255.5q0 274 236 411l-146 252v277h900v-310h-533l246 -419l82 -170v225zM645 297q32 0 80 16l-182 314q-49 -47 -49 -131q-1 -199 151 -199 z" glyph-name="ampersand" horiz-adv-x="1400" unicode="&amp;"/><glyph d="M123 893v541h303l-43 -541h-260z" glyph-name="quotesingle" horiz-adv-x="548" unicode="'"/><glyph d="M709 -61v-326q-233 0 -384 128t-151 372v841q0 244 150.5 372t384.5 128v-328q-88 0 -144.5 -47t-56.5 -125v-841q0 -78 56.5 -126t144.5 -48z" glyph-name="parenleft" horiz-adv-x="800" unicode="("/><glyph d="M92 -387v326q88 0 144.5 48t56.5 126v841q0 78 -56.5 125t-144.5 47v328q233 0 384 -128t151 -372v-841q0 -244 -151 -372t-384 -128z" glyph-name="parenright" horiz-adv-x="800" unicode=")"/><glyph d="M739 1454v-272l260 84l74 -246l-254 -82l160 -219l-209 -148l-158 215l-155 -223l-205 156l158 213l-267 88l82 240l262 -82v276h252z" glyph-name="asterisk" horiz-adv-x="1216" unicode="*"/><glyph d="M483 1090h312v-340h342v-312h-342v-342h-312v342h-340v312h340v340z" glyph-name="plus" horiz-adv-x="1280" unicode="+"/><glyph d="M164 0v315h315v-284q0 -200 -103 -270t-233 -70v166q47 0 87 38.5t40 104.5h-106z" glyph-name="comma" horiz-adv-x="643" unicode=","/><glyph d="M762 745v-305h-619v305h619z" glyph-name="hyphen" horiz-adv-x="905" unicode="-"/><glyph d="M164 0v315h315v-315h-315z" glyph-name="period" horiz-adv-x="643" unicode="."/><glyph d="M41 0l420 1436h323l-424 -1436h-319z" glyph-name="slash" horiz-adv-x="825" unicode="/"/><glyph d="M664 -20q-223 0 -373 139t-154 346q-6 252 0 506q4 207 154.5 345t376.5 138t372 -136t150 -347q6 -252 0 -506q-4 -205 -153.5 -345t-372.5 -140zM665 1130q-83 0 -135.5 -46t-54.5 -117q-6 -252 0 -500q2 -72 53.5 -117t135.5 -45t133 46t51 116q6 252 0 500 q-2 72 -51 117.5t-132 45.5z" glyph-name="zero" horiz-adv-x="1327" unicode="0"/><glyph d="M612 1436v-1436h-340v1065l-221 -92v334l281 129h280z" glyph-name="one" horiz-adv-x="796" unicode="1"/><glyph d="M571 1452q500 0 500 -446q0 -147 -52 -238.5t-159 -185.5l-297 -258h510v-324h-991v319l530 476q68 61 92.5 102t24.5 104q0 133 -182 134q-145 0 -342 -50l-66 -14l-14 313q242 68 446 68z" glyph-name="two" horiz-adv-x="1185" unicode="2"/><glyph d="M104 1114v320h920v-265l-225 -262q274 -96 274 -418q0 -145 -51 -251.5t-173 -182t-304 -75.5q-113 0 -226.5 18t-171.5 37l-55 18l19 318q233 -74 427.5 -74t194.5 197q0 92 -63.5 112.5t-139.5 20.5h-170v254l203 233h-459z" glyph-name="three" horiz-adv-x="1185" unicode="3"/><glyph d="M41 264v289l459 881h374l-460 -854h272v303h336v-303h135v-316h-135v-264h-336v264h-645z" glyph-name="four" horiz-adv-x="1218" unicode="4"/><glyph d="M772 478q0 89 -42 129t-131 40t-175 -20.5t-133 -40.5l-47 -19l-121 205l51 662h879v-320h-580l-14 -176q94 18 182 18q473 0 473 -467q0 -229 -135 -369t-422 -140q-113 0 -221.5 18t-159.5 35l-53 18l16 309q475 -122 554 -46.5t79 164.5z" glyph-name="five" horiz-adv-x="1226" unicode="5"/><glyph d="M680 1137q-211 0 -211 -224q106 33 215 33q233 0 358 -114.5t125 -351.5t-141 -368.5t-378.5 -131.5t-376 141t-144.5 363t-1 450t143.5 373t383.5 145q189 0 357 -27l55 -8l-16 -315q-178 35 -369 35zM651 653q-77 0 -155 -28l-31 -11q0 -98 2 -135q0 -78 45 -131 t133 -53q180 0 180 186q0 172 -174 172z" glyph-name="six" horiz-adv-x="1280" unicode="6"/><glyph d="M51 1114v320h928v-310l-504 -1124h-354l510 1114h-580z" glyph-name="seven" horiz-adv-x="1009" unicode="7"/><glyph d="M1165 1028q0 -82 -27.5 -153.5t-56.5 -100.5l-26 -31q88 -59 114.5 -157.5t26.5 -163.5q0 -221 -153.5 -331.5t-387.5 -110.5t-388 110.5t-154 331.5q0 102 35.5 183t70.5 110l35 28q-41 34 -76 118.5t-35 166.5q0 186 142.5 305t369.5 119t368.5 -121t141.5 -303z M656 283q83 0 143.5 37.5t60.5 110.5t-61.5 114t-142.5 41t-143 -41t-62 -114t61 -110.5t144 -37.5zM831 1017q0 58 -51 94t-126 36t-126 -35t-51 -94t48 -97t128 -38t129 38t49 96z" glyph-name="eight" horiz-adv-x="1308" unicode="8"/><glyph d="M616 295q106 0 150.5 66.5t44.5 156.5q-106 -33 -215 -33q-233 0 -358 115.5t-125 351.5t141 368t378.5 132t376 -141.5t144.5 -363.5q6 -223 1 -451t-143.5 -372t-383.5 -144q-193 0 -355 28l-57 8l16 316q182 -37 385 -37zM629 778q48 0 157 29l29 10q0 98 -2 135 q0 78 -45 131.5t-133 53.5q-180 0 -180 -187q0 -172 174 -172z" glyph-name="nine" horiz-adv-x="1280" unicode="9"/><glyph d="M164 0v315h315v-315h-315zM164 709v315h315v-315h-315z" glyph-name="colon" horiz-adv-x="643" unicode=":"/><glyph d="M164 709v315h315v-315h-315zM164 0v315h315v-284q0 -200 -103 -270t-233 -70v166q47 0 87 38.5t40 104.5h-106z" glyph-name="semicolon" horiz-adv-x="643" unicode=";"/><glyph d="M133 461v266l997 455v-355l-579 -233l579 -236v-352z" glyph-name="less" horiz-adv-x="1294" unicode="&lt;"/><glyph d="M1108 475v-311h-944v311h944zM1108 1030v-311h-944v311h944z" glyph-name="equal" horiz-adv-x="1271" unicode="="/><glyph d="M1161 727v-266l-997 -455v352l579 236l-579 233v355z" glyph-name="greater" horiz-adv-x="1294" unicode=">"/><glyph d="M576 1454q224 0 357.5 -96t133.5 -309q0 -109 -34 -186t-84 -112.5t-109.5 -66.5t-109.5 -51.5t-84 -61.5t-34 -102h-290q0 117 29.5 200t73.5 121.5t96 69.5t96.5 47.5t74 49t29.5 79.5q0 119 -164 119t-364 -49l-64 -16l-27 294q250 70 474 70zM311 0v315h316v-315 h-316z" glyph-name="question" horiz-adv-x="1169" unicode="?"/><glyph d="M1358 35q-70 0 -128.5 23.5t-82.5 45.5l-23 23q-152 -90 -262 -90q-150 0 -234.5 85.5t-89.5 237.5t0 306t98 240.5t253 86.5t338 -51l55 -16v-564q0 -109 82 -108q88 0 96 139q10 213 0 479q-6 156 -152 268.5t-388 112.5t-390.5 -113.5t-154.5 -267.5q-12 -332 0 -661 q6 -158 152.5 -271.5t392.5 -113.5q159 0 344 51l57 19l45 -213q-223 -72 -446 -72q-334 0 -548 168t-229 426q-18 336 0 674q14 256 230.5 422.5t550.5 166.5t546 -166.5t222 -432.5t0 -519q-4 -111 -64.5 -186.5t-130 -102t-139.5 -26.5zM772 657v-288q4 -119 96 -119 q43 0 144 43l30 14v453q-92 18 -150 18t-89 -35t-31 -86z" glyph-name="at" horiz-adv-x="1830" unicode="@"/><glyph d="M492 1434h403l453 -1434h-361l-86 301h-416l-86 -301h-358zM813 610l-119 434l-121 -434h240z" glyph-name="A" horiz-adv-x="1388" unicode="A"/><glyph d="M745 1434q231 0 347 -110t116 -310q0 -80 -30.5 -145.5t-59.5 -90.5l-31 -26q90 -60 119 -151t29 -150q0 -223 -127 -337t-403 -114h-531v1434h571zM760 1110h-240v-223h223q119 0 119 112q0 47 -25.5 79t-76.5 32zM520 584v-262h193q94 0 130 32.5t36 102.5 q0 127 -136 127h-223z" glyph-name="B" horiz-adv-x="1337" unicode="B"/><glyph d="M707 1133q-96 0 -157 -53.5t-63 -127.5q-6 -236 0 -471q2 -74 60.5 -127t154.5 -53q190 0 363 35l57 12l13 -313q-215 -55 -447 -55t-389.5 144t-162.5 370t0 448q5 223 164 367.5t407 144.5q183 0 354 -33l55 -12l-12 -313q-217 37 -397 37z" glyph-name="C" horiz-adv-x="1236" unicode="C"/><glyph d="M174 0v1434h541q252 0 411.5 -137t164.5 -361t0 -444t-163.5 -356t-412.5 -136h-541zM715 1110h-195v-788h195q102 0 160.5 46t60.5 115q6 236 0 467q-2 68 -62.5 114t-158.5 46z" glyph-name="D" horiz-adv-x="1427" unicode="D"/><glyph d="M174 1434h1026v-324h-676v-223h619v-303h-619v-262h695v-322h-1045v1434z" glyph-name="E" horiz-adv-x="1351" unicode="E"/><glyph d="M174 1436h1018v-324h-672v-240h615v-303h-615v-569h-346v1436z" glyph-name="F" horiz-adv-x="1253" unicode="F"/><glyph d="M694 506v303h553v-735q-250 -94 -518 -94t-428 145t-165 369t0 447q5 222 166 366.5t407 144.5t442 -43l66 -14l-15 -314q-297 51 -489 52q-100 0 -162 -54.5t-64 -128.5q-6 -233 0 -467q2 -74 62.5 -128t163.5 -54l200 14v191h-219z" glyph-name="G" horiz-adv-x="1390" unicode="G"/><glyph d="M969 1434h352v-1434h-352v580h-447v-580h-348v1434h348v-541h447v541z" glyph-name="H" horiz-adv-x="1495" unicode="H"/><glyph d="M524 1434v-1434h-350v1434h350z" glyph-name="I" horiz-adv-x="698" unicode="I"/><glyph d="M215 297q78 0 78 111v1026h350v-1076q0 -203 -95 -290.5t-247 -87.5q-72 0 -195 28l-34 10l2 291q68 -12 141 -12z" glyph-name="J" horiz-adv-x="796" unicode="J"/><glyph d="M520 1434v-535l424 535h426l-575 -684l616 -750h-444l-447 571v-571h-346v1434h346z" glyph-name="K" horiz-adv-x="1431" unicode="K"/><glyph d="M174 1434h350v-1112h615v-322h-965v1434z" glyph-name="L" horiz-adv-x="1179" unicode="L"/><glyph d="M1536 1434v-1434h-350v707l28 231h-8l-59 -154l-156 -276h-276l-150 272l-61 158h-8l28 -238v-700h-350v1434h358l322 -600l324 600h358z" glyph-name="M" horiz-adv-x="1710" unicode="M"/><glyph d="M977 1434h346v-1434h-352l-387 670l-80 182l16 -188v-664h-346v1434h352l387 -670l80 -182l-16 194v658z" glyph-name="N" horiz-adv-x="1497" unicode="N"/><glyph d="M1325 710.5q0 -161.5 -4 -231.5q-14 -207 -180 -353t-412 -146t-408.5 144t-181.5 355q-6 70 -6 231.5t6 243.5q16 209 181 354.5t413 145.5t412 -144.5t176 -355.5q4 -82 4 -243.5zM975 715q0 167 -4 237t-69.5 129.5t-171.5 59.5t-171 -59.5t-69 -129.5t-4.5 -236.5 t3.5 -236.5t69 -128t172 -58t172 57.5t69 127.5t4 237z" glyph-name="O" horiz-adv-x="1460" unicode="O"/><glyph d="M174 0v1434h619q199 0 305 -99t113 -251t0 -304t-113.5 -249t-304.5 -97h-271v-434h-348zM786 1110h-264v-356h264q41 0 62.5 19t23.5 44q6 117 0 232q-2 23 -23.5 42t-62.5 19z" glyph-name="P" horiz-adv-x="1298" unicode="P"/><glyph d="M1325 710.5q0 -161.5 -6 -244.5t-45 -167l-14 -27q78 -70 172 -176l-234 -188q-90 104 -209 185t-214 81t-169 -36t-104 -72l-31 -35q-117 51 -218 159.5t-114 288.5q-16 252 0 468t181 361.5t413 145.5t412 -144.5t176 -355.5q4 -82 4 -243.5zM730 1141 q-106 0 -171 -59.5t-70 -133.5q-12 -190 0 -463q0 -44 25 -77q111 66 241 66t183 -30l23 -10q8 26 10 51q12 272 0 463q-4 74 -69.5 133.5t-171.5 59.5z" glyph-name="Q" horiz-adv-x="1482" unicode="Q"/><glyph d="M522 455v-455h-348v1434h621q197 0 302 -99t113 -243t3 -242q-9 -168 -65 -241t-93 -91l-17 -8l293 -510h-409l-236 455h-164zM782 1110h-260v-336h260q43 0 65.5 21.5t24.5 48.5q6 106 0 198q-2 27 -24.5 47.5t-65.5 20.5z" glyph-name="R" horiz-adv-x="1372" unicode="R"/><glyph d="M659 1133q-202 0 -202 -107q0 -49 54 -82t136 -47t177.5 -45t177 -72t136 -131t54.5 -219q0 -451 -576 -450q-115 0 -235.5 16t-183.5 33l-66 14l19 313q279 -59 431 -59t209.5 28.5t57.5 86.5t-54.5 93.5t-136.5 49.5t-177 44t-177 70t-136 130t-54 221 q0 217 148.5 325.5t372.5 108.5t408 -41l64 -12l-12 -311q-233 43 -435 43z" glyph-name="S" horiz-adv-x="1284" unicode="S"/><glyph d="M41 1110v324h1079v-324h-364v-1110h-350v1110h-365z" glyph-name="T" horiz-adv-x="1161" unicode="T"/><glyph d="M983 1434h348v-953q0 -215 -167 -358t-422 -143t-421.5 142t-166.5 359v953h350v-938q0 -92 65.5 -144.5t174 -52.5t174 51t65.5 146v938z" glyph-name="U" horiz-adv-x="1484" unicode="U"/><glyph d="M401 1434l279 -1055l276 1055h363l-438 -1434h-402l-438 1434h360z" glyph-name="V" horiz-adv-x="1359" unicode="V"/><glyph d="M793 1434h381l194 -965l21 -139h8l12 139l111 965h364l-262 -1434h-410l-202 956l-23 160h-8l-21 -160l-204 -956h-410l-262 1434h364l113 -965l10 -139h9l20 139z" glyph-name="W" horiz-adv-x="1966" unicode="W"/><glyph d="M477 1434l264 -424l265 424h407l-463 -701l490 -733h-412l-287 461l-288 -461h-412l489 735l-462 699h409z" glyph-name="X" horiz-adv-x="1480" unicode="X"/><glyph d="M877 0h-351v549l-495 885h401l270 -568l269 568h401l-495 -885v-549z" glyph-name="Y" horiz-adv-x="1402" unicode="Y"/><glyph d="M1231 322v-322h-1129v311l672 799h-653v324h1100v-312l-672 -800h682z" glyph-name="Z" horiz-adv-x="1333" unicode="Z"/><glyph d="M709 -57v-312h-535v1805h535v-316h-201v-1177h201z" glyph-name="bracketleft" horiz-adv-x="800" unicode="["/><glyph d="M365 1436l419 -1436h-319l-424 1436h324z" glyph-name="backslash" horiz-adv-x="825" unicode="\"/><glyph d="M92 -369v312h201v1177h-201v316h535v-1805h-535z" glyph-name="bracketright" horiz-adv-x="800" unicode="]"/><glyph d="M467 1436h260l365 -803h-344l-150 399l-154 -399h-342z" glyph-name="asciicircum" horiz-adv-x="1193" unicode="^"/><glyph d="M0 -154h1212v-235h-1212v235z" glyph-name="underscore" horiz-adv-x="1212" unicode="_"/><glyph d="M604 1165h-305l-297 299h406z" glyph-name="grave" horiz-adv-x="604" unicode="`"/><glyph d="M403 -18q-147 0 -224 94t-77 250q0 332 349 331h178q0 117 -140 117t-260 -33l-49 -10l-30 258q192 55 390 55t304 -104t106 -262v-678h-288l-15 72q-12 -10 -32.5 -25.5t-84 -40t-127.5 -24.5zM629 426h-140q-77 0 -77 -88t55 -88t135 53l27 19v104z" glyph-name="a" horiz-adv-x="1083" unicode="a"/><glyph d="M143 1434h326v-445q82 47 186 47q164 0 264.5 -101t105.5 -263t-1 -324t-115.5 -265t-306.5 -103q-104 0 -219 17t-178 36l-62 16v1385zM589 756q-54 0 -120 -41v-430q49 -17 109 -17t90 25.5t32 58.5q6 156 0 316q-2 33 -29.5 60.5t-81.5 27.5z" glyph-name="b" horiz-adv-x="1140" unicode="b"/><glyph d="M570 266q126 0 241 25l39 6l41 -277q-189 -40 -367 -40t-289.5 103t-117.5 267t-1 326t117.5 265t289.5 103t300 -20l49 -6l-26 -279q-139 18 -287 19q-49 0 -82 -26.5t-35 -63.5q-8 -156 0 -312q2 -35 35 -62.5t93 -27.5z" glyph-name="c" horiz-adv-x="952" unicode="c"/><glyph d="M997 1434v-1434h-288l-15 72q-117 -92 -256 -92t-228 102t-94 263t1 325t102 265t279 101q81 0 153 -24l23 -6v428h323zM467 292.5q25 -26.5 76 -26.5t110 41l21 12v410q-62 27 -120 27t-85 -32t-29 -67q-8 -154 0 -305q2 -33 27 -59.5z" glyph-name="d" horiz-adv-x="1140" unicode="d"/><glyph d="M561 -20q-207 0 -322.5 103t-121.5 263t-1 324t124.5 269t305.5 105t305.5 -103t125.5 -251v-282h-541q0 -66 31 -111t101 -45q144 0 290 33l49 10l39 -258q-178 -57 -385 -57zM692 629q0 37 -2 47q-6 43 -38 74.5t-84 31.5t-87 -32.5t-41 -73.5l-2 -47h254z" glyph-name="e" horiz-adv-x="1081" unicode="e"/><glyph d="M41 737v287h133v109q0 145 90 233t248 88q102 0 225 -20l47 -7l-18 -266q-125 23 -215 23q-25 0 -38 -19.5t-13 -40.5v-100h258v-287h-258v-737h-326v737h-133z" glyph-name="f" horiz-adv-x="825" unicode="f"/><glyph d="M954 -84q0 -164 -117.5 -234.5t-338.5 -70.5q-102 0 -201.5 16.5t-149.5 32.5l-47 18l50 246q215 -68 350 -67q76 0 104.5 10.5t28.5 36.5t-8.5 37.5t-15.5 16.5t-23.5 12t-18.5 7l-161 72q-39 16 -63 55t-24 89v81q-225 66 -235 287q-4 82 0 166q6 141 110.5 229 t292.5 88q31 0 60 -6t43 -6l8 -2q66 111 173 111t175 -17l27 -6l-27 -213h-100l-12 -16q43 -53 47 -149t0 -187q-4 -92 -66.5 -168t-167.5 -109v-10q6 -39 31 -51q6 -2 60.5 -28.5t105 -59.5t80.5 -83t30 -128zM483 768q-49 0 -78.5 -22.5t-32.5 -67.5t0 -90q6 -88 113 -88 q104 0 110 88q3 45 0 90t-33 67.5t-79 22.5z" glyph-name="g" horiz-adv-x="1034" unicode="g"/><glyph d="M592.5 756q-54.5 0 -123.5 -43v-713h-326v1434h326v-445q96 47 201 47q168 0 258 -100t90 -258v-678h-322v657q0 41 -24.5 70t-79 29z" glyph-name="h" unicode="h"/><glyph d="M145 0v1024h324v-1024h-324zM143 1165v269h330v-269h-330z" glyph-name="i" horiz-adv-x="616" unicode="i"/><glyph d="M143 1165v269h332v-269h-332zM471 1024v-1092q0 -143 -90 -232t-248 -89q-82 0 -186 16l-39 4l26 279q94 -14 150 -14q63 0 63 63v1065h324z" glyph-name="j" horiz-adv-x="614" unicode="j"/><glyph d="M465 0h-322v1434h322v-742l260 332h377l-406 -481l455 -543h-403l-283 367v-367z" glyph-name="k" horiz-adv-x="1171" unicode="k"/><glyph d="M143 0v1434h324v-1434h-324z" glyph-name="l" horiz-adv-x="610" unicode="l"/><glyph d="M1070 756q-42 0 -105 -47v-709h-306v670q0 39 -22.5 61.5t-56.5 22.5t-93 -31l-18 -10v-713h-326v1024h289l14 -72q127 84 230 84q59 0 107 -19.5t69 -37.5l18 -21q154 78 277 78q164 0 250 -96t86 -268v-672h-322v672q0 35 -24.5 59.5t-66.5 24.5z" glyph-name="m" horiz-adv-x="1615" unicode="m"/><glyph d="M690 1044q328 0 328 -393v-651h-322v662q0 39 -23.5 66.5t-74.5 27.5t-113 -39l-18 -12v-705h-324v1024h289l14 -72q123 92 244 92z" glyph-name="n" unicode="n"/><glyph d="M563 -20q-205 0 -322.5 103t-123.5 265t-1 326t121.5 267t323.5 103t328 -104t127 -266t0 -325t-127 -266t-326 -103zM566 758q-56 0 -89 -28t-35 -62q-10 -158 0 -312q2 -35 35 -62.5t89 -27.5t89 28t35 62q10 154 0 312q-2 35 -35 62.5t-89 27.5z" glyph-name="o" horiz-adv-x="1132" unicode="o"/><glyph d="M143 -369v1393h289l14 -72q116 92 260 92t229 -98t90 -262t-1 -329t-102.5 -266t-278.5 -101q-85 0 -151 24l-25 11v-392h-324zM673.5 731.5q-24.5 26.5 -74.5 26.5t-112 -41l-20 -12v-410q63 -27 121 -27t84 32t28 67q8 152 0 305q-2 33 -26.5 59.5z" glyph-name="p" horiz-adv-x="1140" unicode="p"/><glyph d="M997 -369h-325v404q-82 -47 -187 -47q-164 0 -264 101t-105 263t1 324t115.5 265t306.5 103q104 0 218.5 -17t176.5 -36l63 -16v-1344zM550 268q52 0 122 41v430q-48 17 -108 17t-91 -25.5t-33 -58.5q-6 -156 0 -316q2 -33 30 -60.5t80 -27.5z" glyph-name="q" horiz-adv-x="1140" unicode="q"/><glyph d="M748 743q-74 0 -143.5 -21.5t-104.5 -41.5l-33 -23v-657h-324v1024h293l15 -76q38 32 126.5 62t170.5 32v-299z" glyph-name="r" horiz-adv-x="768" unicode="r"/><glyph d="M506 772q-86 0 -86 -55q0 -27 49 -45.5t119.5 -38t140.5 -49t119 -96t49 -164.5q0 -344 -420 -344q-90 0 -183 14t-140 31l-48 14l44 260q174 -47 278 -47t128 14.5t24 48.5q0 27 -49.5 45.5t-120 38t-140 50t-119 100t-49.5 172.5q0 160 106.5 241.5t270.5 81.5t320 -32 l47 -13l-37 -262q-186 35 -303 35z" glyph-name="s" horiz-adv-x="999" unicode="s"/><glyph d="M61 737v287h136v246h323v-246h246v-287h-246v-413q0 -23 15.5 -40.5t39.5 -17.5l166 17l19 -277q-152 -27 -254 -26q-154 0 -231.5 86t-77.5 225v446h-136z" glyph-name="t" horiz-adv-x="847" unicode="t"/><glyph d="M684 1024h324v-1024h-289l-14 72q-123 -92 -252 -92q-164 0 -242 105t-78 288v651h322v-662q0 -39 23.5 -66.5t74.5 -27.5t113 39l18 12v705z" glyph-name="u" unicode="u"/><glyph d="M360 1024l134 -553l30 -178h8l31 178l135 553h330l-319 -1024h-359l-319 1024h329z" glyph-name="v" horiz-adv-x="1058" unicode="v"/><glyph d="M598 1024h307l115 -551l16 -131h8l7 131l41 551h329l-153 -1024h-373l-123 526l-16 158h-8l-17 -158l-123 -526h-372l-154 1024h330l41 -547l6 -135h8l16 131z" glyph-name="w" horiz-adv-x="1503" unicode="w"/><glyph d="M422 1024l149 -244l148 244h360l-329 -496l350 -528h-363l-166 270l-168 -270h-362l350 530l-330 494h361z" glyph-name="x" horiz-adv-x="1140" unicode="x"/><glyph d="M356 82l-325 942h334l202 -649h8l220 649h325l-532 -1393h-318l170 414z" glyph-name="y" unicode="y"/><glyph d="M895 287v-287h-813v274l403 463h-385v287h787v-274l-404 -463h412z" glyph-name="z" horiz-adv-x="976" unicode="z"/><glyph d="M719 -61v-328q-233 0 -384 129t-151 373v182q0 37 -26.5 62.5t-75.5 25.5v299q51 0 76.5 24.5t25.5 63.5v184q0 244 150.5 372t384.5 128v-328q-88 0 -144.5 -47t-56.5 -125v-215q0 -68 -25.5 -120t-52.5 -70l-26 -19q65 -33 84.5 -97t19.5 -107v-213q0 -78 56.5 -126 t144.5 -48z" glyph-name="braceleft" horiz-adv-x="811" unicode="{"/><glyph d="M174 -369v1803h301v-1803h-301z" glyph-name="bar" horiz-adv-x="649" unicode="|"/><glyph d="M92 -389v328q88 0 144.5 48t56.5 126v213q0 68 25.5 119t52.5 67l26 18q-9 5 -56.5 49.5t-47.5 159.5v215q0 78 -56.5 125t-144.5 47v328q233 0 384 -128t151 -372v-184q0 -39 25.5 -63.5t76.5 -24.5v-299q-49 0 -75.5 -25.5t-26.5 -62.5v-182q0 -244 -151 -373 t-384 -129z" glyph-name="braceright" horiz-adv-x="811" unicode="}"/><glyph d="M500 805q74 0 209 -64.5t178 -64.5t77.5 26.5t84.5 102.5l206 -133q-49 -78 -74.5 -114t-93.5 -108.5t-202 -72.5q-80 0 -215 64.5t-177 64.5t-78 -26.5t-85 -102.5l-207 133q49 78 74.5 113.5t73.5 87t101.5 73t127.5 21.5z" glyph-name="asciitilde" horiz-adv-x="1378" unicode="~"/><glyph d="M504 555l45 -965h-385l45 965h295zM199 709v315h315v-315h-315z" glyph-name="exclamdown" horiz-adv-x="712" unicode="¡"/><glyph d="M420 -98v114q-129 35 -204 128.5t-79 215.5q-6 174 0 345q4 121 78 214t205 128v116h276v-104l197 -21l-27 -278q-139 18 -286 18q-49 0 -82 -26.5t-35 -63.5q-8 -156 0 -311q2 -35 34.5 -62.5t92.5 -27.5q133 0 241 24l39 6l41 -276q-100 -23 -215 -35v-104h-276z" glyph-name="cent" horiz-adv-x="1044" unicode="¢"/><glyph d="M154 573v304h96q-14 90 -14 157q0 213 138 315.5t376 102.5q142 0 319 -27l57 -8l-18 -315q-240 33 -339 33t-148.5 -33t-49.5 -92l17 -133h467v-304h-408q2 -41 2 -69t-11 -78.5t-24 -77.5l-12 -29h557v-319h-977v285q80 53 105.5 128.5t25.5 116.5l-4 43h-155z" glyph-name="sterling" horiz-adv-x="1282" unicode="£"/><glyph d="M620.5 1022q120.5 0 213.5 -57l110 108l156 -160l-135 -131q18 -63 18 -106v-170q0 -47 -16 -100l135 -132l-162 -161l-106 108q-96 -59 -223 -59t-203 57l-107 -104l-158 157l131 129q-14 49 -14 105v170q0 29 16 104l-131 133l160 160l107 -106q88 55 208.5 55z M727 492v198q0 92 -111 92q-47 0 -75.5 -23.5t-28.5 -68.5v-196q0 -45 29.5 -69t79.5 -24q106 1 106 91z" glyph-name="currency" horiz-adv-x="1245" unicode="¤"/><glyph d="M246 590v248h116l-280 596h401l234 -596h8l236 596h401l-281 -596h117v-248h-233l-60 -127h293v-248h-301v-215h-350v215h-301v248h293l-60 127h-233z" glyph-name="yen" horiz-adv-x="1443" unicode="¥"/><glyph d="M174 649v785h301v-785h-301zM174 -369v785h301v-785h-301z" glyph-name="brokenbar" horiz-adv-x="649" unicode="¦"/><glyph d="M1151 578q0 -70 -30.5 -130.5t-61.5 -87.5l-31 -24q39 -46 68.5 -118.5t29.5 -133.5q0 -205 -127 -305.5t-358 -100.5q-178 0 -362 35l-64 11l21 305q213 -41 401 -41q147 0 147 90q0 57 -92 76.5t-160.5 33t-136 39t-124 63.5t-92.5 108t-36 148t31 137.5t62 86.5l30 27 q-38 46 -68 117t-30 133q0 205 127 306t360 101q179 0 365 -33l61 -12l-20 -305q-231 41 -390 41t-159 -92q0 -41 65.5 -63.5t159.5 -42t188.5 -51.5t160 -112.5t65.5 -205.5zM467 594q0 -66 266 -111q70 -16 72 -16q23 31 22 72q0 65 -266 110q-37 6 -69 15 q-25 -37 -25 -70z" glyph-name="section" horiz-adv-x="1294" unicode="§"/><glyph d="M0 1165v269h287v-269h-287zM446 1165v269h287v-269h-287z" glyph-name="dieresis" horiz-adv-x="733" unicode="¨"/><glyph d="M854 348q-116 0 -189 72t-78 184t0 224t80.5 183.5t202.5 71.5q69 0 174 -14l29 -6l-20 -213q-89 10 -161 10t-77 -49q-6 -94 0 -190q2 -20 20.5 -36t70.5 -16t124 13l23 2l30 -211q-113 -25 -229 -25zM123 717q0 305 216 521t521 216t521 -216t216 -521t-216 -521 t-521 -216t-521 216t-216 521zM346 717q0 -213 150.5 -363.5t363.5 -150.5t363.5 150.5t150.5 363.5t-150.5 363.5t-363.5 150.5t-363.5 -150.5t-150.5 -363.5z" glyph-name="copyright" horiz-adv-x="1720" unicode="©"/><glyph d="M137 436v207h539v-207h-539zM317 764q-94 0 -144 61.5t-50 161.5q0 215 227 215h115q1 76 -91 76t-169 -21l-31 -6l-20 168q125 35 254 35t198.5 -67.5t69.5 -169.5v-441h-189l-10 45q-66 -57 -160 -57zM362 938q28 0 103 47v68h-90q-49 1 -49 -57t36 -58z" glyph-name="ordfeminine" horiz-adv-x="819" unicode="ª"/><glyph d="M784 229h-368l-283 357l283 358h368l-292 -356zM1358 229h-369l-282 357l282 358h369l-293 -356z" glyph-name="guillemotleft" horiz-adv-x="1501" unicode="«"/><glyph d="M1108 737v-610h-313v305h-631v305h944z" glyph-name="logicalnot" horiz-adv-x="1271" unicode="¬"/><glyph glyph-name="uni00AD" horiz-adv-x="1705" unicode="­"/><glyph d="M582 811v-182h-133v553h249q74 0 117 -38t46 -91t1 -107q-2 -76 -76 -117l127 -200h-147l-107 182h-77zM692 1063h-110v-139h110q33 0 41 39q2 35 0 69q-8 31 -41 31zM102 905q0 225 162 387t388 162t387 -162t161 -387t-161 -387t-387 -162t-388 162t-162 387zM244 905 q0 -170 118.5 -288.5t288.5 -118.5t289 118.5t119 288.5t-119 289t-289 119t-288.5 -119t-118.5 -289z" glyph-name="registered" horiz-adv-x="1302" unicode="®"/><glyph d="M0 1165v269h702v-269h-702z" glyph-name="macron" horiz-adv-x="704" unicode="¯"/><glyph d="M102 1119q0 138 98.5 236.5t236.5 98.5t236.5 -98.5t98.5 -236.5t-98.5 -236.5t-236.5 -98.5t-236.5 98.5t-98.5 236.5zM311 1120q0 -51 37 -89t89 -38t90 38t38 89t-38 89t-89 38t-89 -38t-38 -89z" glyph-name="degree" horiz-adv-x="874" unicode="°"/><glyph d="M1137 303v-303h-994v303h994zM483 1241h312v-250h342v-305h-342v-250h-312v250h-340v305h340v250z" glyph-name="plusminus" horiz-adv-x="1280" unicode="±"/><glyph d="M440 1452q324 0 324 -291q0 -158 -135 -274l-144 -125h281v-236h-643v222l330 296q39 35 52 57.5t13 57.5q0 61 -94 62q-64 0 -219 -33l-45 -12l-10 231q160 45 290 45z" glyph-name="uni00B2" horiz-adv-x="888" unicode="²"/><glyph d="M131 1200v234h621v-191l-129 -147q158 -63 157 -267q0 -96 -33.5 -165.5t-114 -119.5t-212.5 -50t-256 38l-41 15l14 235q175 -53 283 -53t108 90q0 76 -108 76h-111v174l113 131h-291z" glyph-name="uni00B3" horiz-adv-x="903" unicode="³"/><glyph d="M307 1165h-305l197 299h405z" glyph-name="acute" horiz-adv-x="604" unicode="´"/><glyph d="M570 -10q-77 0 -111 37v-396h-316v1393h316v-662q0 -39 26.5 -66.5t78.5 -27.5t118 39l20 12v705h316v-1024h-277l-14 72q-80 -82 -157 -82z" glyph-name="uni00B5" horiz-adv-x="1161" unicode="µ"/><glyph d="M457 -369v928q-150 35 -252.5 157t-102.5 271q0 186 131.5 316.5t317.5 130.5h528v-1803h-198v1481h-129v-1481h-295z" glyph-name="paragraph" horiz-adv-x="1253" unicode="¶"/><glyph d="M164 428v315h315v-315h-315z" glyph-name="periodcentered" horiz-adv-x="643" unicode="·"/><glyph d="M502 -226q0 -74 -63.5 -118.5t-169.5 -44.5t-187 18l-27 6l15 121q80 -14 161 -14q20 0 35 15.5t15 36.5t-13.5 34.5t-31.5 13.5h-127l41 158h208l-12 -55q47 -4 77 -15.5t54.5 -46.5t24.5 -109z" glyph-name="cedilla" horiz-adv-x="501" unicode="¸"/><glyph d="M485 1434v-908h-254v629l-129 -63v251l181 91h202z" glyph-name="uni00B9" horiz-adv-x="628" unicode="¹"/><glyph d="M152 436v207h538v-207h-538zM416 762q-133 0 -210 68t-81 172t0 210t80 174t210 68t212 -67t82 -173t0 -212t-82 -173t-211 -67zM417 1276q-36 0 -57.5 -18.5t-23.5 -40.5q-6 -109 0 -218q2 -23 23.5 -41t57.5 -18t57.5 18.5t23.5 40.5q6 109 0 218q-2 23 -23.5 41 t-57.5 18z" glyph-name="ordmasculine" horiz-adv-x="833" unicode="º"/><glyph d="M1085 229h-368l293 359l-293 356h368l283 -358zM512 229h-369l293 359l-293 356h369l283 -358z" glyph-name="guillemotright" horiz-adv-x="1501" unicode="»"/><glyph d="M436 0l656 1434h219l-649 -1434h-226zM1071 172v188l248 551h274l-243 -534h186v198h246v-198h73v-205h-73v-172h-246v172h-465zM526 1434v-908h-254v629l-129 -63v251l181 91h202z" glyph-name="onequarter" horiz-adv-x="1998" unicode="¼"/><glyph d="M1534 926q324 0 324 -291q0 -158 -136 -275l-143 -124h281v-236h-643v221l329 297q39 35 52.5 57.5t13.5 57.5q0 61 -92 61t-222 -35l-45 -10l-10 232q160 45 291 45zM526 1434v-908h-254v629l-129 -63v251l181 91h202zM436 0l656 1434h219l-649 -1434h-226zM272 526h254 v908h-202l-181 -91v-251l129 63v-629z" glyph-name="onehalf" horiz-adv-x="2002" unicode="½"/><glyph d="M621 0l655 1434h219l-649 -1434h-225zM1255 172v188l248 551h275l-244 -534h186v198h246v-198h74v-205h-74v-172h-246v172h-465zM152 1200v234h620v-191l-129 -147q158 -63 158 -267q0 -96 -34 -165.5t-114 -119.5t-213 -50t-256 38l-41 15l15 235q174 -53 282 -53 t109 90q0 76 -109 76h-110v174l112 131h-290z" glyph-name="threequarters" horiz-adv-x="2183" unicode="¾"/><glyph d="M586 -430q-217 0 -350.5 96t-133.5 309q0 109 34 186t84 112.5t109.5 66.5t109.5 51.5t84 61.5t34 102h291q0 -117 -30 -200t-74 -121.5t-96 -69.5t-96 -47.5t-73.5 -49t-29.5 -79.5q0 -119 177 -119t414 65l27 -294l-68 -17q-70 -18 -190.5 -35.5t-222.5 -17.5z M858 1024v-315h-315v315h315z" glyph-name="questiondown" horiz-adv-x="1169" unicode="¿"/><glyph d="M492 1434h403l453 -1434h-361l-86 301h-416l-86 -301h-358zM813 610l-119 434l-121 -434h240zM856 1575h-305l-297 299h405z" glyph-name="Agrave" horiz-adv-x="1388" unicode="À"/><glyph d="M492 1434h403l453 -1434h-361l-86 301h-416l-86 -301h-358zM813 610l-119 434l-121 -434h240zM834 1575h-306l197 299h405z" glyph-name="Aacute" horiz-adv-x="1388" unicode="Á"/><glyph d="M492 1434h403l453 -1434h-361l-86 301h-416l-86 -301h-358zM813 610l-119 434l-121 -434h240zM594 1575h-289l227 299h324l227 -299h-288l-103 121z" glyph-name="Acircumflex" horiz-adv-x="1388" unicode="Â"/><glyph d="M492 1434h403l453 -1434h-361l-86 301h-416l-86 -301h-358zM813 610l-119 434l-121 -434h240zM313 1556q0 127 54.5 222.5t146.5 95.5t182 -47t119 -47q53 0 53 86h205q0 -127 -52.5 -221.5t-146.5 -94.5t-183 46t-116 46q-55 0 -61 -86h-201z" glyph-name="Atilde" horiz-adv-x="1388" unicode="Ã"/><glyph d="M492 1434h403l453 -1434h-361l-86 301h-416l-86 -301h-358zM813 610l-119 434l-121 -434h240zM328 1575v268h286v-268h-286zM774 1575v268h287v-268h-287z" glyph-name="Adieresis" horiz-adv-x="1388" unicode="Ä"/><glyph d="M492 1434h403l453 -1434h-361l-86 301h-416l-86 -301h-358zM813 610l-119 434l-121 -434h240zM477 1692q0 86 61.5 146t151.5 60t155.5 -60t65.5 -145t-65.5 -145.5t-155.5 -60.5t-151.5 59.5t-61.5 145.5zM618 1691.5q0 -30.5 22 -52t52.5 -21.5t52 21.5t21.5 52 t-21.5 52t-52 21.5t-52.5 -21.5t-22 -52z" glyph-name="Aring" horiz-adv-x="1388" unicode="Å"/><glyph d="M1954 1434v-324h-615v-223h557v-303h-557v-262h633v-322h-983v301h-446l-156 -301h-367l777 1434h1157zM989 610v500h-31l-253 -500h284z" glyph-name="AE" horiz-adv-x="2105" unicode="Æ"/><glyph d="M707 1454q-248 0 -407 -144t-164 -368t0 -449t162.5 -369t389.5 -144t447 55l-13 313l-57 -12q-172 -35 -358 -35q-100 0 -159 53.5t-61 126.5q-6 236 0 471q2 74 62.5 127.5t157.5 53.5q180 0 397 -37l12 313l-55 12q-188 33 -354 33zM973 -226q0 -74 -63.5 -118.5 t-169.5 -44.5t-187 18l-27 6l15 121q80 -14 161 -14q20 0 35 15.5t15 36.5t-13.5 34.5t-31.5 13.5h-127l41 158h208l-12 -55q47 -4 77 -15.5t54.5 -46.5t24.5 -109z" glyph-name="Ccedilla" horiz-adv-x="1236" unicode="Ç"/><glyph d="M174 1434h1026v-324h-676v-223h619v-303h-619v-262h695v-322h-1045v1434zM903 1575h-305l-297 299h406z" glyph-name="Egrave" horiz-adv-x="1351" unicode="È"/><glyph d="M174 1434h1026v-324h-676v-223h619v-303h-619v-262h695v-322h-1045v1434zM795 1575h-306l197 299h406z" glyph-name="Eacute" horiz-adv-x="1351" unicode="É"/><glyph d="M174 1434h1026v-324h-676v-223h619v-303h-619v-262h695v-322h-1045v1434zM575 1575h-288l227 299h324l227 -299h-289l-102 121z" glyph-name="Ecircumflex" horiz-adv-x="1351" unicode="Ê"/><glyph d="M174 1434h1026v-324h-676v-223h619v-303h-619v-262h695v-322h-1045v1434zM309 1575v268h287v-268h-287zM756 1575v268h286v-268h-286z" glyph-name="Edieresis" horiz-adv-x="1351" unicode="Ë"/><glyph d="M524 1434v-1434h-350v1434h350zM508 1575h-305l-297 299h405z" glyph-name="Igrave" horiz-adv-x="698" unicode="Ì"/><glyph d="M524 1434v-1434h-350v1434h350zM475 1575h-305l197 299h405z" glyph-name="Iacute" horiz-adv-x="698" unicode="Í"/><glyph d="M524 1434v-1434h-350v1434h350zM250 1575h-289l227 299h324l227 -299h-288l-103 121z" glyph-name="Icircumflex" horiz-adv-x="698" unicode="Î"/><glyph d="M524 1434v-1434h-350v1434h350zM-16 1575v268h286v-268h-286zM430 1575v268h287v-268h-287z" glyph-name="Idieresis" horiz-adv-x="698" unicode="Ï"/><glyph d="M180 0v580h-108v313h108v541h541q252 0 411.5 -137t164.5 -361t0 -444t-163.5 -356t-412.5 -136h-541zM774 580h-248v-258h195q102 0 160.5 46t60.5 115q6 236 0 467q-2 68 -62.5 114t-158.5 46h-195v-217h248v-313z" glyph-name="Eth" horiz-adv-x="1433" unicode="Ð"/><glyph d="M977 1434h346v-1434h-352l-387 670l-80 182l16 -188v-664h-346v1434h352l387 -670l80 -182l-16 194v658zM369 1556q0 127 54 222.5t147 95.5t183.5 -47t116.5 -47q53 0 54 86h204q0 -127 -53 -221.5t-146 -94.5t-182.5 46t-115.5 46q-56 0 -62 -86h-200z" glyph-name="Ntilde" horiz-adv-x="1497" unicode="Ñ"/><glyph d="M1325 710.5q0 -161.5 -4 -231.5q-14 -207 -180 -353t-412 -146t-408.5 144t-181.5 355q-6 70 -6 231.5t6 243.5q16 209 181 354.5t413 145.5t412 -144.5t176 -355.5q4 -82 4 -243.5zM975 715q0 167 -4 237t-69.5 129.5t-171.5 59.5t-171 -59.5t-69 -129.5t-4.5 -236.5 t3.5 -236.5t69 -128t172 -58t172 57.5t69 127.5t4 237zM885 1575h-305l-297 299h405z" glyph-name="Ograve" horiz-adv-x="1460" unicode="Ò"/><glyph d="M1325 710.5q0 -161.5 -4 -231.5q-14 -207 -180 -353t-412 -146t-408.5 144t-181.5 355q-6 70 -6 231.5t6 243.5q16 209 181 354.5t413 145.5t412 -144.5t176 -355.5q4 -82 4 -243.5zM975 715q0 167 -4 237t-69.5 129.5t-171.5 59.5t-171 -59.5t-69 -129.5t-4.5 -236.5 t3.5 -236.5t69 -128t172 -58t172 57.5t69 127.5t4 237zM844 1575h-305l196 299h406z" glyph-name="Oacute" horiz-adv-x="1460" unicode="Ó"/><glyph d="M1325 710.5q0 -161.5 -4 -231.5q-14 -207 -180 -353t-412 -146t-408.5 144t-181.5 355q-6 70 -6 231.5t6 243.5q16 209 181 354.5t413 145.5t412 -144.5t176 -355.5q4 -82 4 -243.5zM975 715q0 167 -4 237t-69.5 129.5t-171.5 59.5t-171 -59.5t-69 -129.5t-4.5 -236.5 t3.5 -236.5t69 -128t172 -58t172 57.5t69 127.5t4 237zM629 1575h-289l227 299h324l227 -299h-289l-102 121z" glyph-name="Ocircumflex" horiz-adv-x="1460" unicode="Ô"/><glyph d="M1325 710.5q0 -161.5 -4 -231.5q-14 -207 -180 -353t-412 -146t-408.5 144t-181.5 355q-6 70 -6 231.5t6 243.5q16 209 181 354.5t413 145.5t412 -144.5t176 -355.5q4 -82 4 -243.5zM975 715q0 167 -4 237t-69.5 129.5t-171.5 59.5t-171 -59.5t-69 -129.5t-4.5 -236.5 t3.5 -236.5t69 -128t172 -58t172 57.5t69 127.5t4 237zM350 1556q0 127 54.5 222.5t146.5 95.5t182 -47t119 -47q53 0 53 86h205q0 -127 -53 -221.5t-147 -94.5t-182.5 46t-115.5 46q-55 0 -61 -86h-201z" glyph-name="Otilde" horiz-adv-x="1460" unicode="Õ"/><glyph d="M1325 710.5q0 -161.5 -4 -231.5q-14 -207 -180 -353t-412 -146t-408.5 144t-181.5 355q-6 70 -6 231.5t6 243.5q16 209 181 354.5t413 145.5t412 -144.5t176 -355.5q4 -82 4 -243.5zM975 715q0 167 -4 237t-69.5 129.5t-171.5 59.5t-171 -59.5t-69 -129.5t-4.5 -236.5 t3.5 -236.5t69 -128t172 -58t172 57.5t69 127.5t4 237zM362 1575v268h287v-268h-287zM809 1575v268h287v-268h-287z" glyph-name="Odieresis" horiz-adv-x="1460" unicode="Ö"/><glyph d="M358 143l-213 213l234 234l-236 239l213 215l238 -239l237 237l216 -213l-238 -239l233 -234l-213 -213l-235 234z" glyph-name="multiply" horiz-adv-x="1189" unicode="×"/><glyph d="M141 710.5q0 161.5 6 243.5q16 209 181.5 354.5t410.5 145.5q147 0 273 -57l24 39h312l-125 -201q98 -127 106 -281q4 -82 4 -243.5t-4 -231.5q-14 -207 -180 -353t-410 -146q-150 0 -272 55l-23 -35h-311l125 199q-98 123 -111 280q-6 70 -6 231.5zM567.5 1081.5 q-65.5 -59.5 -71.5 -144.5t-2 -364l346 549q-43 18 -101 19q-106 0 -171.5 -59.5zM739 293q106 0 171 57t69 135q8 127 4 371l-344 -547q45 -16 100 -16z" glyph-name="Oslash" horiz-adv-x="1480" unicode="Ø"/><glyph d="M983 1434h348v-953q0 -215 -167 -358t-422 -143t-421.5 142t-166.5 359v953h350v-938q0 -92 65.5 -144.5t174 -52.5t174 51t65.5 146v938zM897 1575h-305l-297 299h405z" glyph-name="Ugrave" horiz-adv-x="1484" unicode="Ù"/><glyph d="M983 1434h348v-953q0 -215 -167 -358t-422 -143t-421.5 142t-166.5 359v953h350v-938q0 -92 65.5 -144.5t174 -52.5t174 51t65.5 146v938zM887 1575h-305l196 299h406z" glyph-name="Uacute" horiz-adv-x="1484" unicode="Ú"/><glyph d="M983 1434h348v-953q0 -215 -167 -358t-422 -143t-421.5 142t-166.5 359v953h350v-938q0 -92 65.5 -144.5t174 -52.5t174 51t65.5 146v938zM641 1575h-289l228 299h323l227 -299h-288l-103 121z" glyph-name="Ucircumflex" horiz-adv-x="1484" unicode="Û"/><glyph d="M983 1434h348v-953q0 -215 -167 -358t-422 -143t-421.5 142t-166.5 359v953h350v-938q0 -92 65.5 -144.5t174 -52.5t174 51t65.5 146v938zM375 1575v268h287v-268h-287zM821 1575v268h287v-268h-287z" glyph-name="Udieresis" horiz-adv-x="1484" unicode="Ü"/><glyph d="M877 0h-351v549l-495 885h401l270 -568l269 568h401l-495 -885v-549zM836 1575h-306l197 299h406z" glyph-name="Yacute" horiz-adv-x="1402" unicode="Ý"/><glyph d="M174 0v1434h281v-162h338q199 0 305 -98t113 -250t0 -304t-113.5 -250t-304.5 -98h-271v-272h-348zM786 948h-264v-356h264q41 0 62.5 19t23.5 44q6 117 0 232q-2 23 -23.5 42t-62.5 19z" glyph-name="Thorn" horiz-adv-x="1298" unicode="Þ"/><glyph d="M742 254q56 0 84 23.5t28 55.5t-28.5 63.5t-70.5 60t-113 91t-71 216.5q0 109 66 180.5t111 93.5l20 11v32q0 47 -47 80t-107 33t-107.5 -33t-47.5 -80v-1081h-316v1055q0 176 133.5 287.5t329.5 111.5t329.5 -113.5t133.5 -285.5v-137q-119 -30 -153.5 -69.5 t-34.5 -71.5t29.5 -63.5t72.5 -60t86 -65.5t72.5 -101.5t29.5 -148.5q0 -358 -419 -358q-74 0 -174 20l-33 8l33 262q108 -16 164 -16z" glyph-name="germandbls" horiz-adv-x="1253" unicode="ß"/><glyph d="M403 -18q-147 0 -224 94t-77 250q0 332 349 331h178q0 117 -140 117t-260 -33l-49 -10l-30 258q192 55 390 55t304 -104t106 -262v-678h-288l-15 72q-12 -10 -32.5 -25.5t-84 -40t-127.5 -24.5zM629 426h-140q-77 0 -77 -88t55 -88t135 53l27 19v104zM700 1165h-305 l-297 299h406z" glyph-name="agrave" horiz-adv-x="1083" unicode="à"/><glyph d="M403 -18q-147 0 -224 94t-77 250q0 332 349 331h178q0 117 -140 117t-260 -33l-49 -10l-30 258q192 55 390 55t304 -104t106 -262v-678h-288l-15 72q-12 -10 -32.5 -25.5t-84 -40t-127.5 -24.5zM629 426h-140q-77 0 -77 -88t55 -88t135 53l27 19v104zM655 1165h-305 l197 299h405z" glyph-name="aacute" horiz-adv-x="1083" unicode="á"/><glyph d="M403 -18q-147 0 -224 94t-77 250q0 332 349 331h178q0 117 -140 117t-260 -33l-49 -10l-30 258q192 55 390 55t304 -104t106 -262v-678h-288l-15 72q-12 -10 -32.5 -25.5t-84 -40t-127.5 -24.5zM629 426h-140q-77 0 -77 -88t55 -88t135 53l27 19v104zM440 1165h-288 l227 299h323l228 -299h-289l-102 121z" glyph-name="acircumflex" horiz-adv-x="1083" unicode="â"/><glyph d="M403 -18q-147 0 -224 94t-77 250q0 332 349 331h178q0 117 -140 117t-260 -33l-49 -10l-30 258q192 55 390 55t304 -104t106 -262v-678h-288l-15 72q-12 -10 -32.5 -25.5t-84 -40t-127.5 -24.5zM629 426h-140q-77 0 -77 -88t55 -88t135 53l27 19v104zM162 1147 q0 127 54 222t146 95t182.5 -47t119.5 -47q53 0 53 86h205q0 -127 -53.5 -221t-146.5 -94t-182 46t-116 46q-56 0 -62 -86h-200z" glyph-name="atilde" horiz-adv-x="1083" unicode="ã"/><glyph d="M403 -18q-147 0 -224 94t-77 250q0 332 349 331h178q0 117 -140 117t-260 -33l-49 -10l-30 258q192 55 390 55t304 -104t106 -262v-678h-288l-15 72q-12 -10 -32.5 -25.5t-84 -40t-127.5 -24.5zM629 426h-140q-77 0 -77 -88t55 -88t135 53l27 19v104zM174 1165v269h287 v-269h-287zM621 1165v269h286v-269h-286z" glyph-name="adieresis" horiz-adv-x="1083" unicode="ä"/><glyph d="M403 -18q-147 0 -224 94t-77 250q0 332 349 331h178q0 117 -140 117t-260 -33l-49 -10l-30 258q192 55 390 55t304 -104t106 -262v-678h-288l-15 72q-12 -10 -32.5 -25.5t-84 -40t-127.5 -24.5zM629 426h-140q-77 0 -77 -88t55 -88t135 53l27 19v104zM324 1282 q0 86 61 146.5t151 60.5t156 -60.5t66 -145.5t-65.5 -145.5t-155.5 -60.5t-151.5 59.5t-61.5 145.5zM465 1282q0 -31 21.5 -52.5t52 -21.5t52 21.5t21.5 52.5t-21.5 52.5t-52 21.5t-52 -21.5t-21.5 -52.5z" glyph-name="aring" horiz-adv-x="1083" unicode="å"/><glyph d="M1067 -20q-90 0 -167 26.5t-109 52.5l-31 27q-50 -38 -152 -72t-184 -34q-160 0 -241 94t-81 251t83 232.5t266 75.5h178q0 53 -31 97t-97 44q-153 0 -272 -33l-49 -10l-30 258q193 55 393 55q68 0 132 -20t95 -41l31 -18q104 79 275 79t282.5 -102t118.5 -252v-282h-523 q0 -66 31 -111t101 -45q144 0 278 33l43 10l39 -258q-160 -57 -379 -57zM469 231q29 0 69 17.5t64 36.5l27 18v105h-140q-77 0 -77 -88t57 -89zM1196 629q0 37 -5 63t-33 58t-80 32t-81.5 -31.5t-38.5 -74.5l-2 -47h240z" glyph-name="ae" horiz-adv-x="1581" unicode="æ"/><glyph d="M795 -226q0 -74 -63.5 -118.5t-171.5 -44.5t-185 18l-27 6l14 121q80 -14 162 -14q20 0 34.5 15.5t14.5 36.5t-13 34.5t-32 13.5h-127l37 146q-147 25 -232 121.5t-90 250.5t0 316t117.5 265t289.5 103t300 -20l49 -6l-26 -279q-139 18 -287 19q-49 0 -82 -26.5 t-35 -63.5q-8 -156 0 -312q2 -35 35 -62.5t93 -27.5q126 0 241 25l39 6l41 -277q-117 -25 -244 -34l-8 -41q47 -4 76.5 -15.5t54.5 -46.5t25 -109z" glyph-name="ccedilla" horiz-adv-x="952" unicode="ç"/><glyph d="M561 -20q-207 0 -322.5 103t-121.5 263t-1 324t124.5 269t305.5 105t305.5 -103t125.5 -251v-282h-541q0 -66 31 -111t101 -45q144 0 290 33l49 10l39 -258q-178 -57 -385 -57zM692 629q0 37 -2 47q-6 43 -38 74.5t-84 31.5t-87 -32.5t-41 -73.5l-2 -47h254zM735 1165 h-305l-297 299h406z" glyph-name="egrave" horiz-adv-x="1081" unicode="è"/><glyph d="M561 -20q-207 0 -322.5 103t-121.5 263t-1 324t124.5 269t305.5 105t305.5 -103t125.5 -251v-282h-541q0 -66 31 -111t101 -45q144 0 290 33l49 10l39 -258q-178 -57 -385 -57zM692 629q0 37 -2 47q-6 43 -38 74.5t-84 31.5t-87 -32.5t-41 -73.5l-2 -47h254zM676 1165 h-305l196 299h406z" glyph-name="eacute" horiz-adv-x="1081" unicode="é"/><glyph d="M561 -20q-207 0 -322.5 103t-121.5 263t-1 324t124.5 269t305.5 105t305.5 -103t125.5 -251v-282h-541q0 -66 31 -111t101 -45q144 0 290 33l49 10l39 -258q-178 -57 -385 -57zM692 629q0 37 -2 47q-6 43 -38 74.5t-84 31.5t-87 -32.5t-41 -73.5l-2 -47h254zM440 1165 h-288l227 299h323l228 -299h-289l-102 121z" glyph-name="ecircumflex" horiz-adv-x="1081" unicode="ê"/><glyph d="M561 -20q-207 0 -322.5 103t-121.5 263t-1 324t124.5 269t305.5 105t305.5 -103t125.5 -251v-282h-541q0 -66 31 -111t101 -45q144 0 290 33l49 10l39 -258q-178 -57 -385 -57zM692 629q0 37 -2 47q-6 43 -38 74.5t-84 31.5t-87 -32.5t-41 -73.5l-2 -47h254zM174 1165 v269h287v-269h-287zM621 1165v269h286v-269h-286z" glyph-name="edieresis" horiz-adv-x="1081" unicode="ë"/><glyph d="M145 0v1024h324v-1024h-324zM463 1165h-305l-297 299h405z" glyph-name="igrave" horiz-adv-x="616" unicode="ì"/><glyph d="M145 0v1024h324v-1024h-324zM444 1165h-305l197 299h405z" glyph-name="iacute" horiz-adv-x="616" unicode="í"/><glyph d="M145 0v1024h324v-1024h-324zM209 1165h-289l227 299h324l227 -299h-288l-103 121z" glyph-name="icircumflex" horiz-adv-x="616" unicode="î"/><glyph d="M145 0v1024h324v-1024h-324zM-57 1165v269h286v-269h-286zM389 1165v269h287v-269h-287z" glyph-name="idieresis" horiz-adv-x="616" unicode="ï"/><glyph d="M486 1454q90 0 173.5 -28.5t118.5 -57.5l33 -31l182 95v-224l-75 -34q29 -59 64 -237.5t22 -584.5q-4 -158 -127 -265t-323 -107t-315.5 104t-121.5 268q-4 123 0 255t113.5 235.5t283.5 103.5q59 0 116.5 -9t59.5 -11q0 66 -24 123l-158 -80v190l45 25q-49 26 -106 26 t-142 -18l-20 250q111 12 201 12zM561 285q55 0 90 22.5t35 59.5v282q-52 19 -116 19t-98 -23.5t-36 -58.5q-4 -111 0 -219q2 -35 36 -58.5t89 -23.5z" glyph-name="eth" horiz-adv-x="1130" unicode="ð"/><glyph d="M690 1044q328 0 328 -393v-651h-322v662q0 39 -23.5 66.5t-74.5 27.5t-113 -39l-18 -12v-705h-324v1024h289l14 -72q123 92 244 92zM195 1147q0 127 54 222t147 95t183.5 -47t116.5 -47q53 0 54 86h204q0 -127 -53 -221t-146 -94t-182.5 46t-115.5 46q-56 0 -62 -86h-200 z" glyph-name="ntilde" unicode="ñ"/><glyph d="M563 -20q-205 0 -322.5 103t-123.5 265t-1 326t121.5 267t323.5 103t328 -104t127 -266t0 -325t-127 -266t-326 -103zM566 758q-56 0 -89 -28t-35 -62q-10 -158 0 -312q2 -35 35 -62.5t89 -27.5t89 28t35 62q10 154 0 312q-2 35 -35 62.5t-89 27.5zM735 1165h-305 l-297 299h406z" glyph-name="ograve" horiz-adv-x="1132" unicode="ò"/><glyph d="M563 -20q-205 0 -322.5 103t-123.5 265t-1 326t121.5 267t323.5 103t328 -104t127 -266t0 -325t-127 -266t-326 -103zM566 758q-56 0 -89 -28t-35 -62q-10 -158 0 -312q2 -35 35 -62.5t89 -27.5t89 28t35 62q10 154 0 312q-2 35 -35 62.5t-89 27.5zM682 1165h-305 l196 299h406z" glyph-name="oacute" horiz-adv-x="1132" unicode="ó"/><glyph d="M563 -20q-205 0 -322.5 103t-123.5 265t-1 326t121.5 267t323.5 103t328 -104t127 -266t0 -325t-127 -266t-326 -103zM566 758q-56 0 -89 -28t-35 -62q-10 -158 0 -312q2 -35 35 -62.5t89 -27.5t89 28t35 62q10 154 0 312q-2 35 -35 62.5t-89 27.5zM465 1165h-289 l227 299h324l227 -299h-288l-103 121z" glyph-name="ocircumflex" horiz-adv-x="1132" unicode="ô"/><glyph d="M563 -20q-205 0 -322.5 103t-123.5 265t-1 326t121.5 267t323.5 103t328 -104t127 -266t0 -325t-127 -266t-326 -103zM566 758q-56 0 -89 -28t-35 -62q-10 -158 0 -312q2 -35 35 -62.5t89 -27.5t89 28t35 62q10 154 0 312q-2 35 -35 62.5t-89 27.5zM186 1147 q0 127 54.5 222t146.5 95t182 -47t119 -47q53 0 53 86h205q0 -127 -53 -221t-147 -94t-182.5 46t-114.5 46q-56 0 -62 -86h-201z" glyph-name="otilde" horiz-adv-x="1132" unicode="õ"/><glyph d="M563 -20q-205 0 -322.5 103t-123.5 265t-1 326t121.5 267t323.5 103t328 -104t127 -266t0 -325t-127 -266t-326 -103zM566 758q-56 0 -89 -28t-35 -62q-10 -158 0 -312q2 -35 35 -62.5t89 -27.5t89 28t35 62q10 154 0 312q-2 35 -35 62.5t-89 27.5zM199 1165v269h286 v-269h-286zM645 1165v269h287v-269h-287z" glyph-name="odieresis" horiz-adv-x="1132" unicode="ö"/><glyph d="M483 55v275h314v-275h-314zM143 743h994v-299h-994v299zM483 856v274h314v-274h-314z" glyph-name="divide" horiz-adv-x="1280" unicode="÷"/><glyph d="M575 1044q129 0 234 -49l20 29h248l-112 -160q53 -80 59 -182q6 -170 0 -333t-127 -266t-322 -103q-127 0 -225 40l-14 -20h-252l106 145q-61 88 -65 197q-6 168 -1 332t121.5 267t329.5 103zM562 782q-52 0 -90 -30.5t-40 -67.5q-6 -115 -4 -211l215 297q-29 12 -81 12z M590 242q48 0 86.5 30.5t40.5 67.5q4 119 4 188l-203 -280q24 -6 72 -6z" glyph-name="oslash" horiz-adv-x="1148" unicode="ø"/><glyph d="M684 1024h324v-1024h-289l-14 72q-123 -92 -252 -92q-164 0 -242 105t-78 288v651h322v-662q0 -39 23.5 -66.5t74.5 -27.5t113 39l18 12v705zM727 1165h-305l-297 299h405z" glyph-name="ugrave" unicode="ù"/><glyph d="M684 1024h324v-1024h-289l-14 72q-123 -92 -252 -92q-164 0 -242 105t-78 288v651h322v-662q0 -39 23.5 -66.5t74.5 -27.5t113 39l18 12v705zM711 1165h-305l196 299h406z" glyph-name="uacute" unicode="ú"/><glyph d="M684 1024h324v-1024h-289l-14 72q-123 -92 -252 -92q-164 0 -242 105t-78 288v651h322v-662q0 -39 23.5 -66.5t74.5 -27.5t113 39l18 12v705zM475 1165h-289l228 299h323l228 -299h-289l-103 121z" glyph-name="ucircumflex" unicode="û"/><glyph d="M684 1024h324v-1024h-289l-14 72q-123 -92 -252 -92q-164 0 -242 105t-78 288v651h322v-662q0 -39 23.5 -66.5t74.5 -27.5t113 39l18 12v705zM209 1165v269h287v-269h-287zM655 1165v269h287v-269h-287z" glyph-name="udieresis" unicode="ü"/><glyph d="M356 82l-325 942h334l202 -649h8l220 649h325l-532 -1393h-318l170 414zM721 1165h-305l196 299h406z" glyph-name="yacute" unicode="ý"/><glyph d="M143 -369v1805h324v-467q95 75 239 75t229 -98t90 -262t-1 -329t-102.5 -266t-278.5 -101q-85 0 -151 24l-25 11v-392h-324zM673.5 731.5q-24.5 26.5 -74.5 26.5t-112 -41l-20 -12v-410q63 -27 121 -27t84 32t28 67q8 152 0 305q-2 33 -26.5 59.5z" glyph-name="thorn" horiz-adv-x="1140" unicode="þ"/><glyph d="M356 82l-325 942h334l202 -649h8l220 649h325l-532 -1393h-318l170 414zM209 1165v269h287v-269h-287zM655 1165v269h287v-269h-287z" glyph-name="ydieresis" unicode="ÿ"/><glyph d="M145 0v1024h324v-1024h-324z" glyph-name="dotlessi" horiz-adv-x="616" unicode="ı"/><glyph d="M524 322h615v-322h-965v395l-104 -59v323l104 60v715h350v-516l342 194v-324l-342 -194v-272z" glyph-name="Lslash" horiz-adv-x="1179" unicode="Ł"/><glyph d="M156 1434h323v-445l158 88v-323l-158 -90v-664h-323v483l-105 -59v326l105 57v627z" glyph-name="lslash" horiz-adv-x="677" unicode="ł"/><glyph d="M705 1434h1161v-324h-647v-223h589v-303h-589v-262h665v-322h-1179q-250 0 -406 136t-162 343q-6 240 -1 460t163 357.5t406 137.5zM705 322h167v788h-167q-96 0 -156 -46t-62 -114q-6 -236 0 -467q2 -70 59.5 -115.5t158.5 -45.5z" glyph-name="OE" horiz-adv-x="2017" unicode="Œ"/><glyph d="M1132 -20q-190 0 -303 79q-117 -80 -278 -79q-201 0 -314.5 103t-119.5 265t-1 326t117.5 267t298.5 103t299 -81q115 81 284 81t287 -103t124 -251v-282h-531q0 -66 30.5 -111t98.5 -45q138 0 285 33l47 10l39 -258q-173 -57 -363 -57zM550 758q-54 0 -86 -28t-34 -62 q-10 -158 0 -312q2 -35 34 -62.5t86 -27.5t86 28t34 62q10 154 0 312q-2 35 -34 62.5t-86 27.5zM1247 629q0 37 -4 63t-35.5 58t-83.5 32t-85 -32.5t-40 -73.5l-2 -47h250z" glyph-name="oe" horiz-adv-x="1630" unicode="œ"/><glyph d="M457 1026q0 -49 54 -82t136 -47t177.5 -45t177 -72t136 -131t54.5 -219q0 -451 -576 -450q-258 0 -485 63l19 313l75 -14q238 -45 373 -45t192.5 28.5t57.5 86.5t-54.5 93.5t-136.5 49.5t-177 44t-177 70t-136 130t-54 221q0 217 148.5 325.5t382.5 108.5t462 -53 l-12 -311l-66 10q-208 33 -389 33q-182 0 -182 -107zM760 1874h289l-228 -299h-323l-228 299h289l103 -121z" glyph-name="Scaron" horiz-adv-x="1284" unicode="Š"/><glyph d="M420 717q0 -27 49 -45.5t119.5 -38t140.5 -49t119 -96t49 -164.5q0 -344 -420 -344q-205 0 -371 59l44 260l47 -12q137 -35 237 -35q99 0 122.5 14.5t23.5 48.5q0 27 -49.5 45.5t-120 38t-140 50t-119 100t-49.5 172.5q0 160 106 241.5t286 81.5t352 -45l-37 -262l-51 8 q-165 27 -252 27q-86 0 -86 -55zM600 1464h289l-227 -299h-324l-227 299h288l103 -121z" glyph-name="scaron" horiz-adv-x="999" unicode="š"/><glyph d="M877 0h-351v549l-495 885h401l270 -568l269 568h401l-495 -885v-549zM334 1575v268h287v-268h-287zM780 1575v268h287v-268h-287z" glyph-name="Ydieresis" horiz-adv-x="1402" unicode="Ÿ"/><glyph d="M1231 322v-322h-1129v311l672 799h-653v324h1100v-312l-672 -800h682zM766 1874h289l-228 -299h-323l-228 299h289l103 -121z" glyph-name="Zcaron" horiz-adv-x="1333" unicode="Ž"/><glyph d="M895 287v-287h-813v274l403 463h-385v287h787v-274l-404 -463h412zM604 1464h289l-227 -299h-324l-227 299h288l103 -121z" glyph-name="zcaron" horiz-adv-x="976" unicode="ž"/><glyph d="M172 -78q51 0 57 66l66 622h-133l26 312h140l22 206q16 145 108.5 235.5t246.5 90.5q88 0 225 -20l41 -9l-60 -299q-100 20 -174 21q-25 0 -43 -18.5t-22 -47.5l-19 -159h246l-27 -312h-251l-72 -686q-14 -139 -96 -226t-210 -87t-245 24l-39 9l51 301q100 -23 162 -23z " glyph-name="florin" horiz-adv-x="1062" unicode="ƒ"/><glyph d="M289 1165h-289l227 299h324l227 -299h-289l-102 121z" glyph-name="circumflex" horiz-adv-x="776" unicode="ˆ"/><glyph d="M489 1464h289l-227 -299h-324l-227 299h289l102 -121z" glyph-name="caron" horiz-adv-x="776" unicode="ˇ"/><glyph d="M0 1464h184q0 -51 33 -86t76 -35h106q45 0 76 35t31 86h184q0 -129 -88 -227t-207 -98h-100q-119 0 -207 98t-88 227z" glyph-name="breve" horiz-adv-x="690" unicode="˘"/><glyph d="M0 1165v269h287v-269h-287z" glyph-name="dotaccent" horiz-adv-x="286" unicode="˙"/><glyph d="M0 1282q0 86 61.5 146.5t151.5 60.5t155.5 -60.5t65.5 -145.5t-65.5 -145.5t-155.5 -60.5t-151.5 59.5t-61.5 145.5zM141 1282q0 -31 21.5 -52.5t52.5 -21.5t52.5 21.5t21.5 52.5t-21.5 52.5t-52.5 21.5t-52.5 -21.5t-21.5 -52.5z" glyph-name="ring" horiz-adv-x="434" unicode="˚"/><glyph d="M295 -164q0 -41 49 -41q72 0 123 17l22 4l27 -185q-130 -39 -230 -39t-161.5 52t-61.5 122t54.5 132.5t107.5 93.5l56 31h180q-166 -129 -166 -187z" glyph-name="ogonek" horiz-adv-x="464" unicode="˛"/><glyph d="M0 1147q0 127 54.5 222t147.5 95t183 -47t117 -47q53 0 53 86h205q0 -127 -53.5 -221t-146.5 -94t-182 46t-116 46q-55 0 -61 -86h-201z" glyph-name="tilde" horiz-adv-x="759" unicode="˜"/><glyph d="M272 1165h-274l178 299h365zM772 1165h-274l178 299h364z" glyph-name="hungarumlaut" horiz-adv-x="1038" unicode="˝"/><glyph d="M879 745v-305h-879v305h879z" glyph-name="endash" horiz-adv-x="878" unicode="–"/><glyph d="M1757 745v-305h-1757v305h1757z" glyph-name="emdash" horiz-adv-x="1757" unicode="—"/><glyph d="M377 1145v-316h-316v285q0 98 30 169t104 121t202 50v-166q-47 0 -87 -39t-40 -104h107z" glyph-name="quoteleft" horiz-adv-x="499" unicode="‘"/><glyph d="M123 1120v316h315v-285q0 -200 -104 -270t-232 -70v166q47 0 87 39t40 104h-106z" glyph-name="quoteright" horiz-adv-x="499" unicode="’"/><glyph d="M133 0v315h316v-284q0 -98 -30 -169t-103 -121t-203 -50v166q47 0 87 38.5t40 104.5h-107z" glyph-name="quotesinglbase" horiz-adv-x="581" unicode="‚"/><glyph d="M862 1145v-316h-315v285q0 200 104 270t232 70v-166q-47 0 -87 -39t-40 -104h106zM377 1145v-316h-316v285q0 98 30 169t104 121t202 50v-166q-47 0 -87 -39t-40 -104h107z" glyph-name="quotedblleft" horiz-adv-x="985" unicode="“"/><glyph d="M123 1118v316h315v-285q0 -200 -104 -270t-232 -70v166q47 0 87 39t40 104h-106zM608 1118v316h316v-285q0 -98 -30 -169t-104 -121t-202 -50v166q47 0 87 39t40 104h-107z" glyph-name="quotedblright" horiz-adv-x="985" unicode="”"/><glyph d="M133 0v315h316v-284q0 -98 -30 -169t-103 -121t-203 -50v166q47 0 87 38.5t40 104.5h-107zM618 0v315h316v-284q0 -98 -30 -169t-103 -121t-203 -50v166q47 0 87 38.5t40 104.5h-107z" glyph-name="quotedblbase" horiz-adv-x="1067" unicode="„"/><glyph d="M772 711v-1080h-330v1080h-319v313h319v410h330v-410h334v-313h-334z" glyph-name="dagger" horiz-adv-x="1228" unicode="†"/><glyph d="M1106 354v-313h-334v-410h-330v410h-319v313h319v357h-319v313h319v410h330v-410h334v-313h-334v-357h334z" glyph-name="daggerdbl" horiz-adv-x="1228" unicode="‡"/><glyph d="M164 698.5q0 143.5 101.5 243.5t244.5 100t243.5 -100t100.5 -243.5t-100.5 -244t-244.5 -100.5t-244.5 100.5t-100.5 244z" glyph-name="bullet" horiz-adv-x="1017" unicode="•"/><glyph d="M164 0v315h315v-315h-315zM807 0v315h315v-315h-315zM1450 0v315h315v-315h-315z" glyph-name="ellipsis" horiz-adv-x="1929" unicode="…"/><glyph d="M801 1145v-174q0 -139 -95.5 -224t-234.5 -85t-233.5 87t-94.5 222v174q0 137 94.5 223t233.5 86t234.5 -86t95.5 -223zM575 950v215q0 41 -30.5 66.5t-75.5 25.5t-73.5 -24.5t-28.5 -67.5v-213q0 -45 28.5 -69.5t74.5 -24.5t75.5 24.5t29.5 67.5zM526 0l656 1434h219 l-649 -1434h-226zM1800 463v-174q0 -137 -98 -223t-238 -86t-234.5 87t-94.5 222v174q0 137 94 223t234 86t238.5 -86t98.5 -223zM1567 268v215q0 41 -31 66.5t-76 25.5t-73.5 -24.5t-28.5 -67.5v-213q0 -45 28.5 -69.5t74.5 -24.5t76 24.5t30 67.5zM2591 463v-174 q0 -137 -98.5 -223t-238.5 -86t-234.5 87t-94.5 222v174q0 137 94.5 223t234.5 86t238.5 -86t98.5 -223zM2357 268v215q0 41 -30.5 66.5t-75.5 25.5t-74 -24.5t-29 -67.5v-213q0 -45 29 -69.5t75 -24.5t75.5 24.5t29.5 67.5z" glyph-name="perthousand" horiz-adv-x="2734" unicode="‰"/><glyph d="M784 229h-368l-283 357l283 358h368l-292 -356z" glyph-name="guilsinglleft" horiz-adv-x="927" unicode="‹"/><glyph d="M512 229h-369l293 359l-293 356h369l283 -358z" glyph-name="guilsinglright" horiz-adv-x="927" unicode="›"/><glyph d="M-213 0l655 1434h220l-650 -1434h-225z" glyph-name="fraction" horiz-adv-x="458" unicode="⁄"/><glyph d="M760 1133q-80 0 -131 -38t-70 -96h422v-223h-434v-121h391v-223h-379q41 -131 201 -131q190 0 350 35l55 12l13 -313q-206 -55 -430 -55t-373.5 129t-171.5 323h-121v223h115v121h-115v223h121q20 195 171.5 325t385.5 130q181 0 346 -33l53 -12l-12 -313 q-207 37 -387 37z" glyph-name="Euro" horiz-adv-x="1300" unicode="€"/><glyph d="M113 1249v185h555v-185h-185v-590h-190v590h-180zM1526 1434v-775h-187v345l11 147l-113 -203h-145l-105 199l10 -143v-345h-190v775h192l168 -287l168 287h191z" glyph-name="trademark" horiz-adv-x="1669" unicode="™"/><glyph d="M1108 745v-311h-944v311h944z" glyph-name="minus" horiz-adv-x="1271" unicode="−"/><glyph d="M954 0v737h-454v-737h-326v737h-133v287h133v109q0 145 90 233t248 88q102 0 225 -20l47 -7l-18 -266q-125 23 -215 23q-25 0 -38 -19.5t-13 -40.5v-100h778v-1024h-324zM952 1165v269h330v-269h-330z" glyph-name="uniFB01" horiz-adv-x="1425" unicode="ﬁ"/><glyph d="M954 0v1174q-248 10 -403 10q-25 0 -38 -19.5t-13 -40.5v-100h258v-287h-258v-737h-326v737h-133v287h133v109q0 145 90 233t247 88q316 0 652 -12l115 -6v-1436h-324z" glyph-name="uniFB02" horiz-adv-x="1421" unicode="ﬂ"/></font>
</defs>
</svg>
