<?xml version="1.0" standalone="no"?>
<!DOCTYPE svg PUBLIC "-//W3C//DTD SVG 1.1//EN" "http://www.w3.org/Graphics/SVG/1.1/DTD/svg11.dtd">
<svg xmlns="http://www.w3.org/2000/svg"><metadata>This SVG WebFont was generated by YouWorkForThem.
Copyright (c) 2008 by Ramiz Guseynov. All rights reserved.</metadata><defs><font horiz-adv-x="1077" id="ywftsvg"><font-face ascent="1536" bbox="-199 -430 2402 1880" cap-height="1434" descent="-512" font-family="" font-stretch="normal" font-weight="400" panose-1="2 0 5 6 0 0 0 2 0 4" underline-position="0" underline-thickness="0" unicode-range="U+0020-FB02" units-per-em="2048" x-height="1024"/><missing-glyph horiz-adv-x="450"/><glyph glyph-name=".notdef" horiz-adv-x="450"/><glyph glyph-name="glyph1" horiz-adv-x="0"/><glyph glyph-name="glyph2" horiz-adv-x="681"/><glyph glyph-name="space" horiz-adv-x="450" unicode=" "/><glyph d="M137 0l29 201h168l-29 -201h-168zM510 1434l-162 -1049h-147l133 1049h176z" glyph-name="exclam" horiz-adv-x="544" unicode="!"/><glyph d="M174 973l66 461h145l-86 -461h-125zM467 973l65 461h146l-86 -461h-125z" glyph-name="quotedbl" horiz-adv-x="684" unicode="&quot;"/><glyph d="M268 870l21 154h219l117 410h143l-117 -410h367l117 410h143l-117 -410h195l-21 -154h-217l-86 -307h197l-23 -153h-219l-117 -410h-143l117 410h-367l-117 -410h-143l117 410h-195l23 153h217l86 307h-197zM608 870l-86 -307h367l86 307h-367z" glyph-name="numbersign" horiz-adv-x="1396" unicode="#"/><glyph d="M225 985q0 184 109.5 302t300.5 134l16 111h162l-14 -109q196 -8 256 -37l22 -10l-26 -143q-169 37 -323 37t-242.5 -55.5t-88.5 -190.5q0 -147 163 -189t258 -73t163 -103.5t68 -189.5q0 -203 -119 -326t-330 -131l-16 -110h-162l14 106q-173 8 -284 41l-39 10l26 146 q176 -41 378 -41t279.5 63.5t77.5 188.5q0 126 -93 166.5t-161.5 60t-138 43t-127 57t-93.5 95t-36 147.5z" glyph-name="dollar" horiz-adv-x="1171" unicode="$"/><glyph d="M530 696q-132 0 -207 67.5t-75 178.5q0 29 4 57l24 168q20 133 113 210t223 77t206.5 -66.5t76.5 -175.5q0 -31 -2 -45l-27 -184q-20 -135 -112 -211t-224 -76zM745 1225q0 42 -38.5 73t-106.5 31t-116 -38t-58 -107l-27 -189q-4 -33 -4 -53q0 -121 140 -121q72 0 122 36 t58 104l28 204q2 18 2 60zM453 0l854 1434h151l-850 -1434h-155zM1300 -25q-132 0 -207 68t-75 178q0 29 4 58l25 167q20 133 112.5 210t222.5 77t206.5 -66.5t76.5 -174.5q0 -32 -2 -46l-27 -184q-20 -135 -112 -211t-224 -76zM1370 608q-68 0 -116 -38t-58 -107l-27 -189 q-4 -33 -4 -53q0 -121 140 -121q72 0 122 36t58 104l28 204q3 18 3 60t-39 73t-107 31z" glyph-name="percent" horiz-adv-x="1814" unicode="%"/><glyph d="M644 1309q-234 0 -234 -154q0 -125 136 -360.5t308 -444.5q16 41 27 115l28 199h158l-29 -203q-23 -154 -71 -238q8 -8 25.5 -27.5t40 -42t67.5 -22.5h41l-6 -139q-45 -8 -90 -8t-84 27.5t-97 88.5q-139 -121 -370 -120q-155 0 -242.5 57t-124.5 136t-37 185 q0 346 248 480q-90 174 -90 282q0 172 108.5 253t268.5 81t280 -29l37 -10l-37 -141q-152 35 -261 35zM530 135q148 0 234 80q-219 262 -358 500q-141 -80 -142 -348q0 -113 59 -172.5t207 -59.5z" glyph-name="ampersand" horiz-adv-x="1185" unicode="&amp;"/><glyph d="M174 973l66 461h145l-86 -461h-125z" glyph-name="quotesingle" horiz-adv-x="391" unicode="'"/><glyph d="M131 -61q0 14 4 51l152 1089q20 156 155.5 266.5t300.5 110.5l-22 -166q-100 0 -176 -61.5t-88 -151.5l-154 -1089q-2 -10 -2 -29q0 -82 57.5 -134t149.5 -52l-23 -162q-154 0 -254 94t-100 234z" glyph-name="parenleft" horiz-adv-x="669" unicode="("/><glyph d="M438 1108q0 80 -56 131t-146 51l22 166q154 0 255 -93t101 -233q0 -18 -4 -51l-151 -1089q-20 -156 -156.5 -267.5t-302.5 -111.5l23 162q100 0 173.5 61.5t86.5 153.5l153 1089q2 10 2 31z" glyph-name="parenright" horiz-adv-x="671" unicode=")"/><glyph d="M657 1434l-34 -256l254 79l22 -137l-252 -78l121 -206l-127 -82l-119 202l-180 -208l-102 86l178 202l-236 82l64 135l235 -79l35 260h141z" glyph-name="asterisk" horiz-adv-x="921" unicode="*"/><glyph d="M618 1040h160l-51 -364h373l-21 -154h-372l-52 -366h-159l51 366h-373l21 154h372z" glyph-name="plus" horiz-adv-x="1191" unicode="+"/><glyph d="M160 0l28 201h174l-26 -185q-18 -141 -87 -198.5t-143 -57.5l11 78q45 0 73.5 37t36.5 92l2 33h-69z" glyph-name="comma" horiz-adv-x="497" unicode=","/><glyph d="M684 676l-20 -154h-500l20 154h500z" glyph-name="hyphen" horiz-adv-x="765" unicode="-"/><glyph d="M156 0l28 201h168l-28 -201h-168z" glyph-name="period" horiz-adv-x="495" unicode="."/><glyph d="M-8 0l606 1434h166l-610 -1434h-162z" glyph-name="slash" horiz-adv-x="655" unicode="/"/><glyph d="M572 -20q-202 0 -321.5 108.5t-119.5 276.5q-1 20 21 196t65 447q31 201 176 323.5t347 122.5t322 -108.5t120 -278.5q0 -109 -86 -641q-31 -201 -176.5 -323.5t-347.5 -122.5zM1010 1049q0 111 -71 179t-208 68t-233.5 -81.5t-114.5 -206.5q-84 -527 -84 -630 q0 -102 73.5 -171.5t209.5 -69.5t231 81t113 208q48 280 66 438t18 185z" glyph-name="zero" horiz-adv-x="1214" unicode="0"/><glyph d="M164 1167l22 154l250 113h185l-201 -1434h-172l178 1274z" glyph-name="one" horiz-adv-x="655" unicode="1"/><glyph d="M652 1454q433 0 433 -329q0 -169 -63.5 -277.5t-196.5 -212.5l-592 -467v-8h728l-23 -160h-907l28 217l633 508q113 90 166 169t53 200q0 203 -276 202q-152 0 -318 -32l-51 -11l13 152q160 49 373 49z" glyph-name="two" horiz-adv-x="1101" unicode="2"/><glyph d="M989 539q0 -246 -155.5 -402.5t-411.5 -156.5q-119 0 -218.5 12t-137.5 24l-41 15l30 153q183 -47 371 -47t287.5 102.5t99.5 282.5q0 57 -21.5 97t-63.5 71t-218 31h-94l20 147l379 398l2 8h-608l22 160h832l-23 -152l-399 -410q129 -8 238.5 -80.5t109.5 -252.5z" glyph-name="three" horiz-adv-x="1081" unicode="3"/><glyph d="M33 303l22 160l654 971h188l-659 -971h522l51 375h172l-51 -375h151l-22 -160h-152l-43 -303h-172l43 303h-704z" glyph-name="four" horiz-adv-x="1099" unicode="4"/><glyph d="M482 135q200 0 297.5 97.5t97.5 304.5q0 106 -61.5 158.5t-213.5 52.5q-76 0 -165 -20.5t-142 -41.5l-51 -20l-62 122l140 646h792l-22 -162h-637l-88 -418q135 49 280 49q406 0 406 -346q0 -272 -150.5 -424.5t-439.5 -152.5q-113 0 -208 12t-132 24l-39 15l31 153 q167 -49 367 -49z" glyph-name="five" horiz-adv-x="1142" unicode="5"/><glyph d="M744 1298q-148 0 -240 -88t-117 -223l-27 -164q182 80 345 80q403 0 403 -350q0 -240 -147.5 -408t-405.5 -168q-203 0 -311.5 112t-108.5 279t80 623q37 203 181.5 333t375.5 130q158 0 305 -33l51 -12l-28 -152q-208 41 -356 41zM309 384q0 -100 65.5 -174.5 t200.5 -74.5q176 0 267.5 105.5t91.5 285.5q0 115 -66 167t-168 51q-165 -2 -315 -56l-45 -18q-31 -186 -31 -286z" glyph-name="six" horiz-adv-x="1200" unicode="6"/><glyph d="M842 1276h-670l23 158h839l-24 -181l-736 -1253h-174l742 1264v12z" glyph-name="seven" horiz-adv-x="925" unicode="7"/><glyph d="M1180 1131q0 -265 -232 -392q166 -106 166 -297q0 -219 -154 -340.5t-378 -121.5t-347.5 89t-123.5 248q0 276 268 422q-139 98 -139 265q0 205 148.5 327.5t355.5 122.5t321.5 -95.5t114.5 -227.5zM940 426q0 113 -84 173t-217 60t-243.5 -83.5t-110.5 -225.5 q0 -109 83.5 -161t225.5 -51t244 71t102 217zM681 817q130 0 227.5 77t97.5 208q0 90 -72 142t-201 52t-225 -68.5t-96 -197.5q0 -98 69.5 -155.5t199.5 -57.5z" glyph-name="eight" horiz-adv-x="1220" unicode="8"/><glyph d="M554 133q148 0 240.5 88t116.5 223l27 164q-182 -80 -344 -80q-403 0 -404 351q0 240 147.5 407.5t405.5 167.5q203 0 311.5 -111.5t108.5 -278.5t-80 -624q-37 -203 -181 -333t-376 -130q-162 0 -305 35l-51 11l29 151q207 -41 355 -41zM989 1048q0 100 -65.5 174 t-200.5 74q-176 0 -267 -105.5t-91 -285.5q0 -115 65.5 -167t167.5 -51q167 2 315 58l45 17q31 186 31 286z" glyph-name="nine" horiz-adv-x="1200" unicode="9"/><glyph d="M127 0l29 201h168l-29 -201h-168zM242 823l28 201h168l-28 -201h-168z" glyph-name="colon" horiz-adv-x="495" unicode=":"/><glyph d="M252 823l27 201h167l-26 -201h-168zM131 0l29 201h174l-27 -185q-18 -141 -86.5 -198.5t-142.5 -57.5l10 78q45 0 73.5 37t37.5 92l2 33h-70z" glyph-name="semicolon" horiz-adv-x="471" unicode=";"/><glyph d="M164 524l20 150l971 446l-25 -176l-778 -346l680 -344l-24 -176z" glyph-name="less" horiz-adv-x="1204" unicode="&lt;"/><glyph d="M1073 465l-22 -154h-908l23 154h907zM1133 885l-23 -154h-907l22 154h908z" glyph-name="equal" horiz-adv-x="1193" unicode="="/><glyph d="M1122 674l-20 -150l-971 -446l25 176l778 346l-680 344l25 176z" glyph-name="greater" horiz-adv-x="1204" unicode=">"/><glyph d="M645 1454q199 0 315.5 -81t116.5 -243q0 -223 -89 -302.5t-198.5 -126t-196.5 -97.5t-108 -217h-159q12 115 52 195t91 120.5t109.5 69.5t115 51.5t131 69.5t74.5 215q0 186 -276 186q-167 0 -332 -30l-55 -11l12 152q121 49 397 49zM268 0l27 201h168l-27 -201h-168z " glyph-name="question" unicode="?"/><glyph d="M1317 39q-68 0 -117 25.5t-65 50.5l-17 24q-190 -100 -323 -100t-200 67.5t-67 177.5t52 408q25 133 122 216t261 83q84 0 175 -14t140 -31l47 -14l-88 -631q-2 -10 -2 -31q0 -102 98 -102q45 0 75 27.5t40 58.5t18 78q84 474 84 620t-134 250.5t-393 104.5t-428 -118 t-198 -290q-102 -608 -102 -759t137 -256t385 -105q187 0 346 33l51 12l9 -146q-209 -47 -426 -47q-305 0 -482.5 148.5t-177.5 374.5q0 145 96 723q41 246 254 411.5t537 165.5t505 -145.5t181 -368.5q0 -115 -78 -588q-27 -164 -118 -238.5t-197 -74.5zM672 320 q0 -68 36 -109t98 -41t130 19.5t108 39.5l41 19l80 575q-74 37 -221 37q-92 0 -150.5 -52t-70.5 -126q-51 -294 -51 -362z" glyph-name="at" horiz-adv-x="1769" unicode="@"/><glyph d="M641 1434h256l254 -1434h-182l-70 416h-545l-184 -416h-178zM874 569l-118 709h-15l-319 -709h452z" glyph-name="A" horiz-adv-x="1243" unicode="A"/><glyph d="M831 1434q174 0 263.5 -79t89.5 -212t-57.5 -239.5t-163.5 -153.5q16 -5 85.5 -59.5t69.5 -209.5q0 -217 -126 -349t-394 -132h-485l200 1434h518zM831 1276h-368l-64 -453h344q123 0 198 75t75 200q0 84 -47.5 131t-137.5 47zM625 158q176 0 247.5 76.5t71.5 236.5 q0 197 -221 197h-344l-72 -510h318z" glyph-name="B" horiz-adv-x="1208" unicode="B"/><glyph d="M604 -20q-213 0 -336 114.5t-123 292.5q0 100 80 600q33 207 193 337t385 130q172 0 311 -37l49 -10l-26 -152q-221 39 -365 39t-247 -89t-124 -218q-77 -446 -77 -571t78.5 -201t224.5 -76q98 0 303 31l65 10l-14 -151q-211 -49 -377 -49z" glyph-name="C" horiz-adv-x="1120" unicode="C"/><glyph d="M774 1434q213 0 338 -108.5t125 -283.5q0 -125 -78 -596q-33 -199 -185.5 -322.5t-395.5 -123.5h-465l200 1434h461zM752 1274h-289l-156 -1114h289q166 0 266.5 79.5t120.5 206.5q78 467 78 578t-81 180.5t-228 69.5z" glyph-name="D" horiz-adv-x="1284" unicode="D"/><glyph d="M313 1434h897l-22 -160h-725l-64 -451h662l-21 -157h-661l-72 -504h746l-23 -162h-917z" glyph-name="E" horiz-adv-x="1183" unicode="E"/><glyph d="M313 1434h897l-22 -160h-725l-66 -475h662l-23 -160h-661l-90 -639h-172z" glyph-name="F" horiz-adv-x="1132" unicode="F"/><glyph d="M145 387q0 125 80 600q31 197 196 332t395 135t380 -37l51 -14l-28 -152q-213 43 -428 43q-156 0 -262.5 -90t-127.5 -217q-77 -446 -77 -571t78.5 -202t229.5 -77t257 23l39 6l59 414h-270l22 157h443l-97 -684q-244 -73 -469 -73t-348 114.5t-123 292.5z" glyph-name="G" horiz-adv-x="1271" unicode="G"/><glyph d="M1157 1434h172l-201 -1434h-172l95 666h-672l-94 -666h-172l200 1434h172l-86 -611h672z" glyph-name="H" horiz-adv-x="1343" unicode="H"/><glyph d="M485 1434l-200 -1434h-172l200 1434h172z" glyph-name="I" horiz-adv-x="499" unicode="I"/><glyph d="M132 135q42 0 69.5 13.5t50.5 38t47 180.5l152 1067h172l-160 -1125q-25 -174 -111 -251.5t-205 -77.5q-55 0 -155 20l22 139q76 -4 118 -4z" glyph-name="J" horiz-adv-x="624" unicode="J"/><glyph d="M1237 1434l-649 -682l485 -752h-211l-473 750l641 684h207zM485 1434l-200 -1434h-172l200 1434h172z" glyph-name="K" horiz-adv-x="1144" unicode="K"/><glyph d="M313 1434h174l-178 -1272h645l-22 -162h-819z" glyph-name="L" horiz-adv-x="1024" unicode="L"/><glyph d="M1540 1434l-201 -1434h-172l154 1087l22 117l-81 -131l-363 -491h-182l-223 491l-45 131l-11 -117l-153 -1087h-172l200 1434h205l309 -705l508 705h205z" glyph-name="M" horiz-adv-x="1554" unicode="M"/><glyph d="M1159 1434h170l-201 -1434h-202l-445 1063l-39 133l-12 -139l-147 -1057h-170l200 1434h203l447 -1065l36 -131l13 137z" glyph-name="N" horiz-adv-x="1343" unicode="N"/><glyph d="M1272 1042q0 -96 -80 -596q-33 -201 -188.5 -333.5t-377.5 -132.5t-351.5 115.5t-129.5 291.5q0 125 80 600q33 201 187 334t378 133t353 -117t129 -295zM1094 1039q0 106 -79 183.5t-231 77.5t-259 -91t-128 -220q-80 -489 -80 -593t81 -183.5t233 -79.5t257.5 91 t125.5 220q80 489 80 595z" glyph-name="O" horiz-adv-x="1316" unicode="O"/><glyph d="M866 1434q158 0 241 -80t83 -196t-43 -339q-29 -145 -130.5 -233t-275.5 -88h-387l-69 -498h-172l200 1434h553zM1016 1135q0 139 -168 139h-385l-86 -617h385q176 0 211 156q43 211 43 322z" glyph-name="P" horiz-adv-x="1171" unicode="P"/><glyph d="M1272 1042q0 -96 -80 -596q-27 -152 -115 -258l101 -133l-134 -92l-86 117q-156 -100 -356 -100t-328.5 115.5t-128.5 291.5q0 125 80 600q33 199 189 333t378 134t351 -117t129 -295zM1096 1026q0 117 -79 195.5t-231 78.5t-261 -91t-130 -220q-80 -489 -80 -562 t13 -108l6 -8q47 40 146.5 75.5t184.5 35.5t158.5 -27.5t106.5 -54.5l33 -29q37 45 51 131q82 502 82 584zM631 133q53 0 108.5 15.5t83.5 31.5l27 17q-82 80 -195 79q-57 0 -117.5 -19t-91.5 -40l-32 -18q74 -66 217 -66z" glyph-name="Q" horiz-adv-x="1316" unicode="Q"/><glyph d="M866 1434q158 0 241 -79t83 -201t-39 -310q-23 -117 -96.5 -200t-192.5 -107l221 -537h-198l-207 522h-320l-73 -522h-172l200 1434h553zM1016 1135q0 139 -168 139h-385l-82 -592h385q178 0 209 156q41 201 41 297z" glyph-name="R" horiz-adv-x="1236" unicode="R"/><glyph d="M730 1294q-167 0 -256 -67.5t-89 -190.5q0 -74 53.5 -123t132 -70.5t171 -50t171 -59.5t132 -102.5t53.5 -175.5q0 -475 -574 -475q-197 0 -377 36l-57 15l31 153q199 -45 392 -45t299 57.5t106 213.5q0 78 -52.5 129t-132.5 72.5t-171 50t-171 59.5t-132 102.5 t-52 177.5q0 215 144.5 334t387.5 119q115 0 215.5 -12t143.5 -25l43 -10l-29 -152q-215 39 -382 39z" glyph-name="S" horiz-adv-x="1183" unicode="S"/><glyph d="M168 1274l22 160h953l-23 -160h-391l-178 -1274h-172l178 1274h-389z" glyph-name="T" horiz-adv-x="1034" unicode="T"/><glyph d="M642 -20q-222 0 -350 114.5t-128 286.5q0 45 4 82l137 971h172l-131 -930q-8 -45 -8 -98q0 -113 83 -190t224 -77t256 84t139 258l136 953h172l-140 -988q-29 -205 -186.5 -335.5t-379.5 -130.5z" glyph-name="U" horiz-adv-x="1349" unicode="U"/><glyph d="M369 1434l198 -1278h11l555 1278h178l-631 -1434h-260l-230 1434h179z" glyph-name="V" horiz-adv-x="1202" unicode="V"/><glyph d="M1329 291l373 1143h178l-481 -1434h-256l-103 1044l-2 226h-10l-61 -226l-400 -1044h-256l-80 1434h179l53 -1143l-2 -135h8l43 143l424 1135h240l104 -1135l6 -143h8z" glyph-name="W" horiz-adv-x="1812" unicode="W"/><glyph d="M418 1434l276 -553l432 553h195l-547 -699l379 -735h-197l-301 598l-469 -598h-194l581 735l-350 699h195z" glyph-name="X" horiz-adv-x="1245" unicode="X"/><glyph d="M377 1434l276 -680l463 680h199l-600 -852l-82 -582h-172l82 582l-363 852h197z" glyph-name="Y" horiz-adv-x="1196" unicode="Y"/><glyph d="M274 160h797l-22 -160h-998l25 172l938 1094v8h-768l22 160h973l-24 -172l-943 -1094v-8z" glyph-name="Z" horiz-adv-x="1202" unicode="Z"/><glyph d="M510 -205l-23 -162h-403l254 1801h403l-24 -166h-234l-207 -1473h234z" glyph-name="bracketleft" horiz-adv-x="669" unicode="["/><glyph d="M356 1434l207 -1434h-164l-209 1434h166z" glyph-name="backslash" horiz-adv-x="655" unicode="\"/><glyph d="M2 -367l23 162h233l207 1473h-234l25 166h403l-253 -1801h-404z" glyph-name="bracketright" horiz-adv-x="669" unicode="]"/><glyph d="M569 1434h140l231 -756h-162l-168 561l-325 -561h-162z" glyph-name="asciicircum" horiz-adv-x="1021" unicode="^"/><glyph d="M-4 -154h1180l-21 -137h-1180z" glyph-name="underscore" horiz-adv-x="1181" unicode="_"/><glyph d="M553 1151h-172l-268 303h233z" glyph-name="grave" horiz-adv-x="493" unicode="`"/><glyph d="M907 -16q-135 0 -157 135q-86 -62 -178.5 -97.5t-157.5 -35.5q-143 0 -215 75t-72 191t59 461q25 147 133.5 239t290.5 92q94 0 194.5 -14t153.5 -31l52 -14l-101 -737q-4 -29 -4 -49q0 -68 62 -68h32l-6 -139q-49 -8 -86 -8zM289 303q0 -80 40 -126t108 -46t146.5 41 t125.5 82l49 41l82 577q-86 27 -218 27t-198 -56.5t-80 -142.5q-55 -317 -55 -397z" glyph-name="a" unicode="a"/><glyph d="M1008 768q0 -121 -58 -457q-27 -147 -134 -239t-294 -92t-346 36l-55 15l198 1403h158l-67 -473q156 77 304 77t221 -74.5t73 -195.5zM846 721q0 80 -39 126t-107 46t-143.5 -21.5t-122.5 -44.5l-45 -20l-92 -657q86 -25 250 -25q102 0 166 57.5t78 141.5q55 317 55 397z " glyph-name="b" horiz-adv-x="1056" unicode="b"/><glyph d="M127 256q0 116 59 457q25 143 137.5 237t266.5 94t260 -18l35 -6l-35 -146q-136 25 -246 25t-179 -57.5t-81 -136.5q-55 -322 -55 -401t50 -129t133 -50q163 0 255 25l33 8v-144q-135 -35 -299 -34.5t-249 80.5t-85 196z" glyph-name="c" horiz-adv-x="835" unicode="c"/><glyph d="M289 307q0 -84 40 -130t108 -46t146.5 41t125.5 82l49 41l78 557q-84 43 -248 43q-100 0 -166 -59.5t-80 -143.5q-53 -301 -53 -385zM127 250q0 114 57 455q25 147 133.5 241t290.5 94q88 0 211 -28l37 -11l62 433h157l-166 -1180q-6 -44 -6 -68q0 -56 74 -55h20l-6 -139 q-51 -8 -88 -8q-133 0 -158 131q-81 -59 -173.5 -94t-157.5 -35q-143 0 -215 75t-72 189z" glyph-name="d" horiz-adv-x="1069" unicode="d"/><glyph d="M465 -20q-156 0 -247 78.5t-91 207.5t59 447q27 141 142.5 236t275.5 95t251 -78.5t91 -204.5t-79 -201t-218 -118l-358 -112q-2 -27 -2 -33q0 -72 51 -122t138 -50q175 0 296 31l43 10l2 -137q-137 -49 -354 -49zM782 741q0 158 -190 158q-96 0 -166 -58.5t-82 -140.5 l-35 -215l350 117q123 43 123 139z" glyph-name="e" horiz-adv-x="974" unicode="e"/><glyph d="M647 1454q69 0 168 -12l31 -6l-29 -140q-96 12 -192 13q-117 0 -140 -150l-18 -135h293l-21 -145h-293l-172 -1248h-159l172 1248h-156l21 145h155l21 147q16 127 101 205t218 78z" glyph-name="f" horiz-adv-x="675" unicode="f"/><glyph d="M319 428q0 -176 150 -176q74 0 151.5 23.5t118.5 48.5l41 22l76 528q-90 25 -254 25q-100 0 -164 -57.5t-80 -141.5q-39 -190 -39 -272zM158 378q0 97 43 335q27 147 133 239t289 92q94 0 195.5 -14t154.5 -31l53 -14l-147 -1026q-20 -145 -140.5 -246.5t-278.5 -101.5 t-242.5 58.5t-84.5 168.5q0 70 42 130.5t112 97.5l98 53q-117 16 -172 89t-55 170zM301 -131q0 -53 39 -85t106 -32q113 0 190 64.5t89 148.5l31 219q-23 -25 -90 -61l-293 -160q-72 -41 -72 -94z" glyph-name="g" horiz-adv-x="1054" unicode="g"/><glyph d="M844 741q0 70 -36 114t-104 44t-146.5 -24.5t-123.5 -49.5l-47 -24l-113 -801h-159l202 1434h160l-69 -480q158 90 307 90t220 -73.5t71 -196.5q0 -20 -5 -61l-61 -432q-8 -73 -8 -95t15.5 -38.5t51.5 -16.5h27l-6 -139q-55 -8 -82 -8q-166 0 -166 186q0 37 6 80l64 450 q2 14 2 41z" glyph-name="h" horiz-adv-x="1089" unicode="h"/><glyph d="M289 1233l26 201h170l-26 -201h-170zM309 -16q-166 0 -166 186q0 37 7 80l110 774h158l-107 -743q-8 -73 -8 -95t15.5 -38.5t52.5 -16.5h26l-6 -139q-55 -8 -82 -8z" glyph-name="i" horiz-adv-x="495" unicode="i"/><glyph d="M309 1233l29 201h170l-29 -201h-170zM-35 -389q-91 0 -145 18l30 140q41 -12 138 -13q121 0 139 150l158 1118h157l-159 -1130q-16 -127 -101.5 -205t-216.5 -78z" glyph-name="j" horiz-adv-x="487" unicode="j"/><glyph d="M700 903q-41 0 -123.5 -48t-144.5 -97l-61 -49l-25 -179l336 148q115 51 115 137q0 37 -28 62.5t-69 25.5zM954 829q0 -205 -272 -303l-23 -8l168 -358q14 -29 62 -29h26l-6 -139q-55 -8 -82 -8q-104 0 -143 88l-168 383l-194 -84l-52 -371h-155l202 1434h156l-78 -545 q12 12 109 83.5t209 71.5t176.5 -61t64.5 -154z" glyph-name="k" horiz-adv-x="985" unicode="k"/><glyph d="M309 -16q-166 0 -166 186q0 37 7 80l167 1184h158l-164 -1153q-8 -73 -8 -95t15.5 -38.5t52.5 -16.5h26l-6 -139q-55 -8 -82 -8z" glyph-name="l" horiz-adv-x="485" unicode="l"/><glyph d="M678 1044q129 0 207 -118q16 12 44.5 32.5t106.5 53t144 32.5q127 0 201.5 -71.5t74.5 -198.5q0 -20 -4 -61l-61 -432q-9 -73 -9 -95t15.5 -38.5t52.5 -16.5h27l-7 -139q-55 -8 -81 -8q-166 0 -166 186q0 37 6 80l63 450q2 12 2 39q0 74 -38 117t-94 43t-111.5 -23.5 t-87.5 -48.5l-33 -24l-113 -803h-160l103 729q2 10 2 29q0 59 -33 100t-88 41t-118.5 -25.5t-100.5 -50.5l-39 -24l-111 -799h-157l143 1024h148v-76q143 96 272 96z" glyph-name="m" horiz-adv-x="1540" unicode="m"/><glyph d="M844 741q0 70 -36 114t-104 44t-146.5 -24.5t-123.5 -49.5l-47 -24l-113 -801h-159l145 1024h152l-4 -70q158 90 307 90t220 -73.5t71 -196.5q0 -20 -5 -61l-61 -432q-8 -73 -8 -95t15.5 -38.5t51.5 -16.5h27l-6 -139q-55 -8 -82 -8q-166 0 -166 186q0 37 6 80l64 450 q2 14 2 41z" glyph-name="n" horiz-adv-x="1089" unicode="n"/><glyph d="M498 -20q-176 0 -273.5 82.5t-97.5 206.5t57 444q27 143 144.5 237t293.5 94t274.5 -83.5t98.5 -212.5q0 -89 -57 -437q-25 -141 -144.5 -236t-295.5 -95zM834 725q0 76 -57.5 125t-163.5 49t-180.5 -55.5t-90.5 -138.5q-53 -270 -53 -406q0 -76 59.5 -125t165.5 -49 t178 55.5t88 138.5q54 271 54 406z" glyph-name="o" horiz-adv-x="1044" unicode="o"/><glyph d="M410 1024v-72q162 92 309 92t219 -73.5t72 -194.5t-58 -457q-27 -147 -135 -241t-289 -94q-90 0 -213 28l-36 11l-54 -392h-157l194 1393h148zM850 742q0 68 -38 112.5t-106 44.5t-145.5 -25.5t-124.5 -50.5l-47 -24l-88 -627q84 -43 248 -43q100 0 166 59.5t80 143.5 q55 342 55 410z" glyph-name="p" horiz-adv-x="1058" unicode="p"/><glyph d="M127 252q0 116 59 461q25 147 133.5 239t294.5 92t347 -36l53 -15l-191 -1362h-157l59 432q-154 -77 -302 -77t-222 75t-74 191zM289 303q0 -80 40 -126t108 -46t143 21.5t120 44.5l48 20l92 657q-86 25 -250 25q-102 0 -167 -57.5t-79 -141.5q-55 -317 -55 -397z" glyph-name="q" horiz-adv-x="1042" unicode="q"/><glyph d="M741 1034l-20 -145q-84 0 -170 -41t-131 -82l-45 -43l-101 -723h-159l143 1024h150l-13 -125q58 50 158 92.5t188 42.5z" glyph-name="r" horiz-adv-x="653" unicode="r"/><glyph d="M565 899q-108 0 -171.5 -39t-63.5 -121q0 -53 51 -85.5t124 -52t146.5 -44.5t124.5 -80t51 -143q0 -188 -118.5 -271t-291.5 -83t-296 36l-41 13l39 139q152 -43 289 -43q256 0 256 170q0 57 -51.5 91t-124 53.5t-145.5 44t-124 78.5t-51 143q0 170 113.5 254.5 t276.5 84.5t267 -28l37 -8l-37 -142q-152 33 -260 33z" glyph-name="s" horiz-adv-x="903" unicode="s"/><glyph d="M358 225q0 -100 95 -100t145 10l23 2l-9 -139q-100 -18 -204 -18t-158.5 58t-54.5 157q0 14 4 51l88 633h-156l21 145h155l35 246h160l-35 -246h293l-21 -145h-293l-84 -605q-4 -37 -4 -49z" glyph-name="t" horiz-adv-x="677" unicode="t"/><glyph d="M428 -14q-143 0 -217 74.5t-74 195.5l4 61l101 707h159l-100 -694q-2 -14 -2 -37q0 -72 38 -117t110 -45t150.5 41t123.5 82l47 41l102 729h160l-110 -776q-4 -37 -5 -49q0 -68 62 -68h33l-6 -139q-49 -8 -86 -8q-135 0 -158 135q-67 -52 -163.5 -92.5t-168.5 -40.5z" glyph-name="u" horiz-adv-x="1081" unicode="u"/><glyph d="M432 -18q-133 0 -214 72.5t-81 189.5q0 29 2 43l103 737h159l-98 -684q-4 -25 -4 -75t43 -92t104 -42q115 0 219.5 90t122.5 223l41 285q4 25 5 55q0 113 -125 113l20 139q109 0 185.5 -65.5t76.5 -184.5q0 -31 -2 -45l-41 -295q-27 -186 -169 -325t-347 -139z" glyph-name="v" horiz-adv-x="1040" unicode="v"/><glyph d="M968 -20q-184 0 -259 129q-123 -129 -297 -129q-119 0 -197 75.5t-78 188.5q0 23 4 55l101 725h159l-100 -696q-2 -18 -2 -66t36 -90.5t97 -42.5q98 0 171 85t91 216l84 594h160l-100 -696q-4 -25 -4 -69t38.5 -87t96.5 -43q100 0 172.5 82t91.5 217l45 320q2 18 2 43 q0 106 -125 106l21 139q104 0 183 -64.5t79 -180.5q0 -34 -2 -50l-41 -295q-29 -201 -136 -333.5t-291 -132.5z" glyph-name="w" horiz-adv-x="1486" unicode="w"/><glyph d="M213 895h-41l6 139q55 8 82 8q104 0 150 -88l147 -297l283 367h182l-391 -492l188 -372q14 -29 64 -29h41l-6 -139q-55 -8 -82 -8q-106 0 -150 88l-166 329l-311 -401h-180l417 532l-170 334q-14 29 -63 29z" glyph-name="x" horiz-adv-x="978" unicode="x"/><glyph d="M170 389q0 18 8 92l78 543h154l-78 -549q-4 -29 -4 -80t34.5 -97t109.5 -46t152.5 23.5t120.5 48.5l41 22l101 678h153l-155 -1065q-20 -145 -139.5 -246.5t-277.5 -101.5t-243.5 58.5t-85.5 168.5q0 70 42 130.5t112 97.5l98 53q-221 30 -221 270zM307 -141 q0 -41 41 -74t103 -33q115 0 192.5 63.5t89.5 149.5l33 221q-29 -31 -88 -63l-299 -160q-72 -41 -72 -104z" glyph-name="y" horiz-adv-x="1069" unicode="y"/><glyph d="M795 180q0 -14 -4 -47l-29 -190q-23 -143 -143.5 -237.5t-301.5 -94.5q-133 0 -215 59.5t-82 161.5q0 150 158 242l371 213q-45 29 -123 28h-176l26 154l386 410h-486l21 145h675l-20 -158l-397 -405q152 -2 246 -82t94 -199zM188 -131q0 -51 40 -84t104 -33 q106 0 186 60.5t92 140.5l35 231q-31 -31 -80 -57l-303 -164q-74 -43 -74 -94z" glyph-name="z" horiz-adv-x="903" unicode="z"/><glyph d="M150 -59q0 16 4 49l53 387v8q0 33 -27.5 57.5t-70.5 24.5l22 154q45 0 82 26.5t41 61.5l51 370q20 156 153.5 266.5t301.5 110.5l-23 -166q-98 0 -173 -61.5t-87 -151.5l-49 -348q-16 -119 -145 -188q96 -59 96 -160q0 -18 -2 -27l-53 -366q-2 -10 -2 -29q0 -82 56 -134 t146 -52l-22 -162q-154 0 -253 94t-99 236z" glyph-name="braceleft" horiz-adv-x="686" unicode="{"/><glyph d="M84 -369l254 1803h133l-254 -1803h-133z" glyph-name="bar" horiz-adv-x="481" unicode="|"/><glyph d="M383 705q0 16 2 24l49 348q2 10 2 31q0 80 -55 131t-145 51l22 166q152 0 252 -94t100 -234q0 -16 -4 -49l-51 -370v-9q0 -33 28.5 -56t69.5 -23l-22 -154q-45 0 -82 -27.5t-41 -62.5l-53 -387q-23 -158 -155 -268.5t-300 -110.5l23 162q98 0 171.5 61.5t86.5 153.5 l53 366q16 121 143 187q-94 59 -94 164z" glyph-name="braceright" horiz-adv-x="686" unicode="}"/><glyph d="M494 750q64 0 182.5 -75t173.5 -75t100 42t94 110l105 -76l-35 -45q-35 -47 -54.5 -66.5t-77 -69t-147.5 -49.5t-208.5 75t-174.5 75t-102.5 -45t-91.5 -107l-104 76l34 45q35 47 54.5 66.5t59.5 53.5t84 49.5t108 15.5z" glyph-name="asciitilde" horiz-adv-x="1220" unicode="~"/><glyph d="M477 1024l-28 -201h-168l28 201h168zM104 -410l162 1049h148l-133 -1049h-177z" glyph-name="exclamdown" horiz-adv-x="544" unicode="¡"/><glyph d="M143 282q0 106 60 451q23 129 114 219t238 109l14 106h160l-14 -104q94 -4 164 -19l22 -4l-35 -145q-138 25 -248 25t-176.5 -57.5t-81.5 -137.5q-55 -317 -55 -399t50.5 -131.5t140.5 -49.5q181 0 280 33v-143q-92 -23 -211 -33l-14 -104h-160l17 106q-129 16 -197 94 t-68 184z" glyph-name="cent" horiz-adv-x="942" unicode="¢"/><glyph d="M307 944q0 274 140.5 392t396.5 118q139 0 268 -24l43 -7l-29 -151q-143 24 -307 24t-252 -72.5t-88 -260.5q0 -71 13 -136l4 -22h534l-20 -139h-496q4 -38 4 -112t-46 -180t-91 -161l-47 -53h688l-23 -160h-890l22 168q27 20 119 119.5t92 265.5l-10 113h-137l20 139 h100q-8 78 -8 139z" glyph-name="sterling" horiz-adv-x="1153" unicode="£"/><glyph d="M593 1014q136 0 228 -76l111 111l108 -111l-131 -129q20 -57 21 -111v-202q0 -57 -19 -105l131 -129l-110 -110l-109 110q-94 -78 -233 -78t-228 76l-110 -108l-109 108l129 127q-18 49 -18 109v202q0 43 20 109l-129 131l111 111l109 -111q92 76 228 76zM766 477v240 q0 76 -49 118t-128 42t-126 -42t-47 -118v-238q0 -78 47 -117.5t127 -39.5t128 39.5t48 115.5z" glyph-name="currency" horiz-adv-x="1185" unicode="¤"/><glyph d="M1038 510l-20 -137h-324l-51 -373h-172l51 373h-323l20 137h307l-49 156h-235l18 139h172l-201 629h197l221 -779l438 779h197l-377 -629h172l-18 -139h-238l-94 -156h309z" glyph-name="yen" horiz-adv-x="1216" unicode="¥"/><glyph d="M233 690l105 746h135l-104 -746h-136zM84 -369l104 742h136l-105 -742h-135z" glyph-name="brokenbar" horiz-adv-x="483" unicode="¦"/><glyph d="M973 113q0 -201 -130 -305.5t-358 -104.5q-150 0 -303 27l-51 10l27 139q203 -35 342 -35q301 0 301 234q0 76 -61.5 114.5t-150.5 54t-177 36t-149.5 79t-61.5 162.5q0 160 157 340q-84 61 -84 180q0 201 130.5 305.5t357.5 104.5q169 0 303 -29l51 -8l-29 -139 q-203 35 -339 35q-301 0 -302 -232q0 -76 61.5 -114.5t149.5 -54t177.5 -36t151 -80t61.5 -163.5q0 -168 -158 -340q84 -61 84 -180zM371 573q0 -82 66.5 -119.5t180 -57t154.5 -40.5q104 104 105 230q0 82 -68 119.5t-180.5 57.5t-153.5 40q-104 -104 -104 -230z" glyph-name="section" horiz-adv-x="1167" unicode="§"/><glyph d="M78 1208l26 201h168l-26 -201h-168zM426 1208l27 201h168l-27 -201h-168z" glyph-name="dieresis" horiz-adv-x="516" unicode="¨"/><glyph d="M123 717q0 305 216 521t521 216t521 -216t216 -521t-216 -521t-521 -216t-521 216t-216 521zM258 717q0 -250 176 -426t426 -176t426 176t176 426t-176 426t-426 176t-426 -176t-176 -426zM844 307q-137 0 -217 77t-85 206t0 258t86 205.5t210 76.5t198 -16l27 -4 l-12 -119q-251 50 -314 -10.5t-65 -126.5q-2 -135 0 -272q2 -66 49 -111t117 -45q138 0 198 20l23 7l16 -117q-94 -29 -231 -29z" glyph-name="copyright" horiz-adv-x="1720" unicode="©"/><glyph d="M131 567l12 97h537l-12 -97h-537zM666 754q-88 0 -103 92q-121 -90 -218 -90t-144 51t-47 125t39 303q16 96 87.5 157.5t196.5 61.5t221 -31l35 -10l-63 -477q-2 -10 -2 -33q0 -45 39 -45h22l-6 -98q-32 -6 -57 -6zM264 961q0 -100 103 -101q37 0 87 24.5t81 49.5l30 27 l51 374q-53 17 -138 17t-128 -37t-53 -90q-33 -262 -33 -264z" glyph-name="ordfeminine" horiz-adv-x="755" unicode="ª"/><glyph d="M561 272h-182l-205 324l295 326h180l-297 -326zM928 272h-183l-204 324l295 326h180l-297 -326z" glyph-name="guillemotleft" horiz-adv-x="1075" unicode="«"/><glyph d="M1116 676l-74 -520h-163l51 366h-744l23 154h907z" glyph-name="logicalnot" horiz-adv-x="1193" unicode="¬"/><glyph glyph-name="uni00AD" horiz-adv-x="1705" unicode="­"/><glyph d="M485 926v-164h-77v481h188q57 0 92 -32.5t35 -80.5v-88q0 -76 -72 -108l105 -172h-94l-91 164h-86zM645 1038v95q0 31 -49 30h-111v-159h111q49 -1 49 34zM102 1001.5q0 186.5 133.5 320.5t321.5 134t321.5 -134t133.5 -320.5t-133.5 -320.5t-321.5 -134t-321.5 134 t-133.5 320.5zM203 1001.5q0 -149.5 102.5 -252t252 -102.5t251.5 102.5t102 252t-102 252t-251.5 102.5t-252 -102.5t-102.5 -252z" glyph-name="registered" horiz-adv-x="1114" unicode="®"/><glyph d="M80 1217l20 145h619l-21 -145h-618z" glyph-name="macron" horiz-adv-x="618" unicode="¯"/><glyph d="M113 1157q0 123 88 211t211 88t211 -88t88 -211t-88 -211t-211 -88t-211 88t-88 211zM246 1157.5q0 -67.5 48 -117t117 -49.5t116.5 49.5t47.5 117t-48.5 116.5t-116.5 49t-116 -49t-48 -116.5z" glyph-name="degree" horiz-adv-x="823" unicode="°"/><glyph d="M1032 152l-20 -152h-906l21 152h905zM623 1024h159l-43 -303h373l-20 -154h-373l-43 -305h-160l43 305h-373l21 154h373z" glyph-name="plusminus" horiz-adv-x="1191" unicode="±"/><glyph d="M515 1454q265 0 265 -211q0 -104 -41 -177t-121 -138l-321 -269h403l-18 -124h-555l20 145l375 321q68 57 95.5 103.5t27.5 116.5q0 109 -147 108q-104 0 -195 -22l-35 -9l13 123q106 33 234 33z" glyph-name="uni00B2" horiz-adv-x="802" unicode="²"/><glyph d="M723 888q0 -164 -91 -270t-259 -106q-129 0 -213 29l-29 10l21 119q121 -35 227 -35t159.5 60.5t53.5 149.5t-48.5 106.5t-113.5 17.5h-68l15 106l225 238h-360l18 121h514l-18 -123l-221 -226q188 -33 188 -197z" glyph-name="uni00B3" horiz-adv-x="794" unicode="³"/><glyph d="M252 1151h-172l272 303h254z" glyph-name="acute" horiz-adv-x="493" unicode="´"/><glyph d="M322 270q0 -63 38.5 -104t109.5 -41t149.5 42t125.5 85l46 43l102 729h160l-111 -776q-4 -37 -4 -49q0 -68 61 -68h33l-6 -139q-49 -8 -86 -8q-135 0 -158 135q-54 -48 -157 -93.5t-181 -45.5t-161 43l-56 -392h-159l196 1393h160l-92 -645q-10 -82 -10 -109z" glyph-name="uni00B5" horiz-adv-x="1103" unicode="µ"/><glyph d="M205 983q0 182 143.5 316.5t325.5 134.5h409l-254 -1803h-137l232 1651h-138l-231 -1651h-137l141 1008q-152 0 -253 101.5t-101 242.5z" glyph-name="paragraph" horiz-adv-x="1083" unicode="¶"/><glyph d="M190 496l29 200h168l-29 -200h-168z" glyph-name="periodcentered" horiz-adv-x="495" unicode="·"/><glyph d="M438 -190q0 -88 -52 -143.5t-148 -55.5l-156 12l18 88q72 -8 117 -8q96 0 96 84q0 51 -73 51h-82l57 162h113l-27 -82q137 1 137 -108z" glyph-name="cedilla" horiz-adv-x="454" unicode="¸"/><glyph d="M201 1239l16 119l162 76h123l-127 -902h-127l108 771z" glyph-name="uni00B9" horiz-adv-x="514" unicode="¹"/><glyph d="M415.5 760q-114.5 0 -179 56t-64.5 139t37 282q18 94 91 155.5t188 61.5t181 -56t66 -128t-39 -293q-16 -92 -91 -154.5t-189.5 -62.5zM621 1243q0 49 -34 80t-99.5 31t-111.5 -35t-57 -88q-35 -173 -35 -239q1 -130 136 -130q68 0 113 34t55 87q33 160 33 260zM127 567 l12 97h516l-12 -97h-516z" glyph-name="ordmasculine" horiz-adv-x="735" unicode="º"/><glyph d="M688 272h-182l299 324l-207 326h180l205 -326zM322 272h-183l299 324l-207 326h181l204 -326z" glyph-name="guillemotright" horiz-adv-x="1075" unicode="»"/><glyph d="M762 188l16 113l387 602h144l-383 -590h264l33 230h127l-33 -230h90l-16 -125h-91l-26 -188h-127l27 188h-412zM215 0l854 1434h141l-850 -1434h-145zM219 1239l17 119l161 76h123l-127 -902h-127l109 771z" glyph-name="onequarter" horiz-adv-x="1558" unicode="¼"/><glyph d="M215 0l854 1434h141l-850 -1434h-145zM219 1239l17 119l161 76h123l-127 -902h-127l109 771zM1522 710q0 -105 -41 -178t-121 -139l-322 -268h404l-19 -125h-555l21 145l375 322q68 57 95 103t27 116q0 109 -147 109q-104 0 -229 -31l12 123l31 8q97 25 214 25 q118 0 186.5 -52.5t68.5 -157.5z" glyph-name="onehalf" horiz-adv-x="1619" unicode="½"/><glyph d="M1028 188l16 113l388 602h143l-383 -590h264l33 230h127l-33 -230h90l-16 -125h-90l-27 -188h-127l27 188h-412zM481 0l854 1434h142l-850 -1434h-146zM410 512q-129 0 -213 29l-29 10l20 119q122 -35 228 -35t159.5 60.5t53.5 149.5t-48.5 106.5t-113.5 17.5h-68l15 106 l225 238h-360l18 121h514l-18 -123l-222 -226q189 -33 189 -197t-91 -270t-259 -106z" glyph-name="threequarters" horiz-adv-x="1824" unicode="¾"/><glyph d="M504 -430q-199 0 -315.5 81t-116.5 243q0 223 89 302.5t198.5 126t196.5 98t108 216.5h159q-12 -115 -52 -195t-91 -120.5t-109.5 -69.5t-115 -51.5t-131 -69.5t-74.5 -215q0 -186 276 -186q186 0 387 41l-12 -152l-37 -12q-39 -12 -138 -24.5t-222 -12.5zM881 1024 l-27 -201h-168l27 201h168z" glyph-name="questiondown" unicode="¿"/><glyph d="M641 1434h256l254 -1434h-182l-70 416h-545l-184 -416h-178zM874 569l-118 709h-15l-319 -709h452zM862 1561h-172l-268 303h233z" glyph-name="Agrave" horiz-adv-x="1243" unicode="À"/><glyph d="M641 1434h256l254 -1434h-182l-70 416h-545l-184 -416h-178zM874 569l-118 709h-15l-319 -709h452zM848 1561h-172l272 303h254z" glyph-name="Aacute" horiz-adv-x="1243" unicode="Á"/><glyph d="M641 1434h256l254 -1434h-182l-70 416h-545l-184 -416h-178zM874 569l-118 709h-15l-319 -709h452zM621 1563h-148l260 301h156l178 -301h-149l-132 153z" glyph-name="Acircumflex" horiz-adv-x="1243" unicode="Â"/><glyph d="M641 1434h256l254 -1434h-182l-70 416h-545l-184 -416h-178zM874 569l-118 709h-15l-319 -709h452zM660 1810q64 0 147 -43t107 -43t40.5 25t20.5 49h147q-12 -82 -75 -148.5t-127 -66.5t-146 43t-106 43t-43 -22.5t-25 -51.5h-143q10 82 74.5 148.5t128.5 66.5z" glyph-name="Atilde" horiz-adv-x="1243" unicode="Ã"/><glyph d="M641 1434h256l254 -1434h-182l-70 416h-545l-184 -416h-178zM874 569l-118 709h-15l-319 -709h452zM514 1618l27 201h168l-27 -201h-168zM862 1618l27 201h168l-27 -201h-168z" glyph-name="Adieresis" horiz-adv-x="1243" unicode="Ä"/><glyph d="M641 1434h256l254 -1434h-182l-70 416h-545l-184 -416h-178zM874 569l-118 709h-15l-319 -709h452zM606 1679q0 74 61.5 137.5t138.5 63.5t121 -44t44 -117t-62.5 -136t-139.5 -63t-120 42.5t-43 116.5zM713 1695q0 -32 18.5 -51.5t48.5 -19.5t57 24.5t27 56.5t-19 51.5 t-49 19.5t-56.5 -24.5t-26.5 -56.5z" glyph-name="Aring" horiz-adv-x="1243" unicode="Å"/><glyph d="M965 1434h1015l-22 -160h-682l-64 -451h619l-21 -157h-618l-72 -504h703l-23 -162h-876l57 416h-555l-293 -416h-182zM1004 569l98 705h-66l-497 -705h465z" glyph-name="AE" horiz-adv-x="1953" unicode="Æ"/><glyph d="M776 -190q0 -88 -52 -143.5t-149 -55.5l-155 12l18 88q72 -8 117 -8q96 0 96 84q0 51 -73 51h-82l51 144q-188 14 -295 126.5t-107 278.5q0 100 80 600q33 207 193 337t385 130q172 0 311 -37l49 -10l-26 -152q-221 39 -365 39t-247 -89t-124 -218q-77 -446 -77 -571 t78.5 -201t224.5 -76q98 0 303 31l65 10l-14 -151q-168 -39 -322 -47l-20 -64q137 0 137 -108z" glyph-name="Ccedilla" horiz-adv-x="1120" unicode="Ç"/><glyph d="M313 1434h897l-22 -160h-725l-64 -451h662l-21 -157h-661l-72 -504h746l-23 -162h-917zM926 1561h-172l-269 303h234z" glyph-name="Egrave" horiz-adv-x="1183" unicode="È"/><glyph d="M313 1434h897l-22 -160h-725l-64 -451h662l-21 -157h-661l-72 -504h746l-23 -162h-917zM823 1561h-172l273 303h254z" glyph-name="Eacute" horiz-adv-x="1183" unicode="É"/><glyph d="M313 1434h897l-22 -160h-725l-64 -451h662l-21 -157h-661l-72 -504h746l-23 -162h-917zM649 1563h-147l260 301h156l178 -301h-150l-131 153z" glyph-name="Ecircumflex" horiz-adv-x="1183" unicode="Ê"/><glyph d="M313 1434h897l-22 -160h-725l-64 -451h662l-21 -157h-661l-72 -504h746l-23 -162h-917zM543 1618l26 201h168l-26 -201h-168zM891 1618l27 201h167l-26 -201h-168z" glyph-name="Edieresis" horiz-adv-x="1183" unicode="Ë"/><glyph d="M485 1434l-200 -1434h-172l200 1434h172zM512 1561h-172l-268 303h233z" glyph-name="Igrave" horiz-adv-x="499" unicode="Ì"/><glyph d="M485 1434l-200 -1434h-172l200 1434h172zM492 1561h-173l273 303h254z" glyph-name="Iacute" horiz-adv-x="499" unicode="Í"/><glyph d="M485 1434l-200 -1434h-172l200 1434h172zM268 1563h-147l260 301h156l178 -301h-150l-131 153z" glyph-name="Icircumflex" horiz-adv-x="499" unicode="Î"/><glyph d="M485 1434l-200 -1434h-172l200 1434h172zM160 1618l26 201h168l-26 -201h-168zM508 1618l27 201h167l-26 -201h-168z" glyph-name="Idieresis" horiz-adv-x="499" unicode="Ï"/><glyph d="M776 1434q213 0 338 -108.5t125 -283.5q0 -125 -78 -596q-33 -199 -185.5 -322.5t-395.5 -123.5h-465l92 666h-123l22 157h123l86 611h461zM598 160q166 0 266.5 79.5t120.5 206.5q78 467 78 578t-81 180.5t-228 69.5h-289l-64 -451h301l-22 -157h-301l-70 -506h289z" glyph-name="Eth" horiz-adv-x="1286" unicode="Ð"/><glyph d="M1159 1434h170l-201 -1434h-202l-445 1063l-39 133l-12 -139l-147 -1057h-170l200 1434h203l447 -1065l36 -131l13 137zM708 1810q66 0 148 -43t106 -43t40 25t20 49h147q-12 -82 -74.5 -148.5t-126.5 -66.5t-147 43t-107 43t-42.5 -22.5t-24.5 -51.5h-143 q10 82 74 148.5t130 66.5z" glyph-name="Ntilde" horiz-adv-x="1343" unicode="Ñ"/><glyph d="M1272 1042q0 -96 -80 -596q-33 -201 -188.5 -333.5t-377.5 -132.5t-351.5 115.5t-129.5 291.5q0 125 80 600q33 201 187 334t378 133t353 -117t129 -295zM1094 1039q0 106 -79 183.5t-231 77.5t-259 -91t-128 -220q-80 -489 -80 -593t81 -183.5t233 -79.5t257.5 91 t125.5 220q80 489 80 595zM946 1561h-172l-268 303h233z" glyph-name="Ograve" horiz-adv-x="1316" unicode="Ò"/><glyph d="M1272 1042q0 -96 -80 -596q-33 -201 -188.5 -333.5t-377.5 -132.5t-351.5 115.5t-129.5 291.5q0 125 80 600q33 201 187 334t378 133t353 -117t129 -295zM1094 1039q0 106 -79 183.5t-231 77.5t-259 -91t-128 -220q-80 -489 -80 -593t81 -183.5t233 -79.5t257.5 91 t125.5 220q80 489 80 595zM895 1561h-172l272 303h254z" glyph-name="Oacute" horiz-adv-x="1316" unicode="Ó"/><glyph d="M1272 1042q0 -96 -80 -596q-33 -201 -188.5 -333.5t-377.5 -132.5t-351.5 115.5t-129.5 291.5q0 125 80 600q33 201 187 334t378 133t353 -117t129 -295zM1094 1039q0 106 -79 183.5t-231 77.5t-259 -91t-128 -220q-80 -489 -80 -593t81 -183.5t233 -79.5t257.5 91 t125.5 220q80 489 80 595zM670 1563h-148l260 301h156l178 -301h-149l-131 153z" glyph-name="Ocircumflex" horiz-adv-x="1316" unicode="Ô"/><glyph d="M1272 1042q0 -96 -80 -596q-33 -201 -188.5 -333.5t-377.5 -132.5t-351.5 115.5t-129.5 291.5q0 125 80 600q33 201 187 334t378 133t353 -117t129 -295zM1094 1039q0 106 -79 183.5t-231 77.5t-259 -91t-128 -220q-80 -489 -80 -593t81 -183.5t233 -79.5t257.5 91 t125.5 220q80 489 80 595zM718 1810q64 0 146 -43t106 -43t41 25t21 49h148q-12 -82 -75 -148.5t-127 -66.5t-146 43t-107 43t-43.5 -22.5t-24.5 -51.5h-143q10 82 75 148.5t129 66.5z" glyph-name="Otilde" horiz-adv-x="1316" unicode="Õ"/><glyph d="M1272 1042q0 -96 -80 -596q-33 -201 -188.5 -333.5t-377.5 -132.5t-351.5 115.5t-129.5 291.5q0 125 80 600q33 201 187 334t378 133t353 -117t129 -295zM1094 1039q0 106 -79 183.5t-231 77.5t-259 -91t-128 -220q-80 -489 -80 -593t81 -183.5t233 -79.5t257.5 91 t125.5 220q80 489 80 595zM578 1618l26 201h168l-27 -201h-167zM926 1618l26 201h168l-26 -201h-168z" glyph-name="Odieresis" horiz-adv-x="1316" unicode="Ö"/><glyph d="M242 203l-95 108l326 283l-248 289l123 108l248 -289l328 287l92 -108l-326 -287l242 -283l-123 -108l-244 282z" glyph-name="multiply" horiz-adv-x="1079" unicode="×"/><glyph d="M145 391q0 125 80 596q33 201 188.5 334t393.5 133q176 0 303 -90l51 70h166l-123 -164q68 -102 68 -213t-80 -611q-33 -199 -189.5 -332.5t-366.5 -133.5t-331 92l-55 -72h-164l125 166q-66 100 -66 225zM317 403q0 -35 11 -79l680 905q-86 71 -230 71t-252.5 -91 t-128.5 -220q-80 -459 -80 -586zM1094 996q0 67 -11 112l-680 -903q82 -72 231 -72t254.5 91t125.5 220q80 485 80 552z" glyph-name="Oslash" horiz-adv-x="1316" unicode="Ø"/><glyph d="M642 -20q-222 0 -350 114.5t-128 286.5q0 45 4 82l137 971h172l-131 -930q-8 -45 -8 -98q0 -113 83 -190t224 -77t256 84t139 258l136 953h172l-140 -988q-29 -205 -186.5 -335.5t-379.5 -130.5zM965 1561h-172l-269 303h234z" glyph-name="Ugrave" horiz-adv-x="1349" unicode="Ù"/><glyph d="M642 -20q-222 0 -350 114.5t-128 286.5q0 45 4 82l137 971h172l-131 -930q-8 -45 -8 -98q0 -113 83 -190t224 -77t256 84t139 258l136 953h172l-140 -988q-29 -205 -186.5 -335.5t-379.5 -130.5zM928 1561h-172l272 303h254z" glyph-name="Uacute" horiz-adv-x="1349" unicode="Ú"/><glyph d="M642 -20q-222 0 -350 114.5t-128 286.5q0 45 4 82l137 971h172l-131 -930q-8 -45 -8 -98q0 -113 83 -190t224 -77t256 84t139 258l136 953h172l-140 -988q-29 -205 -186.5 -335.5t-379.5 -130.5zM698 1563h-147l260 301h156l178 -301h-150l-131 153z" glyph-name="Ucircumflex" horiz-adv-x="1349" unicode="Û"/><glyph d="M642 -20q-222 0 -350 114.5t-128 286.5q0 45 4 82l137 971h172l-131 -930q-8 -45 -8 -98q0 -113 83 -190t224 -77t256 84t139 258l136 953h172l-140 -988q-29 -205 -186.5 -335.5t-379.5 -130.5zM594 1618l27 201h167l-26 -201h-168zM942 1618l27 201h168l-27 -201h-168z " glyph-name="Udieresis" horiz-adv-x="1349" unicode="Ü"/><glyph d="M377 1434l276 -680l463 680h199l-600 -852l-82 -582h-172l82 582l-363 852h197zM815 1561h-172l272 303h254z" glyph-name="Yacute" horiz-adv-x="1196" unicode="Ý"/><glyph d="M842 1249q158 0 240.5 -79.5t82.5 -189.5t-45 -345q-29 -145 -129 -233.5t-274 -88.5h-389l-43 -313h-172l200 1434h172l-24 -185h381zM989 952q0 137 -166 138h-385l-88 -617h385q176 0 211 156q14 68 28.5 182.5t14.5 140.5z" glyph-name="Thorn" horiz-adv-x="1171" unicode="Þ"/><glyph d="M622 129q93 0 160.5 38t67.5 137t-66.5 145.5t-134 94.5t-67.5 171q0 238 280 354q8 47 8 70q0 76 -55 123t-159 47t-170 -55.5t-78 -145.5l-156 -1108h-160l158 1122q20 145 131 238.5t281 93.5t267 -82t97 -207q0 -23 -4 -51l-16 -117q-262 -106 -263 -239 q0 -78 68 -123t107.5 -75t67.5 -84t28 -128q0 -362 -430 -362q-78 0 -183 18l-36 6l41 142q123 -23 216 -23z" glyph-name="germandbls" horiz-adv-x="1103" unicode="ß"/><glyph d="M907 -16q-135 0 -157 135q-86 -62 -178.5 -97.5t-157.5 -35.5q-143 0 -215 75t-72 191t59 461q25 147 133.5 239t290.5 92q94 0 194.5 -14t153.5 -31l52 -14l-101 -737q-4 -29 -4 -49q0 -68 62 -68h32l-6 -139q-49 -8 -86 -8zM289 303q0 -80 40 -126t108 -46t146.5 41 t125.5 82l49 41l82 577q-86 27 -218 27t-198 -56.5t-80 -142.5q-55 -317 -55 -397zM786 1151h-172l-268 303h234z" glyph-name="agrave" unicode="à"/><glyph d="M907 -16q-135 0 -157 135q-86 -62 -178.5 -97.5t-157.5 -35.5q-143 0 -215 75t-72 191t59 461q25 147 133.5 239t290.5 92q94 0 194.5 -14t153.5 -31l52 -14l-101 -737q-4 -29 -4 -49q0 -68 62 -68h32l-6 -139q-49 -8 -86 -8zM289 303q0 -80 40 -126t108 -46t146.5 41 t125.5 82l49 41l82 577q-86 27 -218 27t-198 -56.5t-80 -142.5q-55 -317 -55 -397zM741 1151h-172l273 303h254z" glyph-name="aacute" unicode="á"/><glyph d="M907 -16q-135 0 -157 135q-86 -62 -178.5 -97.5t-157.5 -35.5q-143 0 -215 75t-72 191t59 461q25 147 133.5 239t290.5 92q94 0 194.5 -14t153.5 -31l52 -14l-101 -737q-4 -29 -4 -49q0 -68 62 -68h32l-6 -139q-49 -8 -86 -8zM289 303q0 -80 40 -126t108 -46t146.5 41 t125.5 82l49 41l82 577q-86 27 -218 27t-198 -56.5t-80 -142.5q-55 -317 -55 -397zM516 1153h-147l260 301h155l179 -301h-150l-131 154z" glyph-name="acircumflex" unicode="â"/><glyph d="M907 -16q-135 0 -157 135q-86 -62 -178.5 -97.5t-157.5 -35.5q-143 0 -215 75t-72 191t59 461q25 147 133.5 239t290.5 92q94 0 194.5 -14t153.5 -31l52 -14l-101 -737q-4 -29 -4 -49q0 -68 62 -68h32l-6 -139q-49 -8 -86 -8zM289 303q0 -80 40 -126t108 -46t146.5 41 t125.5 82l49 41l82 577q-86 27 -218 27t-198 -56.5t-80 -142.5q-55 -317 -55 -397zM562 1401q64 0 146.5 -43t106.5 -43t40.5 24.5t21.5 49.5h147q-12 -82 -75 -148.5t-127 -66.5t-146 43t-107 43t-43 -22.5t-24 -51.5h-144q10 82 75 148.5t129 66.5z" glyph-name="atilde" unicode="ã"/><glyph d="M907 -16q-135 0 -157 135q-86 -62 -178.5 -97.5t-157.5 -35.5q-143 0 -215 75t-72 191t59 461q25 147 133.5 239t290.5 92q94 0 194.5 -14t153.5 -31l52 -14l-101 -737q-4 -29 -4 -49q0 -68 62 -68h32l-6 -139q-49 -8 -86 -8zM289 303q0 -80 40 -126t108 -46t146.5 41 t125.5 82l49 41l82 577q-86 27 -218 27t-198 -56.5t-80 -142.5q-55 -317 -55 -397zM403 1208l27 201h168l-27 -201h-168zM752 1208l26 201h168l-26 -201h-168z" glyph-name="adieresis" unicode="ä"/><glyph d="M907 -16q-135 0 -157 135q-86 -62 -178.5 -97.5t-157.5 -35.5q-143 0 -215 75t-72 191t59 461q25 147 133.5 239t290.5 92q94 0 194.5 -14t153.5 -31l52 -14l-101 -737q-4 -29 -4 -49q0 -68 62 -68h32l-6 -139q-49 -8 -86 -8zM289 303q0 -80 40 -126t108 -46t146.5 41 t125.5 82l49 41l82 577q-86 27 -218 27t-198 -56.5t-80 -142.5q-55 -317 -55 -397zM504 1270q0 74 61.5 137t138.5 63t120.5 -44t43.5 -116t-62.5 -136t-139.5 -64t-119.5 43t-42.5 117zM610 1285q0 -32 18.5 -51.5t49.5 -19.5t57.5 25t26.5 57t-18.5 51t-49.5 19 t-57.5 -24.5t-26.5 -56.5z" glyph-name="aring" unicode="å"/><glyph d="M1251 1044q143 0 234.5 -78.5t91.5 -204.5t-79 -201t-218 -118l-358 -112q-2 -27 -2 -33q0 -72 51 -122t138 -50q175 0 296 31l43 10l2 -137q-137 -49 -357 -49t-302 147q-231 -141 -375 -141t-216.5 75t-72.5 191t59 461q25 147 133.5 239t290.5 92q94 0 179 -25.5 t124 -51.5l37 -25q35 35 127 68.5t174 33.5zM289 303q0 -80 40 -126t108 -46t146.5 41t125.5 82l49 41v10q10 137 73 529q-78 66 -241 65q-102 0 -167 -57.5t-79 -141.5q-55 -317 -55 -397zM1409 741q0 66 -50 112t-141 46t-161 -58.5t-82 -140.5l-35 -215l350 117 q119 41 119 139z" glyph-name="ae" horiz-adv-x="1605" unicode="æ"/><glyph d="M643 -190q0 -88 -52 -143.5t-149 -55.5l-155 12l18 88q72 -8 117 -8q96 0 96 84q0 51 -74 51h-82l52 146q-133 14 -203 91t-70 187t60 451q25 143 137.5 237t288.5 94q132 0 237 -18l35 -6l-35 -146q-136 25 -246 25t-178.5 -57.5t-81.5 -136.5q-55 -322 -55 -401 t49.5 -129t133.5 -50q166 0 255 25l33 8v-144q-109 -27 -248 -32l-20 -64q137 0 137 -108z" glyph-name="ccedilla" horiz-adv-x="835" unicode="ç"/><glyph d="M465 -20q-156 0 -247 78.5t-91 207.5t59 447q27 141 142.5 236t275.5 95t251 -78.5t91 -204.5t-79 -201t-218 -118l-358 -112q-2 -27 -2 -33q0 -72 51 -122t138 -50q175 0 296 31l43 10l2 -137q-137 -49 -354 -49zM782 741q0 158 -190 158q-96 0 -166 -58.5t-82 -140.5 l-35 -215l350 117q123 43 123 139zM725 1151h-172l-268 303h233z" glyph-name="egrave" horiz-adv-x="974" unicode="è"/><glyph d="M465 -20q-156 0 -247 78.5t-91 207.5t59 447q27 141 142.5 236t275.5 95t251 -78.5t91 -204.5t-79 -201t-218 -118l-358 -112q-2 -27 -2 -33q0 -72 51 -122t138 -50q175 0 296 31l43 10l2 -137q-137 -49 -354 -49zM782 741q0 158 -190 158q-96 0 -166 -58.5t-82 -140.5 l-35 -215l350 117q123 43 123 139zM688 1151h-172l272 303h254z" glyph-name="eacute" horiz-adv-x="974" unicode="é"/><glyph d="M465 -20q-156 0 -247 78.5t-91 207.5t59 447q27 141 142.5 236t275.5 95t251 -78.5t91 -204.5t-79 -201t-218 -118l-358 -112q-2 -27 -2 -33q0 -72 51 -122t138 -50q175 0 296 31l43 10l2 -137q-137 -49 -354 -49zM782 741q0 158 -190 158q-96 0 -166 -58.5t-82 -140.5 l-35 -215l350 117q123 43 123 139zM475 1153h-147l260 301h155l179 -301h-150l-131 154z" glyph-name="ecircumflex" horiz-adv-x="974" unicode="ê"/><glyph d="M465 -20q-156 0 -247 78.5t-91 207.5t59 447q27 141 142.5 236t275.5 95t251 -78.5t91 -204.5t-79 -201t-218 -118l-358 -112q-2 -27 -2 -33q0 -72 51 -122t138 -50q175 0 296 31l43 10l2 -137q-137 -49 -354 -49zM782 741q0 158 -190 158q-96 0 -166 -58.5t-82 -140.5 l-35 -215l350 117q123 43 123 139zM358 1208l27 201h168l-27 -201h-168zM707 1208l26 201h168l-27 -201h-167z" glyph-name="edieresis" horiz-adv-x="974" unicode="ë"/><glyph d="M309 -16q-166 0 -166 186q0 37 7 80l110 774h158l-107 -743q-8 -73 -8 -95t15.5 -38.5t52.5 -16.5h26l-6 -139q-55 -8 -82 -8zM461 1151h-172l-269 303h234z" glyph-name="igrave" horiz-adv-x="479" unicode="ì"/><glyph d="M309 -16q-166 0 -166 186q0 37 7 80l110 774h158l-107 -743q-8 -73 -8 -95t15.5 -38.5t52.5 -16.5h26l-6 -139q-55 -8 -82 -8zM444 1151h-172l273 303h254z" glyph-name="iacute" horiz-adv-x="479" unicode="í"/><glyph d="M309 -16q-166 0 -166 186q0 37 7 80l110 774h158l-107 -743q-8 -73 -8 -95t15.5 -38.5t52.5 -16.5h26l-6 -139q-55 -8 -82 -8zM215 1153h-147l260 301h155l179 -301h-150l-131 154z" glyph-name="icircumflex" horiz-adv-x="479" unicode="î"/><glyph d="M309 -16q-166 0 -166 186q0 37 7 80l110 774h158l-107 -743q-8 -73 -8 -95t15.5 -38.5t52.5 -16.5h26l-6 -139q-55 -8 -82 -8zM102 1208l27 201h168l-27 -201h-168zM451 1208l26 201h168l-27 -201h-167z" glyph-name="idieresis" horiz-adv-x="479" unicode="ï"/><glyph d="M999 938q-1 -38 -31 -274t-52 -366t-140.5 -224t-293.5 -94t-269 81t-94 197t47 383q25 143 142.5 237.5t305.5 94.5q88 0 197 -33l35 -10q2 25 2 37q0 90 -41 163l-191 -79l23 153l86 37q-78 63 -172 64l-111 -2l11 145q82 6 102 6q211 0 328 -147l192 82l-20 -154 l-105 -45q49 -119 49 -252zM613 827q-130 0 -200.5 -55t-86.5 -139q-45 -229 -45 -321t55.5 -139.5t159.5 -47.5t178 58.5t86 135.5l63 461q-80 47 -210 47z" glyph-name="eth" horiz-adv-x="1054" unicode="ð"/><glyph d="M844 741q0 70 -36 114t-104 44t-146.5 -24.5t-123.5 -49.5l-47 -24l-113 -801h-159l145 1024h152l-4 -70q158 90 307 90t220 -73.5t71 -196.5q0 -20 -5 -61l-61 -432q-8 -73 -8 -95t15.5 -38.5t51.5 -16.5h27l-6 -139q-55 -8 -82 -8q-166 0 -166 186q0 37 6 80l64 450 q2 14 2 41zM520 1401q65 0 147.5 -43t105.5 -43t39.5 24.5t21.5 49.5h147q-12 -82 -74.5 -148.5t-126.5 -66.5t-146.5 43t-107.5 43t-43 -22.5t-24 -51.5h-144q10 82 75 148.5t130 66.5z" glyph-name="ntilde" horiz-adv-x="1089" unicode="ñ"/><glyph d="M498 -20q-176 0 -273.5 82.5t-97.5 206.5t57 444q27 143 144.5 237t293.5 94t274.5 -83.5t98.5 -212.5q0 -89 -57 -437q-25 -141 -144.5 -236t-295.5 -95zM834 725q0 76 -57.5 125t-163.5 49t-180.5 -55.5t-90.5 -138.5q-53 -270 -53 -406q0 -76 59.5 -125t165.5 -49 t178 55.5t88 138.5q54 271 54 406zM741 1151h-172l-268 303h234z" glyph-name="ograve" horiz-adv-x="1044" unicode="ò"/><glyph d="M498 -20q-176 0 -273.5 82.5t-97.5 206.5t57 444q27 143 144.5 237t293.5 94t274.5 -83.5t98.5 -212.5q0 -89 -57 -437q-25 -141 -144.5 -236t-295.5 -95zM834 725q0 76 -57.5 125t-163.5 49t-180.5 -55.5t-90.5 -138.5q-53 -270 -53 -406q0 -76 59.5 -125t165.5 -49 t178 55.5t88 138.5q54 271 54 406zM731 1151h-172l272 303h254z" glyph-name="oacute" horiz-adv-x="1044" unicode="ó"/><glyph d="M498 -20q-176 0 -273.5 82.5t-97.5 206.5t57 444q27 143 144.5 237t293.5 94t274.5 -83.5t98.5 -212.5q0 -89 -57 -437q-25 -141 -144.5 -236t-295.5 -95zM834 725q0 76 -57.5 125t-163.5 49t-180.5 -55.5t-90.5 -138.5q-53 -270 -53 -406q0 -76 59.5 -125t165.5 -49 t178 55.5t88 138.5q54 271 54 406zM510 1153h-148l261 301h155l178 -301h-149l-131 154z" glyph-name="ocircumflex" horiz-adv-x="1044" unicode="ô"/><glyph d="M498 -20q-176 0 -273.5 82.5t-97.5 206.5t57 444q27 143 144.5 237t293.5 94t274.5 -83.5t98.5 -212.5q0 -89 -57 -437q-25 -141 -144.5 -236t-295.5 -95zM834 725q0 76 -57.5 125t-163.5 49t-180.5 -55.5t-90.5 -138.5q-53 -270 -53 -406q0 -76 59.5 -125t165.5 -49 t178 55.5t88 138.5q54 271 54 406zM566 1401q66 0 147.5 -43t104.5 -43t39.5 24.5t21.5 49.5h147q-12 -82 -75 -148.5t-127 -66.5t-146 43t-107 43t-43 -22.5t-24 -51.5h-144q10 82 75 148.5t131 66.5z" glyph-name="otilde" horiz-adv-x="1044" unicode="õ"/><glyph d="M498 -20q-176 0 -273.5 82.5t-97.5 206.5t57 444q27 143 144.5 237t293.5 94t274.5 -83.5t98.5 -212.5q0 -89 -57 -437q-25 -141 -144.5 -236t-295.5 -95zM834 725q0 76 -57.5 125t-163.5 49t-180.5 -55.5t-90.5 -138.5q-53 -270 -53 -406q0 -76 59.5 -125t165.5 -49 t178 55.5t88 138.5q54 271 54 406zM395 1208l27 201h168l-27 -201h-168zM743 1208l27 201h168l-27 -201h-168z" glyph-name="odieresis" horiz-adv-x="1044" unicode="ö"/><glyph d="M475 176l29 203h205l-29 -203h-205zM567 829l29 203h205l-29 -203h-205zM195 676h905l-21 -154h-905z" glyph-name="divide" horiz-adv-x="1191" unicode="÷"/><glyph d="M127 287q0 106 57 426q27 143 144.5 237t300.5 94q135 0 225 -55l27 35h155l-90 -117q49 -71 49 -159t-57 -437q-25 -141 -144.5 -236t-275.5 -95t-250 51l-22 -31h-154l86 111q-51 70 -51 176zM289 299q0 -27 4 -39l465 604q-53 35 -152 35t-173.5 -55.5t-90.5 -138.5 q-53 -271 -53 -406zM834 725q0 12 -5 33l-460 -600q55 -33 153 -33t170 55.5t88 138.5q54 271 54 406z" glyph-name="oslash" horiz-adv-x="1052" unicode="ø"/><glyph d="M428 -14q-143 0 -217 74.5t-74 195.5l4 61l101 707h159l-100 -694q-2 -14 -2 -37q0 -72 38 -117t110 -45t150.5 41t123.5 82l47 41l102 729h160l-110 -776q-4 -37 -5 -49q0 -68 62 -68h33l-6 -139q-49 -8 -86 -8q-135 0 -158 135q-67 -52 -163.5 -92.5t-168.5 -40.5z M752 1151h-172l-269 303h234z" glyph-name="ugrave" horiz-adv-x="1064" unicode="ù"/><glyph d="M428 -14q-143 0 -217 74.5t-74 195.5l4 61l101 707h159l-100 -694q-2 -14 -2 -37q0 -72 38 -117t110 -45t150.5 41t123.5 82l47 41l102 729h160l-110 -776q-4 -37 -5 -49q0 -68 62 -68h33l-6 -139q-49 -8 -86 -8q-135 0 -158 135q-67 -52 -163.5 -92.5t-168.5 -40.5z M713 1151h-172l272 303h254z" glyph-name="uacute" horiz-adv-x="1064" unicode="ú"/><glyph d="M428 -14q-143 0 -217 74.5t-74 195.5l4 61l101 707h159l-100 -694q-2 -14 -2 -37q0 -72 38 -117t110 -45t150.5 41t123.5 82l47 41l102 729h160l-110 -776q-4 -37 -5 -49q0 -68 62 -68h33l-6 -139q-49 -8 -86 -8q-135 0 -158 135q-67 -52 -163.5 -92.5t-168.5 -40.5z M494 1153h-148l260 301h156l178 -301h-149l-132 154z" glyph-name="ucircumflex" horiz-adv-x="1064" unicode="û"/><glyph d="M428 -14q-143 0 -217 74.5t-74 195.5l4 61l101 707h159l-100 -694q-2 -14 -2 -37q0 -72 38 -117t110 -45t150.5 41t123.5 82l47 41l102 729h160l-110 -776q-4 -37 -5 -49q0 -68 62 -68h33l-6 -139q-49 -8 -86 -8q-135 0 -158 135q-67 -52 -163.5 -92.5t-168.5 -40.5z M395 1208l27 201h168l-27 -201h-168zM743 1208l27 201h168l-27 -201h-168z" glyph-name="udieresis" horiz-adv-x="1064" unicode="ü"/><glyph d="M170 389q0 18 8 92l78 543h154l-78 -549q-4 -29 -4 -80t34.5 -97t109.5 -46t152.5 23.5t120.5 48.5l41 22l101 678h153l-155 -1065q-20 -145 -139.5 -246.5t-277.5 -101.5t-243.5 58.5t-85.5 168.5q0 70 42 130.5t112 97.5l98 53q-221 30 -221 270zM307 -141 q0 -41 41 -74t103 -33q115 0 192.5 63.5t89.5 149.5l33 221q-29 -31 -88 -63l-299 -160q-72 -41 -72 -104zM731 1151h-172l272 303h254z" glyph-name="yacute" horiz-adv-x="1056" unicode="ý"/><glyph d="M720 1044q148 0 219 -74.5t71 -194.5t-58 -456q-25 -147 -133 -241t-291 -94q-84 0 -213 28l-34 11l-56 -392h-157l254 1805h157l-67 -484q160 92 308 92zM850 727q0 172 -154 172q-59 0 -136 -25.5t-124 -50.5l-47 -24l-88 -627q84 -43 248 -43q100 0 166 59.5t80 143.5 q55 311 55 395z" glyph-name="thorn" horiz-adv-x="1058" unicode="þ"/><glyph d="M170 389q0 18 8 92l78 543h154l-78 -549q-4 -29 -4 -80t34.5 -97t109.5 -46t152.5 23.5t120.5 48.5l41 22l101 678h153l-155 -1065q-20 -145 -139.5 -246.5t-277.5 -101.5t-243.5 58.5t-85.5 168.5q0 70 42 130.5t112 97.5l98 53q-221 30 -221 270zM307 -141 q0 -41 41 -74t103 -33q115 0 192.5 63.5t89.5 149.5l33 221q-29 -31 -88 -63l-299 -160q-72 -41 -72 -104zM403 1208l27 201h168l-27 -201h-168zM752 1208l26 201h168l-26 -201h-168z" glyph-name="ydieresis" horiz-adv-x="1056" unicode="ÿ"/><glyph d="M309 -16q-166 0 -166 186q0 37 7 80l110 774h158l-107 -743q-8 -73 -8 -95t15.5 -38.5t52.5 -16.5h26l-6 -139q-55 -8 -82 -8z" glyph-name="dotlessi" horiz-adv-x="479" unicode="ı"/><glyph d="M78 635l135 70l102 729h174l-88 -631l441 231l-25 -176l-440 -231l-66 -465h645l-22 -162h-819l73 528l-135 -69z" glyph-name="Lslash" horiz-adv-x="1026" unicode="Ł"/><glyph d="M303 186q0 -22 15.5 -38.5t52.5 -16.5h26l-6 -139q-55 -8 -82 -8q-166 0 -166 186q0 37 7 80l51 364l-125 -65l22 166l127 65l92 654h158l-80 -564l193 103l-25 -166l-192 -102l-60 -424q-8 -73 -8 -95z" glyph-name="lslash" horiz-adv-x="520" unicode="ł"/><glyph d="M799 1434h1112l-23 -160h-682l-63 -451h618l-20 -157h-619l-71 -504h702l-22 -162h-1123q-215 0 -339 107.5t-124 281.5q0 106 80 598q33 197 187 322t387 125zM631 160h246l155 1114h-246q-158 0 -261.5 -81t-123.5 -206q-77 -442 -77 -566t79.5 -192.5t227.5 -68.5z " glyph-name="OE" horiz-adv-x="1884" unicode="Œ"/><glyph d="M1115 -20q-210 0 -298 124q-125 -124 -314 -124t-282.5 81.5t-93.5 206.5t57 445q27 145 140.5 238t311.5 93t294 -133q127 133 334 133q143 0 232 -78.5t89 -204.5t-77.5 -201t-215.5 -118l-358 -112q-2 -27 -2 -33q0 -72 51 -122t138 -50q175 0 296 31l43 10l2 -137 q-137 -49 -347 -49zM823 744q0 64 -56 109.5t-162 45.5t-176.5 -55.5t-86.5 -138.5q-53 -270 -53 -406q0 -78 55 -126t162 -48t177.5 52t82.5 136q57 367 57 431zM1234 899q-95 0 -166 -58.5t-83 -140.5l-33 -215l351 117q119 41 118 139q0 74 -46 116t-141 42z" glyph-name="oe" horiz-adv-x="1613" unicode="œ"/><glyph d="M385 1036q0 -74 53.5 -123t132 -70.5t171 -50t171 -59.5t132 -102.5t53.5 -175.5q0 -475 -574 -475q-225 0 -434 51l31 153l55 -12q182 -33 356 -33t280 57.5t106 213.5q0 78 -52.5 129t-132.5 72.5t-171 50t-171 59.5t-132 102.5t-52 177.5q0 215 144.5 334t394.5 119 t395 -47l-29 -152l-59 11q-200 28 -345 28t-234 -67.5t-89 -190.5zM463 1864h147l123 -154l174 154h150l-264 -301h-156z" glyph-name="Scaron" horiz-adv-x="1183" unicode="Š"/><glyph d="M556 899q-99 0 -162.5 -39t-63.5 -121q0 -53 51 -85.5t124 -52t146.5 -44.5t124.5 -80t51 -143q0 -188 -118.5 -271t-300.5 -83t-328 49l39 139l41 -10q142 -33 248 -33q256 0 256 170q0 57 -51.5 91t-124 53.5t-145.5 44t-124 78.5t-51 143q0 170 113.5 254.5 t283.5 84.5t297 -36l-37 -142l-41 8q-129 25 -228 25zM307 1454h148l123 -154l174 154h149l-264 -301h-156z" glyph-name="scaron" horiz-adv-x="903" unicode="š"/><glyph d="M377 1434l276 -680l463 680h199l-600 -852l-82 -582h-172l82 582l-363 852h197zM506 1618l26 201h168l-26 -201h-168zM854 1618l27 201h168l-27 -201h-168z" glyph-name="Ydieresis" horiz-adv-x="1196" unicode="Ÿ"/><glyph d="M274 160h797l-22 -160h-998l25 172l938 1094v8h-768l22 160h973l-24 -172l-943 -1094v-8zM477 1864h148l123 -154l174 154h149l-264 -301h-156z" glyph-name="Zcaron" horiz-adv-x="1202" unicode="Ž"/><glyph d="M840 180q0 -14 -4 -47l-29 -190q-23 -143 -143.5 -237.5t-301.5 -94.5q-133 0 -214.5 59.5t-81.5 161.5q-1 150 157 242l371 213q-45 29 -123 28h-176l27 154l385 410h-486l21 145h676l-21 -158l-397 -405q152 -2 246 -82t94 -199zM233 -131q0 -51 40 -84t104 -33 q106 0 186 60.5t92 140.5l35 231q-31 -31 -80 -57l-303 -164q-74 -43 -74 -94zM338 1454h147l123 -154l174 154h150l-264 -301h-156z" glyph-name="zcaron" horiz-adv-x="948" unicode="ž"/><glyph d="M242 -387q-74 0 -148 14l-22 4l28 140q49 -12 146 -13q111 0 129 150l110 827h-155l18 146h156l39 290q16 127 100 205t217 78q71 0 152 -12l28 -6l-30 -140q-74 12 -170 13q-121 0 -140 -150l-36 -278h292l-18 -146h-293l-113 -856q-16 -119 -89.5 -192.5t-200.5 -73.5z " glyph-name="florin" horiz-adv-x="899" unicode="ƒ"/><glyph d="M217 1153h-147l260 301h155l179 -301h-150l-131 154z" glyph-name="circumflex" horiz-adv-x="593" unicode="ˆ"/><glyph d="M113 1454h147l123 -154l174 154h150l-265 -301h-155z" glyph-name="caron" horiz-adv-x="593" unicode="ˇ"/><glyph d="M258 1401q0 -23 21.5 -51.5t54.5 -28.5h90q37 0 67.5 34t36.5 79h152q-14 -109 -98 -184.5t-183 -75.5h-84q-90 0 -149.5 62t-59.5 159l3 39h151q-2 -10 -2 -33z" glyph-name="breve" horiz-adv-x="571" unicode="˘"/><glyph d="M78 1208l26 201h168l-26 -201h-168z" glyph-name="dotaccent" horiz-adv-x="167" unicode="˙"/><glyph d="M68 1270q0 74 61 137t138 63t121 -44t44 -116t-62.5 -136t-138.5 -64t-119.5 43t-43.5 117zM174 1285q0 -32 19.5 -51.5t49.5 -19.5t56.5 25t26.5 57t-19.5 51t-49.5 19t-56.5 -24.5t-26.5 -56.5z" glyph-name="ring" horiz-adv-x="323" unicode="˚"/><glyph d="M288 -387q-70 0 -111.5 41t-41.5 102.5t46 122t88 91t48 30.5h146q-66 -52 -116 -113t-50 -102t45 -41l96 12v-116q-80 -27 -150 -27z" glyph-name="ogonek" horiz-adv-x="464" unicode="˛"/><glyph d="M280 1401q64 0 146 -43t106 -43t41 24.5t21 49.5h147q-12 -82 -74.5 -148.5t-126.5 -66.5t-147 43t-107 43t-42.5 -22.5t-24.5 -51.5h-143q10 82 75 148.5t129 66.5z" glyph-name="tilde" horiz-adv-x="636" unicode="˜"/><glyph d="M252 1151h-182l303 303h233zM627 1151h-183l304 303h233z" glyph-name="hungarumlaut" horiz-adv-x="868" unicode="˝"/><glyph d="M850 676l-21 -154h-798l20 154h799z" glyph-name="endash" horiz-adv-x="798" unicode="–"/><glyph d="M1649 676l-21 -154h-1597l20 154h1598z" glyph-name="emdash" horiz-adv-x="1597" unicode="—"/><glyph d="M297 1194l-29 -201h-174l27 185q18 141 86.5 198.5t142.5 57.5l-10 -78q-45 0 -73.5 -37t-37.5 -92l-2 -33h70z" glyph-name="quoteleft" horiz-adv-x="329" unicode="‘"/><glyph d="M246 1233l28 201h175l-27 -185q-18 -141 -87 -198.5t-142 -57.5l10 78q45 0 73.5 37t36.5 92l2 33h-69z" glyph-name="quoteright" horiz-adv-x="372" unicode="’"/><glyph d="M115 0l28 201h174l-26 -185q-18 -141 -87 -198.5t-143 -57.5l11 78q45 0 73.5 37t36.5 92l2 33h-69z" glyph-name="quotesinglbase" horiz-adv-x="421" unicode="‚"/><glyph d="M608 1194l-28 -201h-174l26 185q18 141 87 198.5t143 57.5l-11 -78q-45 0 -73.5 -37t-36.5 -92l-2 -33h69zM297 1194l-29 -201h-174l27 185q18 141 86.5 198.5t142.5 57.5l-10 -78q-45 0 -73.5 -37t-37.5 -92l-2 -33h70z" glyph-name="quotedblleft" horiz-adv-x="641" unicode="“"/><glyph d="M246 1233l28 201h175l-27 -185q-18 -141 -87 -198.5t-142 -57.5l10 78q45 0 73.5 37t36.5 92l2 33h-69zM557 1233l29 201h174l-27 -185q-18 -141 -86.5 -198.5t-142.5 -57.5l10 78q45 0 73.5 37t37.5 92l2 33h-70z" glyph-name="quotedblright" horiz-adv-x="684" unicode="”"/><glyph d="M115 0l28 201h174l-26 -185q-18 -141 -87 -198.5t-143 -57.5l11 78q45 0 73.5 37t36.5 92l2 33h-69zM426 0l29 201h174l-27 -185q-18 -141 -87 -198.5t-142 -57.5l10 78q45 0 73.5 37t37.5 92l2 33h-70z" glyph-name="quotedblbase" horiz-adv-x="733" unicode="„"/><glyph d="M735 879l-176 -1248h-160l176 1248h-366l20 145h367l57 410h160l-57 -410h383l-21 -145h-383z" glyph-name="dagger" horiz-adv-x="1155" unicode="†"/><glyph d="M1020 186l-21 -145h-383l-57 -410h-160l58 410h-367l21 145h366l98 693h-366l20 145h367l57 410h160l-57 -410h383l-21 -145h-383l-98 -693h383z" glyph-name="daggerdbl" horiz-adv-x="1155" unicode="‡"/><glyph d="M154 734q0 128 90 219t218 91t219 -91t91 -219t-91 -218t-219 -90t-218 90t-90 218z" glyph-name="bullet" horiz-adv-x="925" unicode="•"/><glyph d="M156 0l28 201h168l-28 -201h-168zM651 0l29 201h168l-29 -201h-168zM1147 0l29 201h167l-28 -201h-168z" glyph-name="ellipsis" horiz-adv-x="1486" unicode="…"/><glyph d="M530 696q-132 0 -207 67.5t-75 178.5q0 29 4 57l24 168q20 133 113 210t223 77t206.5 -66.5t76.5 -175.5q0 -31 -2 -45l-27 -184q-20 -135 -112 -211t-224 -76zM745 1225q0 42 -38.5 73t-106.5 31t-116 -38t-58 -107l-27 -189q-4 -33 -4 -53q0 -121 140 -121q72 0 122 36 t58 104l28 204q2 18 2 60zM453 0l854 1434h151l-850 -1434h-155zM1300 -25q-132 0 -207 68t-75 178q0 29 4 58l25 167q20 133 112.5 210t222.5 77t206.5 -66.5t76.5 -174.5q0 -32 -2 -46l-27 -184q-20 -135 -112 -211t-224 -76zM1370 608q-68 0 -116 -38t-58 -107l-27 -189 q-4 -33 -4 -53q0 -121 140 -121q72 0 122 36t58 104l28 204q3 18 3 60t-39 73t-107 31zM2036 -25q-132 0 -206.5 68t-74.5 178q0 29 4 58l25 167q20 133 113.5 210t222.5 77t205.5 -66.5t76.5 -174.5q0 -32 -2 -46l-26 -184q-20 -135 -113 -211t-225 -76zM2253 504 q0 42 -39 73t-107 31t-115.5 -38t-58.5 -107l-26 -189q-4 -33 -4 -53q0 -121 139 -121q72 0 122 36t58 104l29 204q2 18 2 60z" glyph-name="perthousand" horiz-adv-x="2549" unicode="‰"/><glyph d="M561 272h-182l-205 324l295 326h180l-297 -326z" glyph-name="guilsinglleft" horiz-adv-x="708" unicode="‹"/><glyph d="M322 272h-181l297 324l-209 326h183l204 -326z" glyph-name="guilsinglright" horiz-adv-x="708" unicode="›"/><glyph d="M-199 0l852 1434h142l-848 -1434h-146z" glyph-name="fraction" horiz-adv-x="501" unicode="⁄"/><glyph d="M406 406q0 -115 78.5 -191t224.5 -76q84 0 249 21l50 8l-15 -152q-141 -37 -307 -36q-213 0 -336 114.5t-123 292.5l9 109h-136l19 137h133l22 158h-133l21 139h135l10 57q37 209 192.5 338t385.5 129q151 0 262 -24l37 -11l-27 -151q-159 26 -301 26t-245 -87t-128 -220 l-10 -57h506l-21 -139h-507l-23 -158h455l-19 -137h-452q-6 -51 -6 -90z" glyph-name="Euro" horiz-adv-x="1165" unicode="€"/><glyph d="M254 1325l14 109h490l-15 -109h-188l-86 -606h-115l86 606h-186zM1493 1434l-100 -715h-115l72 510l-181 -232h-104l-107 232l-71 -510h-117l100 715h127l140 -314l229 314h127z" glyph-name="trademark" horiz-adv-x="1552" unicode="™"/><glyph d="M195 676h905l-21 -154h-905z" glyph-name="minus" horiz-adv-x="1191" unicode="−"/><glyph d="M954 -16q-166 0 -166 186q0 37 7 80l90 629h-439l-172 -1248h-159l172 1248h-156l21 145h155l21 147q16 127 101 205t218 78q69 0 168 -12l31 -6l-29 -140q-96 12 -192 13q-117 0 -140 -150l-18 -135h596l-107 -743q-8 -73 -8 -95t15.5 -38.5t52.5 -16.5h26l-6 -139 q-55 -8 -82 -8zM934 1233l27 201h169l-26 -201h-170z" glyph-name="uniFB01" horiz-adv-x="1124" unicode="ﬁ"/><glyph d="M958 -16q-166 0 -165 186q0 37 6 80l147 1048q-182 10 -321 11q-117 0 -140 -150l-18 -135h293l-21 -145h-293l-172 -1248h-159l172 1248h-156l21 145h155l21 147q16 127 101 205t218 78q179 0 395 -16l82 -4l-163 -1153q-9 -73 -9 -95t15.5 -38.5t52.5 -16.5h27l-7 -139 q-55 -8 -82 -8z" glyph-name="uniFB02" horiz-adv-x="1124" unicode="ﬂ"/></font>
</defs>
</svg>
